# MagicaVoxel @ Ephtracy

# group
o 

# material
mtllib server.mtl
usemtl palette

# normals
vn -1 0 0
vn 1 0 0
vn 0 0 1
vn 0 0 -1
vn 0 -1 0
vn 0 1 0

# texcoords
vt 0.00585938 0.5
vt 0.00976562 0.5
vt 0.0175781 0.5
vt 0.123047 0.5
vt 0.216797 0.5

# verts
v -0.8 0 1
v -0.8 0 -1
v -0.8 0.1 0.9
v -0.8 0.1 -0.9
v -0.8 4.9 0.9
v -0.8 4.9 -0.9
v -0.8 5 1
v -0.8 5 -1
v 0.8 0 1
v 0.8 0 -1
v 0.8 0.1 0.9
v 0.8 0.1 -0.9
v 0.8 0.2 -0.1
v 0.8 0.2 -0.9
v 0.8 0.2 -1
v 0.8 0.3 -0.1
v 0.8 0.3 -0.9
v 0.8 0.3 -1
v 0.8 0.9 0.7
v 0.8 0.9 -0.7
v 0.8 1 0.7
v 0.8 1 -0.7
v 0.8 1.1 0.6
v 0.8 1.1 0.5
v 0.8 1.1 0.2
v 0.8 1.1 0.1
v 0.8 1.1 -0.3
v 0.8 1.1 -0.4
v 0.8 1.2 0.2
v 0.8 1.2 0.1
v 0.8 1.3 0.6
v 0.8 1.3 0.5
v 0.8 1.3 -0.3
v 0.8 1.3 -0.4
v 0.8 1.6 0.7
v 0.8 1.6 -0.7
v 0.8 1.7 0.7
v 0.8 1.7 -0.7
v 0.8 2 0.5
v 0.8 2 0.4
v 0.8 2 0.3
v 0.8 2 0.2
v 0.8 2 0.1
v 0.8 2 0
v 0.8 2.1 0.5
v 0.8 2.1 0.4
v 0.8 2.1 0.3
v 0.8 2.1 0.2
v 0.8 2.1 0.1
v 0.8 2.1 0
v 0.8 3.4 0.7
v 0.8 3.4 0.6
v 0.8 3.5 0.7
v 0.8 3.5 0.6
v 0.8 3.7 0.7
v 0.8 3.7 0.6
v 0.8 4.3 0.7
v 0.8 4.3 0.6
v 0.8 4.4 0.7
v 0.8 4.4 0.6
v 0.8 4.5 0.7
v 0.8 4.5 0.6
v 0.8 4.6 0.7
v 0.8 4.6 0.6
v 0.8 4.7 0.7
v 0.8 4.7 0.6
v 0.8 4.9 0.9
v 0.8 4.9 -0.9
v 0.8 5 1
v 0.8 5 -1
v -0.8 0 1
v -0.8 5 1
v -0.7 0.1 1
v -0.7 4.9 1
v 0.7 0.1 1
v 0.7 4.9 1
v 0.8 0 1
v 0.8 5 1
v -0.8 0 -1
v -0.8 5 -1
v -0.7 0.1 -1
v -0.7 0.2 -1
v -0.7 0.3 -1
v -0.7 4.9 -1
v 0.7 0.1 -1
v 0.7 0.2 -1
v 0.7 0.3 -1
v 0.7 4.9 -1
v 0.8 0 -1
v 0.8 0.2 -1
v 0.8 0.3 -1
v 0.8 5 -1
v -0.8 0 1
v 0.8 0 1
v -0.7 0 0.9
v 0.7 0 0.9
v -0.7 0 -0.9
v 0.7 0 -0.9
v -0.8 0 -1
v 0.8 0 -1
v -0.8 5 1
v 0.8 5 1
v -0.7 5 0.9
v 0.7 5 0.9
v -0.7 5 -0.9
v 0.7 5 -0.9
v -0.8 5 -1
v 0.8 5 -1

# faces
f 3/3/1 2/3/1 1/3/1
f 4/3/1 2/3/1 3/3/1
f 5/3/1 3/3/1 1/3/1
f 5/1/1 4/1/1 3/1/1
f 6/3/1 2/3/1 4/3/1
f 6/1/1 4/1/1 5/1/1
f 7/3/1 5/3/1 1/3/1
f 7/3/1 6/3/1 5/3/1
f 8/3/1 2/3/1 6/3/1
f 8/3/1 6/3/1 7/3/1
f 9/3/2 10/3/2 11/3/2
f 11/3/2 10/3/2 12/3/2
f 11/1/2 12/1/2 13/1/2
f 12/3/2 10/3/2 14/3/2
f 13/1/2 12/1/2 14/1/2
f 14/3/2 10/3/2 15/3/2
f 11/1/2 13/1/2 16/1/2
f 13/4/2 14/4/2 16/4/2
f 14/4/2 15/4/2 16/4/2
f 16/4/2 15/4/2 17/4/2
f 17/4/2 15/4/2 18/4/2
f 11/1/2 16/1/2 19/1/2
f 16/1/2 17/1/2 19/1/2
f 19/1/2 17/1/2 20/1/2
f 11/1/2 19/1/2 21/1/2
f 19/2/2 20/2/2 21/2/2
f 20/1/2 17/1/2 22/1/2
f 21/2/2 20/2/2 22/2/2
f 21/1/2 22/1/2 23/1/2
f 23/1/2 22/1/2 24/1/2
f 24/1/2 22/1/2 25/1/2
f 25/1/2 22/1/2 26/1/2
f 26/1/2 22/1/2 27/1/2
f 27/1/2 22/1/2 28/1/2
f 24/1/2 25/1/2 29/1/2
f 25/5/2 26/5/2 29/5/2
f 26/1/2 27/1/2 30/1/2
f 29/5/2 26/5/2 30/5/2
f 21/1/2 23/1/2 31/1/2
f 23/5/2 24/5/2 31/5/2
f 29/1/2 30/1/2 32/1/2
f 31/5/2 24/5/2 32/5/2
f 24/1/2 29/1/2 32/1/2
f 30/1/2 27/1/2 33/1/2
f 32/1/2 30/1/2 33/1/2
f 27/5/2 28/5/2 33/5/2
f 28/1/2 22/1/2 34/1/2
f 33/5/2 28/5/2 34/5/2
f 11/1/2 21/1/2 35/1/2
f 31/1/2 32/1/2 35/1/2
f 33/1/2 34/1/2 35/1/2
f 32/1/2 33/1/2 35/1/2
f 21/1/2 31/1/2 35/1/2
f 34/1/2 22/1/2 36/1/2
f 35/1/2 34/1/2 36/1/2
f 22/1/2 17/1/2 36/1/2
f 11/1/2 35/1/2 37/1/2
f 35/2/2 36/2/2 37/2/2
f 36/1/2 17/1/2 38/1/2
f 37/2/2 36/2/2 38/2/2
f 37/1/2 38/1/2 39/1/2
f 39/1/2 38/1/2 40/1/2
f 40/1/2 38/1/2 41/1/2
f 41/1/2 38/1/2 42/1/2
f 42/1/2 38/1/2 43/1/2
f 43/1/2 38/1/2 44/1/2
f 37/1/2 39/1/2 45/1/2
f 39/4/2 40/4/2 45/4/2
f 40/1/2 41/1/2 46/1/2
f 45/4/2 40/4/2 46/4/2
f 41/4/2 42/4/2 47/4/2
f 46/1/2 41/1/2 47/1/2
f 42/1/2 43/1/2 48/1/2
f 47/4/2 42/4/2 48/4/2
f 43/4/2 44/4/2 49/4/2
f 48/1/2 43/1/2 49/1/2
f 44/1/2 38/1/2 50/1/2
f 49/4/2 44/4/2 50/4/2
f 11/1/2 37/1/2 51/1/2
f 48/1/2 49/1/2 51/1/2
f 49/1/2 50/1/2 51/1/2
f 46/1/2 47/1/2 51/1/2
f 45/1/2 46/1/2 51/1/2
f 37/1/2 45/1/2 51/1/2
f 47/1/2 48/1/2 51/1/2
f 51/1/2 50/1/2 52/1/2
f 11/1/2 51/1/2 53/1/2
f 51/4/2 52/4/2 53/4/2
f 52/1/2 50/1/2 54/1/2
f 53/4/2 52/4/2 54/4/2
f 11/1/2 53/1/2 55/1/2
f 53/1/2 54/1/2 55/1/2
f 54/1/2 50/1/2 56/1/2
f 55/1/2 54/1/2 56/1/2
f 11/1/2 55/1/2 57/1/2
f 55/4/2 56/4/2 57/4/2
f 56/1/2 50/1/2 58/1/2
f 57/4/2 56/4/2 58/4/2
f 11/1/2 57/1/2 59/1/2
f 57/1/2 58/1/2 59/1/2
f 58/1/2 50/1/2 60/1/2
f 59/1/2 58/1/2 60/1/2
f 11/1/2 59/1/2 61/1/2
f 59/4/2 60/4/2 61/4/2
f 60/1/2 50/1/2 62/1/2
f 61/4/2 60/4/2 62/4/2
f 11/1/2 61/1/2 63/1/2
f 61/1/2 62/1/2 63/1/2
f 62/1/2 50/1/2 64/1/2
f 63/1/2 62/1/2 64/1/2
f 11/1/2 63/1/2 65/1/2
f 63/4/2 64/4/2 65/4/2
f 64/1/2 50/1/2 66/1/2
f 65/4/2 64/4/2 66/4/2
f 9/3/2 11/3/2 67/3/2
f 11/1/2 65/1/2 67/1/2
f 65/1/2 66/1/2 67/1/2
f 66/1/2 50/1/2 68/1/2
f 67/1/2 66/1/2 68/1/2
f 17/3/2 18/3/2 68/3/2
f 38/1/2 17/1/2 68/1/2
f 50/1/2 38/1/2 68/1/2
f 9/3/2 67/3/2 69/3/2
f 67/3/2 68/3/2 69/3/2
f 68/3/2 18/3/2 70/3/2
f 69/3/2 68/3/2 70/3/2
f 73/3/3 72/3/3 71/3/3
f 74/3/3 72/3/3 73/3/3
f 75/3/3 73/3/3 71/3/3
f 75/1/3 74/1/3 73/1/3
f 76/3/3 72/3/3 74/3/3
f 76/1/3 74/1/3 75/1/3
f 77/3/3 75/3/3 71/3/3
f 77/3/3 76/3/3 75/3/3
f 78/3/3 72/3/3 76/3/3
f 78/3/3 76/3/3 77/3/3
f 79/3/4 80/3/4 81/3/4
f 81/3/4 80/3/4 82/3/4
f 82/3/4 80/3/4 83/3/4
f 83/3/4 80/3/4 84/3/4
f 79/3/4 81/3/4 85/3/4
f 81/1/4 82/1/4 85/1/4
f 82/4/4 83/4/4 86/4/4
f 85/1/4 82/1/4 86/1/4
f 83/1/4 84/1/4 87/1/4
f 86/4/4 83/4/4 87/4/4
f 84/3/4 80/3/4 88/3/4
f 87/1/4 84/1/4 88/1/4
f 85/3/4 86/3/4 89/3/4
f 79/3/4 85/3/4 89/3/4
f 86/4/4 87/4/4 90/4/4
f 89/3/4 86/3/4 90/3/4
f 87/3/4 88/3/4 91/3/4
f 90/4/4 87/4/4 91/4/4
f 88/3/4 80/3/4 92/3/4
f 91/3/4 88/3/4 92/3/4
f 95/3/5 94/3/5 93/3/5
f 96/3/5 94/3/5 95/3/5
f 97/3/5 95/3/5 93/3/5
f 97/1/5 96/1/5 95/1/5
f 98/3/5 94/3/5 96/3/5
f 98/1/5 96/1/5 97/1/5
f 99/3/5 97/3/5 93/3/5
f 99/3/5 98/3/5 97/3/5
f 100/3/5 94/3/5 98/3/5
f 100/3/5 98/3/5 99/3/5
f 101/3/6 102/3/6 103/3/6
f 103/3/6 102/3/6 104/3/6
f 101/3/6 103/3/6 105/3/6
f 103/1/6 104/1/6 105/1/6
f 104/3/6 102/3/6 106/3/6
f 105/1/6 104/1/6 106/1/6
f 101/3/6 105/3/6 107/3/6
f 105/3/6 106/3/6 107/3/6
f 106/3/6 102/3/6 108/3/6
f 107/3/6 106/3/6 108/3/6
