# MagicaVoxel @ Ephtracy

# group
o 

# material
mtllib arm.mtl
usemtl palette

# normals
vn -1 0 0
vn 1 0 0
vn 0 0 1
vn 0 0 -1
vn 0 -1 0
vn 0 1 0

# texcoords
vt 0.00585938 0.5
vt 0.0175781 0.5
vt 0.0253906 0.5
vt 0.966797 0.5

# verts
v -0.6 0 0.2
v -0.6 0 -0.2
v -0.6 0.2 0.2
v -0.6 0.2 -0.2
v 0.3 0 0.2
v 0.3 0 -0.2
v 0.3 0.1 0.2
v 0.3 0.1 -0.2
v 0.5 0.1 0.2
v 0.5 0.1 0.1
v 0.5 0.2 0.2
v 0.5 0.2 0.1
v 0.6 0.1 0.1
v 0.6 0.1 -0.2
v 0.6 0.2 0.1
v 0.6 0.2 -0.2
v -0.6 0 0.2
v -0.6 0.2 0.2
v -5.96046e-08 0 0.2
v -5.96046e-08 0.2 0.2
v 0.1 0 0.2
v 0.1 0.2 0.2
v 0.3 0 0.2
v 0.3 0.1 0.2
v 0.3 0.2 0.2
v 0.5 0.1 0.2
v 0.5 0.2 0.2
v 0.5 0.1 0.1
v 0.5 0.2 0.1
v 0.6 0.1 0.1
v 0.6 0.2 0.1
v -0.6 0 -0.2
v -0.6 0.2 -0.2
v -5.96046e-08 0 -0.2
v -5.96046e-08 0.2 -0.2
v 0.1 0 -0.2
v 0.1 0.2 -0.2
v 0.3 0 -0.2
v 0.3 0.1 -0.2
v 0.3 0.2 -0.2
v 0.6 0.1 -0.2
v 0.6 0.2 -0.2
v -0.6 0 0.2
v -5.96046e-08 0 0.2
v 0.1 0 0.2
v 0.3 0 0.2
v -0.6 0 -0.2
v -5.96046e-08 0 -0.2
v 0.1 0 -0.2
v 0.3 0 -0.2
v 0.3 0.1 0.2
v 0.5 0.1 0.2
v 0.5 0.1 0.1
v 0.6 0.1 0.1
v 0.3 0.1 -0.2
v 0.6 0.1 -0.2
v -0.6 0.2 0.2
v -5.96046e-08 0.2 0.2
v 0.1 0.2 0.2
v 0.3 0.2 0.2
v 0.5 0.2 0.2
v -0.1 0.2 0.1
v -5.96046e-08 0.2 0.1
v 0.1 0.2 0.1
v 0.2 0.2 0.1
v 0.5 0.2 0.1
v 0.6 0.2 0.1
v -0.1 0.2 -0.1
v -5.96046e-08 0.2 -0.1
v 0.1 0.2 -0.1
v 0.2 0.2 -0.1
v -0.6 0.2 -0.2
v -5.96046e-08 0.2 -0.2
v 0.1 0.2 -0.2
v 0.3 0.2 -0.2
v 0.6 0.2 -0.2

# faces
f 3/3/1 2/3/1 1/3/1
f 4/3/1 2/3/1 3/3/1
f 5/3/2 6/3/2 7/3/2
f 7/3/2 6/3/2 8/3/2
f 9/4/2 10/4/2 11/4/2
f 11/4/2 10/4/2 12/4/2
f 13/4/2 14/4/2 15/4/2
f 15/4/2 14/4/2 16/4/2
f 19/3/3 18/3/3 17/3/3
f 20/3/3 18/3/3 19/3/3
f 21/2/3 20/2/3 19/2/3
f 22/2/3 20/2/3 21/2/3
f 23/3/3 22/3/3 21/3/3
f 24/3/3 22/3/3 23/3/3
f 25/3/3 22/3/3 24/3/3
f 26/4/3 25/4/3 24/4/3
f 27/4/3 25/4/3 26/4/3
f 30/4/3 29/4/3 28/4/3
f 31/4/3 29/4/3 30/4/3
f 32/3/4 33/3/4 34/3/4
f 34/3/4 33/3/4 35/3/4
f 34/2/4 35/2/4 36/2/4
f 36/2/4 35/2/4 37/2/4
f 36/3/4 37/3/4 38/3/4
f 38/3/4 37/3/4 39/3/4
f 39/3/4 37/3/4 40/3/4
f 39/4/4 40/4/4 41/4/4
f 41/4/4 40/4/4 42/4/4
f 47/3/5 44/3/5 43/3/5
f 48/2/5 45/2/5 44/2/5
f 48/3/5 44/3/5 47/3/5
f 49/3/5 46/3/5 45/3/5
f 49/2/5 45/2/5 48/2/5
f 50/3/5 46/3/5 49/3/5
f 53/4/5 52/4/5 51/4/5
f 55/4/5 53/4/5 51/4/5
f 55/4/5 54/4/5 53/4/5
f 56/4/5 54/4/5 55/4/5
f 57/3/6 58/3/6 62/3/6
f 58/2/6 59/2/6 63/2/6
f 62/3/6 58/3/6 63/3/6
f 59/3/6 60/3/6 64/3/6
f 63/2/6 59/2/6 64/2/6
f 64/3/6 60/3/6 65/3/6
f 60/4/6 61/4/6 66/4/6
f 57/3/6 62/3/6 68/3/6
f 62/1/6 63/1/6 68/1/6
f 63/1/6 64/1/6 68/1/6
f 64/1/6 65/1/6 68/1/6
f 68/1/6 65/1/6 69/1/6
f 69/1/6 65/1/6 70/1/6
f 65/3/6 60/3/6 71/3/6
f 70/1/6 65/1/6 71/1/6
f 57/3/6 68/3/6 72/3/6
f 68/3/6 69/3/6 72/3/6
f 69/2/6 70/2/6 73/2/6
f 72/3/6 69/3/6 73/3/6
f 70/3/6 71/3/6 74/3/6
f 73/2/6 70/2/6 74/2/6
f 66/4/6 67/4/6 75/4/6
f 74/3/6 71/3/6 75/3/6
f 60/4/6 66/4/6 75/4/6
f 71/3/6 60/3/6 75/3/6
f 75/4/6 67/4/6 76/4/6
