# MagicaVoxel @ Ephtracy

# group
o 

# material
mtllib professor.mtl
usemtl palette

# normals
vn -1 0 0
vn 1 0 0
vn 0 0 1
vn 0 0 -1
vn 0 -1 0
vn 0 1 0

# texcoords
vt 0.00585938 0.5
vt 0.00976562 0.5
vt 0.0253906 0.5
vt 0.876953 0.5
vt 0.962891 0.5
vt 0.966797 0.5
vt 0.970703 0.5

# verts
v -1.5 1.9 0
v -1.5 1.9 -0.3
v -1.5 2 0
v -1.5 2 -0.3
v -1.3 1.9 0.1
v -1.3 1.9 0
v -1.3 2 0.1
v -1.3 2 0
v -1.2 1.8 0
v -1.2 1.8 -0.3
v -1.2 1.9 0
v -1.2 1.9 -0.3
v -0.5 2.3 -0.1
v -0.5 2.3 -0.2
v -0.5 2.6 0.4
v -0.5 2.6 0.3
v -0.5 2.6 -0.1
v -0.5 2.6 -0.2
v -0.5 2.7 0.4
v -0.5 2.7 0.3
v -0.4 0 0.3
v -0.4 0 -0.3
v -0.4 0.1 0.3
v -0.4 0.1 -0.3
v -0.4 0.2 0.3
v -0.4 0.2 0.1
v -0.4 0.2 -0.3
v -0.4 1.1 0.1
v -0.4 1.1 -0.3
v -0.4 1.1 -0.4
v -0.4 1.8 0
v -0.4 1.8 -0.3
v -0.4 2 0.1
v -0.4 2 0
v -0.4 2 -0.3
v -0.4 2 -0.4
v -0.4 2.1 0.3
v -0.4 2.1 -0.5
v -0.4 2.3 -0.1
v -0.4 2.3 -0.2
v -0.4 2.6 0.3
v -0.4 2.6 -0.1
v -0.4 2.6 -0.2
v -0.4 2.7 0.3
v -0.4 2.8 -0.4
v -0.4 2.8 -0.5
v -0.4 2.9 0.3
v -0.4 2.9 -0.4
v -0.3 2 0
v -0.3 2 -0.3
v -0.3 2.1 0
v -0.3 2.1 -0.3
v -0.3 2.8 -0.4
v -0.3 2.8 -0.5
v -0.3 2.9 -0.4
v -0.3 2.9 -0.5
v -0.1 1.4 0.2
v -0.1 1.4 0.1
v -0.1 2 0.2
v -0.1 2 0.1
v -0.1 2.3 0.5
v -0.1 2.3 0.3
v -0.1 2.4 0.3
v -0.1 2.5 0.5
v -0.1 2.5 0.3
v 0 1.3 0.2
v 0 1.3 0.1
v 0 1.4 0.2
v 0 1.4 0.1
v 0.1 0 0.3
v 0.1 0 -0.3
v 0.1 0.1 0.3
v 0.1 0.1 -0.3
v 0.1 0.2 0.3
v 0.1 0.2 0.1
v 0.1 0.2 -0.3
v 0.1 1 0.1
v 0.1 1 -0.3
v 0.1 2.6 0.4
v 0.1 2.6 0.3
v 0.1 2.7 0.4
v 0.1 2.7 0.3
v 1.2 1.9 0.1
v 1.2 1.9 0
v 1.2 2 0.1
v 1.2 2 0
v -1.2 1.9 0.1
v -1.2 1.9 0
v -1.2 2 0.1
v -1.2 2 0
v -0.1 0 0.3
v -0.1 0 -0.3
v -0.1 0.1 0.3
v -0.1 0.1 -0.3
v -0.1 0.2 0.3
v -0.1 0.2 0.1
v -0.1 0.2 -0.3
v -0.1 1 0.1
v -0.1 1 -0.3
v -0.1 2.6 0.4
v -0.1 2.6 0.3
v -0.1 2.7 0.4
v -0.1 2.7 0.3
v 0.1 1.3 0.2
v 0.1 1.3 0.1
v 0.1 2 0.2
v 0.1 2 0.1
v 0.1 2.3 0.5
v 0.1 2.3 0.3
v 0.1 2.4 0.3
v 0.1 2.5 0.5
v 0.1 2.5 0.3
v 0.3 2 0
v 0.3 2 -0.3
v 0.3 2.1 0
v 0.3 2.1 -0.3
v 0.3 2.8 -0.4
v 0.3 2.8 -0.5
v 0.3 2.9 -0.4
v 0.3 2.9 -0.5
v 0.4 0 0.3
v 0.4 0 -0.3
v 0.4 0.1 0.3
v 0.4 0.1 -0.3
v 0.4 0.2 0.3
v 0.4 0.2 0.1
v 0.4 0.2 -0.3
v 0.4 1.1 0.1
v 0.4 1.1 -0.3
v 0.4 1.1 -0.4
v 0.4 1.8 0
v 0.4 1.8 -0.3
v 0.4 2 0.1
v 0.4 2 0
v 0.4 2 -0.3
v 0.4 2 -0.4
v 0.4 2.1 0.3
v 0.4 2.1 -0.5
v 0.4 2.3 -0.1
v 0.4 2.3 -0.2
v 0.4 2.6 0.3
v 0.4 2.6 -0.1
v 0.4 2.6 -0.2
v 0.4 2.7 0.3
v 0.4 2.8 -0.4
v 0.4 2.8 -0.5
v 0.4 2.9 0.3
v 0.4 2.9 -0.4
v 0.5 2.3 -0.1
v 0.5 2.3 -0.2
v 0.5 2.6 0.4
v 0.5 2.6 0.3
v 0.5 2.6 -0.1
v 0.5 2.6 -0.2
v 0.5 2.7 0.4
v 0.5 2.7 0.3
v 1.2 1.8 0
v 1.2 1.8 -0.3
v 1.2 1.9 0
v 1.2 1.9 -0.3
v 1.3 1.9 0.1
v 1.3 1.9 0
v 1.3 2 0.1
v 1.3 2 0
v 1.5 1.9 0
v 1.5 1.9 -0.3
v 1.5 2 0
v 1.5 2 -0.3
v -0.1 2.3 0.5
v -0.1 2.5 0.5
v 0.1 2.3 0.5
v 0.1 2.5 0.5
v -0.5 2.6 0.4
v -0.5 2.7 0.4
v -0.1 2.6 0.4
v -0.1 2.7 0.4
v 0.1 2.6 0.4
v 0.1 2.7 0.4
v 0.5 2.6 0.4
v 0.5 2.7 0.4
v -0.4 0 0.3
v -0.4 0.1 0.3
v -0.4 0.2 0.3
v -0.4 2.1 0.3
v -0.4 2.6 0.3
v -0.4 2.7 0.3
v -0.4 2.9 0.3
v -0.3 2.4 0.3
v -0.3 2.6 0.3
v -0.1 0 0.3
v -0.1 0.1 0.3
v -0.1 0.2 0.3
v -0.1 2.3 0.3
v -0.1 2.4 0.3
v -0.1 2.5 0.3
v -0.1 2.6 0.3
v -0.1 2.7 0.3
v 0.1 0 0.3
v 0.1 0.1 0.3
v 0.1 0.2 0.3
v 0.1 2.3 0.3
v 0.1 2.4 0.3
v 0.1 2.5 0.3
v 0.1 2.6 0.3
v 0.1 2.7 0.3
v 0.3 2.4 0.3
v 0.3 2.6 0.3
v 0.4 0 0.3
v 0.4 0.1 0.3
v 0.4 0.2 0.3
v 0.4 2.1 0.3
v 0.4 2.6 0.3
v 0.4 2.7 0.3
v 0.4 2.9 0.3
v -0.1 1.4 0.2
v -0.1 2 0.2
v 0 1.3 0.2
v 0 1.4 0.2
v 0.1 1.3 0.2
v 0.1 2 0.2
v -1.3 1.9 0.1
v -1.3 2 0.1
v -1.2 1.9 0.1
v -1.2 2 0.1
v -0.4 0.2 0.1
v -0.4 1.1 0.1
v -0.4 2 0.1
v -0.1 0.2 0.1
v -0.1 1 0.1
v -0.1 1.4 0.1
v -0.1 2 0.1
v 0 1.3 0.1
v 0 1.4 0.1
v 0.1 0.2 0.1
v 0.1 1 0.1
v 0.1 1.3 0.1
v 0.1 2 0.1
v 0.4 0.2 0.1
v 0.4 1.1 0.1
v 0.4 2 0.1
v 1.2 1.9 0.1
v 1.2 2 0.1
v 1.3 1.9 0.1
v 1.3 2 0.1
v -1.5 1.9 0
v -1.5 2 0
v -1.3 1.9 0
v -1.3 2 0
v -1.2 1.8 0
v -1.2 1.9 0
v -1.2 2 0
v -0.4 1.8 0
v -0.4 2 0
v -0.3 2 0
v -0.3 2.1 0
v 0.3 2 0
v 0.3 2.1 0
v 0.4 1.8 0
v 0.4 2 0
v 1.2 1.8 0
v 1.2 1.9 0
v 1.2 2 0
v 1.3 1.9 0
v 1.3 2 0
v 1.5 1.9 0
v 1.5 2 0
v -0.5 2.3 -0.1
v -0.5 2.6 -0.1
v -0.4 2.3 -0.1
v -0.4 2.6 -0.1
v 0.4 2.3 -0.1
v 0.4 2.6 -0.1
v 0.5 2.3 -0.1
v 0.5 2.6 -0.1
v -0.5 2.6 0.3
v -0.5 2.7 0.3
v -0.4 2.6 0.3
v -0.4 2.7 0.3
v 0.4 2.6 0.3
v 0.4 2.7 0.3
v 0.5 2.6 0.3
v 0.5 2.7 0.3
v -0.5 2.3 -0.2
v -0.5 2.6 -0.2
v -0.4 2.3 -0.2
v -0.4 2.6 -0.2
v 0.4 2.3 -0.2
v 0.4 2.6 -0.2
v 0.5 2.3 -0.2
v 0.5 2.6 -0.2
v -1.5 1.9 -0.3
v -1.5 2 -0.3
v -1.2 1.8 -0.3
v -1.2 1.9 -0.3
v -1.2 2 -0.3
v -0.4 0 -0.3
v -0.4 0.1 -0.3
v -0.4 0.2 -0.3
v -0.4 1.1 -0.3
v -0.4 1.8 -0.3
v -0.4 2 -0.3
v -0.3 2 -0.3
v -0.3 2.1 -0.3
v -0.1 0 -0.3
v -0.1 0.1 -0.3
v -0.1 0.2 -0.3
v -0.1 1 -0.3
v 0.1 0 -0.3
v 0.1 0.1 -0.3
v 0.1 0.2 -0.3
v 0.1 1 -0.3
v 0.3 2 -0.3
v 0.3 2.1 -0.3
v 0.4 0 -0.3
v 0.4 0.1 -0.3
v 0.4 0.2 -0.3
v 0.4 1.1 -0.3
v 0.4 1.8 -0.3
v 0.4 2 -0.3
v 1.2 1.8 -0.3
v 1.2 1.9 -0.3
v 1.2 2 -0.3
v 1.5 1.9 -0.3
v 1.5 2 -0.3
v -0.4 1.1 -0.4
v -0.4 2 -0.4
v -0.4 2.8 -0.4
v -0.4 2.9 -0.4
v -0.3 2.8 -0.4
v -0.3 2.9 -0.4
v 0.3 2.8 -0.4
v 0.3 2.9 -0.4
v 0.4 1.1 -0.4
v 0.4 2 -0.4
v 0.4 2.8 -0.4
v 0.4 2.9 -0.4
v -0.4 2.1 -0.5
v -0.4 2.8 -0.5
v -0.3 2.8 -0.5
v -0.3 2.9 -0.5
v 0.3 2.8 -0.5
v 0.3 2.9 -0.5
v 0.4 2.1 -0.5
v 0.4 2.8 -0.5
v -0.4 0 0.3
v -0.1 0 0.3
v 0.1 0 0.3
v 0.4 0 0.3
v -0.4 0 -0.3
v -0.1 0 -0.3
v 0.1 0 -0.3
v 0.4 0 -0.3
v -0.1 1 0.1
v 0.1 1 0.1
v -0.1 1 -0.3
v 0.1 1 -0.3
v -0.4 1.1 -0.3
v 0.4 1.1 -0.3
v -0.4 1.1 -0.4
v 0.4 1.1 -0.4
v 0 1.3 0.2
v 0.1 1.3 0.2
v 0 1.3 0.1
v 0.1 1.3 0.1
v -0.1 1.4 0.2
v 0 1.4 0.2
v -0.1 1.4 0.1
v 0 1.4 0.1
v -1.2 1.8 0
v -0.4 1.8 0
v 0.4 1.8 0
v 1.2 1.8 0
v -1.2 1.8 -0.3
v -0.4 1.8 -0.3
v 0.4 1.8 -0.3
v 1.2 1.8 -0.3
v -1.3 1.9 0.1
v -1.2 1.9 0.1
v 1.2 1.9 0.1
v 1.3 1.9 0.1
v -1.5 1.9 0
v -1.3 1.9 0
v -1.2 1.9 0
v 1.2 1.9 0
v 1.3 1.9 0
v 1.5 1.9 0
v -1.5 1.9 -0.3
v -1.2 1.9 -0.3
v 1.2 1.9 -0.3
v 1.5 1.9 -0.3
v -0.4 2.1 0.3
v 0.4 2.1 0.3
v -0.3 2.1 0
v 0.3 2.1 0
v -0.3 2.1 -0.3
v 0.3 2.1 -0.3
v -0.4 2.1 -0.5
v 0.4 2.1 -0.5
v -0.1 2.3 0.5
v 0.1 2.3 0.5
v -0.1 2.3 0.3
v 0.1 2.3 0.3
v -0.5 2.3 -0.1
v -0.4 2.3 -0.1
v 0.4 2.3 -0.1
v 0.5 2.3 -0.1
v -0.5 2.3 -0.2
v -0.4 2.3 -0.2
v 0.4 2.3 -0.2
v 0.5 2.3 -0.2
v -0.5 2.6 0.4
v -0.1 2.6 0.4
v 0.1 2.6 0.4
v 0.5 2.6 0.4
v -0.5 2.6 0.3
v -0.4 2.6 0.3
v -0.3 2.6 0.3
v -0.1 2.6 0.3
v 0.1 2.6 0.3
v 0.3 2.6 0.3
v 0.4 2.6 0.3
v 0.5 2.6 0.3
v -0.4 0.2 0.3
v -0.1 0.2 0.3
v 0.1 0.2 0.3
v 0.4 0.2 0.3
v -0.4 0.2 0.1
v -0.1 0.2 0.1
v 0.1 0.2 0.1
v 0.4 0.2 0.1
v -0.1 2 0.2
v 0.1 2 0.2
v -1.3 2 0.1
v -1.2 2 0.1
v -0.4 2 0.1
v -0.1 2 0.1
v 0.1 2 0.1
v 0.4 2 0.1
v 1.2 2 0.1
v 1.3 2 0.1
v -1.5 2 0
v -1.3 2 0
v -1.2 2 0
v -0.4 2 0
v -0.3 2 0
v 0.3 2 0
v 0.4 2 0
v 1.2 2 0
v 1.3 2 0
v 1.5 2 0
v -1.5 2 -0.3
v -1.2 2 -0.3
v -0.4 2 -0.3
v -0.3 2 -0.3
v 0.3 2 -0.3
v 0.4 2 -0.3
v 1.2 2 -0.3
v 1.5 2 -0.3
v -0.4 2 -0.4
v 0.4 2 -0.4
v -0.1 2.5 0.5
v 0.1 2.5 0.5
v -0.1 2.5 0.3
v 0.1 2.5 0.3
v -0.5 2.6 -0.1
v -0.4 2.6 -0.1
v 0.4 2.6 -0.1
v 0.5 2.6 -0.1
v -0.5 2.6 -0.2
v -0.4 2.6 -0.2
v 0.4 2.6 -0.2
v 0.5 2.6 -0.2
v -0.5 2.7 0.4
v -0.1 2.7 0.4
v 0.1 2.7 0.4
v 0.5 2.7 0.4
v -0.5 2.7 0.3
v -0.4 2.7 0.3
v -0.1 2.7 0.3
v 0.1 2.7 0.3
v 0.4 2.7 0.3
v 0.5 2.7 0.3
v -0.4 2.8 -0.4
v -0.3 2.8 -0.4
v 0.3 2.8 -0.4
v 0.4 2.8 -0.4
v -0.4 2.8 -0.5
v -0.3 2.8 -0.5
v 0.3 2.8 -0.5
v 0.4 2.8 -0.5
v -0.4 2.9 0.3
v 0.4 2.9 0.3
v -0.4 2.9 -0.4
v -0.3 2.9 -0.4
v 0.3 2.9 -0.4
v 0.4 2.9 -0.4
v -0.3 2.9 -0.5
v 0.3 2.9 -0.5

# faces
f 3/6/1 2/6/1 1/6/1
f 4/6/1 2/6/1 3/6/1
f 7/6/1 6/6/1 5/6/1
f 8/6/1 6/6/1 7/6/1
f 11/3/1 10/3/1 9/3/1
f 12/3/1 10/3/1 11/3/1
f 17/6/1 14/6/1 13/6/1
f 18/6/1 14/6/1 17/6/1
f 19/2/1 16/2/1 15/2/1
f 20/2/1 16/2/1 19/2/1
f 23/1/1 22/1/1 21/1/1
f 24/1/1 22/1/1 23/1/1
f 25/4/1 24/4/1 23/4/1
f 26/4/1 24/4/1 25/4/1
f 27/4/1 24/4/1 26/4/1
f 28/2/1 27/2/1 26/2/1
f 29/2/1 27/2/1 28/2/1
f 31/3/1 29/3/1 28/3/1
f 31/3/1 30/3/1 29/3/1
f 32/3/1 30/3/1 31/3/1
f 33/3/1 31/3/1 28/3/1
f 34/3/1 31/3/1 33/3/1
f 35/3/1 30/3/1 32/3/1
f 36/3/1 30/3/1 35/3/1
f 39/6/1 38/6/1 37/6/1
f 40/6/1 38/6/1 39/6/1
f 41/6/1 39/6/1 37/6/1
f 42/6/1 39/6/1 41/6/1
f 43/6/1 38/6/1 40/6/1
f 44/6/1 42/6/1 41/6/1
f 44/6/1 43/6/1 42/6/1
f 45/6/1 38/6/1 43/6/1
f 45/6/1 43/6/1 44/6/1
f 46/6/1 38/6/1 45/6/1
f 47/6/1 45/6/1 44/6/1
f 48/6/1 45/6/1 47/6/1
f 51/6/1 50/6/1 49/6/1
f 52/6/1 50/6/1 51/6/1
f 55/6/1 54/6/1 53/6/1
f 56/6/1 54/6/1 55/6/1
f 59/7/1 58/7/1 57/7/1
f 60/7/1 58/7/1 59/7/1
f 63/5/1 62/5/1 61/5/1
f 64/5/1 63/5/1 61/5/1
f 65/5/1 63/5/1 64/5/1
f 68/7/1 67/7/1 66/7/1
f 69/7/1 67/7/1 68/7/1
f 72/1/1 71/1/1 70/1/1
f 73/1/1 71/1/1 72/1/1
f 74/4/1 73/4/1 72/4/1
f 75/4/1 73/4/1 74/4/1
f 76/4/1 73/4/1 75/4/1
f 77/2/1 76/2/1 75/2/1
f 78/2/1 76/2/1 77/2/1
f 81/2/1 80/2/1 79/2/1
f 82/2/1 80/2/1 81/2/1
f 85/6/1 84/6/1 83/6/1
f 86/6/1 84/6/1 85/6/1
f 87/6/2 88/6/2 89/6/2
f 89/6/2 88/6/2 90/6/2
f 91/1/2 92/1/2 93/1/2
f 93/1/2 92/1/2 94/1/2
f 93/4/2 94/4/2 95/4/2
f 95/4/2 94/4/2 96/4/2
f 96/4/2 94/4/2 97/4/2
f 96/2/2 97/2/2 98/2/2
f 98/2/2 97/2/2 99/2/2
f 100/2/2 101/2/2 102/2/2
f 102/2/2 101/2/2 103/2/2
f 104/7/2 105/7/2 106/7/2
f 106/7/2 105/7/2 107/7/2
f 108/5/2 109/5/2 110/5/2
f 108/5/2 110/5/2 111/5/2
f 111/5/2 110/5/2 112/5/2
f 113/6/2 114/6/2 115/6/2
f 115/6/2 114/6/2 116/6/2
f 117/6/2 118/6/2 119/6/2
f 119/6/2 118/6/2 120/6/2
f 121/1/2 122/1/2 123/1/2
f 123/1/2 122/1/2 124/1/2
f 123/4/2 124/4/2 125/4/2
f 125/4/2 124/4/2 126/4/2
f 126/4/2 124/4/2 127/4/2
f 126/2/2 127/2/2 128/2/2
f 128/2/2 127/2/2 129/2/2
f 128/3/2 129/3/2 131/3/2
f 129/3/2 130/3/2 131/3/2
f 131/3/2 130/3/2 132/3/2
f 128/3/2 131/3/2 133/3/2
f 133/3/2 131/3/2 134/3/2
f 132/3/2 130/3/2 135/3/2
f 135/3/2 130/3/2 136/3/2
f 137/6/2 138/6/2 139/6/2
f 139/6/2 138/6/2 140/6/2
f 137/6/2 139/6/2 141/6/2
f 141/6/2 139/6/2 142/6/2
f 140/6/2 138/6/2 143/6/2
f 141/6/2 142/6/2 144/6/2
f 142/6/2 143/6/2 144/6/2
f 143/6/2 138/6/2 145/6/2
f 144/6/2 143/6/2 145/6/2
f 145/6/2 138/6/2 146/6/2
f 144/6/2 145/6/2 147/6/2
f 147/6/2 145/6/2 148/6/2
f 149/6/2 150/6/2 153/6/2
f 153/6/2 150/6/2 154/6/2
f 151/2/2 152/2/2 155/2/2
f 155/2/2 152/2/2 156/2/2
f 157/3/2 158/3/2 159/3/2
f 159/3/2 158/3/2 160/3/2
f 161/6/2 162/6/2 163/6/2
f 163/6/2 162/6/2 164/6/2
f 165/6/2 166/6/2 167/6/2
f 167/6/2 166/6/2 168/6/2
f 171/5/3 170/5/3 169/5/3
f 172/5/3 170/5/3 171/5/3
f 175/2/3 174/2/3 173/2/3
f 176/2/3 174/2/3 175/2/3
f 179/2/3 178/2/3 177/2/3
f 180/2/3 178/2/3 179/2/3
f 188/6/3 185/6/3 184/6/3
f 189/6/3 185/6/3 188/6/3
f 190/1/3 182/1/3 181/1/3
f 191/4/3 183/4/3 182/4/3
f 191/1/3 182/1/3 190/1/3
f 192/4/3 183/4/3 191/4/3
f 193/6/3 188/6/3 184/6/3
f 194/4/3 189/4/3 188/4/3
f 194/6/3 188/6/3 193/6/3
f 195/4/3 189/4/3 194/4/3
f 196/4/3 189/4/3 195/4/3
f 197/6/3 187/6/3 186/6/3
f 201/6/3 193/6/3 184/6/3
f 203/6/3 196/6/3 195/6/3
f 203/6/3 197/6/3 196/6/3
f 204/6/3 197/6/3 203/6/3
f 205/6/3 187/6/3 197/6/3
f 205/6/3 197/6/3 204/6/3
f 206/6/3 202/6/3 201/6/3
f 206/4/3 204/4/3 203/4/3
f 206/4/3 203/4/3 202/4/3
f 207/4/3 204/4/3 206/4/3
f 208/1/3 199/1/3 198/1/3
f 209/4/3 200/4/3 199/4/3
f 209/1/3 199/1/3 208/1/3
f 210/4/3 200/4/3 209/4/3
f 211/6/3 201/6/3 184/6/3
f 211/6/3 206/6/3 201/6/3
f 211/6/3 207/6/3 206/6/3
f 212/6/3 207/6/3 211/6/3
f 213/6/3 187/6/3 205/6/3
f 214/6/3 187/6/3 213/6/3
f 218/7/3 216/7/3 215/7/3
f 219/7/3 218/7/3 217/7/3
f 220/7/3 216/7/3 218/7/3
f 220/7/3 218/7/3 219/7/3
f 223/6/3 222/6/3 221/6/3
f 224/6/3 222/6/3 223/6/3
f 228/2/3 226/2/3 225/2/3
f 229/2/3 226/2/3 228/2/3
f 230/3/3 227/3/3 226/3/3
f 231/3/3 227/3/3 230/3/3
f 232/3/3 230/3/3 226/3/3
f 233/3/3 230/3/3 232/3/3
f 235/2/3 226/2/3 229/2/3
f 236/3/3 232/3/3 226/3/3
f 238/2/3 235/2/3 234/2/3
f 239/3/3 236/3/3 226/3/3
f 239/2/3 235/2/3 238/2/3
f 239/3/3 237/3/3 236/3/3
f 239/2/3 226/2/3 235/2/3
f 240/3/3 237/3/3 239/3/3
f 243/6/3 242/6/3 241/6/3
f 244/6/3 242/6/3 243/6/3
f 247/6/3 246/6/3 245/6/3
f 248/6/3 246/6/3 247/6/3
f 252/3/3 250/3/3 249/3/3
f 252/3/3 251/3/3 250/3/3
f 253/3/3 251/3/3 252/3/3
f 256/6/3 255/6/3 254/6/3
f 257/6/3 255/6/3 256/6/3
f 260/3/3 259/3/3 258/3/3
f 261/3/3 259/3/3 260/3/3
f 262/3/3 259/3/3 261/3/3
f 265/6/3 264/6/3 263/6/3
f 266/6/3 264/6/3 265/6/3
f 269/6/3 268/6/3 267/6/3
f 270/6/3 268/6/3 269/6/3
f 273/6/3 272/6/3 271/6/3
f 274/6/3 272/6/3 273/6/3
f 275/2/4 276/2/4 277/2/4
f 277/2/4 276/2/4 278/2/4
f 279/2/4 280/2/4 281/2/4
f 281/2/4 280/2/4 282/2/4
f 283/6/4 284/6/4 285/6/4
f 285/6/4 284/6/4 286/6/4
f 287/6/4 288/6/4 289/6/4
f 289/6/4 288/6/4 290/6/4
f 291/6/4 292/6/4 294/6/4
f 294/6/4 292/6/4 295/6/4
f 293/3/4 294/3/4 300/3/4
f 294/3/4 295/3/4 300/3/4
f 300/3/4 295/3/4 301/3/4
f 296/1/4 297/1/4 304/1/4
f 297/4/4 298/4/4 305/4/4
f 304/1/4 297/1/4 305/1/4
f 298/2/4 299/2/4 306/2/4
f 305/4/4 298/4/4 306/4/4
f 306/2/4 299/2/4 307/2/4
f 307/2/4 299/2/4 311/2/4
f 302/6/4 303/6/4 312/6/4
f 312/6/4 303/6/4 313/6/4
f 308/1/4 309/1/4 314/1/4
f 309/4/4 310/4/4 315/4/4
f 314/1/4 309/1/4 315/1/4
f 310/2/4 311/2/4 316/2/4
f 315/4/4 310/4/4 316/4/4
f 311/2/4 299/2/4 317/2/4
f 316/2/4 311/2/4 317/2/4
f 318/3/4 319/3/4 320/3/4
f 320/3/4 319/3/4 321/3/4
f 321/3/4 319/3/4 322/3/4
f 321/6/4 322/6/4 323/6/4
f 323/6/4 322/6/4 324/6/4
f 327/6/4 328/6/4 329/6/4
f 329/6/4 328/6/4 330/6/4
f 325/3/4 326/3/4 333/3/4
f 333/3/4 326/3/4 334/3/4
f 331/6/4 332/6/4 335/6/4
f 335/6/4 332/6/4 336/6/4
f 337/6/4 338/6/4 339/6/4
f 337/6/4 339/6/4 341/6/4
f 339/6/4 340/6/4 341/6/4
f 341/6/4 340/6/4 342/6/4
f 337/6/4 341/6/4 343/6/4
f 343/6/4 341/6/4 344/6/4
f 349/1/5 346/1/5 345/1/5
f 350/1/5 346/1/5 349/1/5
f 351/1/5 348/1/5 347/1/5
f 352/1/5 348/1/5 351/1/5
f 355/2/5 354/2/5 353/2/5
f 356/2/5 354/2/5 355/2/5
f 359/3/5 358/3/5 357/3/5
f 360/3/5 358/3/5 359/3/5
f 363/7/5 362/7/5 361/7/5
f 364/7/5 362/7/5 363/7/5
f 367/7/5 366/7/5 365/7/5
f 368/7/5 366/7/5 367/7/5
f 373/3/5 370/3/5 369/3/5
f 374/3/5 370/3/5 373/3/5
f 375/3/5 372/3/5 371/3/5
f 376/3/5 372/3/5 375/3/5
f 382/6/5 378/6/5 377/6/5
f 383/6/5 378/6/5 382/6/5
f 384/6/5 380/6/5 379/6/5
f 385/6/5 380/6/5 384/6/5
f 387/6/5 383/6/5 382/6/5
f 387/6/5 382/6/5 381/6/5
f 388/6/5 383/6/5 387/6/5
f 389/6/5 386/6/5 385/6/5
f 389/6/5 385/6/5 384/6/5
f 390/6/5 386/6/5 389/6/5
f 393/6/5 392/6/5 391/6/5
f 394/6/5 392/6/5 393/6/5
f 395/6/5 393/6/5 391/6/5
f 396/6/5 392/6/5 394/6/5
f 397/6/5 395/6/5 391/6/5
f 397/6/5 396/6/5 395/6/5
f 398/6/5 392/6/5 396/6/5
f 398/6/5 396/6/5 397/6/5
f 401/5/5 400/5/5 399/5/5
f 402/5/5 400/5/5 401/5/5
f 407/6/5 404/6/5 403/6/5
f 408/6/5 404/6/5 407/6/5
f 409/6/5 406/6/5 405/6/5
f 410/6/5 406/6/5 409/6/5
f 415/2/5 412/2/5 411/2/5
f 416/2/5 412/2/5 415/2/5
f 417/2/5 412/2/5 416/2/5
f 418/2/5 412/2/5 417/2/5
f 419/2/5 414/2/5 413/2/5
f 420/2/5 414/2/5 419/2/5
f 421/2/5 414/2/5 420/2/5
f 422/2/5 414/2/5 421/2/5
f 423/4/6 424/4/6 427/4/6
f 427/4/6 424/4/6 428/4/6
f 425/4/6 426/4/6 429/4/6
f 429/4/6 426/4/6 430/4/6
f 431/7/6 432/7/6 436/7/6
f 436/7/6 432/7/6 437/7/6
f 433/6/6 434/6/6 442/6/6
f 442/6/6 434/6/6 443/6/6
f 435/3/6 436/3/6 444/3/6
f 436/3/6 437/3/6 444/3/6
f 437/3/6 438/3/6 444/3/6
f 444/3/6 438/3/6 445/3/6
f 445/3/6 438/3/6 446/3/6
f 446/3/6 438/3/6 447/3/6
f 439/6/6 440/6/6 448/6/6
f 448/6/6 440/6/6 449/6/6
f 442/6/6 443/6/6 451/6/6
f 441/6/6 442/6/6 451/6/6
f 443/3/6 444/3/6 452/3/6
f 451/6/6 443/6/6 452/6/6
f 444/3/6 445/3/6 452/3/6
f 452/3/6 445/3/6 453/3/6
f 453/3/6 445/3/6 454/3/6
f 446/3/6 447/3/6 455/3/6
f 447/3/6 448/3/6 455/3/6
f 455/3/6 448/3/6 456/3/6
f 449/6/6 450/6/6 457/6/6
f 456/3/6 448/3/6 457/3/6
f 448/6/6 449/6/6 457/6/6
f 457/6/6 450/6/6 458/6/6
f 453/3/6 454/3/6 459/3/6
f 455/3/6 456/3/6 459/3/6
f 454/3/6 455/3/6 459/3/6
f 459/3/6 456/3/6 460/3/6
f 461/5/6 462/5/6 463/5/6
f 463/5/6 462/5/6 464/5/6
f 465/6/6 466/6/6 469/6/6
f 469/6/6 466/6/6 470/6/6
f 467/6/6 468/6/6 471/6/6
f 471/6/6 468/6/6 472/6/6
f 473/2/6 474/2/6 477/2/6
f 477/2/6 474/2/6 478/2/6
f 478/2/6 474/2/6 479/2/6
f 475/2/6 476/2/6 480/2/6
f 480/2/6 476/2/6 481/2/6
f 481/2/6 476/2/6 482/2/6
f 483/6/6 484/6/6 487/6/6
f 487/6/6 484/6/6 488/6/6
f 485/6/6 486/6/6 489/6/6
f 489/6/6 486/6/6 490/6/6
f 491/6/6 492/6/6 493/6/6
f 493/6/6 492/6/6 494/6/6
f 494/6/6 492/6/6 495/6/6
f 495/6/6 492/6/6 496/6/6
f 494/6/6 495/6/6 497/6/6
f 497/6/6 495/6/6 498/6/6
