# MagicaVoxel @ Ephtracy

# group
o 

# material
mtllib student-4.mtl
usemtl palette

# normals
vn -1 0 0
vn 1 0 0
vn 0 0 1
vn 0 0 -1
vn 0 -1 0
vn 0 1 0

# texcoords
vt 0.00585938 0.5
vt 0.00976562 0.5
vt 0.111328 0.5
vt 0.298828 0.5
vt 0.966797 0.5

# verts
v -1.5 1.9 0
v -1.5 1.9 -0.3
v -1.5 2 0
v -1.5 2 -0.3
v -1.3 1.9 0.1
v -1.3 1.9 0
v -1.3 2 0.1
v -1.3 2 0
v -1.2 1.8 0
v -1.2 1.8 -0.3
v -1.2 1.9 0
v -1.2 1.9 -0.3
v -0.5 2.1 -0.1
v -0.5 2.1 -0.5
v -0.5 2.2 0
v -0.5 2.2 -0.1
v -0.5 2.3 0.1
v -0.5 2.3 0
v -0.5 2.3 -0.1
v -0.5 2.3 -0.2
v -0.5 2.5 0.2
v -0.5 2.5 0.1
v -0.5 2.6 0.3
v -0.5 2.6 0.2
v -0.5 2.6 -0.1
v -0.5 2.6 -0.2
v -0.5 2.8 -0.4
v -0.5 2.8 -0.5
v -0.5 2.9 0.3
v -0.5 2.9 -0.4
v -0.4 0 0.3
v -0.4 0 -0.3
v -0.4 0.2 0.3
v -0.4 0.2 0.1
v -0.4 0.2 -0.3
v -0.4 1.1 0.1
v -0.4 1.1 -0.3
v -0.4 1.1 -0.4
v -0.4 1.8 0
v -0.4 1.8 -0.3
v -0.4 1.9 -0.5
v -0.4 1.9 -0.6
v -0.4 2 0.1
v -0.4 2 0
v -0.4 2 -0.3
v -0.4 2 -0.4
v -0.4 2.1 0.4
v -0.4 2.1 0.3
v -0.4 2.1 -0.1
v -0.4 2.1 -0.5
v -0.4 2.2 0
v -0.4 2.2 -0.1
v -0.4 2.3 0.1
v -0.4 2.3 0
v -0.4 2.5 0.2
v -0.4 2.5 0.1
v -0.4 2.6 0.3
v -0.4 2.6 0.2
v -0.4 2.8 -0.4
v -0.4 2.8 -0.5
v -0.4 2.8 -0.6
v -0.4 2.9 0.4
v -0.4 2.9 0.3
v -0.4 2.9 -0.4
v -0.4 2.9 -0.5
v -0.4 3 0.3
v -0.4 3 -0.4
v -0.3 1.8 -0.5
v -0.3 1.8 -0.6
v -0.3 1.9 -0.5
v -0.3 1.9 -0.6
v -0.3 2 0
v -0.3 2 -0.3
v -0.3 2.1 0
v -0.3 2.1 -0.3
v -0.3 2.8 -0.5
v -0.3 2.8 -0.6
v -0.3 2.9 -0.4
v -0.3 2.9 -0.5
v -0.3 2.9 -0.6
v -0.3 3 -0.4
v -0.3 3 -0.5
v -0.2 1.7 -0.5
v -0.2 1.7 -0.6
v -0.2 1.8 -0.5
v -0.2 1.8 -0.6
v -0.1 1.6 -0.5
v -0.1 1.6 -0.6
v -0.1 1.7 -0.5
v -0.1 1.7 -0.6
v 0.1 0 0.3
v 0.1 0 -0.3
v 0.1 0.2 0.3
v 0.1 0.2 0.1
v 0.1 0.2 -0.3
v 0.1 1 0.1
v 0.1 1 -0.3
v 0.3 2.6 0.4
v 0.3 2.6 0.3
v 0.3 2.8 0.4
v 0.3 2.8 0.3
v 1.2 1.9 0.1
v 1.2 1.9 0
v 1.2 2 0.1
v 1.2 2 0
v -1.2 1.9 0.1
v -1.2 1.9 0
v -1.2 2 0.1
v -1.2 2 0
v -0.3 2.1 0.4
v -0.3 2.1 0.3
v -0.3 2.4 0.3
v -0.3 2.6 0.3
v -0.3 2.8 0.4
v -0.3 2.8 0.3
v -0.1 0 0.3
v -0.1 0 -0.3
v -0.1 0.2 0.3
v -0.1 0.2 0.1
v -0.1 0.2 -0.3
v -0.1 1 0.1
v -0.1 1 -0.3
v 0.1 1.6 -0.5
v 0.1 1.6 -0.6
v 0.1 1.7 -0.5
v 0.1 1.7 -0.6
v 0.2 1.7 -0.5
v 0.2 1.7 -0.6
v 0.2 1.8 -0.5
v 0.2 1.8 -0.6
v 0.3 1.8 -0.5
v 0.3 1.8 -0.6
v 0.3 1.9 -0.5
v 0.3 1.9 -0.6
v 0.3 2 0
v 0.3 2 -0.3
v 0.3 2.1 0
v 0.3 2.1 -0.3
v 0.3 2.8 -0.5
v 0.3 2.8 -0.6
v 0.3 2.9 -0.4
v 0.3 2.9 -0.5
v 0.3 2.9 -0.6
v 0.3 3 -0.4
v 0.3 3 -0.5
v 0.4 0 0.3
v 0.4 0 -0.3
v 0.4 0.2 0.3
v 0.4 0.2 0.1
v 0.4 0.2 -0.3
v 0.4 1.1 0.1
v 0.4 1.1 -0.3
v 0.4 1.1 -0.4
v 0.4 1.8 0
v 0.4 1.8 -0.3
v 0.4 1.9 -0.5
v 0.4 1.9 -0.6
v 0.4 2 0.1
v 0.4 2 0
v 0.4 2 -0.3
v 0.4 2 -0.4
v 0.4 2.1 0.2
v 0.4 2.1 -0.1
v 0.4 2.1 -0.5
v 0.4 2.2 0
v 0.4 2.2 -0.1
v 0.4 2.3 0.1
v 0.4 2.3 0
v 0.4 2.5 0.2
v 0.4 2.5 0.1
v 0.4 2.6 0.4
v 0.4 2.6 0.3
v 0.4 2.8 -0.4
v 0.4 2.8 -0.5
v 0.4 2.8 -0.6
v 0.4 2.9 0.4
v 0.4 2.9 0.3
v 0.4 2.9 -0.4
v 0.4 2.9 -0.5
v 0.4 3 0.3
v 0.4 3 -0.4
v 0.5 2.1 0.3
v 0.5 2.1 0.2
v 0.5 2.1 -0.1
v 0.5 2.1 -0.5
v 0.5 2.2 0
v 0.5 2.2 -0.1
v 0.5 2.3 0.1
v 0.5 2.3 0
v 0.5 2.3 -0.1
v 0.5 2.3 -0.2
v 0.5 2.5 0.2
v 0.5 2.5 0.1
v 0.5 2.6 -0.1
v 0.5 2.6 -0.2
v 0.5 2.8 -0.4
v 0.5 2.8 -0.5
v 0.5 2.9 0.3
v 0.5 2.9 -0.4
v 1.2 1.8 0
v 1.2 1.8 -0.3
v 1.2 1.9 0
v 1.2 1.9 -0.3
v 1.3 1.9 0.1
v 1.3 1.9 0
v 1.3 2 0.1
v 1.3 2 0
v 1.5 1.9 0
v 1.5 1.9 -0.3
v 1.5 2 0
v 1.5 2 -0.3
v -0.4 2.1 0.4
v -0.4 2.9 0.4
v -0.3 2.1 0.4
v -0.3 2.8 0.4
v 0.3 2.6 0.4
v 0.3 2.8 0.4
v 0.4 2.6 0.4
v 0.4 2.9 0.4
v -0.5 2.6 0.3
v -0.5 2.9 0.3
v -0.4 0 0.3
v -0.4 0.2 0.3
v -0.4 2.6 0.3
v -0.4 2.9 0.3
v -0.4 3 0.3
v -0.3 2.1 0.3
v -0.3 2.4 0.3
v -0.3 2.6 0.3
v -0.3 2.8 0.3
v -0.1 0 0.3
v -0.1 0.2 0.3
v -0.1 2.4 0.3
v -0.1 2.6 0.3
v 0.1 0 0.3
v 0.1 0.2 0.3
v 0.1 2.4 0.3
v 0.1 2.6 0.3
v 0.3 2.4 0.3
v 0.3 2.6 0.3
v 0.3 2.8 0.3
v 0.4 0 0.3
v 0.4 0.2 0.3
v 0.4 2.1 0.3
v 0.4 2.6 0.3
v 0.4 2.9 0.3
v 0.4 3 0.3
v 0.5 2.1 0.3
v 0.5 2.9 0.3
v -0.5 2.5 0.2
v -0.5 2.6 0.2
v -0.4 2.5 0.2
v -0.4 2.6 0.2
v -1.3 1.9 0.1
v -1.3 2 0.1
v -1.2 1.9 0.1
v -1.2 2 0.1
v -0.5 2.3 0.1
v -0.5 2.5 0.1
v -0.4 0.2 0.1
v -0.4 1.1 0.1
v -0.4 2 0.1
v -0.4 2.3 0.1
v -0.4 2.5 0.1
v -0.1 0.2 0.1
v -0.1 1 0.1
v 0.1 0.2 0.1
v 0.1 1 0.1
v 0.4 0.2 0.1
v 0.4 1.1 0.1
v 0.4 2 0.1
v 0.4 2.3 0.1
v 0.4 2.5 0.1
v 0.5 2.3 0.1
v 0.5 2.5 0.1
v 1.2 1.9 0.1
v 1.2 2 0.1
v 1.3 1.9 0.1
v 1.3 2 0.1
v -1.5 1.9 0
v -1.5 2 0
v -1.3 1.9 0
v -1.3 2 0
v -1.2 1.8 0
v -1.2 1.9 0
v -1.2 2 0
v -0.5 2.2 0
v -0.5 2.3 0
v -0.4 1.8 0
v -0.4 2 0
v -0.4 2.2 0
v -0.4 2.3 0
v -0.3 2 0
v -0.3 2.1 0
v 0.3 2 0
v 0.3 2.1 0
v 0.4 1.8 0
v 0.4 2 0
v 0.4 2.2 0
v 0.4 2.3 0
v 0.5 2.2 0
v 0.5 2.3 0
v 1.2 1.8 0
v 1.2 1.9 0
v 1.2 2 0
v 1.3 1.9 0
v 1.3 2 0
v 1.5 1.9 0
v 1.5 2 0
v -0.5 2.1 -0.1
v -0.5 2.2 -0.1
v -0.4 2.1 -0.1
v -0.4 2.2 -0.1
v 0.4 2.1 -0.1
v 0.4 2.2 -0.1
v 0.5 2.1 -0.1
v 0.5 2.2 -0.1
v -0.4 1.9 -0.5
v -0.4 2.1 -0.5
v -0.3 1.8 -0.5
v -0.3 1.9 -0.5
v -0.2 1.7 -0.5
v -0.2 1.8 -0.5
v -0.1 1.6 -0.5
v -0.1 1.7 -0.5
v 0.1 1.6 -0.5
v 0.1 1.7 -0.5
v 0.2 1.7 -0.5
v 0.2 1.8 -0.5
v 0.3 1.8 -0.5
v 0.3 1.9 -0.5
v 0.4 1.9 -0.5
v 0.4 2.1 -0.5
v 0.4 2.1 0.2
v 0.4 2.5 0.2
v 0.5 2.1 0.2
v 0.5 2.5 0.2
v -1.5 1.9 -0.3
v -1.5 2 -0.3
v -1.2 1.8 -0.3
v -1.2 1.9 -0.3
v -1.2 2 -0.3
v -0.4 0 -0.3
v -0.4 0.2 -0.3
v -0.4 1.1 -0.3
v -0.4 1.8 -0.3
v -0.4 2 -0.3
v -0.3 2 -0.3
v -0.3 2.1 -0.3
v -0.1 0 -0.3
v -0.1 0.2 -0.3
v -0.1 1 -0.3
v 0.1 0 -0.3
v 0.1 0.2 -0.3
v 0.1 1 -0.3
v 0.3 2 -0.3
v 0.3 2.1 -0.3
v 0.4 0 -0.3
v 0.4 0.2 -0.3
v 0.4 1.1 -0.3
v 0.4 1.8 -0.3
v 0.4 2 -0.3
v 1.2 1.8 -0.3
v 1.2 1.9 -0.3
v 1.2 2 -0.3
v 1.5 1.9 -0.3
v 1.5 2 -0.3
v -0.5 2.8 -0.4
v -0.5 2.9 -0.4
v -0.4 1.1 -0.4
v -0.4 2 -0.4
v -0.4 2.8 -0.4
v -0.4 2.9 -0.4
v -0.4 3 -0.4
v -0.3 2.9 -0.4
v -0.3 3 -0.4
v 0.3 2.9 -0.4
v 0.3 3 -0.4
v 0.4 1.1 -0.4
v 0.4 2 -0.4
v 0.4 2.8 -0.4
v 0.4 2.9 -0.4
v 0.4 3 -0.4
v 0.5 2.8 -0.4
v 0.5 2.9 -0.4
v -0.5 2.1 -0.5
v -0.5 2.8 -0.5
v -0.4 2.1 -0.5
v -0.4 2.8 -0.5
v -0.4 2.9 -0.5
v -0.3 2.8 -0.5
v -0.3 2.9 -0.5
v -0.3 3 -0.5
v 0.3 2.8 -0.5
v 0.3 2.9 -0.5
v 0.3 3 -0.5
v 0.4 2.1 -0.5
v 0.4 2.8 -0.5
v 0.4 2.9 -0.5
v 0.5 2.1 -0.5
v 0.5 2.8 -0.5
v -0.4 1.9 -0.6
v -0.4 2.8 -0.6
v -0.3 1.8 -0.6
v -0.3 1.9 -0.6
v -0.3 2.8 -0.6
v -0.3 2.9 -0.6
v -0.2 1.7 -0.6
v -0.2 1.8 -0.6
v -0.1 1.6 -0.6
v -0.1 1.7 -0.6
v 0.1 1.6 -0.6
v 0.1 1.7 -0.6
v 0.2 1.7 -0.6
v 0.2 1.8 -0.6
v 0.3 1.8 -0.6
v 0.3 1.9 -0.6
v 0.3 2.8 -0.6
v 0.3 2.9 -0.6
v 0.4 1.9 -0.6
v 0.4 2.8 -0.6
v -0.4 0 0.3
v -0.1 0 0.3
v 0.1 0 0.3
v 0.4 0 0.3
v -0.4 0 -0.3
v -0.1 0 -0.3
v 0.1 0 -0.3
v 0.4 0 -0.3
v -0.1 1 0.1
v 0.1 1 0.1
v -0.1 1 -0.3
v 0.1 1 -0.3
v -0.4 1.1 -0.3
v 0.4 1.1 -0.3
v -0.4 1.1 -0.4
v 0.4 1.1 -0.4
v -0.1 1.6 -0.5
v 0.1 1.6 -0.5
v -0.1 1.6 -0.6
v 0.1 1.6 -0.6
v -0.2 1.7 -0.5
v -0.1 1.7 -0.5
v 0.1 1.7 -0.5
v 0.2 1.7 -0.5
v -0.2 1.7 -0.6
v -0.1 1.7 -0.6
v 0.1 1.7 -0.6
v 0.2 1.7 -0.6
v -1.2 1.8 0
v -0.4 1.8 0
v 0.4 1.8 0
v 1.2 1.8 0
v -1.2 1.8 -0.3
v -0.4 1.8 -0.3
v 0.4 1.8 -0.3
v 1.2 1.8 -0.3
v -0.3 1.8 -0.5
v -0.2 1.8 -0.5
v 0.2 1.8 -0.5
v 0.3 1.8 -0.5
v -0.3 1.8 -0.6
v -0.2 1.8 -0.6
v 0.2 1.8 -0.6
v 0.3 1.8 -0.6
v -1.3 1.9 0.1
v -1.2 1.9 0.1
v 1.2 1.9 0.1
v 1.3 1.9 0.1
v -1.5 1.9 0
v -1.3 1.9 0
v -1.2 1.9 0
v 1.2 1.9 0
v 1.3 1.9 0
v 1.5 1.9 0
v -1.5 1.9 -0.3
v -1.2 1.9 -0.3
v 1.2 1.9 -0.3
v 1.5 1.9 -0.3
v -0.4 1.9 -0.5
v -0.3 1.9 -0.5
v 0.3 1.9 -0.5
v 0.4 1.9 -0.5
v -0.4 1.9 -0.6
v -0.3 1.9 -0.6
v 0.3 1.9 -0.6
v 0.4 1.9 -0.6
v -0.4 2.1 0.4
v -0.3 2.1 0.4
v -0.4 2.1 0.3
v -0.3 2.1 0.3
v 0.4 2.1 0.3
v 0.5 2.1 0.3
v 0.4 2.1 0.2
v 0.5 2.1 0.2
v -0.3 2.1 0
v 0.3 2.1 0
v -0.5 2.1 -0.1
v -0.4 2.1 -0.1
v 0.4 2.1 -0.1
v 0.5 2.1 -0.1
v -0.3 2.1 -0.3
v 0.3 2.1 -0.3
v -0.5 2.1 -0.5
v -0.4 2.1 -0.5
v 0.4 2.1 -0.5
v 0.5 2.1 -0.5
v -0.5 2.2 0
v -0.4 2.2 0
v 0.4 2.2 0
v 0.5 2.2 0
v -0.5 2.2 -0.1
v -0.4 2.2 -0.1
v 0.4 2.2 -0.1
v 0.5 2.2 -0.1
v -0.5 2.3 0.1
v -0.4 2.3 0.1
v 0.4 2.3 0.1
v 0.5 2.3 0.1
v -0.5 2.3 0
v -0.4 2.3 0
v 0.4 2.3 0
v 0.5 2.3 0
v -0.5 2.5 0.2
v -0.4 2.5 0.2
v 0.4 2.5 0.2
v 0.5 2.5 0.2
v -0.5 2.5 0.1
v -0.4 2.5 0.1
v 0.4 2.5 0.1
v 0.5 2.5 0.1
v 0.3 2.6 0.4
v 0.4 2.6 0.4
v -0.5 2.6 0.3
v -0.4 2.6 0.3
v 0.3 2.6 0.3
v 0.4 2.6 0.3
v -0.5 2.6 0.2
v -0.4 2.6 0.2
v -0.3 2.8 0.4
v 0.3 2.8 0.4
v -0.3 2.8 0.3
v 0.3 2.8 0.3
v -0.4 0.2 0.3
v -0.1 0.2 0.3
v 0.1 0.2 0.3
v 0.4 0.2 0.3
v -0.4 0.2 0.1
v -0.1 0.2 0.1
v 0.1 0.2 0.1
v 0.4 0.2 0.1
v -1.3 2 0.1
v -1.2 2 0.1
v -0.4 2 0.1
v 0.4 2 0.1
v 1.2 2 0.1
v 1.3 2 0.1
v -1.5 2 0
v -1.3 2 0
v -1.2 2 0
v -0.4 2 0
v -0.3 2 0
v 0.3 2 0
v 0.4 2 0
v 1.2 2 0
v 1.3 2 0
v 1.5 2 0
v -1.5 2 -0.3
v -1.2 2 -0.3
v -0.4 2 -0.3
v -0.3 2 -0.3
v 0.3 2 -0.3
v 0.4 2 -0.3
v 1.2 2 -0.3
v 1.5 2 -0.3
v -0.4 2 -0.4
v 0.4 2 -0.4
v -0.5 2.8 -0.4
v -0.4 2.8 -0.4
v 0.4 2.8 -0.4
v 0.5 2.8 -0.4
v -0.5 2.8 -0.5
v -0.4 2.8 -0.5
v -0.3 2.8 -0.5
v 0.3 2.8 -0.5
v 0.4 2.8 -0.5
v 0.5 2.8 -0.5
v -0.4 2.8 -0.6
v -0.3 2.8 -0.6
v 0.3 2.8 -0.6
v 0.4 2.8 -0.6
v -0.4 2.9 0.4
v 0.4 2.9 0.4
v -0.5 2.9 0.3
v -0.4 2.9 0.3
v 0.4 2.9 0.3
v 0.5 2.9 0.3
v -0.5 2.9 -0.4
v -0.4 2.9 -0.4
v -0.3 2.9 -0.4
v 0.3 2.9 -0.4
v 0.4 2.9 -0.4
v 0.5 2.9 -0.4
v -0.4 2.9 -0.5
v -0.3 2.9 -0.5
v 0.3 2.9 -0.5
v 0.4 2.9 -0.5
v -0.3 2.9 -0.6
v 0.3 2.9 -0.6
v -0.4 3 0.3
v 0.4 3 0.3
v -0.4 3 -0.4
v -0.3 3 -0.4
v 0.3 3 -0.4
v 0.4 3 -0.4
v -0.3 3 -0.5
v 0.3 3 -0.5

# faces
f 3/5/1 2/5/1 1/5/1
f 4/5/1 2/5/1 3/5/1
f 7/5/1 6/5/1 5/5/1
f 8/5/1 6/5/1 7/5/1
f 11/4/1 10/4/1 9/4/1
f 12/4/1 10/4/1 11/4/1
f 16/1/1 14/1/1 13/1/1
f 18/1/1 16/1/1 15/1/1
f 19/1/1 14/1/1 16/1/1
f 19/1/1 16/1/1 18/1/1
f 20/1/1 14/1/1 19/1/1
f 22/1/1 18/1/1 17/1/1
f 22/1/1 19/1/1 18/1/1
f 24/1/1 22/1/1 21/1/1
f 25/5/1 20/5/1 19/5/1
f 25/1/1 19/1/1 22/1/1
f 25/1/1 22/1/1 24/1/1
f 26/1/1 14/1/1 20/1/1
f 26/5/1 20/5/1 25/5/1
f 27/1/1 25/1/1 24/1/1
f 27/1/1 14/1/1 26/1/1
f 27/1/1 26/1/1 25/1/1
f 27/1/1 24/1/1 23/1/1
f 28/1/1 14/1/1 27/1/1
f 29/1/1 27/1/1 23/1/1
f 30/1/1 27/1/1 29/1/1
f 33/1/1 32/1/1 31/1/1
f 34/1/1 32/1/1 33/1/1
f 35/1/1 32/1/1 34/1/1
f 36/3/1 35/3/1 34/3/1
f 37/3/1 35/3/1 36/3/1
f 39/4/1 37/4/1 36/4/1
f 39/4/1 38/4/1 37/4/1
f 40/4/1 38/4/1 39/4/1
f 43/4/1 39/4/1 36/4/1
f 44/4/1 39/4/1 43/4/1
f 45/4/1 38/4/1 40/4/1
f 46/4/1 38/4/1 45/4/1
f 50/1/1 42/1/1 41/1/1
f 51/5/1 49/5/1 48/5/1
f 52/5/1 49/5/1 51/5/1
f 53/5/1 51/5/1 48/5/1
f 54/5/1 51/5/1 53/5/1
f 55/5/1 53/5/1 48/5/1
f 56/5/1 53/5/1 55/5/1
f 57/1/1 48/1/1 47/1/1
f 57/5/1 55/5/1 48/5/1
f 58/5/1 55/5/1 57/5/1
f 60/1/1 42/1/1 50/1/1
f 61/1/1 42/1/1 60/1/1
f 62/1/1 57/1/1 47/1/1
f 63/1/1 57/1/1 62/1/1
f 64/1/1 60/1/1 59/1/1
f 65/1/1 60/1/1 64/1/1
f 66/1/1 64/1/1 63/1/1
f 67/1/1 64/1/1 66/1/1
f 70/1/1 69/1/1 68/1/1
f 71/1/1 69/1/1 70/1/1
f 74/5/1 73/5/1 72/5/1
f 75/5/1 73/5/1 74/5/1
f 79/1/1 77/1/1 76/1/1
f 80/1/1 77/1/1 79/1/1
f 81/1/1 79/1/1 78/1/1
f 82/1/1 79/1/1 81/1/1
f 85/1/1 84/1/1 83/1/1
f 86/1/1 84/1/1 85/1/1
f 89/1/1 88/1/1 87/1/1
f 90/1/1 88/1/1 89/1/1
f 93/1/1 92/1/1 91/1/1
f 94/1/1 92/1/1 93/1/1
f 95/1/1 92/1/1 94/1/1
f 96/3/1 95/3/1 94/3/1
f 97/3/1 95/3/1 96/3/1
f 100/1/1 99/1/1 98/1/1
f 101/1/1 99/1/1 100/1/1
f 104/5/1 103/5/1 102/5/1
f 105/5/1 103/5/1 104/5/1
f 106/5/2 107/5/2 108/5/2
f 108/5/2 107/5/2 109/5/2
f 110/1/2 111/1/2 112/1/2
f 110/1/2 112/1/2 113/1/2
f 110/1/2 113/1/2 114/1/2
f 114/1/2 113/1/2 115/1/2
f 116/1/2 117/1/2 118/1/2
f 118/1/2 117/1/2 119/1/2
f 119/1/2 117/1/2 120/1/2
f 119/3/2 120/3/2 121/3/2
f 121/3/2 120/3/2 122/3/2
f 123/1/2 124/1/2 125/1/2
f 125/1/2 124/1/2 126/1/2
f 127/1/2 128/1/2 129/1/2
f 129/1/2 128/1/2 130/1/2
f 131/1/2 132/1/2 133/1/2
f 133/1/2 132/1/2 134/1/2
f 135/5/2 136/5/2 137/5/2
f 137/5/2 136/5/2 138/5/2
f 139/1/2 140/1/2 142/1/2
f 142/1/2 140/1/2 143/1/2
f 141/1/2 142/1/2 144/1/2
f 144/1/2 142/1/2 145/1/2
f 146/1/2 147/1/2 148/1/2
f 148/1/2 147/1/2 149/1/2
f 149/1/2 147/1/2 150/1/2
f 149/3/2 150/3/2 151/3/2
f 151/3/2 150/3/2 152/3/2
f 151/4/2 152/4/2 154/4/2
f 152/4/2 153/4/2 154/4/2
f 154/4/2 153/4/2 155/4/2
f 151/4/2 154/4/2 158/4/2
f 158/4/2 154/4/2 159/4/2
f 155/4/2 153/4/2 160/4/2
f 160/4/2 153/4/2 161/4/2
f 156/1/2 157/1/2 164/1/2
f 162/5/2 163/5/2 165/5/2
f 165/5/2 163/5/2 166/5/2
f 162/5/2 165/5/2 167/5/2
f 167/5/2 165/5/2 168/5/2
f 162/5/2 167/5/2 169/5/2
f 169/5/2 167/5/2 170/5/2
f 164/1/2 157/1/2 174/1/2
f 174/1/2 157/1/2 175/1/2
f 171/1/2 172/1/2 176/1/2
f 176/1/2 172/1/2 177/1/2
f 173/1/2 174/1/2 178/1/2
f 178/1/2 174/1/2 179/1/2
f 177/1/2 178/1/2 180/1/2
f 180/1/2 178/1/2 181/1/2
f 184/1/2 185/1/2 187/1/2
f 186/1/2 187/1/2 189/1/2
f 187/1/2 185/1/2 190/1/2
f 189/1/2 187/1/2 190/1/2
f 190/1/2 185/1/2 191/1/2
f 182/1/2 183/1/2 192/1/2
f 188/1/2 189/1/2 193/1/2
f 189/1/2 190/1/2 193/1/2
f 190/5/2 191/5/2 194/5/2
f 192/1/2 193/1/2 194/1/2
f 193/1/2 190/1/2 194/1/2
f 191/1/2 185/1/2 195/1/2
f 194/5/2 191/5/2 195/5/2
f 194/1/2 195/1/2 196/1/2
f 195/1/2 185/1/2 196/1/2
f 196/1/2 185/1/2 197/1/2
f 192/1/2 194/1/2 198/1/2
f 182/1/2 192/1/2 198/1/2
f 194/1/2 196/1/2 198/1/2
f 198/1/2 196/1/2 199/1/2
f 200/4/2 201/4/2 202/4/2
f 202/4/2 201/4/2 203/4/2
f 204/5/2 205/5/2 206/5/2
f 206/5/2 205/5/2 207/5/2
f 208/5/2 209/5/2 210/5/2
f 210/5/2 209/5/2 211/5/2
f 214/1/3 213/1/3 212/1/3
f 215/1/3 213/1/3 214/1/3
f 217/1/3 213/1/3 215/1/3
f 218/1/3 217/1/3 216/1/3
f 219/1/3 213/1/3 217/1/3
f 219/1/3 217/1/3 218/1/3
f 224/1/3 221/1/3 220/1/3
f 225/1/3 221/1/3 224/1/3
f 231/1/3 223/1/3 222/1/3
f 232/1/3 223/1/3 231/1/3
f 233/5/3 228/5/3 227/5/3
f 233/2/3 229/2/3 228/2/3
f 234/5/3 230/5/3 229/5/3
f 234/2/3 229/2/3 233/2/3
f 237/5/3 233/5/3 227/5/3
f 237/5/3 234/5/3 233/5/3
f 238/5/3 230/5/3 234/5/3
f 238/5/3 234/5/3 237/5/3
f 239/5/3 237/5/3 227/5/3
f 239/2/3 238/2/3 237/2/3
f 240/5/3 230/5/3 238/5/3
f 240/2/3 238/2/3 239/2/3
f 241/5/3 230/5/3 240/5/3
f 242/1/3 236/1/3 235/1/3
f 243/1/3 236/1/3 242/1/3
f 244/5/3 239/5/3 227/5/3
f 244/5/3 240/5/3 239/5/3
f 245/5/3 240/5/3 244/5/3
f 246/1/3 226/1/3 225/1/3
f 247/1/3 226/1/3 246/1/3
f 248/1/3 245/1/3 244/1/3
f 248/1/3 246/1/3 245/1/3
f 249/1/3 246/1/3 248/1/3
f 252/1/3 251/1/3 250/1/3
f 253/1/3 251/1/3 252/1/3
f 256/5/3 255/5/3 254/5/3
f 257/5/3 255/5/3 256/5/3
f 263/1/3 259/1/3 258/1/3
f 264/1/3 259/1/3 263/1/3
f 265/3/3 261/3/3 260/3/3
f 266/3/3 261/3/3 265/3/3
f 268/3/3 261/3/3 266/3/3
f 269/3/3 268/3/3 267/3/3
f 270/4/3 262/4/3 261/4/3
f 270/3/3 268/3/3 269/3/3
f 270/3/3 261/3/3 268/3/3
f 271/4/3 262/4/3 270/4/3
f 274/1/3 273/1/3 272/1/3
f 275/1/3 273/1/3 274/1/3
f 278/5/3 277/5/3 276/5/3
f 279/5/3 277/5/3 278/5/3
f 282/5/3 281/5/3 280/5/3
f 283/5/3 281/5/3 282/5/3
f 289/4/3 286/4/3 285/4/3
f 289/4/3 285/4/3 284/4/3
f 290/4/3 286/4/3 289/4/3
f 291/1/3 288/1/3 287/1/3
f 292/1/3 288/1/3 291/1/3
f 295/5/3 294/5/3 293/5/3
f 296/5/3 294/5/3 295/5/3
f 301/1/3 300/1/3 299/1/3
f 302/1/3 300/1/3 301/1/3
f 303/4/3 298/4/3 297/4/3
f 304/4/3 298/4/3 303/4/3
f 305/4/3 298/4/3 304/4/3
f 308/5/3 307/5/3 306/5/3
f 309/5/3 307/5/3 308/5/3
f 312/1/3 311/1/3 310/1/3
f 313/1/3 311/1/3 312/1/3
f 316/1/3 315/1/3 314/1/3
f 317/1/3 315/1/3 316/1/3
f 321/1/3 319/1/3 318/1/3
f 323/1/3 321/1/3 320/1/3
f 325/1/3 323/1/3 322/1/3
f 326/1/3 325/1/3 324/1/3
f 327/1/3 323/1/3 325/1/3
f 327/1/3 325/1/3 326/1/3
f 328/1/3 323/1/3 327/1/3
f 329/1/3 321/1/3 323/1/3
f 329/1/3 323/1/3 328/1/3
f 330/1/3 321/1/3 329/1/3
f 331/1/3 319/1/3 321/1/3
f 331/1/3 321/1/3 330/1/3
f 332/1/3 319/1/3 331/1/3
f 333/1/3 319/1/3 332/1/3
f 334/1/4 335/1/4 336/1/4
f 336/1/4 335/1/4 337/1/4
f 338/5/4 339/5/4 341/5/4
f 341/5/4 339/5/4 342/5/4
f 340/4/4 341/4/4 346/4/4
f 341/4/4 342/4/4 346/4/4
f 346/4/4 342/4/4 347/4/4
f 343/1/4 344/1/4 350/1/4
f 344/3/4 345/3/4 351/3/4
f 350/1/4 344/1/4 351/1/4
f 351/3/4 345/3/4 352/3/4
f 352/3/4 345/3/4 355/3/4
f 348/5/4 349/5/4 356/5/4
f 356/5/4 349/5/4 357/5/4
f 353/1/4 354/1/4 358/1/4
f 354/3/4 355/3/4 359/3/4
f 358/1/4 354/1/4 359/1/4
f 355/3/4 345/3/4 360/3/4
f 359/3/4 355/3/4 360/3/4
f 361/4/4 362/4/4 363/4/4
f 363/4/4 362/4/4 364/4/4
f 364/4/4 362/4/4 365/4/4
f 364/5/4 365/5/4 366/5/4
f 366/5/4 365/5/4 367/5/4
f 368/1/4 369/1/4 372/1/4
f 372/1/4 369/1/4 373/1/4
f 373/1/4 374/1/4 375/1/4
f 375/1/4 374/1/4 376/1/4
f 370/4/4 371/4/4 379/4/4
f 379/4/4 371/4/4 380/4/4
f 377/1/4 378/1/4 382/1/4
f 382/1/4 378/1/4 383/1/4
f 381/1/4 382/1/4 384/1/4
f 384/1/4 382/1/4 385/1/4
f 386/1/4 387/1/4 388/1/4
f 388/1/4 387/1/4 389/1/4
f 389/1/4 390/1/4 391/1/4
f 391/1/4 390/1/4 392/1/4
f 392/1/4 393/1/4 395/1/4
f 395/1/4 393/1/4 396/1/4
f 394/1/4 395/1/4 398/1/4
f 398/1/4 395/1/4 399/1/4
f 397/1/4 398/1/4 400/1/4
f 400/1/4 398/1/4 401/1/4
f 402/1/4 403/1/4 405/1/4
f 405/1/4 403/1/4 406/1/4
f 404/1/4 405/1/4 409/1/4
f 406/1/4 407/1/4 409/1/4
f 405/1/4 406/1/4 409/1/4
f 408/1/4 409/1/4 411/1/4
f 410/1/4 411/1/4 412/1/4
f 411/1/4 409/1/4 413/1/4
f 412/1/4 411/1/4 413/1/4
f 413/1/4 409/1/4 414/1/4
f 409/1/4 407/1/4 415/1/4
f 414/1/4 409/1/4 415/1/4
f 415/1/4 407/1/4 416/1/4
f 416/1/4 407/1/4 417/1/4
f 417/1/4 407/1/4 418/1/4
f 418/1/4 407/1/4 419/1/4
f 417/1/4 418/1/4 420/1/4
f 420/1/4 418/1/4 421/1/4
f 426/1/5 423/1/5 422/1/5
f 427/1/5 423/1/5 426/1/5
f 428/1/5 425/1/5 424/1/5
f 429/1/5 425/1/5 428/1/5
f 432/3/5 431/3/5 430/3/5
f 433/3/5 431/3/5 432/3/5
f 436/4/5 435/4/5 434/4/5
f 437/4/5 435/4/5 436/4/5
f 440/1/5 439/1/5 438/1/5
f 441/1/5 439/1/5 440/1/5
f 446/1/5 443/1/5 442/1/5
f 447/1/5 443/1/5 446/1/5
f 448/1/5 445/1/5 444/1/5
f 449/1/5 445/1/5 448/1/5
f 454/4/5 451/4/5 450/4/5
f 455/4/5 451/4/5 454/4/5
f 456/4/5 453/4/5 452/4/5
f 457/4/5 453/4/5 456/4/5
f 462/1/5 459/1/5 458/1/5
f 463/1/5 459/1/5 462/1/5
f 464/1/5 461/1/5 460/1/5
f 465/1/5 461/1/5 464/1/5
f 471/5/5 467/5/5 466/5/5
f 472/5/5 467/5/5 471/5/5
f 473/5/5 469/5/5 468/5/5
f 474/5/5 469/5/5 473/5/5
f 476/5/5 472/5/5 471/5/5
f 476/5/5 471/5/5 470/5/5
f 477/5/5 472/5/5 476/5/5
f 478/5/5 475/5/5 474/5/5
f 478/5/5 474/5/5 473/5/5
f 479/5/5 475/5/5 478/5/5
f 484/1/5 481/1/5 480/1/5
f 485/1/5 481/1/5 484/1/5
f 486/1/5 483/1/5 482/1/5
f 487/1/5 483/1/5 486/1/5
f 490/1/5 489/1/5 488/1/5
f 491/1/5 489/1/5 490/1/5
f 494/5/5 491/5/5 490/5/5
f 494/1/5 493/1/5 492/1/5
f 494/5/5 492/5/5 491/5/5
f 495/1/5 493/1/5 494/1/5
f 496/5/5 494/5/5 490/5/5
f 497/5/5 494/5/5 496/5/5
f 499/5/5 496/5/5 490/5/5
f 500/5/5 494/5/5 497/5/5
f 502/5/5 496/5/5 499/5/5
f 503/5/5 500/5/5 497/5/5
f 504/1/5 499/1/5 498/1/5
f 505/5/5 503/5/5 502/5/5
f 505/1/5 499/1/5 504/1/5
f 505/5/5 502/5/5 499/5/5
f 506/1/5 501/1/5 500/1/5
f 506/5/5 503/5/5 505/5/5
f 506/5/5 500/5/5 503/5/5
f 507/1/5 501/1/5 506/1/5
f 512/1/5 509/1/5 508/1/5
f 513/1/5 509/1/5 512/1/5
f 514/1/5 511/1/5 510/1/5
f 515/1/5 511/1/5 514/1/5
f 520/1/5 517/1/5 516/1/5
f 521/1/5 517/1/5 520/1/5
f 522/1/5 519/1/5 518/1/5
f 523/1/5 519/1/5 522/1/5
f 528/1/5 525/1/5 524/1/5
f 529/1/5 525/1/5 528/1/5
f 530/1/5 527/1/5 526/1/5
f 531/1/5 527/1/5 530/1/5
f 536/1/5 533/1/5 532/1/5
f 537/1/5 533/1/5 536/1/5
f 538/1/5 535/1/5 534/1/5
f 539/1/5 535/1/5 538/1/5
f 542/1/5 541/1/5 540/1/5
f 543/1/5 541/1/5 542/1/5
f 544/1/6 545/1/6 548/1/6
f 548/1/6 545/1/6 549/1/6
f 546/1/6 547/1/6 550/1/6
f 550/1/6 547/1/6 551/1/6
f 552/5/6 553/5/6 559/5/6
f 559/5/6 553/5/6 560/5/6
f 554/4/6 555/4/6 561/4/6
f 561/4/6 555/4/6 562/4/6
f 562/4/6 555/4/6 563/4/6
f 563/4/6 555/4/6 564/4/6
f 556/5/6 557/5/6 565/5/6
f 565/5/6 557/5/6 566/5/6
f 559/5/6 560/5/6 568/5/6
f 558/5/6 559/5/6 568/5/6
f 560/4/6 561/4/6 569/4/6
f 568/5/6 560/5/6 569/5/6
f 561/4/6 562/4/6 569/4/6
f 569/4/6 562/4/6 570/4/6
f 570/4/6 562/4/6 571/4/6
f 563/4/6 564/4/6 572/4/6
f 564/4/6 565/4/6 572/4/6
f 572/4/6 565/4/6 573/4/6
f 566/5/6 567/5/6 574/5/6
f 573/4/6 565/4/6 574/4/6
f 565/5/6 566/5/6 574/5/6
f 574/5/6 567/5/6 575/5/6
f 570/4/6 571/4/6 576/4/6
f 572/4/6 573/4/6 576/4/6
f 571/4/6 572/4/6 576/4/6
f 576/4/6 573/4/6 577/4/6
f 578/1/6 579/1/6 582/1/6
f 582/1/6 579/1/6 583/1/6
f 580/1/6 581/1/6 586/1/6
f 586/1/6 581/1/6 587/1/6
f 583/1/6 584/1/6 588/1/6
f 588/1/6 584/1/6 589/1/6
f 585/1/6 586/1/6 590/1/6
f 590/1/6 586/1/6 591/1/6
f 592/1/6 593/1/6 595/1/6
f 595/1/6 593/1/6 596/1/6
f 594/1/6 595/1/6 598/1/6
f 598/1/6 595/1/6 599/1/6
f 596/1/6 597/1/6 602/1/6
f 602/1/6 597/1/6 603/1/6
f 599/1/6 600/1/6 604/1/6
f 604/1/6 600/1/6 605/1/6
f 601/1/6 602/1/6 606/1/6
f 606/1/6 602/1/6 607/1/6
f 605/1/6 606/1/6 608/1/6
f 608/1/6 606/1/6 609/1/6
f 610/1/6 611/1/6 612/1/6
f 612/1/6 611/1/6 613/1/6
f 613/1/6 611/1/6 614/1/6
f 614/1/6 611/1/6 615/1/6
f 613/1/6 614/1/6 616/1/6
f 616/1/6 614/1/6 617/1/6
