# MagicaVoxel @ Ephtracy

# group
o 

# material
mtllib student-6.mtl
usemtl palette

# normals
vn -1 0 0
vn 1 0 0
vn 0 0 1
vn 0 0 -1
vn 0 -1 0
vn 0 1 0

# texcoords
vt 0.00585938 0.5
vt 0.00976562 0.5
vt 0.0722656 0.5
vt 0.154297 0.5
vt 0.283203 0.5
vt 0.294922 0.5
vt 0.716797 0.5
vt 0.966797 0.5

# verts
v -1.5 1.9 0
v -1.5 1.9 -0.3
v -1.5 2 0
v -1.5 2 -0.3
v -1.3 1.9 0.1
v -1.3 1.9 0
v -1.3 2 0.1
v -1.3 2 0
v -1.2 1.8 0
v -1.2 1.8 -0.3
v -1.2 1.9 0
v -1.2 1.9 -0.3
v -0.5 2.1 -0.1
v -0.5 2.1 -0.5
v -0.5 2.2 0
v -0.5 2.2 -0.1
v -0.5 2.3 0.1
v -0.5 2.3 0
v -0.5 2.3 -0.1
v -0.5 2.3 -0.2
v -0.5 2.5 0.2
v -0.5 2.5 0.1
v -0.5 2.6 0.3
v -0.5 2.6 0.2
v -0.5 2.6 -0.1
v -0.5 2.6 -0.2
v -0.5 2.8 -0.4
v -0.5 2.8 -0.5
v -0.5 2.9 0.3
v -0.5 2.9 -0.4
v -0.4 0 0.3
v -0.4 0 -0.3
v -0.4 0.1 0.3
v -0.4 0.1 -0.3
v -0.4 0.2 0.3
v -0.4 0.2 -0.3
v -0.4 0.7 0.1
v -0.4 0.7 -0.3
v -0.4 1.1 0.1
v -0.4 1.1 -0.3
v -0.4 1.1 -0.4
v -0.4 1.8 0
v -0.4 1.8 -0.3
v -0.4 2 0.1
v -0.4 2 0
v -0.4 2 -0.3
v -0.4 2 -0.4
v -0.4 2.1 0.4
v -0.4 2.1 0.3
v -0.4 2.1 -0.1
v -0.4 2.1 -0.5
v -0.4 2.1 -0.6
v -0.4 2.2 0
v -0.4 2.2 -0.1
v -0.4 2.3 0.1
v -0.4 2.3 0
v -0.4 2.5 0.2
v -0.4 2.5 0.1
v -0.4 2.6 0.3
v -0.4 2.6 0.2
v -0.4 2.8 -0.4
v -0.4 2.8 -0.5
v -0.4 2.8 -0.6
v -0.4 2.9 0.4
v -0.4 2.9 0.3
v -0.4 2.9 -0.4
v -0.4 2.9 -0.5
v -0.4 3 0.3
v -0.4 3 -0.4
v -0.3 0.2 0
v -0.3 0.2 -0.2
v -0.3 0.7 0
v -0.3 0.7 -0.2
v -0.3 2 0
v -0.3 2 -0.3
v -0.3 2.1 0
v -0.3 2.1 -0.3
v -0.3 2.8 -0.5
v -0.3 2.8 -0.6
v -0.3 2.9 -0.4
v -0.3 2.9 -0.5
v -0.3 2.9 -0.6
v -0.3 3 -0.4
v -0.3 3 -0.5
v -0.1 1.6 -0.5
v -0.1 1.6 -0.6
v -0.1 2.1 -0.5
v -0.1 2.1 -0.6
v 0.1 0 0.3
v 0.1 0 -0.3
v 0.1 0.1 0.3
v 0.1 0.1 -0.3
v 0.1 0.2 0.3
v 0.1 0.2 0
v 0.1 0.2 -0.2
v 0.1 0.2 -0.3
v 0.1 0.7 0
v 0.1 0.7 -0.2
v 0.3 2.6 0.4
v 0.3 2.6 0.3
v 0.3 2.8 0.4
v 0.3 2.8 0.3
v 1.2 1.9 0.1
v 1.2 1.9 0
v 1.2 2 0.1
v 1.2 2 0
v -1.2 1.9 0.1
v -1.2 1.9 0
v -1.2 2 0.1
v -1.2 2 0
v -0.3 2.1 0.4
v -0.3 2.1 0.3
v -0.3 2.4 0.3
v -0.3 2.6 0.3
v -0.3 2.8 0.4
v -0.3 2.8 0.3
v -0.1 0 0.3
v -0.1 0 -0.3
v -0.1 0.1 0.3
v -0.1 0.1 -0.3
v -0.1 0.2 0.3
v -0.1 0.2 0
v -0.1 0.2 -0.2
v -0.1 0.2 -0.3
v -0.1 0.7 0
v -0.1 0.7 -0.2
v 0.1 1.6 -0.5
v 0.1 1.6 -0.6
v 0.1 2.1 -0.5
v 0.1 2.1 -0.6
v 0.3 0.2 0
v 0.3 0.2 -0.2
v 0.3 0.7 0
v 0.3 0.7 -0.2
v 0.3 2 0
v 0.3 2 -0.3
v 0.3 2.1 0
v 0.3 2.1 -0.3
v 0.3 2.8 -0.5
v 0.3 2.8 -0.6
v 0.3 2.9 -0.4
v 0.3 2.9 -0.5
v 0.3 2.9 -0.6
v 0.3 3 -0.4
v 0.3 3 -0.5
v 0.4 0 0.3
v 0.4 0 -0.3
v 0.4 0.1 0.3
v 0.4 0.1 -0.3
v 0.4 0.2 0.3
v 0.4 0.2 -0.3
v 0.4 0.7 0.1
v 0.4 0.7 -0.3
v 0.4 1.1 0.1
v 0.4 1.1 -0.3
v 0.4 1.1 -0.4
v 0.4 1.8 0
v 0.4 1.8 -0.3
v 0.4 2 0.1
v 0.4 2 0
v 0.4 2 -0.3
v 0.4 2 -0.4
v 0.4 2.1 0.2
v 0.4 2.1 -0.1
v 0.4 2.1 -0.5
v 0.4 2.1 -0.6
v 0.4 2.2 0
v 0.4 2.2 -0.1
v 0.4 2.3 0.1
v 0.4 2.3 0
v 0.4 2.5 0.2
v 0.4 2.5 0.1
v 0.4 2.6 0.4
v 0.4 2.6 0.3
v 0.4 2.8 -0.4
v 0.4 2.8 -0.5
v 0.4 2.8 -0.6
v 0.4 2.9 0.4
v 0.4 2.9 0.3
v 0.4 2.9 -0.4
v 0.4 2.9 -0.5
v 0.4 3 0.3
v 0.4 3 -0.4
v 0.5 2.1 0.3
v 0.5 2.1 0.2
v 0.5 2.1 -0.1
v 0.5 2.1 -0.5
v 0.5 2.2 0
v 0.5 2.2 -0.1
v 0.5 2.3 0.1
v 0.5 2.3 0
v 0.5 2.3 -0.1
v 0.5 2.3 -0.2
v 0.5 2.5 0.2
v 0.5 2.5 0.1
v 0.5 2.6 -0.1
v 0.5 2.6 -0.2
v 0.5 2.8 -0.4
v 0.5 2.8 -0.5
v 0.5 2.9 0.3
v 0.5 2.9 -0.4
v 1.2 1.8 0
v 1.2 1.8 -0.3
v 1.2 1.9 0
v 1.2 1.9 -0.3
v 1.3 1.9 0.1
v 1.3 1.9 0
v 1.3 2 0.1
v 1.3 2 0
v 1.5 1.9 0
v 1.5 1.9 -0.3
v 1.5 2 0
v 1.5 2 -0.3
v -0.4 2.1 0.4
v -0.4 2.9 0.4
v -0.3 2.1 0.4
v -0.3 2.8 0.4
v 0.3 2.6 0.4
v 0.3 2.8 0.4
v 0.4 2.6 0.4
v 0.4 2.9 0.4
v -0.5 2.6 0.3
v -0.5 2.9 0.3
v -0.4 0 0.3
v -0.4 0.1 0.3
v -0.4 0.2 0.3
v -0.4 2.6 0.3
v -0.4 2.9 0.3
v -0.4 3 0.3
v -0.3 2.1 0.3
v -0.3 2.4 0.3
v -0.3 2.6 0.3
v -0.3 2.8 0.3
v -0.1 0 0.3
v -0.1 0.1 0.3
v -0.1 0.2 0.3
v -0.1 2.4 0.3
v -0.1 2.6 0.3
v 0.1 0 0.3
v 0.1 0.1 0.3
v 0.1 0.2 0.3
v 0.1 2.4 0.3
v 0.1 2.6 0.3
v 0.3 2.4 0.3
v 0.3 2.6 0.3
v 0.3 2.8 0.3
v 0.4 0 0.3
v 0.4 0.1 0.3
v 0.4 0.2 0.3
v 0.4 2.1 0.3
v 0.4 2.6 0.3
v 0.4 2.9 0.3
v 0.4 3 0.3
v 0.5 2.1 0.3
v 0.5 2.9 0.3
v -0.5 2.5 0.2
v -0.5 2.6 0.2
v -0.4 2.5 0.2
v -0.4 2.6 0.2
v -1.3 1.9 0.1
v -1.3 2 0.1
v -1.2 1.9 0.1
v -1.2 2 0.1
v -0.5 2.3 0.1
v -0.5 2.5 0.1
v -0.4 0.7 0.1
v -0.4 1.1 0.1
v -0.4 2 0.1
v -0.4 2.3 0.1
v -0.4 2.5 0.1
v 0.4 0.7 0.1
v 0.4 1.1 0.1
v 0.4 2 0.1
v 0.4 2.3 0.1
v 0.4 2.5 0.1
v 0.5 2.3 0.1
v 0.5 2.5 0.1
v 1.2 1.9 0.1
v 1.2 2 0.1
v 1.3 1.9 0.1
v 1.3 2 0.1
v -1.5 1.9 0
v -1.5 2 0
v -1.3 1.9 0
v -1.3 2 0
v -1.2 1.8 0
v -1.2 1.9 0
v -1.2 2 0
v -0.5 2.2 0
v -0.5 2.3 0
v -0.4 1.8 0
v -0.4 2 0
v -0.4 2.2 0
v -0.4 2.3 0
v -0.3 0.2 0
v -0.3 0.7 0
v -0.3 2 0
v -0.3 2.1 0
v -0.2 0.2 0
v -0.1 0.2 0
v -0.1 0.7 0
v 0.1 0.2 0
v 0.1 0.7 0
v 0.2 0.2 0
v 0.3 0.2 0
v 0.3 0.7 0
v 0.3 2 0
v 0.3 2.1 0
v 0.4 1.8 0
v 0.4 2 0
v 0.4 2.2 0
v 0.4 2.3 0
v 0.5 2.2 0
v 0.5 2.3 0
v 1.2 1.8 0
v 1.2 1.9 0
v 1.2 2 0
v 1.3 1.9 0
v 1.3 2 0
v 1.5 1.9 0
v 1.5 2 0
v -0.5 2.1 -0.1
v -0.5 2.2 -0.1
v -0.4 2.1 -0.1
v -0.4 2.2 -0.1
v 0.4 2.1 -0.1
v 0.4 2.2 -0.1
v 0.5 2.1 -0.1
v 0.5 2.2 -0.1
v -0.1 1.6 -0.5
v -0.1 2.1 -0.5
v 0.1 1.6 -0.5
v 0.1 2.1 -0.5
v 0.4 2.1 0.2
v 0.4 2.5 0.2
v 0.5 2.1 0.2
v 0.5 2.5 0.2
v -0.3 0.2 -0.2
v -0.3 0.7 -0.2
v -0.1 0.2 -0.2
v -0.1 0.7 -0.2
v 0.1 0.2 -0.2
v 0.1 0.7 -0.2
v 0.3 0.2 -0.2
v 0.3 0.7 -0.2
v -1.5 1.9 -0.3
v -1.5 2 -0.3
v -1.2 1.8 -0.3
v -1.2 1.9 -0.3
v -1.2 2 -0.3
v -0.4 0 -0.3
v -0.4 0.1 -0.3
v -0.4 0.2 -0.3
v -0.4 0.7 -0.3
v -0.4 1.1 -0.3
v -0.4 1.8 -0.3
v -0.4 2 -0.3
v -0.3 2 -0.3
v -0.3 2.1 -0.3
v -0.1 0 -0.3
v -0.1 0.1 -0.3
v -0.1 0.2 -0.3
v 0.1 0 -0.3
v 0.1 0.1 -0.3
v 0.1 0.2 -0.3
v 0.3 2 -0.3
v 0.3 2.1 -0.3
v 0.4 0 -0.3
v 0.4 0.1 -0.3
v 0.4 0.2 -0.3
v 0.4 0.7 -0.3
v 0.4 1.1 -0.3
v 0.4 1.8 -0.3
v 0.4 2 -0.3
v 1.2 1.8 -0.3
v 1.2 1.9 -0.3
v 1.2 2 -0.3
v 1.5 1.9 -0.3
v 1.5 2 -0.3
v -0.5 2.8 -0.4
v -0.5 2.9 -0.4
v -0.4 1.1 -0.4
v -0.4 2 -0.4
v -0.4 2.8 -0.4
v -0.4 2.9 -0.4
v -0.4 3 -0.4
v -0.3 2.9 -0.4
v -0.3 3 -0.4
v 0.3 2.9 -0.4
v 0.3 3 -0.4
v 0.4 1.1 -0.4
v 0.4 2 -0.4
v 0.4 2.8 -0.4
v 0.4 2.9 -0.4
v 0.4 3 -0.4
v 0.5 2.8 -0.4
v 0.5 2.9 -0.4
v -0.5 2.1 -0.5
v -0.5 2.8 -0.5
v -0.4 2.1 -0.5
v -0.4 2.8 -0.5
v -0.4 2.9 -0.5
v -0.3 2.8 -0.5
v -0.3 2.9 -0.5
v -0.3 3 -0.5
v 0.3 2.8 -0.5
v 0.3 2.9 -0.5
v 0.3 3 -0.5
v 0.4 2.1 -0.5
v 0.4 2.8 -0.5
v 0.4 2.9 -0.5
v 0.5 2.1 -0.5
v 0.5 2.8 -0.5
v -0.4 2.1 -0.6
v -0.4 2.8 -0.6
v -0.3 2.8 -0.6
v -0.3 2.9 -0.6
v -0.1 1.6 -0.6
v -0.1 2.1 -0.6
v 0.1 1.6 -0.6
v 0.1 2.1 -0.6
v 0.3 2.8 -0.6
v 0.3 2.9 -0.6
v 0.4 2.1 -0.6
v 0.4 2.8 -0.6
v -0.4 0 0.3
v -0.1 0 0.3
v 0.1 0 0.3
v 0.4 0 0.3
v -0.3 0 0.2
v -0.2 0 0.2
v 0.2 0 0.2
v 0.3 0 0.2
v -0.3 0 -0.2
v -0.2 0 -0.2
v 0.2 0 -0.2
v 0.3 0 -0.2
v -0.4 0 -0.3
v -0.1 0 -0.3
v 0.1 0 -0.3
v 0.4 0 -0.3
v -0.4 0.7 0.1
v 0.4 0.7 0.1
v -0.3 0.7 0
v -0.1 0.7 0
v 0.1 0.7 0
v 0.3 0.7 0
v -0.3 0.7 -0.2
v -0.1 0.7 -0.2
v 0.1 0.7 -0.2
v 0.3 0.7 -0.2
v -0.4 0.7 -0.3
v 0.4 0.7 -0.3
v -0.4 1.1 -0.3
v 0.4 1.1 -0.3
v -0.4 1.1 -0.4
v 0.4 1.1 -0.4
v -0.1 1.6 -0.5
v 0.1 1.6 -0.5
v -0.1 1.6 -0.6
v 0.1 1.6 -0.6
v -1.2 1.8 0
v -0.4 1.8 0
v 0.4 1.8 0
v 1.2 1.8 0
v -1.2 1.8 -0.3
v -0.4 1.8 -0.3
v 0.4 1.8 -0.3
v 1.2 1.8 -0.3
v -1.3 1.9 0.1
v -1.2 1.9 0.1
v 1.2 1.9 0.1
v 1.3 1.9 0.1
v -1.5 1.9 0
v -1.3 1.9 0
v -1.2 1.9 0
v 1.2 1.9 0
v 1.3 1.9 0
v 1.5 1.9 0
v -1.5 1.9 -0.3
v -1.2 1.9 -0.3
v 1.2 1.9 -0.3
v 1.5 1.9 -0.3
v -0.4 2.1 0.4
v -0.3 2.1 0.4
v -0.4 2.1 0.3
v -0.3 2.1 0.3
v 0.4 2.1 0.3
v 0.5 2.1 0.3
v 0.4 2.1 0.2
v 0.5 2.1 0.2
v -0.3 2.1 0
v 0.3 2.1 0
v -0.5 2.1 -0.1
v -0.4 2.1 -0.1
v 0.4 2.1 -0.1
v 0.5 2.1 -0.1
v -0.3 2.1 -0.3
v 0.3 2.1 -0.3
v -0.5 2.1 -0.5
v -0.4 2.1 -0.5
v -0.1 2.1 -0.5
v 0.1 2.1 -0.5
v 0.4 2.1 -0.5
v 0.5 2.1 -0.5
v -0.4 2.1 -0.6
v -0.1 2.1 -0.6
v 0.1 2.1 -0.6
v 0.4 2.1 -0.6
v -0.5 2.2 0
v -0.4 2.2 0
v 0.4 2.2 0
v 0.5 2.2 0
v -0.5 2.2 -0.1
v -0.4 2.2 -0.1
v 0.4 2.2 -0.1
v 0.5 2.2 -0.1
v -0.5 2.3 0.1
v -0.4 2.3 0.1
v 0.4 2.3 0.1
v 0.5 2.3 0.1
v -0.5 2.3 0
v -0.4 2.3 0
v 0.4 2.3 0
v 0.5 2.3 0
v -0.5 2.5 0.2
v -0.4 2.5 0.2
v 0.4 2.5 0.2
v 0.5 2.5 0.2
v -0.5 2.5 0.1
v -0.4 2.5 0.1
v 0.4 2.5 0.1
v 0.5 2.5 0.1
v 0.3 2.6 0.4
v 0.4 2.6 0.4
v -0.5 2.6 0.3
v -0.4 2.6 0.3
v 0.3 2.6 0.3
v 0.4 2.6 0.3
v -0.5 2.6 0.2
v -0.4 2.6 0.2
v -0.3 2.8 0.4
v 0.3 2.8 0.4
v -0.3 2.8 0.3
v 0.3 2.8 0.3
v -0.4 0.2 0.3
v -0.1 0.2 0.3
v 0.1 0.2 0.3
v 0.4 0.2 0.3
v -0.3 0.2 0.1
v -0.2 0.2 0.1
v 0.2 0.2 0.1
v 0.3 0.2 0.1
v -0.3 0.2 0
v -0.2 0.2 0
v -0.1 0.2 0
v 0.1 0.2 0
v 0.2 0.2 0
v 0.3 0.2 0
v -0.3 0.2 -0.2
v -0.1 0.2 -0.2
v 0.1 0.2 -0.2
v 0.3 0.2 -0.2
v -0.4 0.2 -0.3
v -0.1 0.2 -0.3
v 0.1 0.2 -0.3
v 0.4 0.2 -0.3
v -1.3 2 0.1
v -1.2 2 0.1
v -0.4 2 0.1
v 0.4 2 0.1
v 1.2 2 0.1
v 1.3 2 0.1
v -1.5 2 0
v -1.3 2 0
v -1.2 2 0
v -0.4 2 0
v -0.3 2 0
v 0.3 2 0
v 0.4 2 0
v 1.2 2 0
v 1.3 2 0
v 1.5 2 0
v -1.5 2 -0.3
v -1.2 2 -0.3
v -0.4 2 -0.3
v -0.3 2 -0.3
v 0.3 2 -0.3
v 0.4 2 -0.3
v 1.2 2 -0.3
v 1.5 2 -0.3
v -0.4 2 -0.4
v 0.4 2 -0.4
v -0.5 2.8 -0.4
v -0.4 2.8 -0.4
v 0.4 2.8 -0.4
v 0.5 2.8 -0.4
v -0.5 2.8 -0.5
v -0.4 2.8 -0.5
v -0.3 2.8 -0.5
v 0.3 2.8 -0.5
v 0.4 2.8 -0.5
v 0.5 2.8 -0.5
v -0.4 2.8 -0.6
v -0.3 2.8 -0.6
v 0.3 2.8 -0.6
v 0.4 2.8 -0.6
v -0.4 2.9 0.4
v 0.4 2.9 0.4
v -0.5 2.9 0.3
v -0.4 2.9 0.3
v 0.4 2.9 0.3
v 0.5 2.9 0.3
v -0.5 2.9 -0.4
v -0.4 2.9 -0.4
v -0.3 2.9 -0.4
v 0.3 2.9 -0.4
v 0.4 2.9 -0.4
v 0.5 2.9 -0.4
v -0.4 2.9 -0.5
v -0.3 2.9 -0.5
v 0.3 2.9 -0.5
v 0.4 2.9 -0.5
v -0.3 2.9 -0.6
v 0.3 2.9 -0.6
v -0.4 3 0.3
v 0.4 3 0.3
v -0.4 3 -0.4
v -0.3 3 -0.4
v 0.3 3 -0.4
v 0.4 3 -0.4
v -0.3 3 -0.5
v 0.3 3 -0.5

# faces
f 3/8/1 2/8/1 1/8/1
f 4/8/1 2/8/1 3/8/1
f 7/8/1 6/8/1 5/8/1
f 8/8/1 6/8/1 7/8/1
f 11/6/1 10/6/1 9/6/1
f 12/6/1 10/6/1 11/6/1
f 16/4/1 14/4/1 13/4/1
f 18/4/1 16/4/1 15/4/1
f 19/4/1 14/4/1 16/4/1
f 19/4/1 16/4/1 18/4/1
f 20/4/1 14/4/1 19/4/1
f 22/4/1 18/4/1 17/4/1
f 22/4/1 19/4/1 18/4/1
f 24/4/1 22/4/1 21/4/1
f 25/8/1 20/8/1 19/8/1
f 25/4/1 19/4/1 22/4/1
f 25/4/1 22/4/1 24/4/1
f 26/4/1 14/4/1 20/4/1
f 26/8/1 20/8/1 25/8/1
f 27/4/1 25/4/1 24/4/1
f 27/4/1 14/4/1 26/4/1
f 27/4/1 26/4/1 25/4/1
f 27/4/1 24/4/1 23/4/1
f 28/4/1 14/4/1 27/4/1
f 29/4/1 27/4/1 23/4/1
f 30/4/1 27/4/1 29/4/1
f 33/1/1 32/1/1 31/1/1
f 34/1/1 32/1/1 33/1/1
f 35/3/1 34/3/1 33/3/1
f 36/3/1 34/3/1 35/3/1
f 39/5/1 38/5/1 37/5/1
f 40/5/1 38/5/1 39/5/1
f 42/6/1 40/6/1 39/6/1
f 42/6/1 41/6/1 40/6/1
f 43/6/1 41/6/1 42/6/1
f 44/6/1 42/6/1 39/6/1
f 45/6/1 42/6/1 44/6/1
f 46/6/1 41/6/1 43/6/1
f 47/6/1 41/6/1 46/6/1
f 53/8/1 50/8/1 49/8/1
f 54/8/1 50/8/1 53/8/1
f 55/8/1 53/8/1 49/8/1
f 56/8/1 53/8/1 55/8/1
f 57/8/1 55/8/1 49/8/1
f 58/8/1 55/8/1 57/8/1
f 59/4/1 49/4/1 48/4/1
f 59/8/1 57/8/1 49/8/1
f 60/8/1 57/8/1 59/8/1
f 62/4/1 52/4/1 51/4/1
f 63/4/1 52/4/1 62/4/1
f 64/4/1 59/4/1 48/4/1
f 65/4/1 59/4/1 64/4/1
f 66/4/1 62/4/1 61/4/1
f 67/4/1 62/4/1 66/4/1
f 68/4/1 66/4/1 65/4/1
f 69/4/1 66/4/1 68/4/1
f 72/7/1 71/7/1 70/7/1
f 73/7/1 71/7/1 72/7/1
f 76/8/1 75/8/1 74/8/1
f 77/8/1 75/8/1 76/8/1
f 81/4/1 79/4/1 78/4/1
f 82/4/1 79/4/1 81/4/1
f 83/4/1 81/4/1 80/4/1
f 84/4/1 81/4/1 83/4/1
f 87/4/1 86/4/1 85/4/1
f 88/4/1 86/4/1 87/4/1
f 91/1/1 90/1/1 89/1/1
f 92/1/1 90/1/1 91/1/1
f 93/3/1 92/3/1 91/3/1
f 94/3/1 92/3/1 93/3/1
f 95/3/1 92/3/1 94/3/1
f 96/3/1 92/3/1 95/3/1
f 97/7/1 95/7/1 94/7/1
f 98/7/1 95/7/1 97/7/1
f 101/4/1 100/4/1 99/4/1
f 102/4/1 100/4/1 101/4/1
f 105/8/1 104/8/1 103/8/1
f 106/8/1 104/8/1 105/8/1
f 107/8/2 108/8/2 109/8/2
f 109/8/2 108/8/2 110/8/2
f 111/4/2 112/4/2 113/4/2
f 111/4/2 113/4/2 114/4/2
f 111/4/2 114/4/2 115/4/2
f 115/4/2 114/4/2 116/4/2
f 117/1/2 118/1/2 119/1/2
f 119/1/2 118/1/2 120/1/2
f 119/3/2 120/3/2 121/3/2
f 121/3/2 120/3/2 122/3/2
f 122/3/2 120/3/2 123/3/2
f 123/3/2 120/3/2 124/3/2
f 122/7/2 123/7/2 125/7/2
f 125/7/2 123/7/2 126/7/2
f 127/4/2 128/4/2 129/4/2
f 129/4/2 128/4/2 130/4/2
f 131/7/2 132/7/2 133/7/2
f 133/7/2 132/7/2 134/7/2
f 135/8/2 136/8/2 137/8/2
f 137/8/2 136/8/2 138/8/2
f 139/4/2 140/4/2 142/4/2
f 142/4/2 140/4/2 143/4/2
f 141/4/2 142/4/2 144/4/2
f 144/4/2 142/4/2 145/4/2
f 146/1/2 147/1/2 148/1/2
f 148/1/2 147/1/2 149/1/2
f 148/3/2 149/3/2 150/3/2
f 150/3/2 149/3/2 151/3/2
f 152/5/2 153/5/2 154/5/2
f 154/5/2 153/5/2 155/5/2
f 154/6/2 155/6/2 157/6/2
f 155/6/2 156/6/2 157/6/2
f 157/6/2 156/6/2 158/6/2
f 154/6/2 157/6/2 159/6/2
f 159/6/2 157/6/2 160/6/2
f 158/6/2 156/6/2 161/6/2
f 161/6/2 156/6/2 162/6/2
f 163/8/2 164/8/2 167/8/2
f 167/8/2 164/8/2 168/8/2
f 163/8/2 167/8/2 169/8/2
f 169/8/2 167/8/2 170/8/2
f 163/8/2 169/8/2 171/8/2
f 171/8/2 169/8/2 172/8/2
f 165/4/2 166/4/2 176/4/2
f 176/4/2 166/4/2 177/4/2
f 173/4/2 174/4/2 178/4/2
f 178/4/2 174/4/2 179/4/2
f 175/4/2 176/4/2 180/4/2
f 180/4/2 176/4/2 181/4/2
f 179/4/2 180/4/2 182/4/2
f 182/4/2 180/4/2 183/4/2
f 186/4/2 187/4/2 189/4/2
f 188/4/2 189/4/2 191/4/2
f 189/4/2 187/4/2 192/4/2
f 191/4/2 189/4/2 192/4/2
f 192/4/2 187/4/2 193/4/2
f 184/4/2 185/4/2 194/4/2
f 190/4/2 191/4/2 195/4/2
f 191/4/2 192/4/2 195/4/2
f 192/8/2 193/8/2 196/8/2
f 194/4/2 195/4/2 196/4/2
f 195/4/2 192/4/2 196/4/2
f 193/4/2 187/4/2 197/4/2
f 196/8/2 193/8/2 197/8/2
f 196/4/2 197/4/2 198/4/2
f 197/4/2 187/4/2 198/4/2
f 198/4/2 187/4/2 199/4/2
f 194/4/2 196/4/2 200/4/2
f 184/4/2 194/4/2 200/4/2
f 196/4/2 198/4/2 200/4/2
f 200/4/2 198/4/2 201/4/2
f 202/6/2 203/6/2 204/6/2
f 204/6/2 203/6/2 205/6/2
f 206/8/2 207/8/2 208/8/2
f 208/8/2 207/8/2 209/8/2
f 210/8/2 211/8/2 212/8/2
f 212/8/2 211/8/2 213/8/2
f 216/4/3 215/4/3 214/4/3
f 217/4/3 215/4/3 216/4/3
f 219/4/3 215/4/3 217/4/3
f 220/4/3 219/4/3 218/4/3
f 221/4/3 215/4/3 219/4/3
f 221/4/3 219/4/3 220/4/3
f 227/4/3 223/4/3 222/4/3
f 228/4/3 223/4/3 227/4/3
f 234/1/3 225/1/3 224/1/3
f 235/3/3 226/3/3 225/3/3
f 235/1/3 225/1/3 234/1/3
f 236/3/3 226/3/3 235/3/3
f 237/8/3 231/8/3 230/8/3
f 237/2/3 232/2/3 231/2/3
f 238/8/3 233/8/3 232/8/3
f 238/2/3 232/2/3 237/2/3
f 242/8/3 237/8/3 230/8/3
f 242/8/3 238/8/3 237/8/3
f 243/8/3 233/8/3 238/8/3
f 243/8/3 238/8/3 242/8/3
f 244/8/3 242/8/3 230/8/3
f 244/2/3 243/2/3 242/2/3
f 245/8/3 233/8/3 243/8/3
f 245/2/3 243/2/3 244/2/3
f 246/8/3 233/8/3 245/8/3
f 247/1/3 240/1/3 239/1/3
f 248/3/3 241/3/3 240/3/3
f 248/1/3 240/1/3 247/1/3
f 249/3/3 241/3/3 248/3/3
f 250/8/3 244/8/3 230/8/3
f 250/8/3 245/8/3 244/8/3
f 251/8/3 245/8/3 250/8/3
f 252/4/3 229/4/3 228/4/3
f 253/4/3 229/4/3 252/4/3
f 254/4/3 251/4/3 250/4/3
f 254/4/3 252/4/3 251/4/3
f 255/4/3 252/4/3 254/4/3
f 258/4/3 257/4/3 256/4/3
f 259/4/3 257/4/3 258/4/3
f 262/8/3 261/8/3 260/8/3
f 263/8/3 261/8/3 262/8/3
f 269/4/3 265/4/3 264/4/3
f 270/4/3 265/4/3 269/4/3
f 271/5/3 267/5/3 266/5/3
f 272/6/3 268/6/3 267/6/3
f 272/5/3 267/5/3 271/5/3
f 273/6/3 268/6/3 272/6/3
f 276/4/3 275/4/3 274/4/3
f 277/4/3 275/4/3 276/4/3
f 280/8/3 279/8/3 278/8/3
f 281/8/3 279/8/3 280/8/3
f 284/8/3 283/8/3 282/8/3
f 285/8/3 283/8/3 284/8/3
f 291/6/3 288/6/3 287/6/3
f 291/6/3 287/6/3 286/6/3
f 292/6/3 288/6/3 291/6/3
f 293/4/3 290/4/3 289/4/3
f 294/4/3 290/4/3 293/4/3
f 299/7/3 296/7/3 295/7/3
f 300/7/3 296/7/3 299/7/3
f 301/7/3 296/7/3 300/7/3
f 304/7/3 303/7/3 302/7/3
f 305/7/3 303/7/3 304/7/3
f 306/7/3 303/7/3 305/7/3
f 307/8/3 298/8/3 297/8/3
f 308/8/3 298/8/3 307/8/3
f 313/4/3 312/4/3 311/4/3
f 314/4/3 312/4/3 313/4/3
f 315/6/3 310/6/3 309/6/3
f 316/6/3 310/6/3 315/6/3
f 317/6/3 310/6/3 316/6/3
f 320/8/3 319/8/3 318/8/3
f 321/8/3 319/8/3 320/8/3
f 324/4/3 323/4/3 322/4/3
f 325/4/3 323/4/3 324/4/3
f 328/4/3 327/4/3 326/4/3
f 329/4/3 327/4/3 328/4/3
f 332/4/3 331/4/3 330/4/3
f 333/4/3 331/4/3 332/4/3
f 334/4/4 335/4/4 336/4/4
f 336/4/4 335/4/4 337/4/4
f 338/7/4 339/7/4 340/7/4
f 340/7/4 339/7/4 341/7/4
f 342/7/4 343/7/4 344/7/4
f 344/7/4 343/7/4 345/7/4
f 346/8/4 347/8/4 349/8/4
f 349/8/4 347/8/4 350/8/4
f 348/6/4 349/6/4 356/6/4
f 349/6/4 350/6/4 356/6/4
f 356/6/4 350/6/4 357/6/4
f 351/1/4 352/1/4 360/1/4
f 352/3/4 353/3/4 361/3/4
f 360/1/4 352/1/4 361/1/4
f 361/3/4 353/3/4 362/3/4
f 358/8/4 359/8/4 366/8/4
f 366/8/4 359/8/4 367/8/4
f 363/1/4 364/1/4 368/1/4
f 364/3/4 365/3/4 369/3/4
f 368/1/4 364/1/4 369/1/4
f 369/3/4 365/3/4 370/3/4
f 354/5/4 355/5/4 371/5/4
f 371/5/4 355/5/4 372/5/4
f 373/6/4 374/6/4 375/6/4
f 375/6/4 374/6/4 376/6/4
f 376/6/4 374/6/4 377/6/4
f 376/8/4 377/8/4 378/8/4
f 378/8/4 377/8/4 379/8/4
f 380/4/4 381/4/4 384/4/4
f 384/4/4 381/4/4 385/4/4
f 385/4/4 386/4/4 387/4/4
f 387/4/4 386/4/4 388/4/4
f 382/6/4 383/6/4 391/6/4
f 391/6/4 383/6/4 392/6/4
f 389/4/4 390/4/4 394/4/4
f 394/4/4 390/4/4 395/4/4
f 393/4/4 394/4/4 396/4/4
f 396/4/4 394/4/4 397/4/4
f 398/4/4 399/4/4 400/4/4
f 400/4/4 399/4/4 401/4/4
f 401/4/4 402/4/4 403/4/4
f 403/4/4 402/4/4 404/4/4
f 404/4/4 405/4/4 407/4/4
f 407/4/4 405/4/4 408/4/4
f 406/4/4 407/4/4 410/4/4
f 410/4/4 407/4/4 411/4/4
f 409/4/4 410/4/4 412/4/4
f 412/4/4 410/4/4 413/4/4
f 414/4/4 415/4/4 416/4/4
f 414/4/4 416/4/4 419/4/4
f 416/4/4 417/4/4 419/4/4
f 418/4/4 419/4/4 420/4/4
f 419/4/4 417/4/4 421/4/4
f 420/4/4 419/4/4 421/4/4
f 421/4/4 417/4/4 422/4/4
f 422/4/4 417/4/4 423/4/4
f 421/4/4 422/4/4 424/4/4
f 424/4/4 422/4/4 425/4/4
f 430/1/5 427/1/5 426/1/5
f 431/1/5 427/1/5 430/1/5
f 432/1/5 429/1/5 428/1/5
f 433/1/5 429/1/5 432/1/5
f 434/1/5 430/1/5 426/1/5
f 434/4/5 431/4/5 430/4/5
f 435/1/5 427/1/5 431/1/5
f 435/4/5 431/4/5 434/4/5
f 436/4/5 433/4/5 432/4/5
f 436/1/5 432/1/5 428/1/5
f 437/1/5 429/1/5 433/1/5
f 437/4/5 433/4/5 436/4/5
f 438/1/5 434/1/5 426/1/5
f 438/1/5 435/1/5 434/1/5
f 439/1/5 427/1/5 435/1/5
f 439/1/5 435/1/5 438/1/5
f 440/1/5 436/1/5 428/1/5
f 440/1/5 437/1/5 436/1/5
f 441/1/5 429/1/5 437/1/5
f 441/1/5 437/1/5 440/1/5
f 444/5/5 443/5/5 442/5/5
f 445/5/5 443/5/5 444/5/5
f 446/5/5 443/5/5 445/5/5
f 447/5/5 443/5/5 446/5/5
f 448/5/5 444/5/5 442/5/5
f 449/5/5 446/5/5 445/5/5
f 450/5/5 446/5/5 449/5/5
f 451/5/5 443/5/5 447/5/5
f 452/5/5 450/5/5 449/5/5
f 452/5/5 451/5/5 450/5/5
f 452/5/5 448/5/5 442/5/5
f 452/5/5 449/5/5 448/5/5
f 453/5/5 443/5/5 451/5/5
f 453/5/5 451/5/5 452/5/5
f 456/6/5 455/6/5 454/6/5
f 457/6/5 455/6/5 456/6/5
f 460/4/5 459/4/5 458/4/5
f 461/4/5 459/4/5 460/4/5
f 466/6/5 463/6/5 462/6/5
f 467/6/5 463/6/5 466/6/5
f 468/6/5 465/6/5 464/6/5
f 469/6/5 465/6/5 468/6/5
f 475/8/5 471/8/5 470/8/5
f 476/8/5 471/8/5 475/8/5
f 477/8/5 473/8/5 472/8/5
f 478/8/5 473/8/5 477/8/5
f 480/8/5 476/8/5 475/8/5
f 480/8/5 475/8/5 474/8/5
f 481/8/5 476/8/5 480/8/5
f 482/8/5 479/8/5 478/8/5
f 482/8/5 478/8/5 477/8/5
f 483/8/5 479/8/5 482/8/5
f 486/4/5 485/4/5 484/4/5
f 487/4/5 485/4/5 486/4/5
f 490/8/5 487/8/5 486/8/5
f 490/4/5 489/4/5 488/4/5
f 490/8/5 488/8/5 487/8/5
f 491/4/5 489/4/5 490/4/5
f 492/8/5 490/8/5 486/8/5
f 493/8/5 490/8/5 492/8/5
f 495/8/5 492/8/5 486/8/5
f 496/8/5 490/8/5 493/8/5
f 498/8/5 492/8/5 495/8/5
f 499/8/5 496/8/5 493/8/5
f 500/4/5 495/4/5 494/4/5
f 501/8/5 499/8/5 498/8/5
f 501/4/5 495/4/5 500/4/5
f 501/8/5 498/8/5 495/8/5
f 502/8/5 499/8/5 501/8/5
f 503/8/5 499/8/5 502/8/5
f 504/4/5 497/4/5 496/4/5
f 504/8/5 499/8/5 503/8/5
f 504/8/5 496/8/5 499/8/5
f 505/4/5 497/4/5 504/4/5
f 506/4/5 502/4/5 501/4/5
f 507/4/5 502/4/5 506/4/5
f 508/4/5 504/4/5 503/4/5
f 509/4/5 504/4/5 508/4/5
f 514/4/5 511/4/5 510/4/5
f 515/4/5 511/4/5 514/4/5
f 516/4/5 513/4/5 512/4/5
f 517/4/5 513/4/5 516/4/5
f 522/4/5 519/4/5 518/4/5
f 523/4/5 519/4/5 522/4/5
f 524/4/5 521/4/5 520/4/5
f 525/4/5 521/4/5 524/4/5
f 530/4/5 527/4/5 526/4/5
f 531/4/5 527/4/5 530/4/5
f 532/4/5 529/4/5 528/4/5
f 533/4/5 529/4/5 532/4/5
f 538/4/5 535/4/5 534/4/5
f 539/4/5 535/4/5 538/4/5
f 540/4/5 537/4/5 536/4/5
f 541/4/5 537/4/5 540/4/5
f 544/4/5 543/4/5 542/4/5
f 545/4/5 543/4/5 544/4/5
f 546/3/6 547/3/6 550/3/6
f 550/3/6 547/3/6 551/3/6
f 548/3/6 549/3/6 552/3/6
f 552/3/6 549/3/6 553/3/6
f 546/3/6 550/3/6 554/3/6
f 550/7/6 551/7/6 554/7/6
f 551/3/6 547/3/6 555/3/6
f 554/7/6 551/7/6 555/7/6
f 555/3/6 547/3/6 556/3/6
f 548/3/6 552/3/6 557/3/6
f 552/7/6 553/7/6 558/7/6
f 557/3/6 552/3/6 558/3/6
f 553/3/6 549/3/6 559/3/6
f 558/7/6 553/7/6 559/7/6
f 546/3/6 554/3/6 560/3/6
f 559/3/6 549/3/6 563/3/6
f 560/3/6 561/3/6 564/3/6
f 546/3/6 560/3/6 564/3/6
f 564/3/6 561/3/6 565/3/6
f 562/3/6 563/3/6 566/3/6
f 563/3/6 549/3/6 567/3/6
f 566/3/6 563/3/6 567/3/6
f 568/8/6 569/8/6 575/8/6
f 575/8/6 569/8/6 576/8/6
f 570/6/6 571/6/6 577/6/6
f 577/6/6 571/6/6 578/6/6
f 578/6/6 571/6/6 579/6/6
f 579/6/6 571/6/6 580/6/6
f 572/8/6 573/8/6 581/8/6
f 581/8/6 573/8/6 582/8/6
f 575/8/6 576/8/6 584/8/6
f 574/8/6 575/8/6 584/8/6
f 576/6/6 577/6/6 585/6/6
f 584/8/6 576/8/6 585/8/6
f 577/6/6 578/6/6 585/6/6
f 585/6/6 578/6/6 586/6/6
f 586/6/6 578/6/6 587/6/6
f 579/6/6 580/6/6 588/6/6
f 580/6/6 581/6/6 588/6/6
f 588/6/6 581/6/6 589/6/6
f 582/8/6 583/8/6 590/8/6
f 589/6/6 581/6/6 590/6/6
f 581/8/6 582/8/6 590/8/6
f 590/8/6 583/8/6 591/8/6
f 586/6/6 587/6/6 592/6/6
f 588/6/6 589/6/6 592/6/6
f 587/6/6 588/6/6 592/6/6
f 592/6/6 589/6/6 593/6/6
f 594/4/6 595/4/6 598/4/6
f 598/4/6 595/4/6 599/4/6
f 596/4/6 597/4/6 602/4/6
f 602/4/6 597/4/6 603/4/6
f 599/4/6 600/4/6 604/4/6
f 604/4/6 600/4/6 605/4/6
f 601/4/6 602/4/6 606/4/6
f 606/4/6 602/4/6 607/4/6
f 608/4/6 609/4/6 611/4/6
f 611/4/6 609/4/6 612/4/6
f 610/4/6 611/4/6 614/4/6
f 614/4/6 611/4/6 615/4/6
f 612/4/6 613/4/6 618/4/6
f 618/4/6 613/4/6 619/4/6
f 615/4/6 616/4/6 620/4/6
f 620/4/6 616/4/6 621/4/6
f 617/4/6 618/4/6 622/4/6
f 622/4/6 618/4/6 623/4/6
f 621/4/6 622/4/6 624/4/6
f 624/4/6 622/4/6 625/4/6
f 626/4/6 627/4/6 628/4/6
f 628/4/6 627/4/6 629/4/6
f 629/4/6 627/4/6 630/4/6
f 630/4/6 627/4/6 631/4/6
f 629/4/6 630/4/6 632/4/6
f 632/4/6 630/4/6 633/4/6
