# MagicaVoxel @ Ephtracy

# group
o 

# material
mtllib student-7.mtl
usemtl palette

# normals
vn -1 0 0
vn 1 0 0
vn 0 0 1
vn 0 0 -1
vn 0 -1 0
vn 0 1 0

# texcoords
vt 0.00585938 0.5
vt 0.00976562 0.5
vt 0.205078 0.5
vt 0.259766 0.5
vt 0.490234 0.5
vt 0.681641 0.5
vt 0.716797 0.5
vt 0.966797 0.5

# verts
v -1.5 1.9 0
v -1.5 1.9 -0.3
v -1.5 2 0
v -1.5 2 -0.3
v -1.3 1.9 0.1
v -1.3 1.9 0
v -1.3 2 0.1
v -1.3 2 0
v -1.2 1.8 0
v -1.2 1.8 -0.3
v -1.2 1.9 0
v -1.2 1.9 -0.3
v -0.5 2.1 -0.1
v -0.5 2.1 -0.5
v -0.5 2.2 0
v -0.5 2.2 -0.1
v -0.5 2.3 0.1
v -0.5 2.3 0
v -0.5 2.3 -0.1
v -0.5 2.3 -0.2
v -0.5 2.5 0.2
v -0.5 2.5 0.1
v -0.5 2.6 0.3
v -0.5 2.6 0.2
v -0.5 2.6 -0.1
v -0.5 2.6 -0.2
v -0.5 2.8 -0.4
v -0.5 2.8 -0.5
v -0.5 2.9 0.3
v -0.5 2.9 -0.4
v -0.4 0 0.3
v -0.4 0 -0.3
v -0.4 0.1 0.3
v -0.4 0.1 -0.3
v -0.4 0.2 0.3
v -0.4 0.2 -0.3
v -0.4 0.7 0.1
v -0.4 0.7 -0.3
v -0.4 1.1 0.1
v -0.4 1.1 -0.3
v -0.4 1.1 -0.4
v -0.4 1.8 0
v -0.4 1.8 -0.3
v -0.4 2 0.1
v -0.4 2 0
v -0.4 2 -0.3
v -0.4 2 -0.4
v -0.4 2.1 0.4
v -0.4 2.1 0.3
v -0.4 2.1 -0.1
v -0.4 2.1 -0.5
v -0.4 2.1 -0.6
v -0.4 2.2 0
v -0.4 2.2 -0.1
v -0.4 2.3 0.1
v -0.4 2.3 0
v -0.4 2.5 0.2
v -0.4 2.5 0.1
v -0.4 2.6 0.3
v -0.4 2.6 0.2
v -0.4 2.8 -0.4
v -0.4 2.8 -0.5
v -0.4 2.8 -0.6
v -0.4 2.9 0.4
v -0.4 2.9 0.3
v -0.4 2.9 -0.4
v -0.4 2.9 -0.5
v -0.4 3 0.3
v -0.4 3 -0.4
v -0.3 0.2 0
v -0.3 0.2 -0.2
v -0.3 0.7 0
v -0.3 0.7 -0.2
v -0.3 2 0
v -0.3 2 -0.3
v -0.3 2.1 0
v -0.3 2.1 -0.3
v -0.3 2.8 -0.5
v -0.3 2.8 -0.6
v -0.3 2.9 -0.4
v -0.3 2.9 -0.5
v -0.3 2.9 -0.6
v -0.3 3 -0.4
v -0.3 3 -0.5
v -0.1 1.6 -0.5
v -0.1 1.6 -0.6
v -0.1 2.1 -0.5
v -0.1 2.1 -0.6
v 0.1 0 0.3
v 0.1 0 -0.3
v 0.1 0.1 0.3
v 0.1 0.1 -0.3
v 0.1 0.2 0.3
v 0.1 0.2 0
v 0.1 0.2 -0.2
v 0.1 0.2 -0.3
v 0.1 0.7 0
v 0.1 0.7 -0.2
v 0.3 2.6 0.4
v 0.3 2.6 0.3
v 0.3 2.8 0.4
v 0.3 2.8 0.3
v 1.2 1.9 0.1
v 1.2 1.9 0
v 1.2 2 0.1
v 1.2 2 0
v -1.2 1.9 0.1
v -1.2 1.9 0
v -1.2 2 0.1
v -1.2 2 0
v -0.3 2.1 0.4
v -0.3 2.1 0.3
v -0.3 2.4 0.3
v -0.3 2.6 0.3
v -0.3 2.8 0.4
v -0.3 2.8 0.3
v -0.1 0 0.3
v -0.1 0 -0.3
v -0.1 0.1 0.3
v -0.1 0.1 -0.3
v -0.1 0.2 0.3
v -0.1 0.2 0
v -0.1 0.2 -0.2
v -0.1 0.2 -0.3
v -0.1 0.7 0
v -0.1 0.7 -0.2
v 0.1 1.6 -0.5
v 0.1 1.6 -0.6
v 0.1 2.1 -0.5
v 0.1 2.1 -0.6
v 0.3 0.2 0
v 0.3 0.2 -0.2
v 0.3 0.7 0
v 0.3 0.7 -0.2
v 0.3 2 0
v 0.3 2 -0.3
v 0.3 2.1 0
v 0.3 2.1 -0.3
v 0.3 2.8 -0.5
v 0.3 2.8 -0.6
v 0.3 2.9 -0.4
v 0.3 2.9 -0.5
v 0.3 2.9 -0.6
v 0.3 3 -0.4
v 0.3 3 -0.5
v 0.4 0 0.3
v 0.4 0 -0.3
v 0.4 0.1 0.3
v 0.4 0.1 -0.3
v 0.4 0.2 0.3
v 0.4 0.2 -0.3
v 0.4 0.7 0.1
v 0.4 0.7 -0.3
v 0.4 1.1 0.1
v 0.4 1.1 -0.3
v 0.4 1.1 -0.4
v 0.4 1.8 0
v 0.4 1.8 -0.3
v 0.4 2 0.1
v 0.4 2 0
v 0.4 2 -0.3
v 0.4 2 -0.4
v 0.4 2.1 0.2
v 0.4 2.1 -0.1
v 0.4 2.1 -0.5
v 0.4 2.1 -0.6
v 0.4 2.2 0
v 0.4 2.2 -0.1
v 0.4 2.3 0.1
v 0.4 2.3 0
v 0.4 2.5 0.2
v 0.4 2.5 0.1
v 0.4 2.6 0.4
v 0.4 2.6 0.3
v 0.4 2.8 -0.4
v 0.4 2.8 -0.5
v 0.4 2.8 -0.6
v 0.4 2.9 0.4
v 0.4 2.9 0.3
v 0.4 2.9 -0.4
v 0.4 2.9 -0.5
v 0.4 3 0.3
v 0.4 3 -0.4
v 0.5 2.1 0.3
v 0.5 2.1 0.2
v 0.5 2.1 -0.1
v 0.5 2.1 -0.5
v 0.5 2.2 0
v 0.5 2.2 -0.1
v 0.5 2.3 0.1
v 0.5 2.3 0
v 0.5 2.3 -0.1
v 0.5 2.3 -0.2
v 0.5 2.5 0.2
v 0.5 2.5 0.1
v 0.5 2.6 -0.1
v 0.5 2.6 -0.2
v 0.5 2.8 -0.4
v 0.5 2.8 -0.5
v 0.5 2.9 0.3
v 0.5 2.9 -0.4
v 1.2 1.8 0
v 1.2 1.8 -0.3
v 1.2 1.9 0
v 1.2 1.9 -0.3
v 1.3 1.9 0.1
v 1.3 1.9 0
v 1.3 2 0.1
v 1.3 2 0
v 1.5 1.9 0
v 1.5 1.9 -0.3
v 1.5 2 0
v 1.5 2 -0.3
v -0.4 2.1 0.4
v -0.4 2.9 0.4
v -0.3 2.1 0.4
v -0.3 2.8 0.4
v 0.3 2.6 0.4
v 0.3 2.8 0.4
v 0.4 2.6 0.4
v 0.4 2.9 0.4
v -0.5 2.6 0.3
v -0.5 2.9 0.3
v -0.4 0 0.3
v -0.4 0.1 0.3
v -0.4 0.2 0.3
v -0.4 2.6 0.3
v -0.4 2.9 0.3
v -0.4 3 0.3
v -0.3 2.1 0.3
v -0.3 2.4 0.3
v -0.3 2.6 0.3
v -0.3 2.8 0.3
v -0.1 0 0.3
v -0.1 0.1 0.3
v -0.1 0.2 0.3
v -0.1 2.4 0.3
v -0.1 2.6 0.3
v 0.1 0 0.3
v 0.1 0.1 0.3
v 0.1 0.2 0.3
v 0.1 2.4 0.3
v 0.1 2.6 0.3
v 0.3 2.4 0.3
v 0.3 2.6 0.3
v 0.3 2.8 0.3
v 0.4 0 0.3
v 0.4 0.1 0.3
v 0.4 0.2 0.3
v 0.4 2.1 0.3
v 0.4 2.6 0.3
v 0.4 2.9 0.3
v 0.4 3 0.3
v 0.5 2.1 0.3
v 0.5 2.9 0.3
v -0.5 2.5 0.2
v -0.5 2.6 0.2
v -0.4 2.5 0.2
v -0.4 2.6 0.2
v -1.3 1.9 0.1
v -1.3 2 0.1
v -1.2 1.9 0.1
v -1.2 2 0.1
v -0.5 2.3 0.1
v -0.5 2.5 0.1
v -0.4 0.7 0.1
v -0.4 1.1 0.1
v -0.4 2 0.1
v -0.4 2.3 0.1
v -0.4 2.5 0.1
v 0.4 0.7 0.1
v 0.4 1.1 0.1
v 0.4 2 0.1
v 0.4 2.3 0.1
v 0.4 2.5 0.1
v 0.5 2.3 0.1
v 0.5 2.5 0.1
v 1.2 1.9 0.1
v 1.2 2 0.1
v 1.3 1.9 0.1
v 1.3 2 0.1
v -1.5 1.9 0
v -1.5 2 0
v -1.3 1.9 0
v -1.3 2 0
v -1.2 1.8 0
v -1.2 1.9 0
v -1.2 2 0
v -0.5 2.2 0
v -0.5 2.3 0
v -0.4 1.8 0
v -0.4 2 0
v -0.4 2.2 0
v -0.4 2.3 0
v -0.3 0.2 0
v -0.3 0.7 0
v -0.3 2 0
v -0.3 2.1 0
v -0.2 0.2 0
v -0.1 0.2 0
v -0.1 0.7 0
v 0.1 0.2 0
v 0.1 0.7 0
v 0.2 0.2 0
v 0.3 0.2 0
v 0.3 0.7 0
v 0.3 2 0
v 0.3 2.1 0
v 0.4 1.8 0
v 0.4 2 0
v 0.4 2.2 0
v 0.4 2.3 0
v 0.5 2.2 0
v 0.5 2.3 0
v 1.2 1.8 0
v 1.2 1.9 0
v 1.2 2 0
v 1.3 1.9 0
v 1.3 2 0
v 1.5 1.9 0
v 1.5 2 0
v -0.5 2.1 -0.1
v -0.5 2.2 -0.1
v -0.4 2.1 -0.1
v -0.4 2.2 -0.1
v 0.4 2.1 -0.1
v 0.4 2.2 -0.1
v 0.5 2.1 -0.1
v 0.5 2.2 -0.1
v -0.1 1.6 -0.5
v -0.1 2.1 -0.5
v 0.1 1.6 -0.5
v 0.1 2.1 -0.5
v 0.4 2.1 0.2
v 0.4 2.5 0.2
v 0.5 2.1 0.2
v 0.5 2.5 0.2
v -0.3 0.2 -0.2
v -0.3 0.7 -0.2
v -0.1 0.2 -0.2
v -0.1 0.7 -0.2
v 0.1 0.2 -0.2
v 0.1 0.7 -0.2
v 0.3 0.2 -0.2
v 0.3 0.7 -0.2
v -1.5 1.9 -0.3
v -1.5 2 -0.3
v -1.2 1.8 -0.3
v -1.2 1.9 -0.3
v -1.2 2 -0.3
v -0.4 0 -0.3
v -0.4 0.1 -0.3
v -0.4 0.2 -0.3
v -0.4 0.7 -0.3
v -0.4 1.1 -0.3
v -0.4 1.8 -0.3
v -0.4 2 -0.3
v -0.3 2 -0.3
v -0.3 2.1 -0.3
v -0.1 0 -0.3
v -0.1 0.1 -0.3
v -0.1 0.2 -0.3
v 0.1 0 -0.3
v 0.1 0.1 -0.3
v 0.1 0.2 -0.3
v 0.3 2 -0.3
v 0.3 2.1 -0.3
v 0.4 0 -0.3
v 0.4 0.1 -0.3
v 0.4 0.2 -0.3
v 0.4 0.7 -0.3
v 0.4 1.1 -0.3
v 0.4 1.8 -0.3
v 0.4 2 -0.3
v 1.2 1.8 -0.3
v 1.2 1.9 -0.3
v 1.2 2 -0.3
v 1.5 1.9 -0.3
v 1.5 2 -0.3
v -0.5 2.8 -0.4
v -0.5 2.9 -0.4
v -0.4 1.1 -0.4
v -0.4 2 -0.4
v -0.4 2.8 -0.4
v -0.4 2.9 -0.4
v -0.4 3 -0.4
v -0.3 2.9 -0.4
v -0.3 3 -0.4
v 0.3 2.9 -0.4
v 0.3 3 -0.4
v 0.4 1.1 -0.4
v 0.4 2 -0.4
v 0.4 2.8 -0.4
v 0.4 2.9 -0.4
v 0.4 3 -0.4
v 0.5 2.8 -0.4
v 0.5 2.9 -0.4
v -0.5 2.1 -0.5
v -0.5 2.8 -0.5
v -0.4 2.1 -0.5
v -0.4 2.8 -0.5
v -0.4 2.9 -0.5
v -0.3 2.8 -0.5
v -0.3 2.9 -0.5
v -0.3 3 -0.5
v 0.3 2.8 -0.5
v 0.3 2.9 -0.5
v 0.3 3 -0.5
v 0.4 2.1 -0.5
v 0.4 2.8 -0.5
v 0.4 2.9 -0.5
v 0.5 2.1 -0.5
v 0.5 2.8 -0.5
v -0.4 2.1 -0.6
v -0.4 2.8 -0.6
v -0.3 2.8 -0.6
v -0.3 2.9 -0.6
v -0.1 1.6 -0.6
v -0.1 2.1 -0.6
v 0.1 1.6 -0.6
v 0.1 2.1 -0.6
v 0.3 2.8 -0.6
v 0.3 2.9 -0.6
v 0.4 2.1 -0.6
v 0.4 2.8 -0.6
v -0.4 0 0.3
v -0.1 0 0.3
v 0.1 0 0.3
v 0.4 0 0.3
v -0.3 0 0.2
v -0.2 0 0.2
v 0.2 0 0.2
v 0.3 0 0.2
v -0.3 0 -0.2
v -0.2 0 -0.2
v 0.2 0 -0.2
v 0.3 0 -0.2
v -0.4 0 -0.3
v -0.1 0 -0.3
v 0.1 0 -0.3
v 0.4 0 -0.3
v -0.4 0.7 0.1
v 0.4 0.7 0.1
v -0.3 0.7 0
v -0.1 0.7 0
v 0.1 0.7 0
v 0.3 0.7 0
v -0.3 0.7 -0.2
v -0.1 0.7 -0.2
v 0.1 0.7 -0.2
v 0.3 0.7 -0.2
v -0.4 0.7 -0.3
v 0.4 0.7 -0.3
v -0.4 1.1 -0.3
v 0.4 1.1 -0.3
v -0.4 1.1 -0.4
v 0.4 1.1 -0.4
v -0.1 1.6 -0.5
v 0.1 1.6 -0.5
v -0.1 1.6 -0.6
v 0.1 1.6 -0.6
v -1.2 1.8 0
v -0.4 1.8 0
v 0.4 1.8 0
v 1.2 1.8 0
v -1.2 1.8 -0.3
v -0.4 1.8 -0.3
v 0.4 1.8 -0.3
v 1.2 1.8 -0.3
v -1.3 1.9 0.1
v -1.2 1.9 0.1
v 1.2 1.9 0.1
v 1.3 1.9 0.1
v -1.5 1.9 0
v -1.3 1.9 0
v -1.2 1.9 0
v 1.2 1.9 0
v 1.3 1.9 0
v 1.5 1.9 0
v -1.5 1.9 -0.3
v -1.2 1.9 -0.3
v 1.2 1.9 -0.3
v 1.5 1.9 -0.3
v -0.4 2.1 0.4
v -0.3 2.1 0.4
v -0.4 2.1 0.3
v -0.3 2.1 0.3
v 0.4 2.1 0.3
v 0.5 2.1 0.3
v 0.4 2.1 0.2
v 0.5 2.1 0.2
v -0.3 2.1 0
v 0.3 2.1 0
v -0.5 2.1 -0.1
v -0.4 2.1 -0.1
v 0.4 2.1 -0.1
v 0.5 2.1 -0.1
v -0.3 2.1 -0.3
v 0.3 2.1 -0.3
v -0.5 2.1 -0.5
v -0.4 2.1 -0.5
v -0.1 2.1 -0.5
v 0.1 2.1 -0.5
v 0.4 2.1 -0.5
v 0.5 2.1 -0.5
v -0.4 2.1 -0.6
v -0.1 2.1 -0.6
v 0.1 2.1 -0.6
v 0.4 2.1 -0.6
v -0.5 2.2 0
v -0.4 2.2 0
v 0.4 2.2 0
v 0.5 2.2 0
v -0.5 2.2 -0.1
v -0.4 2.2 -0.1
v 0.4 2.2 -0.1
v 0.5 2.2 -0.1
v -0.5 2.3 0.1
v -0.4 2.3 0.1
v 0.4 2.3 0.1
v 0.5 2.3 0.1
v -0.5 2.3 0
v -0.4 2.3 0
v 0.4 2.3 0
v 0.5 2.3 0
v -0.5 2.5 0.2
v -0.4 2.5 0.2
v 0.4 2.5 0.2
v 0.5 2.5 0.2
v -0.5 2.5 0.1
v -0.4 2.5 0.1
v 0.4 2.5 0.1
v 0.5 2.5 0.1
v 0.3 2.6 0.4
v 0.4 2.6 0.4
v -0.5 2.6 0.3
v -0.4 2.6 0.3
v 0.3 2.6 0.3
v 0.4 2.6 0.3
v -0.5 2.6 0.2
v -0.4 2.6 0.2
v -0.3 2.8 0.4
v 0.3 2.8 0.4
v -0.3 2.8 0.3
v 0.3 2.8 0.3
v -0.4 0.2 0.3
v -0.1 0.2 0.3
v 0.1 0.2 0.3
v 0.4 0.2 0.3
v -0.3 0.2 0.1
v -0.2 0.2 0.1
v 0.2 0.2 0.1
v 0.3 0.2 0.1
v -0.3 0.2 0
v -0.2 0.2 0
v -0.1 0.2 0
v 0.1 0.2 0
v 0.2 0.2 0
v 0.3 0.2 0
v -0.3 0.2 -0.2
v -0.1 0.2 -0.2
v 0.1 0.2 -0.2
v 0.3 0.2 -0.2
v -0.4 0.2 -0.3
v -0.1 0.2 -0.3
v 0.1 0.2 -0.3
v 0.4 0.2 -0.3
v -1.3 2 0.1
v -1.2 2 0.1
v -0.4 2 0.1
v 0.4 2 0.1
v 1.2 2 0.1
v 1.3 2 0.1
v -1.5 2 0
v -1.3 2 0
v -1.2 2 0
v -0.4 2 0
v -0.3 2 0
v 0.3 2 0
v 0.4 2 0
v 1.2 2 0
v 1.3 2 0
v 1.5 2 0
v -1.5 2 -0.3
v -1.2 2 -0.3
v -0.4 2 -0.3
v -0.3 2 -0.3
v 0.3 2 -0.3
v 0.4 2 -0.3
v 1.2 2 -0.3
v 1.5 2 -0.3
v -0.4 2 -0.4
v 0.4 2 -0.4
v -0.5 2.8 -0.4
v -0.4 2.8 -0.4
v 0.4 2.8 -0.4
v 0.5 2.8 -0.4
v -0.5 2.8 -0.5
v -0.4 2.8 -0.5
v -0.3 2.8 -0.5
v 0.3 2.8 -0.5
v 0.4 2.8 -0.5
v 0.5 2.8 -0.5
v -0.4 2.8 -0.6
v -0.3 2.8 -0.6
v 0.3 2.8 -0.6
v 0.4 2.8 -0.6
v -0.4 2.9 0.4
v 0.4 2.9 0.4
v -0.5 2.9 0.3
v -0.4 2.9 0.3
v 0.4 2.9 0.3
v 0.5 2.9 0.3
v -0.5 2.9 -0.4
v -0.4 2.9 -0.4
v -0.3 2.9 -0.4
v 0.3 2.9 -0.4
v 0.4 2.9 -0.4
v 0.5 2.9 -0.4
v -0.4 2.9 -0.5
v -0.3 2.9 -0.5
v 0.3 2.9 -0.5
v 0.4 2.9 -0.5
v -0.3 2.9 -0.6
v 0.3 2.9 -0.6
v -0.4 3 0.3
v 0.4 3 0.3
v -0.4 3 -0.4
v -0.3 3 -0.4
v 0.3 3 -0.4
v 0.4 3 -0.4
v -0.3 3 -0.5
v 0.3 3 -0.5

# faces
f 3/8/1 2/8/1 1/8/1
f 4/8/1 2/8/1 3/8/1
f 7/8/1 6/8/1 5/8/1
f 8/8/1 6/8/1 7/8/1
f 11/4/1 10/4/1 9/4/1
f 12/4/1 10/4/1 11/4/1
f 16/5/1 14/5/1 13/5/1
f 18/5/1 16/5/1 15/5/1
f 19/5/1 14/5/1 16/5/1
f 19/5/1 16/5/1 18/5/1
f 20/5/1 14/5/1 19/5/1
f 22/5/1 18/5/1 17/5/1
f 22/5/1 19/5/1 18/5/1
f 24/5/1 22/5/1 21/5/1
f 25/8/1 20/8/1 19/8/1
f 25/5/1 19/5/1 22/5/1
f 25/5/1 22/5/1 24/5/1
f 26/5/1 14/5/1 20/5/1
f 26/8/1 20/8/1 25/8/1
f 27/5/1 25/5/1 24/5/1
f 27/5/1 14/5/1 26/5/1
f 27/5/1 26/5/1 25/5/1
f 27/5/1 24/5/1 23/5/1
f 28/5/1 14/5/1 27/5/1
f 29/5/1 27/5/1 23/5/1
f 30/5/1 27/5/1 29/5/1
f 33/1/1 32/1/1 31/1/1
f 34/1/1 32/1/1 33/1/1
f 35/6/1 34/6/1 33/6/1
f 36/6/1 34/6/1 35/6/1
f 39/3/1 38/3/1 37/3/1
f 40/3/1 38/3/1 39/3/1
f 42/4/1 40/4/1 39/4/1
f 42/4/1 41/4/1 40/4/1
f 43/4/1 41/4/1 42/4/1
f 44/4/1 42/4/1 39/4/1
f 45/4/1 42/4/1 44/4/1
f 46/4/1 41/4/1 43/4/1
f 47/4/1 41/4/1 46/4/1
f 53/8/1 50/8/1 49/8/1
f 54/8/1 50/8/1 53/8/1
f 55/8/1 53/8/1 49/8/1
f 56/8/1 53/8/1 55/8/1
f 57/8/1 55/8/1 49/8/1
f 58/8/1 55/8/1 57/8/1
f 59/5/1 49/5/1 48/5/1
f 59/8/1 57/8/1 49/8/1
f 60/8/1 57/8/1 59/8/1
f 62/5/1 52/5/1 51/5/1
f 63/5/1 52/5/1 62/5/1
f 64/5/1 59/5/1 48/5/1
f 65/5/1 59/5/1 64/5/1
f 66/5/1 62/5/1 61/5/1
f 67/5/1 62/5/1 66/5/1
f 68/5/1 66/5/1 65/5/1
f 69/5/1 66/5/1 68/5/1
f 72/7/1 71/7/1 70/7/1
f 73/7/1 71/7/1 72/7/1
f 76/8/1 75/8/1 74/8/1
f 77/8/1 75/8/1 76/8/1
f 81/5/1 79/5/1 78/5/1
f 82/5/1 79/5/1 81/5/1
f 83/5/1 81/5/1 80/5/1
f 84/5/1 81/5/1 83/5/1
f 87/5/1 86/5/1 85/5/1
f 88/5/1 86/5/1 87/5/1
f 91/1/1 90/1/1 89/1/1
f 92/1/1 90/1/1 91/1/1
f 93/6/1 92/6/1 91/6/1
f 94/6/1 92/6/1 93/6/1
f 95/6/1 92/6/1 94/6/1
f 96/6/1 92/6/1 95/6/1
f 97/7/1 95/7/1 94/7/1
f 98/7/1 95/7/1 97/7/1
f 101/5/1 100/5/1 99/5/1
f 102/5/1 100/5/1 101/5/1
f 105/8/1 104/8/1 103/8/1
f 106/8/1 104/8/1 105/8/1
f 107/8/2 108/8/2 109/8/2
f 109/8/2 108/8/2 110/8/2
f 111/5/2 112/5/2 113/5/2
f 111/5/2 113/5/2 114/5/2
f 111/5/2 114/5/2 115/5/2
f 115/5/2 114/5/2 116/5/2
f 117/1/2 118/1/2 119/1/2
f 119/1/2 118/1/2 120/1/2
f 119/6/2 120/6/2 121/6/2
f 121/6/2 120/6/2 122/6/2
f 122/6/2 120/6/2 123/6/2
f 123/6/2 120/6/2 124/6/2
f 122/7/2 123/7/2 125/7/2
f 125/7/2 123/7/2 126/7/2
f 127/5/2 128/5/2 129/5/2
f 129/5/2 128/5/2 130/5/2
f 131/7/2 132/7/2 133/7/2
f 133/7/2 132/7/2 134/7/2
f 135/8/2 136/8/2 137/8/2
f 137/8/2 136/8/2 138/8/2
f 139/5/2 140/5/2 142/5/2
f 142/5/2 140/5/2 143/5/2
f 141/5/2 142/5/2 144/5/2
f 144/5/2 142/5/2 145/5/2
f 146/1/2 147/1/2 148/1/2
f 148/1/2 147/1/2 149/1/2
f 148/6/2 149/6/2 150/6/2
f 150/6/2 149/6/2 151/6/2
f 152/3/2 153/3/2 154/3/2
f 154/3/2 153/3/2 155/3/2
f 154/4/2 155/4/2 157/4/2
f 155/4/2 156/4/2 157/4/2
f 157/4/2 156/4/2 158/4/2
f 154/4/2 157/4/2 159/4/2
f 159/4/2 157/4/2 160/4/2
f 158/4/2 156/4/2 161/4/2
f 161/4/2 156/4/2 162/4/2
f 163/8/2 164/8/2 167/8/2
f 167/8/2 164/8/2 168/8/2
f 163/8/2 167/8/2 169/8/2
f 169/8/2 167/8/2 170/8/2
f 163/8/2 169/8/2 171/8/2
f 171/8/2 169/8/2 172/8/2
f 165/5/2 166/5/2 176/5/2
f 176/5/2 166/5/2 177/5/2
f 173/5/2 174/5/2 178/5/2
f 178/5/2 174/5/2 179/5/2
f 175/5/2 176/5/2 180/5/2
f 180/5/2 176/5/2 181/5/2
f 179/5/2 180/5/2 182/5/2
f 182/5/2 180/5/2 183/5/2
f 186/5/2 187/5/2 189/5/2
f 188/5/2 189/5/2 191/5/2
f 189/5/2 187/5/2 192/5/2
f 191/5/2 189/5/2 192/5/2
f 192/5/2 187/5/2 193/5/2
f 184/5/2 185/5/2 194/5/2
f 190/5/2 191/5/2 195/5/2
f 191/5/2 192/5/2 195/5/2
f 192/8/2 193/8/2 196/8/2
f 194/5/2 195/5/2 196/5/2
f 195/5/2 192/5/2 196/5/2
f 193/5/2 187/5/2 197/5/2
f 196/8/2 193/8/2 197/8/2
f 196/5/2 197/5/2 198/5/2
f 197/5/2 187/5/2 198/5/2
f 198/5/2 187/5/2 199/5/2
f 194/5/2 196/5/2 200/5/2
f 184/5/2 194/5/2 200/5/2
f 196/5/2 198/5/2 200/5/2
f 200/5/2 198/5/2 201/5/2
f 202/4/2 203/4/2 204/4/2
f 204/4/2 203/4/2 205/4/2
f 206/8/2 207/8/2 208/8/2
f 208/8/2 207/8/2 209/8/2
f 210/8/2 211/8/2 212/8/2
f 212/8/2 211/8/2 213/8/2
f 216/5/3 215/5/3 214/5/3
f 217/5/3 215/5/3 216/5/3
f 219/5/3 215/5/3 217/5/3
f 220/5/3 219/5/3 218/5/3
f 221/5/3 215/5/3 219/5/3
f 221/5/3 219/5/3 220/5/3
f 227/5/3 223/5/3 222/5/3
f 228/5/3 223/5/3 227/5/3
f 234/1/3 225/1/3 224/1/3
f 235/6/3 226/6/3 225/6/3
f 235/1/3 225/1/3 234/1/3
f 236/6/3 226/6/3 235/6/3
f 237/8/3 231/8/3 230/8/3
f 237/2/3 232/2/3 231/2/3
f 238/8/3 233/8/3 232/8/3
f 238/2/3 232/2/3 237/2/3
f 242/8/3 237/8/3 230/8/3
f 242/8/3 238/8/3 237/8/3
f 243/8/3 233/8/3 238/8/3
f 243/8/3 238/8/3 242/8/3
f 244/8/3 242/8/3 230/8/3
f 244/2/3 243/2/3 242/2/3
f 245/8/3 233/8/3 243/8/3
f 245/2/3 243/2/3 244/2/3
f 246/8/3 233/8/3 245/8/3
f 247/1/3 240/1/3 239/1/3
f 248/6/3 241/6/3 240/6/3
f 248/1/3 240/1/3 247/1/3
f 249/6/3 241/6/3 248/6/3
f 250/8/3 244/8/3 230/8/3
f 250/8/3 245/8/3 244/8/3
f 251/8/3 245/8/3 250/8/3
f 252/5/3 229/5/3 228/5/3
f 253/5/3 229/5/3 252/5/3
f 254/5/3 251/5/3 250/5/3
f 254/5/3 252/5/3 251/5/3
f 255/5/3 252/5/3 254/5/3
f 258/5/3 257/5/3 256/5/3
f 259/5/3 257/5/3 258/5/3
f 262/8/3 261/8/3 260/8/3
f 263/8/3 261/8/3 262/8/3
f 269/5/3 265/5/3 264/5/3
f 270/5/3 265/5/3 269/5/3
f 271/3/3 267/3/3 266/3/3
f 272/4/3 268/4/3 267/4/3
f 272/3/3 267/3/3 271/3/3
f 273/4/3 268/4/3 272/4/3
f 276/5/3 275/5/3 274/5/3
f 277/5/3 275/5/3 276/5/3
f 280/8/3 279/8/3 278/8/3
f 281/8/3 279/8/3 280/8/3
f 284/8/3 283/8/3 282/8/3
f 285/8/3 283/8/3 284/8/3
f 291/4/3 288/4/3 287/4/3
f 291/4/3 287/4/3 286/4/3
f 292/4/3 288/4/3 291/4/3
f 293/5/3 290/5/3 289/5/3
f 294/5/3 290/5/3 293/5/3
f 299/7/3 296/7/3 295/7/3
f 300/7/3 296/7/3 299/7/3
f 301/7/3 296/7/3 300/7/3
f 304/7/3 303/7/3 302/7/3
f 305/7/3 303/7/3 304/7/3
f 306/7/3 303/7/3 305/7/3
f 307/8/3 298/8/3 297/8/3
f 308/8/3 298/8/3 307/8/3
f 313/5/3 312/5/3 311/5/3
f 314/5/3 312/5/3 313/5/3
f 315/4/3 310/4/3 309/4/3
f 316/4/3 310/4/3 315/4/3
f 317/4/3 310/4/3 316/4/3
f 320/8/3 319/8/3 318/8/3
f 321/8/3 319/8/3 320/8/3
f 324/5/3 323/5/3 322/5/3
f 325/5/3 323/5/3 324/5/3
f 328/5/3 327/5/3 326/5/3
f 329/5/3 327/5/3 328/5/3
f 332/5/3 331/5/3 330/5/3
f 333/5/3 331/5/3 332/5/3
f 334/5/4 335/5/4 336/5/4
f 336/5/4 335/5/4 337/5/4
f 338/7/4 339/7/4 340/7/4
f 340/7/4 339/7/4 341/7/4
f 342/7/4 343/7/4 344/7/4
f 344/7/4 343/7/4 345/7/4
f 346/8/4 347/8/4 349/8/4
f 349/8/4 347/8/4 350/8/4
f 348/4/4 349/4/4 356/4/4
f 349/4/4 350/4/4 356/4/4
f 356/4/4 350/4/4 357/4/4
f 351/1/4 352/1/4 360/1/4
f 352/6/4 353/6/4 361/6/4
f 360/1/4 352/1/4 361/1/4
f 361/6/4 353/6/4 362/6/4
f 358/8/4 359/8/4 366/8/4
f 366/8/4 359/8/4 367/8/4
f 363/1/4 364/1/4 368/1/4
f 364/6/4 365/6/4 369/6/4
f 368/1/4 364/1/4 369/1/4
f 369/6/4 365/6/4 370/6/4
f 354/3/4 355/3/4 371/3/4
f 371/3/4 355/3/4 372/3/4
f 373/4/4 374/4/4 375/4/4
f 375/4/4 374/4/4 376/4/4
f 376/4/4 374/4/4 377/4/4
f 376/8/4 377/8/4 378/8/4
f 378/8/4 377/8/4 379/8/4
f 380/5/4 381/5/4 384/5/4
f 384/5/4 381/5/4 385/5/4
f 385/5/4 386/5/4 387/5/4
f 387/5/4 386/5/4 388/5/4
f 382/4/4 383/4/4 391/4/4
f 391/4/4 383/4/4 392/4/4
f 389/5/4 390/5/4 394/5/4
f 394/5/4 390/5/4 395/5/4
f 393/5/4 394/5/4 396/5/4
f 396/5/4 394/5/4 397/5/4
f 398/5/4 399/5/4 400/5/4
f 400/5/4 399/5/4 401/5/4
f 401/5/4 402/5/4 403/5/4
f 403/5/4 402/5/4 404/5/4
f 404/5/4 405/5/4 407/5/4
f 407/5/4 405/5/4 408/5/4
f 406/5/4 407/5/4 410/5/4
f 410/5/4 407/5/4 411/5/4
f 409/5/4 410/5/4 412/5/4
f 412/5/4 410/5/4 413/5/4
f 414/5/4 415/5/4 416/5/4
f 414/5/4 416/5/4 419/5/4
f 416/5/4 417/5/4 419/5/4
f 418/5/4 419/5/4 420/5/4
f 419/5/4 417/5/4 421/5/4
f 420/5/4 419/5/4 421/5/4
f 421/5/4 417/5/4 422/5/4
f 422/5/4 417/5/4 423/5/4
f 421/5/4 422/5/4 424/5/4
f 424/5/4 422/5/4 425/5/4
f 430/1/5 427/1/5 426/1/5
f 431/1/5 427/1/5 430/1/5
f 432/1/5 429/1/5 428/1/5
f 433/1/5 429/1/5 432/1/5
f 434/1/5 430/1/5 426/1/5
f 434/5/5 431/5/5 430/5/5
f 435/1/5 427/1/5 431/1/5
f 435/5/5 431/5/5 434/5/5
f 436/5/5 433/5/5 432/5/5
f 436/1/5 432/1/5 428/1/5
f 437/1/5 429/1/5 433/1/5
f 437/5/5 433/5/5 436/5/5
f 438/1/5 434/1/5 426/1/5
f 438/1/5 435/1/5 434/1/5
f 439/1/5 427/1/5 435/1/5
f 439/1/5 435/1/5 438/1/5
f 440/1/5 436/1/5 428/1/5
f 440/1/5 437/1/5 436/1/5
f 441/1/5 429/1/5 437/1/5
f 441/1/5 437/1/5 440/1/5
f 444/3/5 443/3/5 442/3/5
f 445/3/5 443/3/5 444/3/5
f 446/3/5 443/3/5 445/3/5
f 447/3/5 443/3/5 446/3/5
f 448/3/5 444/3/5 442/3/5
f 449/3/5 446/3/5 445/3/5
f 450/3/5 446/3/5 449/3/5
f 451/3/5 443/3/5 447/3/5
f 452/3/5 450/3/5 449/3/5
f 452/3/5 451/3/5 450/3/5
f 452/3/5 448/3/5 442/3/5
f 452/3/5 449/3/5 448/3/5
f 453/3/5 443/3/5 451/3/5
f 453/3/5 451/3/5 452/3/5
f 456/4/5 455/4/5 454/4/5
f 457/4/5 455/4/5 456/4/5
f 460/5/5 459/5/5 458/5/5
f 461/5/5 459/5/5 460/5/5
f 466/4/5 463/4/5 462/4/5
f 467/4/5 463/4/5 466/4/5
f 468/4/5 465/4/5 464/4/5
f 469/4/5 465/4/5 468/4/5
f 475/8/5 471/8/5 470/8/5
f 476/8/5 471/8/5 475/8/5
f 477/8/5 473/8/5 472/8/5
f 478/8/5 473/8/5 477/8/5
f 480/8/5 476/8/5 475/8/5
f 480/8/5 475/8/5 474/8/5
f 481/8/5 476/8/5 480/8/5
f 482/8/5 479/8/5 478/8/5
f 482/8/5 478/8/5 477/8/5
f 483/8/5 479/8/5 482/8/5
f 486/5/5 485/5/5 484/5/5
f 487/5/5 485/5/5 486/5/5
f 490/8/5 487/8/5 486/8/5
f 490/5/5 489/5/5 488/5/5
f 490/8/5 488/8/5 487/8/5
f 491/5/5 489/5/5 490/5/5
f 492/8/5 490/8/5 486/8/5
f 493/8/5 490/8/5 492/8/5
f 495/8/5 492/8/5 486/8/5
f 496/8/5 490/8/5 493/8/5
f 498/8/5 492/8/5 495/8/5
f 499/8/5 496/8/5 493/8/5
f 500/5/5 495/5/5 494/5/5
f 501/8/5 499/8/5 498/8/5
f 501/5/5 495/5/5 500/5/5
f 501/8/5 498/8/5 495/8/5
f 502/8/5 499/8/5 501/8/5
f 503/8/5 499/8/5 502/8/5
f 504/5/5 497/5/5 496/5/5
f 504/8/5 499/8/5 503/8/5
f 504/8/5 496/8/5 499/8/5
f 505/5/5 497/5/5 504/5/5
f 506/5/5 502/5/5 501/5/5
f 507/5/5 502/5/5 506/5/5
f 508/5/5 504/5/5 503/5/5
f 509/5/5 504/5/5 508/5/5
f 514/5/5 511/5/5 510/5/5
f 515/5/5 511/5/5 514/5/5
f 516/5/5 513/5/5 512/5/5
f 517/5/5 513/5/5 516/5/5
f 522/5/5 519/5/5 518/5/5
f 523/5/5 519/5/5 522/5/5
f 524/5/5 521/5/5 520/5/5
f 525/5/5 521/5/5 524/5/5
f 530/5/5 527/5/5 526/5/5
f 531/5/5 527/5/5 530/5/5
f 532/5/5 529/5/5 528/5/5
f 533/5/5 529/5/5 532/5/5
f 538/5/5 535/5/5 534/5/5
f 539/5/5 535/5/5 538/5/5
f 540/5/5 537/5/5 536/5/5
f 541/5/5 537/5/5 540/5/5
f 544/5/5 543/5/5 542/5/5
f 545/5/5 543/5/5 544/5/5
f 546/6/6 547/6/6 550/6/6
f 550/6/6 547/6/6 551/6/6
f 548/6/6 549/6/6 552/6/6
f 552/6/6 549/6/6 553/6/6
f 546/6/6 550/6/6 554/6/6
f 550/7/6 551/7/6 554/7/6
f 551/6/6 547/6/6 555/6/6
f 554/7/6 551/7/6 555/7/6
f 555/6/6 547/6/6 556/6/6
f 548/6/6 552/6/6 557/6/6
f 552/7/6 553/7/6 558/7/6
f 557/6/6 552/6/6 558/6/6
f 553/6/6 549/6/6 559/6/6
f 558/7/6 553/7/6 559/7/6
f 546/6/6 554/6/6 560/6/6
f 559/6/6 549/6/6 563/6/6
f 560/6/6 561/6/6 564/6/6
f 546/6/6 560/6/6 564/6/6
f 564/6/6 561/6/6 565/6/6
f 562/6/6 563/6/6 566/6/6
f 563/6/6 549/6/6 567/6/6
f 566/6/6 563/6/6 567/6/6
f 568/8/6 569/8/6 575/8/6
f 575/8/6 569/8/6 576/8/6
f 570/4/6 571/4/6 577/4/6
f 577/4/6 571/4/6 578/4/6
f 578/4/6 571/4/6 579/4/6
f 579/4/6 571/4/6 580/4/6
f 572/8/6 573/8/6 581/8/6
f 581/8/6 573/8/6 582/8/6
f 575/8/6 576/8/6 584/8/6
f 574/8/6 575/8/6 584/8/6
f 576/4/6 577/4/6 585/4/6
f 584/8/6 576/8/6 585/8/6
f 577/4/6 578/4/6 585/4/6
f 585/4/6 578/4/6 586/4/6
f 586/4/6 578/4/6 587/4/6
f 579/4/6 580/4/6 588/4/6
f 580/4/6 581/4/6 588/4/6
f 588/4/6 581/4/6 589/4/6
f 582/8/6 583/8/6 590/8/6
f 589/4/6 581/4/6 590/4/6
f 581/8/6 582/8/6 590/8/6
f 590/8/6 583/8/6 591/8/6
f 586/4/6 587/4/6 592/4/6
f 588/4/6 589/4/6 592/4/6
f 587/4/6 588/4/6 592/4/6
f 592/4/6 589/4/6 593/4/6
f 594/5/6 595/5/6 598/5/6
f 598/5/6 595/5/6 599/5/6
f 596/5/6 597/5/6 602/5/6
f 602/5/6 597/5/6 603/5/6
f 599/5/6 600/5/6 604/5/6
f 604/5/6 600/5/6 605/5/6
f 601/5/6 602/5/6 606/5/6
f 606/5/6 602/5/6 607/5/6
f 608/5/6 609/5/6 611/5/6
f 611/5/6 609/5/6 612/5/6
f 610/5/6 611/5/6 614/5/6
f 614/5/6 611/5/6 615/5/6
f 612/5/6 613/5/6 618/5/6
f 618/5/6 613/5/6 619/5/6
f 615/5/6 616/5/6 620/5/6
f 620/5/6 616/5/6 621/5/6
f 617/5/6 618/5/6 622/5/6
f 622/5/6 618/5/6 623/5/6
f 621/5/6 622/5/6 624/5/6
f 624/5/6 622/5/6 625/5/6
f 626/5/6 627/5/6 628/5/6
f 628/5/6 627/5/6 629/5/6
f 629/5/6 627/5/6 630/5/6
f 630/5/6 627/5/6 631/5/6
f 629/5/6 630/5/6 632/5/6
f 632/5/6 630/5/6 633/5/6
