# MagicaVoxel @ Ephtracy

# group
o 

# material
mtllib student-3.mtl
usemtl palette

# normals
vn -1 0 0
vn 1 0 0
vn 0 0 1
vn 0 0 -1
vn 0 -1 0
vn 0 1 0

# texcoords
vt 0.00585938 0.5
vt 0.00976562 0.5
vt 0.0722656 0.5
vt 0.111328 0.5
vt 0.298828 0.5
vt 0.962891 0.5
vt 0.966797 0.5

# verts
v -1.5 1.9 0
v -1.5 1.9 -0.3
v -1.5 2 0
v -1.5 2 -0.3
v -1.3 1.9 0.1
v -1.3 1.9 0
v -1.3 2 0.1
v -1.3 2 0
v -1.2 1.8 0
v -1.2 1.8 -0.3
v -1.2 1.9 0
v -1.2 1.9 -0.3
v -0.5 2.1 -0.1
v -0.5 2.1 -0.5
v -0.5 2.2 0
v -0.5 2.2 -0.1
v -0.5 2.3 0.1
v -0.5 2.3 0
v -0.5 2.3 -0.1
v -0.5 2.3 -0.2
v -0.5 2.5 0.2
v -0.5 2.5 0.1
v -0.5 2.6 0.3
v -0.5 2.6 0.2
v -0.5 2.6 -0.1
v -0.5 2.6 -0.2
v -0.5 2.8 -0.4
v -0.5 2.8 -0.5
v -0.5 2.9 0.3
v -0.5 2.9 -0.4
v -0.4 0 0.3
v -0.4 0 -0.3
v -0.4 0.1 0.3
v -0.4 0.1 -0.3
v -0.4 0.2 0.3
v -0.4 0.2 0.1
v -0.4 0.2 -0.3
v -0.4 1.1 0.1
v -0.4 1.1 -0.3
v -0.4 1.1 -0.4
v -0.4 1.6 -0.5
v -0.4 1.6 -0.6
v -0.4 1.8 0
v -0.4 1.8 -0.3
v -0.4 2 0.1
v -0.4 2 0
v -0.4 2 -0.3
v -0.4 2 -0.4
v -0.4 2.1 0.3
v -0.4 2.1 -0.1
v -0.4 2.1 -0.5
v -0.4 2.2 0
v -0.4 2.2 -0.1
v -0.4 2.3 0.1
v -0.4 2.3 0
v -0.4 2.5 0.2
v -0.4 2.5 0.1
v -0.4 2.6 0.3
v -0.4 2.6 0.2
v -0.4 2.8 -0.4
v -0.4 2.8 -0.5
v -0.4 2.8 -0.6
v -0.4 2.9 0.3
v -0.4 2.9 -0.4
v -0.4 2.9 -0.5
v -0.4 3 0.3
v -0.4 3 -0.4
v -0.3 2 0
v -0.3 2 -0.3
v -0.3 2.1 0
v -0.3 2.1 -0.3
v -0.3 2.8 -0.5
v -0.3 2.8 -0.6
v -0.3 2.9 -0.4
v -0.3 2.9 -0.5
v -0.3 2.9 -0.6
v -0.3 3 -0.4
v -0.3 3 -0.5
v -0.1 2.3 0.5
v -0.1 2.3 0.3
v -0.1 2.4 0.3
v -0.1 2.5 0.5
v -0.1 2.5 0.3
v 0.1 0 0.3
v 0.1 0 -0.3
v 0.1 0.1 0.3
v 0.1 0.1 -0.3
v 0.1 0.2 0.3
v 0.1 0.2 0.1
v 0.1 0.2 -0.3
v 0.1 1 0.1
v 0.1 1 -0.3
v 1.2 1.9 0.1
v 1.2 1.9 0
v 1.2 2 0.1
v 1.2 2 0
v -1.2 1.9 0.1
v -1.2 1.9 0
v -1.2 2 0.1
v -1.2 2 0
v -0.1 0 0.3
v -0.1 0 -0.3
v -0.1 0.1 0.3
v -0.1 0.1 -0.3
v -0.1 0.2 0.3
v -0.1 0.2 0.1
v -0.1 0.2 -0.3
v -0.1 1 0.1
v -0.1 1 -0.3
v 0.1 2.3 0.5
v 0.1 2.3 0.3
v 0.1 2.4 0.3
v 0.1 2.5 0.5
v 0.1 2.5 0.3
v 0.3 2 0
v 0.3 2 -0.3
v 0.3 2.1 0
v 0.3 2.1 -0.3
v 0.3 2.8 -0.5
v 0.3 2.8 -0.6
v 0.3 2.9 -0.4
v 0.3 2.9 -0.5
v 0.3 2.9 -0.6
v 0.3 3 -0.4
v 0.3 3 -0.5
v 0.4 0 0.3
v 0.4 0 -0.3
v 0.4 0.1 0.3
v 0.4 0.1 -0.3
v 0.4 0.2 0.3
v 0.4 0.2 0.1
v 0.4 0.2 -0.3
v 0.4 1.1 0.1
v 0.4 1.1 -0.3
v 0.4 1.1 -0.4
v 0.4 1.6 -0.5
v 0.4 1.6 -0.6
v 0.4 1.8 0
v 0.4 1.8 -0.3
v 0.4 2 0.1
v 0.4 2 0
v 0.4 2 -0.3
v 0.4 2 -0.4
v 0.4 2.1 0.3
v 0.4 2.1 -0.1
v 0.4 2.1 -0.5
v 0.4 2.2 0
v 0.4 2.2 -0.1
v 0.4 2.3 0.1
v 0.4 2.3 0
v 0.4 2.5 0.2
v 0.4 2.5 0.1
v 0.4 2.6 0.3
v 0.4 2.6 0.2
v 0.4 2.8 -0.4
v 0.4 2.8 -0.5
v 0.4 2.8 -0.6
v 0.4 2.9 0.3
v 0.4 2.9 -0.4
v 0.4 2.9 -0.5
v 0.4 3 0.3
v 0.4 3 -0.4
v 0.5 2.1 -0.1
v 0.5 2.1 -0.5
v 0.5 2.2 0
v 0.5 2.2 -0.1
v 0.5 2.3 0.1
v 0.5 2.3 0
v 0.5 2.3 -0.1
v 0.5 2.3 -0.2
v 0.5 2.5 0.2
v 0.5 2.5 0.1
v 0.5 2.6 0.3
v 0.5 2.6 0.2
v 0.5 2.6 -0.1
v 0.5 2.6 -0.2
v 0.5 2.8 -0.4
v 0.5 2.8 -0.5
v 0.5 2.9 0.3
v 0.5 2.9 -0.4
v 1.2 1.8 0
v 1.2 1.8 -0.3
v 1.2 1.9 0
v 1.2 1.9 -0.3
v 1.3 1.9 0.1
v 1.3 1.9 0
v 1.3 2 0.1
v 1.3 2 0
v 1.5 1.9 0
v 1.5 1.9 -0.3
v 1.5 2 0
v 1.5 2 -0.3
v -0.1 2.3 0.5
v -0.1 2.5 0.5
v 0.1 2.3 0.5
v 0.1 2.5 0.5
v -0.5 2.6 0.3
v -0.5 2.9 0.3
v -0.4 0 0.3
v -0.4 0.1 0.3
v -0.4 0.2 0.3
v -0.4 2.1 0.3
v -0.4 2.6 0.3
v -0.4 2.9 0.3
v -0.4 3 0.3
v -0.3 2.4 0.3
v -0.3 2.6 0.3
v -0.1 0 0.3
v -0.1 0.1 0.3
v -0.1 0.2 0.3
v -0.1 2.3 0.3
v -0.1 2.4 0.3
v -0.1 2.5 0.3
v -0.1 2.6 0.3
v 0.1 0 0.3
v 0.1 0.1 0.3
v 0.1 0.2 0.3
v 0.1 2.3 0.3
v 0.1 2.4 0.3
v 0.1 2.5 0.3
v 0.1 2.6 0.3
v 0.3 2.4 0.3
v 0.3 2.6 0.3
v 0.4 0 0.3
v 0.4 0.1 0.3
v 0.4 0.2 0.3
v 0.4 2.1 0.3
v 0.4 2.6 0.3
v 0.4 2.9 0.3
v 0.4 3 0.3
v 0.5 2.6 0.3
v 0.5 2.9 0.3
v -0.5 2.5 0.2
v -0.5 2.6 0.2
v -0.4 2.5 0.2
v -0.4 2.6 0.2
v 0.4 2.5 0.2
v 0.4 2.6 0.2
v 0.5 2.5 0.2
v 0.5 2.6 0.2
v -1.3 1.9 0.1
v -1.3 2 0.1
v -1.2 1.9 0.1
v -1.2 2 0.1
v -0.5 2.3 0.1
v -0.5 2.5 0.1
v -0.4 0.2 0.1
v -0.4 1.1 0.1
v -0.4 2 0.1
v -0.4 2.3 0.1
v -0.4 2.5 0.1
v -0.1 0.2 0.1
v -0.1 1 0.1
v 0.1 0.2 0.1
v 0.1 1 0.1
v 0.4 0.2 0.1
v 0.4 1.1 0.1
v 0.4 2 0.1
v 0.4 2.3 0.1
v 0.4 2.5 0.1
v 0.5 2.3 0.1
v 0.5 2.5 0.1
v 1.2 1.9 0.1
v 1.2 2 0.1
v 1.3 1.9 0.1
v 1.3 2 0.1
v -1.5 1.9 0
v -1.5 2 0
v -1.3 1.9 0
v -1.3 2 0
v -1.2 1.8 0
v -1.2 1.9 0
v -1.2 2 0
v -0.5 2.2 0
v -0.5 2.3 0
v -0.4 1.8 0
v -0.4 2 0
v -0.4 2.2 0
v -0.4 2.3 0
v -0.3 2 0
v -0.3 2.1 0
v 0.3 2 0
v 0.3 2.1 0
v 0.4 1.8 0
v 0.4 2 0
v 0.4 2.2 0
v 0.4 2.3 0
v 0.5 2.2 0
v 0.5 2.3 0
v 1.2 1.8 0
v 1.2 1.9 0
v 1.2 2 0
v 1.3 1.9 0
v 1.3 2 0
v 1.5 1.9 0
v 1.5 2 0
v -0.5 2.1 -0.1
v -0.5 2.2 -0.1
v -0.4 2.1 -0.1
v -0.4 2.2 -0.1
v 0.4 2.1 -0.1
v 0.4 2.2 -0.1
v 0.5 2.1 -0.1
v 0.5 2.2 -0.1
v -0.4 1.6 -0.5
v -0.4 2.1 -0.5
v 0.4 1.6 -0.5
v 0.4 2.1 -0.5
v -1.5 1.9 -0.3
v -1.5 2 -0.3
v -1.2 1.8 -0.3
v -1.2 1.9 -0.3
v -1.2 2 -0.3
v -0.4 0 -0.3
v -0.4 0.1 -0.3
v -0.4 0.2 -0.3
v -0.4 1.1 -0.3
v -0.4 1.8 -0.3
v -0.4 2 -0.3
v -0.3 2 -0.3
v -0.3 2.1 -0.3
v -0.1 0 -0.3
v -0.1 0.1 -0.3
v -0.1 0.2 -0.3
v -0.1 1 -0.3
v 0.1 0 -0.3
v 0.1 0.1 -0.3
v 0.1 0.2 -0.3
v 0.1 1 -0.3
v 0.3 2 -0.3
v 0.3 2.1 -0.3
v 0.4 0 -0.3
v 0.4 0.1 -0.3
v 0.4 0.2 -0.3
v 0.4 1.1 -0.3
v 0.4 1.8 -0.3
v 0.4 2 -0.3
v 1.2 1.8 -0.3
v 1.2 1.9 -0.3
v 1.2 2 -0.3
v 1.5 1.9 -0.3
v 1.5 2 -0.3
v -0.5 2.8 -0.4
v -0.5 2.9 -0.4
v -0.4 1.1 -0.4
v -0.4 2 -0.4
v -0.4 2.8 -0.4
v -0.4 2.9 -0.4
v -0.4 3 -0.4
v -0.3 2.9 -0.4
v -0.3 3 -0.4
v 0.3 2.9 -0.4
v 0.3 3 -0.4
v 0.4 1.1 -0.4
v 0.4 2 -0.4
v 0.4 2.8 -0.4
v 0.4 2.9 -0.4
v 0.4 3 -0.4
v 0.5 2.8 -0.4
v 0.5 2.9 -0.4
v -0.5 2.1 -0.5
v -0.5 2.8 -0.5
v -0.4 2.1 -0.5
v -0.4 2.8 -0.5
v -0.4 2.9 -0.5
v -0.3 2.8 -0.5
v -0.3 2.9 -0.5
v -0.3 3 -0.5
v 0.3 2.8 -0.5
v 0.3 2.9 -0.5
v 0.3 3 -0.5
v 0.4 2.1 -0.5
v 0.4 2.8 -0.5
v 0.4 2.9 -0.5
v 0.5 2.1 -0.5
v 0.5 2.8 -0.5
v -0.4 1.6 -0.6
v -0.4 2.8 -0.6
v -0.3 2.8 -0.6
v -0.3 2.9 -0.6
v 0.3 2.8 -0.6
v 0.3 2.9 -0.6
v 0.4 1.6 -0.6
v 0.4 2.8 -0.6
v -0.4 0 0.3
v -0.1 0 0.3
v 0.1 0 0.3
v 0.4 0 0.3
v -0.4 0 -0.3
v -0.1 0 -0.3
v 0.1 0 -0.3
v 0.4 0 -0.3
v -0.1 1 0.1
v 0.1 1 0.1
v -0.1 1 -0.3
v 0.1 1 -0.3
v -0.4 1.1 -0.3
v 0.4 1.1 -0.3
v -0.4 1.1 -0.4
v 0.4 1.1 -0.4
v -0.4 1.6 -0.5
v 0.4 1.6 -0.5
v -0.4 1.6 -0.6
v 0.4 1.6 -0.6
v -1.2 1.8 0
v -0.4 1.8 0
v 0.4 1.8 0
v 1.2 1.8 0
v -1.2 1.8 -0.3
v -0.4 1.8 -0.3
v 0.4 1.8 -0.3
v 1.2 1.8 -0.3
v -1.3 1.9 0.1
v -1.2 1.9 0.1
v 1.2 1.9 0.1
v 1.3 1.9 0.1
v -1.5 1.9 0
v -1.3 1.9 0
v -1.2 1.9 0
v 1.2 1.9 0
v 1.3 1.9 0
v 1.5 1.9 0
v -1.5 1.9 -0.3
v -1.2 1.9 -0.3
v 1.2 1.9 -0.3
v 1.5 1.9 -0.3
v -0.4 2.1 0.3
v 0.4 2.1 0.3
v -0.3 2.1 0
v 0.3 2.1 0
v -0.5 2.1 -0.1
v -0.4 2.1 -0.1
v 0.4 2.1 -0.1
v 0.5 2.1 -0.1
v -0.3 2.1 -0.3
v 0.3 2.1 -0.3
v -0.5 2.1 -0.5
v -0.4 2.1 -0.5
v 0.4 2.1 -0.5
v 0.5 2.1 -0.5
v -0.5 2.2 0
v -0.4 2.2 0
v 0.4 2.2 0
v 0.5 2.2 0
v -0.5 2.2 -0.1
v -0.4 2.2 -0.1
v 0.4 2.2 -0.1
v 0.5 2.2 -0.1
v -0.1 2.3 0.5
v 0.1 2.3 0.5
v -0.1 2.3 0.3
v 0.1 2.3 0.3
v -0.5 2.3 0.1
v -0.4 2.3 0.1
v 0.4 2.3 0.1
v 0.5 2.3 0.1
v -0.5 2.3 0
v -0.4 2.3 0
v 0.4 2.3 0
v 0.5 2.3 0
v -0.5 2.5 0.2
v -0.4 2.5 0.2
v 0.4 2.5 0.2
v 0.5 2.5 0.2
v -0.5 2.5 0.1
v -0.4 2.5 0.1
v 0.4 2.5 0.1
v 0.5 2.5 0.1
v -0.5 2.6 0.3
v -0.4 2.6 0.3
v 0.4 2.6 0.3
v 0.5 2.6 0.3
v -0.5 2.6 0.2
v -0.4 2.6 0.2
v 0.4 2.6 0.2
v 0.5 2.6 0.2
v -0.4 0.2 0.3
v -0.1 0.2 0.3
v 0.1 0.2 0.3
v 0.4 0.2 0.3
v -0.4 0.2 0.1
v -0.1 0.2 0.1
v 0.1 0.2 0.1
v 0.4 0.2 0.1
v -1.3 2 0.1
v -1.2 2 0.1
v -0.4 2 0.1
v 0.4 2 0.1
v 1.2 2 0.1
v 1.3 2 0.1
v -1.5 2 0
v -1.3 2 0
v -1.2 2 0
v -0.4 2 0
v -0.3 2 0
v 0.3 2 0
v 0.4 2 0
v 1.2 2 0
v 1.3 2 0
v 1.5 2 0
v -1.5 2 -0.3
v -1.2 2 -0.3
v -0.4 2 -0.3
v -0.3 2 -0.3
v 0.3 2 -0.3
v 0.4 2 -0.3
v 1.2 2 -0.3
v 1.5 2 -0.3
v -0.4 2 -0.4
v 0.4 2 -0.4
v -0.1 2.5 0.5
v 0.1 2.5 0.5
v -0.1 2.5 0.3
v 0.1 2.5 0.3
v -0.5 2.8 -0.4
v -0.4 2.8 -0.4
v 0.4 2.8 -0.4
v 0.5 2.8 -0.4
v -0.5 2.8 -0.5
v -0.4 2.8 -0.5
v -0.3 2.8 -0.5
v 0.3 2.8 -0.5
v 0.4 2.8 -0.5
v 0.5 2.8 -0.5
v -0.4 2.8 -0.6
v -0.3 2.8 -0.6
v 0.3 2.8 -0.6
v 0.4 2.8 -0.6
v -0.5 2.9 0.3
v -0.4 2.9 0.3
v 0.4 2.9 0.3
v 0.5 2.9 0.3
v -0.5 2.9 -0.4
v -0.4 2.9 -0.4
v -0.3 2.9 -0.4
v 0.3 2.9 -0.4
v 0.4 2.9 -0.4
v 0.5 2.9 -0.4
v -0.4 2.9 -0.5
v -0.3 2.9 -0.5
v 0.3 2.9 -0.5
v 0.4 2.9 -0.5
v -0.3 2.9 -0.6
v 0.3 2.9 -0.6
v -0.4 3 0.3
v 0.4 3 0.3
v -0.4 3 -0.4
v -0.3 3 -0.4
v 0.3 3 -0.4
v 0.4 3 -0.4
v -0.3 3 -0.5
v 0.3 3 -0.5

# faces
f 3/7/1 2/7/1 1/7/1
f 4/7/1 2/7/1 3/7/1
f 7/7/1 6/7/1 5/7/1
f 8/7/1 6/7/1 7/7/1
f 11/5/1 10/5/1 9/5/1
f 12/5/1 10/5/1 11/5/1
f 16/3/1 14/3/1 13/3/1
f 18/3/1 16/3/1 15/3/1
f 19/3/1 14/3/1 16/3/1
f 19/3/1 16/3/1 18/3/1
f 20/3/1 14/3/1 19/3/1
f 22/3/1 18/3/1 17/3/1
f 22/3/1 19/3/1 18/3/1
f 24/3/1 22/3/1 21/3/1
f 25/7/1 20/7/1 19/7/1
f 25/3/1 19/3/1 22/3/1
f 25/3/1 22/3/1 24/3/1
f 26/3/1 14/3/1 20/3/1
f 26/7/1 20/7/1 25/7/1
f 27/3/1 25/3/1 24/3/1
f 27/3/1 14/3/1 26/3/1
f 27/3/1 26/3/1 25/3/1
f 27/3/1 24/3/1 23/3/1
f 28/3/1 14/3/1 27/3/1
f 29/3/1 27/3/1 23/3/1
f 30/3/1 27/3/1 29/3/1
f 33/1/1 32/1/1 31/1/1
f 34/1/1 32/1/1 33/1/1
f 35/3/1 34/3/1 33/3/1
f 36/3/1 34/3/1 35/3/1
f 37/3/1 34/3/1 36/3/1
f 38/4/1 37/4/1 36/4/1
f 39/4/1 37/4/1 38/4/1
f 43/5/1 39/5/1 38/5/1
f 43/5/1 40/5/1 39/5/1
f 44/5/1 40/5/1 43/5/1
f 45/5/1 43/5/1 38/5/1
f 46/5/1 43/5/1 45/5/1
f 47/5/1 40/5/1 44/5/1
f 48/5/1 40/5/1 47/5/1
f 51/3/1 42/3/1 41/3/1
f 52/7/1 50/7/1 49/7/1
f 53/7/1 50/7/1 52/7/1
f 54/7/1 52/7/1 49/7/1
f 55/7/1 52/7/1 54/7/1
f 56/7/1 54/7/1 49/7/1
f 57/7/1 54/7/1 56/7/1
f 58/7/1 56/7/1 49/7/1
f 59/7/1 56/7/1 58/7/1
f 61/3/1 42/3/1 51/3/1
f 62/3/1 42/3/1 61/3/1
f 64/3/1 61/3/1 60/3/1
f 65/3/1 61/3/1 64/3/1
f 66/3/1 64/3/1 63/3/1
f 67/3/1 64/3/1 66/3/1
f 70/7/1 69/7/1 68/7/1
f 71/7/1 69/7/1 70/7/1
f 75/3/1 73/3/1 72/3/1
f 76/3/1 73/3/1 75/3/1
f 77/3/1 75/3/1 74/3/1
f 78/3/1 75/3/1 77/3/1
f 81/6/1 80/6/1 79/6/1
f 82/6/1 81/6/1 79/6/1
f 83/6/1 81/6/1 82/6/1
f 86/1/1 85/1/1 84/1/1
f 87/1/1 85/1/1 86/1/1
f 88/3/1 87/3/1 86/3/1
f 89/3/1 87/3/1 88/3/1
f 90/3/1 87/3/1 89/3/1
f 91/4/1 90/4/1 89/4/1
f 92/4/1 90/4/1 91/4/1
f 95/7/1 94/7/1 93/7/1
f 96/7/1 94/7/1 95/7/1
f 97/7/2 98/7/2 99/7/2
f 99/7/2 98/7/2 100/7/2
f 101/1/2 102/1/2 103/1/2
f 103/1/2 102/1/2 104/1/2
f 103/3/2 104/3/2 105/3/2
f 105/3/2 104/3/2 106/3/2
f 106/3/2 104/3/2 107/3/2
f 106/4/2 107/4/2 108/4/2
f 108/4/2 107/4/2 109/4/2
f 110/6/2 111/6/2 112/6/2
f 110/6/2 112/6/2 113/6/2
f 113/6/2 112/6/2 114/6/2
f 115/7/2 116/7/2 117/7/2
f 117/7/2 116/7/2 118/7/2
f 119/3/2 120/3/2 122/3/2
f 122/3/2 120/3/2 123/3/2
f 121/3/2 122/3/2 124/3/2
f 124/3/2 122/3/2 125/3/2
f 126/1/2 127/1/2 128/1/2
f 128/1/2 127/1/2 129/1/2
f 128/3/2 129/3/2 130/3/2
f 130/3/2 129/3/2 131/3/2
f 131/3/2 129/3/2 132/3/2
f 131/4/2 132/4/2 133/4/2
f 133/4/2 132/4/2 134/4/2
f 133/5/2 134/5/2 138/5/2
f 134/5/2 135/5/2 138/5/2
f 138/5/2 135/5/2 139/5/2
f 133/5/2 138/5/2 140/5/2
f 140/5/2 138/5/2 141/5/2
f 139/5/2 135/5/2 142/5/2
f 142/5/2 135/5/2 143/5/2
f 136/3/2 137/3/2 146/3/2
f 144/7/2 145/7/2 147/7/2
f 147/7/2 145/7/2 148/7/2
f 144/7/2 147/7/2 149/7/2
f 149/7/2 147/7/2 150/7/2
f 144/7/2 149/7/2 151/7/2
f 151/7/2 149/7/2 152/7/2
f 144/7/2 151/7/2 153/7/2
f 153/7/2 151/7/2 154/7/2
f 146/3/2 137/3/2 156/3/2
f 156/3/2 137/3/2 157/3/2
f 155/3/2 156/3/2 159/3/2
f 159/3/2 156/3/2 160/3/2
f 158/3/2 159/3/2 161/3/2
f 161/3/2 159/3/2 162/3/2
f 163/3/2 164/3/2 166/3/2
f 165/3/2 166/3/2 168/3/2
f 166/3/2 164/3/2 169/3/2
f 168/3/2 166/3/2 169/3/2
f 169/3/2 164/3/2 170/3/2
f 167/3/2 168/3/2 172/3/2
f 168/3/2 169/3/2 172/3/2
f 171/3/2 172/3/2 174/3/2
f 169/7/2 170/7/2 175/7/2
f 172/3/2 169/3/2 175/3/2
f 174/3/2 172/3/2 175/3/2
f 170/3/2 164/3/2 176/3/2
f 175/7/2 170/7/2 176/7/2
f 174/3/2 175/3/2 177/3/2
f 176/3/2 164/3/2 177/3/2
f 175/3/2 176/3/2 177/3/2
f 173/3/2 174/3/2 177/3/2
f 177/3/2 164/3/2 178/3/2
f 173/3/2 177/3/2 179/3/2
f 179/3/2 177/3/2 180/3/2
f 181/5/2 182/5/2 183/5/2
f 183/5/2 182/5/2 184/5/2
f 185/7/2 186/7/2 187/7/2
f 187/7/2 186/7/2 188/7/2
f 189/7/2 190/7/2 191/7/2
f 191/7/2 190/7/2 192/7/2
f 195/6/3 194/6/3 193/6/3
f 196/6/3 194/6/3 195/6/3
f 203/3/3 198/3/3 197/3/3
f 204/3/3 198/3/3 203/3/3
f 206/7/3 203/7/3 202/7/3
f 206/7/3 204/7/3 203/7/3
f 207/7/3 204/7/3 206/7/3
f 208/1/3 200/1/3 199/1/3
f 209/3/3 201/3/3 200/3/3
f 209/1/3 200/1/3 208/1/3
f 210/3/3 201/3/3 209/3/3
f 211/7/3 206/7/3 202/7/3
f 212/2/3 207/2/3 206/2/3
f 212/7/3 206/7/3 211/7/3
f 213/2/3 207/2/3 212/2/3
f 214/7/3 204/7/3 207/7/3
f 214/2/3 207/2/3 213/2/3
f 218/7/3 211/7/3 202/7/3
f 220/7/3 214/7/3 213/7/3
f 221/7/3 204/7/3 214/7/3
f 221/7/3 214/7/3 220/7/3
f 222/2/3 220/2/3 219/2/3
f 222/7/3 219/7/3 218/7/3
f 222/2/3 221/2/3 220/2/3
f 223/7/3 204/7/3 221/7/3
f 223/2/3 221/2/3 222/2/3
f 224/1/3 216/1/3 215/1/3
f 225/3/3 217/3/3 216/3/3
f 225/1/3 216/1/3 224/1/3
f 226/3/3 217/3/3 225/3/3
f 227/7/3 222/7/3 218/7/3
f 227/7/3 218/7/3 202/7/3
f 227/7/3 223/7/3 222/7/3
f 228/7/3 204/7/3 223/7/3
f 228/7/3 223/7/3 227/7/3
f 229/3/3 205/3/3 204/3/3
f 229/7/3 204/7/3 228/7/3
f 230/3/3 205/3/3 229/3/3
f 231/3/3 229/3/3 228/3/3
f 232/3/3 229/3/3 231/3/3
f 235/3/3 234/3/3 233/3/3
f 236/3/3 234/3/3 235/3/3
f 239/3/3 238/3/3 237/3/3
f 240/3/3 238/3/3 239/3/3
f 243/7/3 242/7/3 241/7/3
f 244/7/3 242/7/3 243/7/3
f 250/3/3 246/3/3 245/3/3
f 251/3/3 246/3/3 250/3/3
f 252/4/3 248/4/3 247/4/3
f 253/4/3 248/4/3 252/4/3
f 255/4/3 248/4/3 253/4/3
f 256/4/3 255/4/3 254/4/3
f 257/5/3 249/5/3 248/5/3
f 257/4/3 255/4/3 256/4/3
f 257/4/3 248/4/3 255/4/3
f 258/5/3 249/5/3 257/5/3
f 261/3/3 260/3/3 259/3/3
f 262/3/3 260/3/3 261/3/3
f 265/7/3 264/7/3 263/7/3
f 266/7/3 264/7/3 265/7/3
f 269/7/3 268/7/3 267/7/3
f 270/7/3 268/7/3 269/7/3
f 276/5/3 273/5/3 272/5/3
f 276/5/3 272/5/3 271/5/3
f 277/5/3 273/5/3 276/5/3
f 278/3/3 275/3/3 274/3/3
f 279/3/3 275/3/3 278/3/3
f 282/7/3 281/7/3 280/7/3
f 283/7/3 281/7/3 282/7/3
f 288/3/3 287/3/3 286/3/3
f 289/3/3 287/3/3 288/3/3
f 290/5/3 285/5/3 284/5/3
f 291/5/3 285/5/3 290/5/3
f 292/5/3 285/5/3 291/5/3
f 295/7/3 294/7/3 293/7/3
f 296/7/3 294/7/3 295/7/3
f 299/3/3 298/3/3 297/3/3
f 300/3/3 298/3/3 299/3/3
f 303/3/3 302/3/3 301/3/3
f 304/3/3 302/3/3 303/3/3
f 307/3/3 306/3/3 305/3/3
f 308/3/3 306/3/3 307/3/3
f 309/7/4 310/7/4 312/7/4
f 312/7/4 310/7/4 313/7/4
f 311/5/4 312/5/4 318/5/4
f 312/5/4 313/5/4 318/5/4
f 318/5/4 313/5/4 319/5/4
f 314/1/4 315/1/4 322/1/4
f 315/3/4 316/3/4 323/3/4
f 322/1/4 315/1/4 323/1/4
f 316/4/4 317/4/4 324/4/4
f 323/3/4 316/3/4 324/3/4
f 324/4/4 317/4/4 325/4/4
f 325/4/4 317/4/4 329/4/4
f 320/7/4 321/7/4 330/7/4
f 330/7/4 321/7/4 331/7/4
f 326/1/4 327/1/4 332/1/4
f 327/3/4 328/3/4 333/3/4
f 332/1/4 327/1/4 333/1/4
f 328/4/4 329/4/4 334/4/4
f 333/3/4 328/3/4 334/3/4
f 329/4/4 317/4/4 335/4/4
f 334/4/4 329/4/4 335/4/4
f 336/5/4 337/5/4 338/5/4
f 338/5/4 337/5/4 339/5/4
f 339/5/4 337/5/4 340/5/4
f 339/7/4 340/7/4 341/7/4
f 341/7/4 340/7/4 342/7/4
f 343/3/4 344/3/4 347/3/4
f 347/3/4 344/3/4 348/3/4
f 348/3/4 349/3/4 350/3/4
f 350/3/4 349/3/4 351/3/4
f 345/5/4 346/5/4 354/5/4
f 354/5/4 346/5/4 355/5/4
f 352/3/4 353/3/4 357/3/4
f 357/3/4 353/3/4 358/3/4
f 356/3/4 357/3/4 359/3/4
f 359/3/4 357/3/4 360/3/4
f 361/3/4 362/3/4 363/3/4
f 363/3/4 362/3/4 364/3/4
f 364/3/4 365/3/4 366/3/4
f 366/3/4 365/3/4 367/3/4
f 367/3/4 368/3/4 370/3/4
f 370/3/4 368/3/4 371/3/4
f 369/3/4 370/3/4 373/3/4
f 373/3/4 370/3/4 374/3/4
f 372/3/4 373/3/4 375/3/4
f 375/3/4 373/3/4 376/3/4
f 377/3/4 378/3/4 379/3/4
f 377/3/4 379/3/4 381/3/4
f 379/3/4 380/3/4 381/3/4
f 381/3/4 380/3/4 382/3/4
f 377/3/4 381/3/4 383/3/4
f 383/3/4 381/3/4 384/3/4
f 389/1/5 386/1/5 385/1/5
f 390/1/5 386/1/5 389/1/5
f 391/1/5 388/1/5 387/1/5
f 392/1/5 388/1/5 391/1/5
f 395/4/5 394/4/5 393/4/5
f 396/4/5 394/4/5 395/4/5
f 399/5/5 398/5/5 397/5/5
f 400/5/5 398/5/5 399/5/5
f 403/3/5 402/3/5 401/3/5
f 404/3/5 402/3/5 403/3/5
f 409/5/5 406/5/5 405/5/5
f 410/5/5 406/5/5 409/5/5
f 411/5/5 408/5/5 407/5/5
f 412/5/5 408/5/5 411/5/5
f 418/7/5 414/7/5 413/7/5
f 419/7/5 414/7/5 418/7/5
f 420/7/5 416/7/5 415/7/5
f 421/7/5 416/7/5 420/7/5
f 423/7/5 419/7/5 418/7/5
f 423/7/5 418/7/5 417/7/5
f 424/7/5 419/7/5 423/7/5
f 425/7/5 422/7/5 421/7/5
f 425/7/5 421/7/5 420/7/5
f 426/7/5 422/7/5 425/7/5
f 429/7/5 428/7/5 427/7/5
f 430/7/5 428/7/5 429/7/5
f 432/7/5 429/7/5 427/7/5
f 433/7/5 428/7/5 430/7/5
f 435/7/5 429/7/5 432/7/5
f 436/7/5 433/7/5 430/7/5
f 437/3/5 432/3/5 431/3/5
f 438/7/5 436/7/5 435/7/5
f 438/3/5 432/3/5 437/3/5
f 438/7/5 435/7/5 432/7/5
f 439/3/5 434/3/5 433/3/5
f 439/7/5 436/7/5 438/7/5
f 439/7/5 433/7/5 436/7/5
f 440/3/5 434/3/5 439/3/5
f 445/3/5 442/3/5 441/3/5
f 446/3/5 442/3/5 445/3/5
f 447/3/5 444/3/5 443/3/5
f 448/3/5 444/3/5 447/3/5
f 451/6/5 450/6/5 449/6/5
f 452/6/5 450/6/5 451/6/5
f 457/3/5 454/3/5 453/3/5
f 458/3/5 454/3/5 457/3/5
f 459/3/5 456/3/5 455/3/5
f 460/3/5 456/3/5 459/3/5
f 465/3/5 462/3/5 461/3/5
f 466/3/5 462/3/5 465/3/5
f 467/3/5 464/3/5 463/3/5
f 468/3/5 464/3/5 467/3/5
f 473/3/5 470/3/5 469/3/5
f 474/3/5 470/3/5 473/3/5
f 475/3/5 472/3/5 471/3/5
f 476/3/5 472/3/5 475/3/5
f 477/3/6 478/3/6 481/3/6
f 481/3/6 478/3/6 482/3/6
f 479/3/6 480/3/6 483/3/6
f 483/3/6 480/3/6 484/3/6
f 485/7/6 486/7/6 492/7/6
f 492/7/6 486/7/6 493/7/6
f 487/5/6 488/5/6 494/5/6
f 494/5/6 488/5/6 495/5/6
f 495/5/6 488/5/6 496/5/6
f 496/5/6 488/5/6 497/5/6
f 489/7/6 490/7/6 498/7/6
f 498/7/6 490/7/6 499/7/6
f 492/7/6 493/7/6 501/7/6
f 491/7/6 492/7/6 501/7/6
f 493/5/6 494/5/6 502/5/6
f 501/7/6 493/7/6 502/7/6
f 494/5/6 495/5/6 502/5/6
f 502/5/6 495/5/6 503/5/6
f 503/5/6 495/5/6 504/5/6
f 496/5/6 497/5/6 505/5/6
f 497/5/6 498/5/6 505/5/6
f 505/5/6 498/5/6 506/5/6
f 499/7/6 500/7/6 507/7/6
f 506/5/6 498/5/6 507/5/6
f 498/7/6 499/7/6 507/7/6
f 507/7/6 500/7/6 508/7/6
f 503/5/6 504/5/6 509/5/6
f 505/5/6 506/5/6 509/5/6
f 504/5/6 505/5/6 509/5/6
f 509/5/6 506/5/6 510/5/6
f 511/6/6 512/6/6 513/6/6
f 513/6/6 512/6/6 514/6/6
f 515/3/6 516/3/6 519/3/6
f 519/3/6 516/3/6 520/3/6
f 517/3/6 518/3/6 523/3/6
f 523/3/6 518/3/6 524/3/6
f 520/3/6 521/3/6 525/3/6
f 525/3/6 521/3/6 526/3/6
f 522/3/6 523/3/6 527/3/6
f 527/3/6 523/3/6 528/3/6
f 529/3/6 530/3/6 533/3/6
f 533/3/6 530/3/6 534/3/6
f 531/3/6 532/3/6 537/3/6
f 537/3/6 532/3/6 538/3/6
f 534/3/6 535/3/6 539/3/6
f 539/3/6 535/3/6 540/3/6
f 536/3/6 537/3/6 541/3/6
f 541/3/6 537/3/6 542/3/6
f 540/3/6 541/3/6 543/3/6
f 543/3/6 541/3/6 544/3/6
f 545/3/6 546/3/6 547/3/6
f 547/3/6 546/3/6 548/3/6
f 548/3/6 546/3/6 549/3/6
f 549/3/6 546/3/6 550/3/6
f 548/3/6 549/3/6 551/3/6
f 551/3/6 549/3/6 552/3/6
