# MagicaVoxel @ Ephtracy

# group
o 

# material
mtllib student-11.mtl
usemtl palette

# normals
vn -1 0 0
vn 1 0 0
vn 0 0 1
vn 0 0 -1
vn 0 -1 0
vn 0 1 0

# texcoords
vt 0.00585938 0.5
vt 0.0253906 0.5
vt 0.0292969 0.5
vt 0.384766 0.5
vt 0.388672 0.5
vt 0.966797 0.5

# verts
v -1.5 1.9 2.98023e-08
v -1.5 1.9 -0.3
v -1.5 2 2.98023e-08
v -1.5 2 -0.3
v -1.3 1.9 0.1
v -1.3 1.9 2.98023e-08
v -1.3 2 0.1
v -1.3 2 2.98023e-08
v -1.2 1.8 2.98023e-08
v -1.2 1.8 -0.3
v -1.2 1.9 2.98023e-08
v -1.2 1.9 -0.3
v -0.5 2.1 -0.1
v -0.5 2.1 -0.5
v -0.5 2.2 2.98023e-08
v -0.5 2.2 -0.1
v -0.5 2.3 0.1
v -0.5 2.3 2.98023e-08
v -0.5 2.3 -0.1
v -0.5 2.3 -0.2
v -0.5 2.5 0.2
v -0.5 2.5 0.1
v -0.5 2.6 0.3
v -0.5 2.6 0.2
v -0.5 2.6 -0.1
v -0.5 2.6 -0.2
v -0.5 2.8 -0.4
v -0.5 2.8 -0.5
v -0.5 2.9 0.3
v -0.5 2.9 -0.4
v -0.4 0 0.3
v -0.4 0 -0.3
v -0.4 0.1 0.3
v -0.4 0.1 -0.3
v -0.4 0.2 0.3
v -0.4 0.2 0.1
v -0.4 0.2 -0.3
v -0.4 1.1 0.1
v -0.4 1.1 -0.3
v -0.4 1.1 -0.4
v -0.4 1.8 2.98023e-08
v -0.4 1.8 -0.3
v -0.4 2 0.1
v -0.4 2 2.98023e-08
v -0.4 2 -0.3
v -0.4 2 -0.4
v -0.4 2.1 0.3
v -0.4 2.1 -0.1
v -0.4 2.1 -0.5
v -0.4 2.1 -0.6
v -0.4 2.2 2.98023e-08
v -0.4 2.2 -0.1
v -0.4 2.3 0.1
v -0.4 2.3 2.98023e-08
v -0.4 2.5 0.2
v -0.4 2.5 0.1
v -0.4 2.6 0.3
v -0.4 2.6 0.2
v -0.4 2.8 -0.4
v -0.4 2.8 -0.5
v -0.4 2.8 -0.6
v -0.4 2.9 0.3
v -0.4 2.9 -0.4
v -0.4 2.9 -0.5
v -0.4 3 0.3
v -0.4 3 -0.4
v -0.3 2 2.98023e-08
v -0.3 2 -0.3
v -0.3 2.1 2.98023e-08
v -0.3 2.1 -0.3
v -0.3 2.8 -0.5
v -0.3 2.8 -0.6
v -0.3 2.9 -0.4
v -0.3 2.9 -0.5
v -0.3 2.9 -0.6
v -0.3 3 -0.4
v -0.3 3 -0.5
v 0.1 0 0.3
v 0.1 0 -0.3
v 0.1 0.1 0.3
v 0.1 0.1 -0.3
v 0.1 0.2 0.3
v 0.1 0.2 0.1
v 0.1 0.2 -0.3
v 0.1 1 0.1
v 0.1 1 -0.3
v 1.2 1.9 0.1
v 1.2 1.9 2.98023e-08
v 1.2 2 0.1
v 1.2 2 2.98023e-08
v -1.2 1.9 0.1
v -1.2 1.9 2.98023e-08
v -1.2 2 0.1
v -1.2 2 2.98023e-08
v -0.1 0 0.3
v -0.1 0 -0.3
v -0.1 0.1 0.3
v -0.1 0.1 -0.3
v -0.1 0.2 0.3
v -0.1 0.2 0.1
v -0.1 0.2 -0.3
v -0.1 1 0.1
v -0.1 1 -0.3
v 0.3 2 2.98023e-08
v 0.3 2 -0.3
v 0.3 2.1 2.98023e-08
v 0.3 2.1 -0.3
v 0.3 2.8 -0.5
v 0.3 2.8 -0.6
v 0.3 2.9 -0.4
v 0.3 2.9 -0.5
v 0.3 2.9 -0.6
v 0.3 3 -0.4
v 0.3 3 -0.5
v 0.4 0 0.3
v 0.4 0 -0.3
v 0.4 0.1 0.3
v 0.4 0.1 -0.3
v 0.4 0.2 0.3
v 0.4 0.2 0.1
v 0.4 0.2 -0.3
v 0.4 1.1 0.1
v 0.4 1.1 -0.3
v 0.4 1.1 -0.4
v 0.4 1.8 2.98023e-08
v 0.4 1.8 -0.3
v 0.4 2 0.1
v 0.4 2 2.98023e-08
v 0.4 2 -0.3
v 0.4 2 -0.4
v 0.4 2.1 0.3
v 0.4 2.1 -0.1
v 0.4 2.1 -0.5
v 0.4 2.1 -0.6
v 0.4 2.2 2.98023e-08
v 0.4 2.2 -0.1
v 0.4 2.3 0.1
v 0.4 2.3 2.98023e-08
v 0.4 2.5 0.2
v 0.4 2.5 0.1
v 0.4 2.6 0.3
v 0.4 2.6 0.2
v 0.4 2.8 -0.4
v 0.4 2.8 -0.5
v 0.4 2.8 -0.6
v 0.4 2.9 0.3
v 0.4 2.9 -0.4
v 0.4 2.9 -0.5
v 0.4 3 0.3
v 0.4 3 -0.4
v 0.5 2.1 -0.1
v 0.5 2.1 -0.5
v 0.5 2.2 2.98023e-08
v 0.5 2.2 -0.1
v 0.5 2.3 0.1
v 0.5 2.3 2.98023e-08
v 0.5 2.3 -0.1
v 0.5 2.3 -0.2
v 0.5 2.5 0.2
v 0.5 2.5 0.1
v 0.5 2.6 0.3
v 0.5 2.6 0.2
v 0.5 2.6 -0.1
v 0.5 2.6 -0.2
v 0.5 2.8 -0.4
v 0.5 2.8 -0.5
v 0.5 2.9 0.3
v 0.5 2.9 -0.4
v 1.2 1.8 2.98023e-08
v 1.2 1.8 -0.3
v 1.2 1.9 2.98023e-08
v 1.2 1.9 -0.3
v 1.3 1.9 0.1
v 1.3 1.9 2.98023e-08
v 1.3 2 0.1
v 1.3 2 2.98023e-08
v 1.5 1.9 2.98023e-08
v 1.5 1.9 -0.3
v 1.5 2 2.98023e-08
v 1.5 2 -0.3
v -0.5 2.6 0.3
v -0.5 2.9 0.3
v -0.4 0 0.3
v -0.4 0.1 0.3
v -0.4 0.2 0.3
v -0.4 2.1 0.3
v -0.4 2.6 0.3
v -0.4 2.9 0.3
v -0.4 3 0.3
v -0.3 2.4 0.3
v -0.3 2.6 0.3
v -0.1 0 0.3
v -0.1 0.1 0.3
v -0.1 0.2 0.3
v -0.1 2.4 0.3
v -0.1 2.6 0.3
v 0.1 0 0.3
v 0.1 0.1 0.3
v 0.1 0.2 0.3
v 0.1 2.4 0.3
v 0.1 2.6 0.3
v 0.3 2.4 0.3
v 0.3 2.6 0.3
v 0.4 0 0.3
v 0.4 0.1 0.3
v 0.4 0.2 0.3
v 0.4 2.1 0.3
v 0.4 2.6 0.3
v 0.4 2.9 0.3
v 0.4 3 0.3
v 0.5 2.6 0.3
v 0.5 2.9 0.3
v -0.5 2.5 0.2
v -0.5 2.6 0.2
v -0.4 2.5 0.2
v -0.4 2.6 0.2
v 0.4 2.5 0.2
v 0.4 2.6 0.2
v 0.5 2.5 0.2
v 0.5 2.6 0.2
v -1.3 1.9 0.1
v -1.3 2 0.1
v -1.2 1.9 0.1
v -1.2 2 0.1
v -0.5 2.3 0.1
v -0.5 2.5 0.1
v -0.4 0.2 0.1
v -0.4 1.1 0.1
v -0.4 2 0.1
v -0.4 2.3 0.1
v -0.4 2.5 0.1
v -0.1 0.2 0.1
v -0.1 1 0.1
v 0.1 0.2 0.1
v 0.1 1 0.1
v 0.4 0.2 0.1
v 0.4 1.1 0.1
v 0.4 2 0.1
v 0.4 2.3 0.1
v 0.4 2.5 0.1
v 0.5 2.3 0.1
v 0.5 2.5 0.1
v 1.2 1.9 0.1
v 1.2 2 0.1
v 1.3 1.9 0.1
v 1.3 2 0.1
v -1.5 1.9 2.98023e-08
v -1.5 2 2.98023e-08
v -1.3 1.9 2.98023e-08
v -1.3 2 2.98023e-08
v -1.2 1.8 2.98023e-08
v -1.2 1.9 2.98023e-08
v -1.2 2 2.98023e-08
v -0.5 2.2 2.98023e-08
v -0.5 2.3 2.98023e-08
v -0.4 1.8 2.98023e-08
v -0.4 2 2.98023e-08
v -0.4 2.2 2.98023e-08
v -0.4 2.3 2.98023e-08
v -0.3 2 2.98023e-08
v -0.3 2.1 2.98023e-08
v 0.3 2 2.98023e-08
v 0.3 2.1 2.98023e-08
v 0.4 1.8 2.98023e-08
v 0.4 2 2.98023e-08
v 0.4 2.2 2.98023e-08
v 0.4 2.3 2.98023e-08
v 0.5 2.2 2.98023e-08
v 0.5 2.3 2.98023e-08
v 1.2 1.8 2.98023e-08
v 1.2 1.9 2.98023e-08
v 1.2 2 2.98023e-08
v 1.3 1.9 2.98023e-08
v 1.3 2 2.98023e-08
v 1.5 1.9 2.98023e-08
v 1.5 2 2.98023e-08
v -0.5 2.1 -0.1
v -0.5 2.2 -0.1
v -0.4 2.1 -0.1
v -0.4 2.2 -0.1
v 0.4 2.1 -0.1
v 0.4 2.2 -0.1
v 0.5 2.1 -0.1
v 0.5 2.2 -0.1
v -1.5 1.9 -0.3
v -1.5 2 -0.3
v -1.2 1.8 -0.3
v -1.2 1.9 -0.3
v -1.2 2 -0.3
v -0.4 0 -0.3
v -0.4 0.1 -0.3
v -0.4 0.2 -0.3
v -0.4 1.1 -0.3
v -0.4 1.8 -0.3
v -0.4 2 -0.3
v -0.3 2 -0.3
v -0.3 2.1 -0.3
v -0.1 0 -0.3
v -0.1 0.1 -0.3
v -0.1 0.2 -0.3
v -0.1 1 -0.3
v 0.1 0 -0.3
v 0.1 0.1 -0.3
v 0.1 0.2 -0.3
v 0.1 1 -0.3
v 0.3 2 -0.3
v 0.3 2.1 -0.3
v 0.4 0 -0.3
v 0.4 0.1 -0.3
v 0.4 0.2 -0.3
v 0.4 1.1 -0.3
v 0.4 1.8 -0.3
v 0.4 2 -0.3
v 1.2 1.8 -0.3
v 1.2 1.9 -0.3
v 1.2 2 -0.3
v 1.5 1.9 -0.3
v 1.5 2 -0.3
v -0.5 2.8 -0.4
v -0.5 2.9 -0.4
v -0.4 1.1 -0.4
v -0.4 2 -0.4
v -0.4 2.8 -0.4
v -0.4 2.9 -0.4
v -0.4 3 -0.4
v -0.3 2.9 -0.4
v -0.3 3 -0.4
v 0.3 2.9 -0.4
v 0.3 3 -0.4
v 0.4 1.1 -0.4
v 0.4 2 -0.4
v 0.4 2.8 -0.4
v 0.4 2.9 -0.4
v 0.4 3 -0.4
v 0.5 2.8 -0.4
v 0.5 2.9 -0.4
v -0.5 2.1 -0.5
v -0.5 2.8 -0.5
v -0.4 2.1 -0.5
v -0.4 2.8 -0.5
v -0.4 2.9 -0.5
v -0.3 2.8 -0.5
v -0.3 2.9 -0.5
v -0.3 3 -0.5
v 0.3 2.8 -0.5
v 0.3 2.9 -0.5
v 0.3 3 -0.5
v 0.4 2.1 -0.5
v 0.4 2.8 -0.5
v 0.4 2.9 -0.5
v 0.5 2.1 -0.5
v 0.5 2.8 -0.5
v -0.4 2.1 -0.6
v -0.4 2.8 -0.6
v -0.3 2.8 -0.6
v -0.3 2.9 -0.6
v 0.3 2.8 -0.6
v 0.3 2.9 -0.6
v 0.4 2.1 -0.6
v 0.4 2.8 -0.6
v -0.4 0 0.3
v -0.1 0 0.3
v 0.1 0 0.3
v 0.4 0 0.3
v -0.4 0 -0.3
v -0.1 0 -0.3
v 0.1 0 -0.3
v 0.4 0 -0.3
v -0.1 1 0.1
v 0.1 1 0.1
v -0.1 1 -0.3
v 0.1 1 -0.3
v -0.4 1.1 -0.3
v 0.4 1.1 -0.3
v -0.4 1.1 -0.4
v 0.4 1.1 -0.4
v -1.2 1.8 2.98023e-08
v -0.4 1.8 2.98023e-08
v 0.4 1.8 2.98023e-08
v 1.2 1.8 2.98023e-08
v -1.2 1.8 -0.3
v -0.4 1.8 -0.3
v 0.4 1.8 -0.3
v 1.2 1.8 -0.3
v -1.3 1.9 0.1
v -1.2 1.9 0.1
v 1.2 1.9 0.1
v 1.3 1.9 0.1
v -1.5 1.9 2.98023e-08
v -1.3 1.9 2.98023e-08
v -1.2 1.9 2.98023e-08
v 1.2 1.9 2.98023e-08
v 1.3 1.9 2.98023e-08
v 1.5 1.9 2.98023e-08
v -1.5 1.9 -0.3
v -1.2 1.9 -0.3
v 1.2 1.9 -0.3
v 1.5 1.9 -0.3
v -0.4 2.1 0.3
v 0.4 2.1 0.3
v -0.3 2.1 2.98023e-08
v 0.3 2.1 2.98023e-08
v -0.5 2.1 -0.1
v -0.4 2.1 -0.1
v 0.4 2.1 -0.1
v 0.5 2.1 -0.1
v -0.3 2.1 -0.3
v 0.3 2.1 -0.3
v -0.5 2.1 -0.5
v -0.4 2.1 -0.5
v 0.4 2.1 -0.5
v 0.5 2.1 -0.5
v -0.4 2.1 -0.6
v 0.4 2.1 -0.6
v -0.5 2.2 2.98023e-08
v -0.4 2.2 2.98023e-08
v 0.4 2.2 2.98023e-08
v 0.5 2.2 2.98023e-08
v -0.5 2.2 -0.1
v -0.4 2.2 -0.1
v 0.4 2.2 -0.1
v 0.5 2.2 -0.1
v -0.5 2.3 0.1
v -0.4 2.3 0.1
v 0.4 2.3 0.1
v 0.5 2.3 0.1
v -0.5 2.3 2.98023e-08
v -0.4 2.3 2.98023e-08
v 0.4 2.3 2.98023e-08
v 0.5 2.3 2.98023e-08
v -0.5 2.5 0.2
v -0.4 2.5 0.2
v 0.4 2.5 0.2
v 0.5 2.5 0.2
v -0.5 2.5 0.1
v -0.4 2.5 0.1
v 0.4 2.5 0.1
v 0.5 2.5 0.1
v -0.5 2.6 0.3
v -0.4 2.6 0.3
v 0.4 2.6 0.3
v 0.5 2.6 0.3
v -0.5 2.6 0.2
v -0.4 2.6 0.2
v 0.4 2.6 0.2
v 0.5 2.6 0.2
v -0.4 0.2 0.3
v -0.1 0.2 0.3
v 0.1 0.2 0.3
v 0.4 0.2 0.3
v -0.4 0.2 0.1
v -0.1 0.2 0.1
v 0.1 0.2 0.1
v 0.4 0.2 0.1
v -1.3 2 0.1
v -1.2 2 0.1
v -0.4 2 0.1
v 0.4 2 0.1
v 1.2 2 0.1
v 1.3 2 0.1
v -1.5 2 2.98023e-08
v -1.3 2 2.98023e-08
v -1.2 2 2.98023e-08
v -0.4 2 2.98023e-08
v -0.3 2 2.98023e-08
v 0.3 2 2.98023e-08
v 0.4 2 2.98023e-08
v 1.2 2 2.98023e-08
v 1.3 2 2.98023e-08
v 1.5 2 2.98023e-08
v -1.5 2 -0.3
v -1.2 2 -0.3
v -0.4 2 -0.3
v -0.3 2 -0.3
v 0.3 2 -0.3
v 0.4 2 -0.3
v 1.2 2 -0.3
v 1.5 2 -0.3
v -0.4 2 -0.4
v 0.4 2 -0.4
v -0.5 2.8 -0.4
v -0.4 2.8 -0.4
v 0.4 2.8 -0.4
v 0.5 2.8 -0.4
v -0.5 2.8 -0.5
v -0.4 2.8 -0.5
v -0.3 2.8 -0.5
v 0.3 2.8 -0.5
v 0.4 2.8 -0.5
v 0.5 2.8 -0.5
v -0.4 2.8 -0.6
v -0.3 2.8 -0.6
v 0.3 2.8 -0.6
v 0.4 2.8 -0.6
v -0.5 2.9 0.3
v -0.4 2.9 0.3
v 0.4 2.9 0.3
v 0.5 2.9 0.3
v -0.5 2.9 -0.4
v -0.4 2.9 -0.4
v -0.3 2.9 -0.4
v 0.3 2.9 -0.4
v 0.4 2.9 -0.4
v 0.5 2.9 -0.4
v -0.4 2.9 -0.5
v -0.3 2.9 -0.5
v 0.3 2.9 -0.5
v 0.4 2.9 -0.5
v -0.3 2.9 -0.6
v 0.3 2.9 -0.6
v -0.4 3 0.3
v 0.4 3 0.3
v -0.4 3 -0.4
v -0.3 3 -0.4
v 0.3 3 -0.4
v 0.4 3 -0.4
v -0.3 3 -0.5
v 0.3 3 -0.5

# faces
f 3/6/1 2/6/1 1/6/1
f 4/6/1 2/6/1 3/6/1
f 7/6/1 6/6/1 5/6/1
f 8/6/1 6/6/1 7/6/1
f 11/2/1 10/2/1 9/2/1
f 12/2/1 10/2/1 11/2/1
f 16/4/1 14/4/1 13/4/1
f 18/4/1 16/4/1 15/4/1
f 19/4/1 14/4/1 16/4/1
f 19/4/1 16/4/1 18/4/1
f 20/4/1 14/4/1 19/4/1
f 22/4/1 18/4/1 17/4/1
f 22/4/1 19/4/1 18/4/1
f 24/4/1 22/4/1 21/4/1
f 25/6/1 20/6/1 19/6/1
f 25/4/1 19/4/1 22/4/1
f 25/4/1 22/4/1 24/4/1
f 26/4/1 14/4/1 20/4/1
f 26/6/1 20/6/1 25/6/1
f 27/4/1 25/4/1 24/4/1
f 27/4/1 14/4/1 26/4/1
f 27/4/1 26/4/1 25/4/1
f 27/4/1 24/4/1 23/4/1
f 28/4/1 14/4/1 27/4/1
f 29/4/1 27/4/1 23/4/1
f 30/4/1 27/4/1 29/4/1
f 33/1/1 32/1/1 31/1/1
f 34/1/1 32/1/1 33/1/1
f 35/3/1 34/3/1 33/3/1
f 36/3/1 34/3/1 35/3/1
f 37/3/1 34/3/1 36/3/1
f 38/1/1 37/1/1 36/1/1
f 39/1/1 37/1/1 38/1/1
f 41/2/1 39/2/1 38/2/1
f 41/2/1 40/2/1 39/2/1
f 42/2/1 40/2/1 41/2/1
f 43/2/1 41/2/1 38/2/1
f 44/2/1 41/2/1 43/2/1
f 45/2/1 40/2/1 42/2/1
f 46/2/1 40/2/1 45/2/1
f 51/6/1 48/6/1 47/6/1
f 52/6/1 48/6/1 51/6/1
f 53/6/1 51/6/1 47/6/1
f 54/6/1 51/6/1 53/6/1
f 55/6/1 53/6/1 47/6/1
f 56/6/1 53/6/1 55/6/1
f 57/6/1 55/6/1 47/6/1
f 58/6/1 55/6/1 57/6/1
f 60/4/1 50/4/1 49/4/1
f 61/4/1 50/4/1 60/4/1
f 63/4/1 60/4/1 59/4/1
f 64/4/1 60/4/1 63/4/1
f 65/4/1 63/4/1 62/4/1
f 66/4/1 63/4/1 65/4/1
f 69/6/1 68/6/1 67/6/1
f 70/6/1 68/6/1 69/6/1
f 74/4/1 72/4/1 71/4/1
f 75/4/1 72/4/1 74/4/1
f 76/4/1 74/4/1 73/4/1
f 77/4/1 74/4/1 76/4/1
f 80/1/1 79/1/1 78/1/1
f 81/1/1 79/1/1 80/1/1
f 82/3/1 81/3/1 80/3/1
f 83/3/1 81/3/1 82/3/1
f 84/3/1 81/3/1 83/3/1
f 85/1/1 84/1/1 83/1/1
f 86/1/1 84/1/1 85/1/1
f 89/6/1 88/6/1 87/6/1
f 90/6/1 88/6/1 89/6/1
f 91/6/2 92/6/2 93/6/2
f 93/6/2 92/6/2 94/6/2
f 95/1/2 96/1/2 97/1/2
f 97/1/2 96/1/2 98/1/2
f 97/3/2 98/3/2 99/3/2
f 99/3/2 98/3/2 100/3/2
f 100/3/2 98/3/2 101/3/2
f 100/1/2 101/1/2 102/1/2
f 102/1/2 101/1/2 103/1/2
f 104/6/2 105/6/2 106/6/2
f 106/6/2 105/6/2 107/6/2
f 108/4/2 109/4/2 111/4/2
f 111/4/2 109/4/2 112/4/2
f 110/4/2 111/4/2 113/4/2
f 113/4/2 111/4/2 114/4/2
f 115/1/2 116/1/2 117/1/2
f 117/1/2 116/1/2 118/1/2
f 117/3/2 118/3/2 119/3/2
f 119/3/2 118/3/2 120/3/2
f 120/3/2 118/3/2 121/3/2
f 120/1/2 121/1/2 122/1/2
f 122/1/2 121/1/2 123/1/2
f 122/2/2 123/2/2 125/2/2
f 123/2/2 124/2/2 125/2/2
f 125/2/2 124/2/2 126/2/2
f 122/2/2 125/2/2 127/2/2
f 127/2/2 125/2/2 128/2/2
f 126/2/2 124/2/2 129/2/2
f 129/2/2 124/2/2 130/2/2
f 131/6/2 132/6/2 135/6/2
f 135/6/2 132/6/2 136/6/2
f 131/6/2 135/6/2 137/6/2
f 137/6/2 135/6/2 138/6/2
f 131/6/2 137/6/2 139/6/2
f 139/6/2 137/6/2 140/6/2
f 131/6/2 139/6/2 141/6/2
f 141/6/2 139/6/2 142/6/2
f 133/4/2 134/4/2 144/4/2
f 144/4/2 134/4/2 145/4/2
f 143/4/2 144/4/2 147/4/2
f 147/4/2 144/4/2 148/4/2
f 146/4/2 147/4/2 149/4/2
f 149/4/2 147/4/2 150/4/2
f 151/4/2 152/4/2 154/4/2
f 153/4/2 154/4/2 156/4/2
f 154/4/2 152/4/2 157/4/2
f 156/4/2 154/4/2 157/4/2
f 157/4/2 152/4/2 158/4/2
f 155/4/2 156/4/2 160/4/2
f 156/4/2 157/4/2 160/4/2
f 159/4/2 160/4/2 162/4/2
f 157/6/2 158/6/2 163/6/2
f 160/4/2 157/4/2 163/4/2
f 162/4/2 160/4/2 163/4/2
f 158/4/2 152/4/2 164/4/2
f 163/6/2 158/6/2 164/6/2
f 162/4/2 163/4/2 165/4/2
f 164/4/2 152/4/2 165/4/2
f 163/4/2 164/4/2 165/4/2
f 161/4/2 162/4/2 165/4/2
f 165/4/2 152/4/2 166/4/2
f 161/4/2 165/4/2 167/4/2
f 167/4/2 165/4/2 168/4/2
f 169/2/2 170/2/2 171/2/2
f 171/2/2 170/2/2 172/2/2
f 173/6/2 174/6/2 175/6/2
f 175/6/2 174/6/2 176/6/2
f 177/6/2 178/6/2 179/6/2
f 179/6/2 178/6/2 180/6/2
f 187/4/3 182/4/3 181/4/3
f 188/4/3 182/4/3 187/4/3
f 190/6/3 187/6/3 186/6/3
f 190/6/3 188/6/3 187/6/3
f 191/6/3 188/6/3 190/6/3
f 192/1/3 184/1/3 183/1/3
f 193/3/3 185/3/3 184/3/3
f 193/1/3 184/1/3 192/1/3
f 194/3/3 185/3/3 193/3/3
f 195/6/3 190/6/3 186/6/3
f 195/5/3 191/5/3 190/5/3
f 196/6/3 188/6/3 191/6/3
f 196/5/3 191/5/3 195/5/3
f 200/6/3 195/6/3 186/6/3
f 200/6/3 196/6/3 195/6/3
f 201/6/3 188/6/3 196/6/3
f 201/6/3 196/6/3 200/6/3
f 202/6/3 200/6/3 186/6/3
f 202/5/3 201/5/3 200/5/3
f 203/6/3 188/6/3 201/6/3
f 203/5/3 201/5/3 202/5/3
f 204/1/3 198/1/3 197/1/3
f 205/3/3 199/3/3 198/3/3
f 205/1/3 198/1/3 204/1/3
f 206/3/3 199/3/3 205/3/3
f 207/6/3 202/6/3 186/6/3
f 207/6/3 203/6/3 202/6/3
f 208/6/3 188/6/3 203/6/3
f 208/6/3 203/6/3 207/6/3
f 209/4/3 189/4/3 188/4/3
f 209/6/3 188/6/3 208/6/3
f 210/4/3 189/4/3 209/4/3
f 211/4/3 209/4/3 208/4/3
f 212/4/3 209/4/3 211/4/3
f 215/4/3 214/4/3 213/4/3
f 216/4/3 214/4/3 215/4/3
f 219/4/3 218/4/3 217/4/3
f 220/4/3 218/4/3 219/4/3
f 223/6/3 222/6/3 221/6/3
f 224/6/3 222/6/3 223/6/3
f 230/4/3 226/4/3 225/4/3
f 231/4/3 226/4/3 230/4/3
f 232/1/3 228/1/3 227/1/3
f 233/1/3 228/1/3 232/1/3
f 235/1/3 228/1/3 233/1/3
f 236/1/3 235/1/3 234/1/3
f 237/2/3 229/2/3 228/2/3
f 237/1/3 235/1/3 236/1/3
f 237/1/3 228/1/3 235/1/3
f 238/2/3 229/2/3 237/2/3
f 241/4/3 240/4/3 239/4/3
f 242/4/3 240/4/3 241/4/3
f 245/6/3 244/6/3 243/6/3
f 246/6/3 244/6/3 245/6/3
f 249/6/3 248/6/3 247/6/3
f 250/6/3 248/6/3 249/6/3
f 256/2/3 253/2/3 252/2/3
f 256/2/3 252/2/3 251/2/3
f 257/2/3 253/2/3 256/2/3
f 258/4/3 255/4/3 254/4/3
f 259/4/3 255/4/3 258/4/3
f 262/6/3 261/6/3 260/6/3
f 263/6/3 261/6/3 262/6/3
f 268/4/3 267/4/3 266/4/3
f 269/4/3 267/4/3 268/4/3
f 270/2/3 265/2/3 264/2/3
f 271/2/3 265/2/3 270/2/3
f 272/2/3 265/2/3 271/2/3
f 275/6/3 274/6/3 273/6/3
f 276/6/3 274/6/3 275/6/3
f 279/4/3 278/4/3 277/4/3
f 280/4/3 278/4/3 279/4/3
f 283/4/3 282/4/3 281/4/3
f 284/4/3 282/4/3 283/4/3
f 285/6/4 286/6/4 288/6/4
f 288/6/4 286/6/4 289/6/4
f 287/2/4 288/2/4 294/2/4
f 288/2/4 289/2/4 294/2/4
f 294/2/4 289/2/4 295/2/4
f 290/1/4 291/1/4 298/1/4
f 291/3/4 292/3/4 299/3/4
f 298/1/4 291/1/4 299/1/4
f 292/1/4 293/1/4 300/1/4
f 299/3/4 292/3/4 300/3/4
f 300/1/4 293/1/4 301/1/4
f 301/1/4 293/1/4 305/1/4
f 296/6/4 297/6/4 306/6/4
f 306/6/4 297/6/4 307/6/4
f 302/1/4 303/1/4 308/1/4
f 303/3/4 304/3/4 309/3/4
f 308/1/4 303/1/4 309/1/4
f 304/1/4 305/1/4 310/1/4
f 309/3/4 304/3/4 310/3/4
f 305/1/4 293/1/4 311/1/4
f 310/1/4 305/1/4 311/1/4
f 312/2/4 313/2/4 314/2/4
f 314/2/4 313/2/4 315/2/4
f 315/2/4 313/2/4 316/2/4
f 315/6/4 316/6/4 317/6/4
f 317/6/4 316/6/4 318/6/4
f 319/4/4 320/4/4 323/4/4
f 323/4/4 320/4/4 324/4/4
f 324/4/4 325/4/4 326/4/4
f 326/4/4 325/4/4 327/4/4
f 321/2/4 322/2/4 330/2/4
f 330/2/4 322/2/4 331/2/4
f 328/4/4 329/4/4 333/4/4
f 333/4/4 329/4/4 334/4/4
f 332/4/4 333/4/4 335/4/4
f 335/4/4 333/4/4 336/4/4
f 337/4/4 338/4/4 339/4/4
f 339/4/4 338/4/4 340/4/4
f 340/4/4 341/4/4 342/4/4
f 342/4/4 341/4/4 343/4/4
f 343/4/4 344/4/4 346/4/4
f 346/4/4 344/4/4 347/4/4
f 345/4/4 346/4/4 349/4/4
f 349/4/4 346/4/4 350/4/4
f 348/4/4 349/4/4 351/4/4
f 351/4/4 349/4/4 352/4/4
f 353/4/4 354/4/4 355/4/4
f 353/4/4 355/4/4 357/4/4
f 355/4/4 356/4/4 357/4/4
f 357/4/4 356/4/4 358/4/4
f 353/4/4 357/4/4 359/4/4
f 359/4/4 357/4/4 360/4/4
f 365/1/5 362/1/5 361/1/5
f 366/1/5 362/1/5 365/1/5
f 367/1/5 364/1/5 363/1/5
f 368/1/5 364/1/5 367/1/5
f 371/1/5 370/1/5 369/1/5
f 372/1/5 370/1/5 371/1/5
f 375/2/5 374/2/5 373/2/5
f 376/2/5 374/2/5 375/2/5
f 381/2/5 378/2/5 377/2/5
f 382/2/5 378/2/5 381/2/5
f 383/2/5 380/2/5 379/2/5
f 384/2/5 380/2/5 383/2/5
f 390/6/5 386/6/5 385/6/5
f 391/6/5 386/6/5 390/6/5
f 392/6/5 388/6/5 387/6/5
f 393/6/5 388/6/5 392/6/5
f 395/6/5 391/6/5 390/6/5
f 395/6/5 390/6/5 389/6/5
f 396/6/5 391/6/5 395/6/5
f 397/6/5 394/6/5 393/6/5
f 397/6/5 393/6/5 392/6/5
f 398/6/5 394/6/5 397/6/5
f 401/6/5 400/6/5 399/6/5
f 402/6/5 400/6/5 401/6/5
f 404/6/5 401/6/5 399/6/5
f 405/6/5 400/6/5 402/6/5
f 407/6/5 401/6/5 404/6/5
f 408/6/5 405/6/5 402/6/5
f 409/4/5 404/4/5 403/4/5
f 410/6/5 408/6/5 407/6/5
f 410/4/5 404/4/5 409/4/5
f 410/6/5 407/6/5 404/6/5
f 411/4/5 406/4/5 405/4/5
f 411/6/5 408/6/5 410/6/5
f 411/6/5 405/6/5 408/6/5
f 412/4/5 406/4/5 411/4/5
f 413/4/5 411/4/5 410/4/5
f 414/4/5 411/4/5 413/4/5
f 419/4/5 416/4/5 415/4/5
f 420/4/5 416/4/5 419/4/5
f 421/4/5 418/4/5 417/4/5
f 422/4/5 418/4/5 421/4/5
f 427/4/5 424/4/5 423/4/5
f 428/4/5 424/4/5 427/4/5
f 429/4/5 426/4/5 425/4/5
f 430/4/5 426/4/5 429/4/5
f 435/4/5 432/4/5 431/4/5
f 436/4/5 432/4/5 435/4/5
f 437/4/5 434/4/5 433/4/5
f 438/4/5 434/4/5 437/4/5
f 443/4/5 440/4/5 439/4/5
f 444/4/5 440/4/5 443/4/5
f 445/4/5 442/4/5 441/4/5
f 446/4/5 442/4/5 445/4/5
f 447/3/6 448/3/6 451/3/6
f 451/3/6 448/3/6 452/3/6
f 449/3/6 450/3/6 453/3/6
f 453/3/6 450/3/6 454/3/6
f 455/6/6 456/6/6 462/6/6
f 462/6/6 456/6/6 463/6/6
f 457/2/6 458/2/6 464/2/6
f 464/2/6 458/2/6 465/2/6
f 465/2/6 458/2/6 466/2/6
f 466/2/6 458/2/6 467/2/6
f 459/6/6 460/6/6 468/6/6
f 468/6/6 460/6/6 469/6/6
f 462/6/6 463/6/6 471/6/6
f 461/6/6 462/6/6 471/6/6
f 463/2/6 464/2/6 472/2/6
f 471/6/6 463/6/6 472/6/6
f 464/2/6 465/2/6 472/2/6
f 472/2/6 465/2/6 473/2/6
f 473/2/6 465/2/6 474/2/6
f 466/2/6 467/2/6 475/2/6
f 467/2/6 468/2/6 475/2/6
f 475/2/6 468/2/6 476/2/6
f 469/6/6 470/6/6 477/6/6
f 476/2/6 468/2/6 477/2/6
f 468/6/6 469/6/6 477/6/6
f 477/6/6 470/6/6 478/6/6
f 473/2/6 474/2/6 479/2/6
f 475/2/6 476/2/6 479/2/6
f 474/2/6 475/2/6 479/2/6
f 479/2/6 476/2/6 480/2/6
f 481/4/6 482/4/6 485/4/6
f 485/4/6 482/4/6 486/4/6
f 483/4/6 484/4/6 489/4/6
f 489/4/6 484/4/6 490/4/6
f 486/4/6 487/4/6 491/4/6
f 491/4/6 487/4/6 492/4/6
f 488/4/6 489/4/6 493/4/6
f 493/4/6 489/4/6 494/4/6
f 495/4/6 496/4/6 499/4/6
f 499/4/6 496/4/6 500/4/6
f 497/4/6 498/4/6 503/4/6
f 503/4/6 498/4/6 504/4/6
f 500/4/6 501/4/6 505/4/6
f 505/4/6 501/4/6 506/4/6
f 502/4/6 503/4/6 507/4/6
f 507/4/6 503/4/6 508/4/6
f 506/4/6 507/4/6 509/4/6
f 509/4/6 507/4/6 510/4/6
f 511/4/6 512/4/6 513/4/6
f 513/4/6 512/4/6 514/4/6
f 514/4/6 512/4/6 515/4/6
f 515/4/6 512/4/6 516/4/6
f 514/4/6 515/4/6 517/4/6
f 517/4/6 515/4/6 518/4/6
