# MagicaVoxel @ Ephtracy

# group
o 

# material
mtllib subject.mtl
usemtl palette

# normals
vn -1 0 0
vn 1 0 0
vn 0 0 1
vn 0 0 -1
vn 0 -1 0
vn 0 1 0

# texcoords
vt 0.00976562 0.5
vt 0.0292969 0.5
vt 0.564453 0.5
vt 0.568359 0.5
vt 0.572266 0.5
vt 0.966797 0.5

# verts
v -0.7 0.4 0
v -0.7 0.4 -0.5
v -0.7 1.8 0
v -0.7 1.8 -0.5
v -0.6 0.5 0.1
v -0.6 0.5 0
v -0.6 1.8 0.1
v -0.6 1.8 0
v -0.6 1.8 -0.3
v -0.6 1.9 0
v -0.6 1.9 -0.3
v -0.5 0.5 0.2
v -0.5 0.5 0.1
v -0.5 1.8 0.2
v -0.5 1.8 0.1
v -0.5 1.9 0
v -0.5 1.9 -0.3
v -0.5 2 0
v -0.5 2 -0.3
v -0.5 2.3 -0.1
v -0.5 2.3 -0.2
v -0.5 2.6 -0.1
v -0.5 2.6 -0.2
v -0.4 0 0.3
v -0.4 0 -0.3
v -0.4 0.2 0.3
v -0.4 0.2 0.1
v -0.4 0.5 0.1
v -0.4 1.1 -0.3
v -0.4 1.1 -0.4
v -0.4 1.2 0
v -0.4 1.2 -0.3
v -0.4 1.8 0.1
v -0.4 2 0.1
v -0.4 2 0
v -0.4 2 -0.3
v -0.4 2 -0.4
v -0.4 2.1 0.3
v -0.4 2.1 -0.5
v -0.4 2.3 -0.1
v -0.4 2.3 -0.2
v -0.4 2.6 -0.1
v -0.4 2.6 -0.2
v -0.4 2.8 0.3
v -0.4 2.8 -0.5
v -0.3 2 0
v -0.3 2 -0.3
v -0.3 2.1 0
v -0.3 2.1 -0.3
v -0.2 2.7 0.1
v -0.2 2.7 -0.1
v -0.2 2.7 -0.2
v -0.2 2.7 -0.3
v -0.2 2.8 0.1
v -0.2 2.8 -0.1
v -0.2 2.8 -0.2
v -0.2 2.8 -0.3
v -0.1 2.8 0
v -0.1 2.8 -0.1
v -0.1 2.8 -0.2
v -0.1 2.9 0
v -0.1 2.9 -0.1
v -0.1 2.9 -0.2
v 0.1 0 0.3
v 0.1 0 -0.3
v 0.1 0.2 0.3
v 0.1 0.2 0.1
v 0.1 0.5 0.1
v 0.1 1 0.1
v 0.1 1 -0.3
v 0.3 2.7 0.2
v 0.3 2.7 -0.4
v 0.3 2.8 0.2
v 0.3 2.8 -0.4
v 0.5 0.5 0.1
v 0.5 0.5 0
v 0.5 0.9 0
v 0.5 0.9 -0.3
v 0.5 1.2 0
v 0.5 1.2 -0.3
v 0.5 1.8 0.1
v 0.5 1.8 0
v 0.6 0.4 0
v 0.6 0.4 -0.5
v 0.6 0.5 0
v 0.6 0.9 0
v 0.6 0.9 -0.3
v 0.6 1.8 -0.3
v 0.6 1.8 -0.5
v -0.6 0.4 0
v -0.6 0.4 -0.5
v -0.6 0.5 0
v -0.6 0.9 0
v -0.6 0.9 -0.3
v -0.6 1.8 -0.3
v -0.6 1.8 -0.5
v -0.5 0.5 0.1
v -0.5 0.5 0
v -0.5 0.9 0
v -0.5 0.9 -0.3
v -0.5 1.2 0
v -0.5 1.2 -0.3
v -0.5 1.8 0.1
v -0.5 1.8 0
v -0.3 2.7 0.2
v -0.3 2.7 -0.4
v -0.3 2.8 0.2
v -0.3 2.8 -0.4
v -0.1 0 0.3
v -0.1 0 -0.3
v -0.1 0.2 0.3
v -0.1 0.2 0.1
v -0.1 0.5 0.1
v -0.1 1 0.1
v -0.1 1 -0.3
v 0.1 2.8 0
v 0.1 2.8 -0.1
v 0.1 2.8 -0.2
v 0.1 2.9 0
v 0.1 2.9 -0.1
v 0.1 2.9 -0.2
v 0.2 2.7 0.1
v 0.2 2.7 0
v 0.2 2.7 -0.1
v 0.2 2.7 -0.3
v 0.2 2.8 0.1
v 0.2 2.8 0
v 0.2 2.8 -0.1
v 0.2 2.8 -0.3
v 0.3 2 0
v 0.3 2 -0.3
v 0.3 2.1 0
v 0.3 2.1 -0.3
v 0.4 0 0.3
v 0.4 0 -0.3
v 0.4 0.2 0.3
v 0.4 0.2 0.1
v 0.4 0.5 0.1
v 0.4 1.1 -0.3
v 0.4 1.1 -0.4
v 0.4 1.2 0
v 0.4 1.2 -0.3
v 0.4 1.8 0.1
v 0.4 2 0.1
v 0.4 2 0
v 0.4 2 -0.3
v 0.4 2 -0.4
v 0.4 2.1 0.3
v 0.4 2.1 -0.5
v 0.4 2.3 -0.1
v 0.4 2.3 -0.2
v 0.4 2.6 -0.1
v 0.4 2.6 -0.2
v 0.4 2.8 0.3
v 0.4 2.8 -0.5
v 0.5 0.5 0.2
v 0.5 0.5 0.1
v 0.5 1.8 0.2
v 0.5 1.8 0.1
v 0.5 1.9 0
v 0.5 1.9 -0.3
v 0.5 2 0
v 0.5 2 -0.3
v 0.5 2.3 -0.1
v 0.5 2.3 -0.2
v 0.5 2.6 -0.1
v 0.5 2.6 -0.2
v 0.6 0.5 0.1
v 0.6 0.5 0
v 0.6 1.8 0.1
v 0.6 1.8 0
v 0.6 1.8 -0.3
v 0.6 1.9 0
v 0.6 1.9 -0.3
v 0.7 0.4 0
v 0.7 0.4 -0.5
v 0.7 1.8 0
v 0.7 1.8 -0.5
v -0.4 0 0.3
v -0.4 0.2 0.3
v -0.4 2.1 0.3
v -0.4 2.8 0.3
v -0.3 2.3 0.3
v -0.3 2.4 0.3
v -0.1 0 0.3
v -0.1 0.2 0.3
v -0.1 2.3 0.3
v -0.1 2.4 0.3
v 0.1 0 0.3
v 0.1 0.2 0.3
v 0.1 2.3 0.3
v 0.1 2.4 0.3
v 0.3 2.3 0.3
v 0.3 2.4 0.3
v 0.4 0 0.3
v 0.4 0.2 0.3
v 0.4 2.1 0.3
v 0.4 2.8 0.3
v -0.5 0.5 0.2
v -0.5 1.8 0.2
v 0.5 0.5 0.2
v 0.5 1.8 0.2
v -0.6 0.5 0.1
v -0.6 1.8 0.1
v -0.5 0.5 0.1
v -0.5 1.8 0.1
v -0.4 0.2 0.1
v -0.4 0.5 0.1
v -0.4 1.8 0.1
v -0.4 2 0.1
v -0.2 2.7 0.1
v -0.2 2.8 0.1
v -0.1 0.2 0.1
v -0.1 0.5 0.1
v 0 2.7 0.1
v 0 2.8 0.1
v 0.1 0.2 0.1
v 0.1 0.5 0.1
v 0.1 2.7 0.1
v 0.1 2.8 0.1
v 0.2 2.7 0.1
v 0.2 2.8 0.1
v 0.4 0.2 0.1
v 0.4 0.5 0.1
v 0.4 1.8 0.1
v 0.4 2 0.1
v 0.5 0.5 0.1
v 0.5 1.8 0.1
v 0.6 0.5 0.1
v 0.6 1.8 0.1
v -0.7 0.4 0
v -0.7 1.8 0
v -0.6 0.4 0
v -0.6 0.5 0
v -0.6 1.8 0
v -0.6 1.9 0
v -0.5 1.2 0
v -0.5 1.8 0
v -0.5 1.9 0
v -0.5 2 0
v -0.4 1.2 0
v -0.4 2 0
v -0.3 2 0
v -0.3 2.1 0
v -0.1 2.8 0
v -0.1 2.9 0
v 0 2.8 0
v 0 2.9 0
v 0.1 2.8 0
v 0.1 2.9 0
v 0.3 2 0
v 0.3 2.1 0
v 0.4 1.2 0
v 0.4 2 0
v 0.5 1.2 0
v 0.5 1.8 0
v 0.5 1.9 0
v 0.5 2 0
v 0.6 0.4 0
v 0.6 0.5 0
v 0.6 1.8 0
v 0.6 1.9 0
v 0.7 0.4 0
v 0.7 1.8 0
v -0.5 2.3 -0.1
v -0.5 2.6 -0.1
v -0.4 2.3 -0.1
v -0.4 2.6 -0.1
v 0.4 2.3 -0.1
v 0.4 2.6 -0.1
v 0.5 2.3 -0.1
v 0.5 2.6 -0.1
v -0.3 2.7 -0.4
v -0.3 2.8 -0.4
v 0.3 2.7 -0.4
v 0.3 2.8 -0.4
v -0.3 2.7 0.2
v -0.3 2.8 0.2
v 0.3 2.7 0.2
v 0.3 2.8 0.2
v -0.5 0.5 0.1
v -0.5 1.8 0.1
v -0.4 0.5 0.1
v -0.4 1.8 0.1
v -0.1 0.5 0.1
v -0.1 1 0.1
v 0.1 0.5 0.1
v 0.1 1 0.1
v 0.4 0.5 0.1
v 0.4 1.8 0.1
v 0.5 0.5 0.1
v 0.5 1.8 0.1
v -0.6 0.5 0
v -0.6 0.9 0
v -0.5 0.5 0
v -0.5 0.9 0
v 0.5 0.5 0
v 0.5 0.9 0
v 0.6 0.5 0
v 0.6 0.9 0
v -0.5 2.3 -0.2
v -0.5 2.6 -0.2
v -0.4 2.3 -0.2
v -0.4 2.6 -0.2
v -0.1 2.8 -0.2
v -0.1 2.9 -0.2
v 0 2.8 -0.2
v 0 2.9 -0.2
v 0.1 2.8 -0.2
v 0.1 2.9 -0.2
v 0.4 2.3 -0.2
v 0.4 2.6 -0.2
v 0.5 2.3 -0.2
v 0.5 2.6 -0.2
v -0.6 0.9 -0.3
v -0.6 1.8 -0.3
v -0.6 1.9 -0.3
v -0.5 0.9 -0.3
v -0.5 1.2 -0.3
v -0.5 1.9 -0.3
v -0.5 2 -0.3
v -0.4 0 -0.3
v -0.4 1.1 -0.3
v -0.4 1.2 -0.3
v -0.4 2 -0.3
v -0.3 2 -0.3
v -0.3 2.1 -0.3
v -0.2 2.7 -0.3
v -0.2 2.8 -0.3
v -0.1 0 -0.3
v -0.1 1 -0.3
v 0.1 0 -0.3
v 0.1 1 -0.3
v 0.2 2.7 -0.3
v 0.2 2.8 -0.3
v 0.3 2 -0.3
v 0.3 2.1 -0.3
v 0.4 0 -0.3
v 0.4 1.1 -0.3
v 0.4 1.2 -0.3
v 0.4 2 -0.3
v 0.5 0.9 -0.3
v 0.5 1.2 -0.3
v 0.5 1.9 -0.3
v 0.5 2 -0.3
v 0.6 0.9 -0.3
v 0.6 1.8 -0.3
v 0.6 1.9 -0.3
v -0.4 1.1 -0.4
v -0.4 2 -0.4
v 0.4 1.1 -0.4
v 0.4 2 -0.4
v -0.7 0.4 -0.5
v -0.7 1.8 -0.5
v -0.6 0.4 -0.5
v -0.6 1.8 -0.5
v -0.4 2.1 -0.5
v -0.4 2.8 -0.5
v 0.4 2.1 -0.5
v 0.4 2.8 -0.5
v 0.6 0.4 -0.5
v 0.6 1.8 -0.5
v 0.7 0.4 -0.5
v 0.7 1.8 -0.5
v -0.4 0 0.3
v -0.1 0 0.3
v 0.1 0 0.3
v 0.4 0 0.3
v -0.4 0 -0.3
v -0.1 0 -0.3
v 0.1 0 -0.3
v 0.4 0 -0.3
v -0.7 0.4 0
v -0.6 0.4 0
v 0.6 0.4 0
v 0.7 0.4 0
v -0.7 0.4 -0.5
v -0.6 0.4 -0.5
v 0.6 0.4 -0.5
v 0.7 0.4 -0.5
v -0.5 0.5 0.2
v 0.5 0.5 0.2
v -0.6 0.5 0.1
v -0.5 0.5 0.1
v -0.4 0.5 0.1
v -0.1 0.5 0.1
v 0.1 0.5 0.1
v 0.4 0.5 0.1
v 0.5 0.5 0.1
v 0.6 0.5 0.1
v -0.6 0.5 0
v -0.5 0.5 0
v 0.5 0.5 0
v 0.6 0.5 0
v -0.6 0.9 0
v -0.5 0.9 0
v 0.5 0.9 0
v 0.6 0.9 0
v -0.6 0.9 -0.3
v -0.5 0.9 -0.3
v 0.5 0.9 -0.3
v 0.6 0.9 -0.3
v -0.1 1 0.1
v 0.1 1 0.1
v -0.1 1 -0.3
v 0.1 1 -0.3
v -0.4 1.1 -0.3
v 0.4 1.1 -0.3
v -0.4 1.1 -0.4
v 0.4 1.1 -0.4
v -0.5 1.2 0
v -0.4 1.2 0
v 0.4 1.2 0
v 0.5 1.2 0
v -0.5 1.2 -0.3
v -0.4 1.2 -0.3
v 0.4 1.2 -0.3
v 0.5 1.2 -0.3
v -0.4 2.1 0.3
v 0.4 2.1 0.3
v -0.3 2.1 0
v 0.3 2.1 0
v -0.3 2.1 -0.3
v 0.3 2.1 -0.3
v -0.4 2.1 -0.5
v 0.4 2.1 -0.5
v -0.5 2.3 -0.1
v -0.4 2.3 -0.1
v 0.4 2.3 -0.1
v 0.5 2.3 -0.1
v -0.5 2.3 -0.2
v -0.4 2.3 -0.2
v 0.4 2.3 -0.2
v 0.5 2.3 -0.2
v -0.4 0.2 0.3
v -0.1 0.2 0.3
v 0.1 0.2 0.3
v 0.4 0.2 0.3
v -0.4 0.2 0.1
v -0.1 0.2 0.1
v 0.1 0.2 0.1
v 0.4 0.2 0.1
v -0.5 1.8 0.2
v 0.5 1.8 0.2
v -0.6 1.8 0.1
v -0.5 1.8 0.1
v -0.4 1.8 0.1
v 0.4 1.8 0.1
v 0.5 1.8 0.1
v 0.6 1.8 0.1
v -0.7 1.8 0
v -0.6 1.8 0
v -0.5 1.8 0
v 0.5 1.8 0
v 0.6 1.8 0
v 0.7 1.8 0
v -0.6 1.8 -0.3
v 0.6 1.8 -0.3
v -0.7 1.8 -0.5
v -0.6 1.8 -0.5
v 0.6 1.8 -0.5
v 0.7 1.8 -0.5
v -0.6 1.9 0
v -0.5 1.9 0
v 0.5 1.9 0
v 0.6 1.9 0
v -0.6 1.9 -0.3
v -0.5 1.9 -0.3
v 0.5 1.9 -0.3
v 0.6 1.9 -0.3
v -0.4 2 0.1
v 0.4 2 0.1
v -0.5 2 0
v -0.4 2 0
v -0.3 2 0
v 0.3 2 0
v 0.4 2 0
v 0.5 2 0
v -0.5 2 -0.3
v -0.4 2 -0.3
v -0.3 2 -0.3
v 0.3 2 -0.3
v 0.4 2 -0.3
v 0.5 2 -0.3
v -0.4 2 -0.4
v 0.4 2 -0.4
v -0.5 2.6 -0.1
v -0.4 2.6 -0.1
v 0.4 2.6 -0.1
v 0.5 2.6 -0.1
v -0.5 2.6 -0.2
v -0.4 2.6 -0.2
v 0.4 2.6 -0.2
v 0.5 2.6 -0.2
v -0.3 2.7 0.2
v 0.3 2.7 0.2
v -0.2 2.7 0.1
v 0 2.7 0.1
v 0.1 2.7 0.1
v 0.2 2.7 0.1
v 0.2 2.7 0
v -0.2 2.7 -0.1
v 0.2 2.7 -0.1
v -0.2 2.7 -0.2
v -0.2 2.7 -0.3
v 0.2 2.7 -0.3
v -0.3 2.7 -0.4
v 0.3 2.7 -0.4
v -0.4 2.8 0.3
v 0.4 2.8 0.3
v -0.3 2.8 0.2
v 0.3 2.8 0.2
v -0.2 2.8 0.1
v 0 2.8 0.1
v 0.1 2.8 0.1
v 0.2 2.8 0.1
v -0.1 2.8 0
v 0 2.8 0
v 0.1 2.8 0
v 0.2 2.8 0
v -0.2 2.8 -0.1
v -0.1 2.8 -0.1
v 0.1 2.8 -0.1
v 0.2 2.8 -0.1
v -0.2 2.8 -0.2
v -0.1 2.8 -0.2
v 0 2.8 -0.2
v 0.1 2.8 -0.2
v -0.2 2.8 -0.3
v 0.2 2.8 -0.3
v -0.3 2.8 -0.4
v 0.3 2.8 -0.4
v -0.4 2.8 -0.5
v 0.4 2.8 -0.5
v -0.1 2.9 0
v 0 2.9 0
v 0.1 2.9 0
v -0.1 2.9 -0.1
v 0 2.9 -0.1
v 0.1 2.9 -0.1
v -0.1 2.9 -0.2
v 0 2.9 -0.2
v 0.1 2.9 -0.2

# faces
f 3/2/1 2/2/1 1/2/1
f 4/2/1 2/2/1 3/2/1
f 7/2/1 6/2/1 5/2/1
f 8/2/1 6/2/1 7/2/1
f 10/6/1 9/6/1 8/6/1
f 11/6/1 9/6/1 10/6/1
f 14/2/1 13/2/1 12/2/1
f 15/2/1 13/2/1 14/2/1
f 18/6/1 17/6/1 16/6/1
f 19/6/1 17/6/1 18/6/1
f 22/6/1 21/6/1 20/6/1
f 23/6/1 21/6/1 22/6/1
f 26/6/1 25/6/1 24/6/1
f 27/6/1 25/6/1 26/6/1
f 28/6/1 25/6/1 27/6/1
f 29/6/1 25/6/1 28/6/1
f 31/6/1 29/6/1 28/6/1
f 31/6/1 30/6/1 29/6/1
f 32/6/1 30/6/1 31/6/1
f 33/6/1 31/6/1 28/6/1
f 34/6/1 31/6/1 33/6/1
f 35/6/1 31/6/1 34/6/1
f 36/6/1 30/6/1 32/6/1
f 37/6/1 30/6/1 36/6/1
f 40/6/1 39/6/1 38/6/1
f 41/6/1 39/6/1 40/6/1
f 42/6/1 40/6/1 38/6/1
f 43/6/1 39/6/1 41/6/1
f 44/6/1 42/6/1 38/6/1
f 44/6/1 43/6/1 42/6/1
f 45/6/1 39/6/1 43/6/1
f 45/6/1 43/6/1 44/6/1
f 48/6/1 47/6/1 46/6/1
f 49/6/1 47/6/1 48/6/1
f 54/5/1 51/5/1 50/5/1
f 55/4/1 52/4/1 51/4/1
f 55/5/1 51/5/1 54/5/1
f 56/5/1 53/5/1 52/5/1
f 56/4/1 52/4/1 55/4/1
f 57/5/1 53/5/1 56/5/1
f 61/4/1 59/4/1 58/4/1
f 62/5/1 60/5/1 59/5/1
f 62/4/1 59/4/1 61/4/1
f 63/5/1 60/5/1 62/5/1
f 66/6/1 65/6/1 64/6/1
f 67/6/1 65/6/1 66/6/1
f 68/6/1 65/6/1 67/6/1
f 69/6/1 65/6/1 68/6/1
f 70/6/1 65/6/1 69/6/1
f 73/6/1 72/6/1 71/6/1
f 74/6/1 72/6/1 73/6/1
f 77/2/1 76/2/1 75/2/1
f 79/2/1 77/2/1 75/2/1
f 79/6/1 78/6/1 77/6/1
f 80/6/1 78/6/1 79/6/1
f 81/2/1 79/2/1 75/2/1
f 82/2/1 79/2/1 81/2/1
f 85/2/1 84/2/1 83/2/1
f 86/2/1 84/2/1 85/2/1
f 87/2/1 84/2/1 86/2/1
f 88/2/1 84/2/1 87/2/1
f 89/2/1 84/2/1 88/2/1
f 90/2/2 91/2/2 92/2/2
f 92/2/2 91/2/2 93/2/2
f 93/2/2 91/2/2 94/2/2
f 94/2/2 91/2/2 95/2/2
f 95/2/2 91/2/2 96/2/2
f 97/2/2 98/2/2 99/2/2
f 97/2/2 99/2/2 101/2/2
f 99/6/2 100/6/2 101/6/2
f 101/6/2 100/6/2 102/6/2
f 97/2/2 101/2/2 103/2/2
f 103/2/2 101/2/2 104/2/2
f 105/6/2 106/6/2 107/6/2
f 107/6/2 106/6/2 108/6/2
f 109/6/2 110/6/2 111/6/2
f 111/6/2 110/6/2 112/6/2
f 112/6/2 110/6/2 113/6/2
f 113/6/2 110/6/2 114/6/2
f 114/6/2 110/6/2 115/6/2
f 116/5/2 117/5/2 119/5/2
f 117/4/2 118/4/2 120/4/2
f 119/5/2 117/5/2 120/5/2
f 120/4/2 118/4/2 121/4/2
f 122/5/2 123/5/2 126/5/2
f 123/4/2 124/4/2 127/4/2
f 126/5/2 123/5/2 127/5/2
f 124/5/2 125/5/2 128/5/2
f 127/4/2 124/4/2 128/4/2
f 128/5/2 125/5/2 129/5/2
f 130/6/2 131/6/2 132/6/2
f 132/6/2 131/6/2 133/6/2
f 134/6/2 135/6/2 136/6/2
f 136/6/2 135/6/2 137/6/2
f 137/6/2 135/6/2 138/6/2
f 138/6/2 135/6/2 139/6/2
f 138/6/2 139/6/2 141/6/2
f 139/6/2 140/6/2 141/6/2
f 141/6/2 140/6/2 142/6/2
f 138/6/2 141/6/2 143/6/2
f 143/6/2 141/6/2 144/6/2
f 144/6/2 141/6/2 145/6/2
f 142/6/2 140/6/2 146/6/2
f 146/6/2 140/6/2 147/6/2
f 148/6/2 149/6/2 150/6/2
f 150/6/2 149/6/2 151/6/2
f 148/6/2 150/6/2 152/6/2
f 151/6/2 149/6/2 153/6/2
f 148/6/2 152/6/2 154/6/2
f 152/6/2 153/6/2 154/6/2
f 153/6/2 149/6/2 155/6/2
f 154/6/2 153/6/2 155/6/2
f 156/2/2 157/2/2 158/2/2
f 158/2/2 157/2/2 159/2/2
f 160/6/2 161/6/2 162/6/2
f 162/6/2 161/6/2 163/6/2
f 164/6/2 165/6/2 166/6/2
f 166/6/2 165/6/2 167/6/2
f 168/2/2 169/2/2 170/2/2
f 170/2/2 169/2/2 171/2/2
f 171/6/2 172/6/2 173/6/2
f 173/6/2 172/6/2 174/6/2
f 175/2/2 176/2/2 177/2/2
f 177/2/2 176/2/2 178/2/2
f 183/6/3 182/6/3 181/6/3
f 184/6/3 182/6/3 183/6/3
f 185/6/3 180/6/3 179/6/3
f 186/6/3 180/6/3 185/6/3
f 187/6/3 183/6/3 181/6/3
f 187/1/3 184/1/3 183/1/3
f 188/6/3 182/6/3 184/6/3
f 188/1/3 184/1/3 187/1/3
f 191/6/3 187/6/3 181/6/3
f 191/6/3 188/6/3 187/6/3
f 192/6/3 182/6/3 188/6/3
f 192/6/3 188/6/3 191/6/3
f 193/6/3 191/6/3 181/6/3
f 193/1/3 192/1/3 191/1/3
f 194/6/3 182/6/3 192/6/3
f 194/1/3 192/1/3 193/1/3
f 195/6/3 190/6/3 189/6/3
f 196/6/3 190/6/3 195/6/3
f 197/6/3 193/6/3 181/6/3
f 197/6/3 194/6/3 193/6/3
f 198/6/3 182/6/3 194/6/3
f 198/6/3 194/6/3 197/6/3
f 201/2/3 200/2/3 199/2/3
f 202/2/3 200/2/3 201/2/3
f 205/2/3 204/2/3 203/2/3
f 206/2/3 204/2/3 205/2/3
f 213/6/3 208/6/3 207/6/3
f 214/6/3 208/6/3 213/6/3
f 215/5/3 212/5/3 211/5/3
f 216/5/3 212/5/3 215/5/3
f 219/4/3 216/4/3 215/4/3
f 220/4/3 216/4/3 219/4/3
f 221/5/3 220/5/3 219/5/3
f 222/5/3 220/5/3 221/5/3
f 223/6/3 218/6/3 217/6/3
f 224/6/3 218/6/3 223/6/3
f 225/6/3 210/6/3 209/6/3
f 226/6/3 210/6/3 225/6/3
f 229/2/3 228/2/3 227/2/3
f 230/2/3 228/2/3 229/2/3
f 233/2/3 232/2/3 231/2/3
f 234/2/3 232/2/3 233/2/3
f 235/2/3 232/2/3 234/2/3
f 238/6/3 236/6/3 235/6/3
f 239/6/3 236/6/3 238/6/3
f 241/6/3 238/6/3 237/6/3
f 241/6/3 240/6/3 239/6/3
f 241/6/3 239/6/3 238/6/3
f 242/6/3 240/6/3 241/6/3
f 247/4/3 246/4/3 245/4/3
f 248/4/3 246/4/3 247/4/3
f 249/5/3 248/5/3 247/5/3
f 250/5/3 248/5/3 249/5/3
f 251/6/3 244/6/3 243/6/3
f 252/6/3 244/6/3 251/6/3
f 255/6/3 254/6/3 253/6/3
f 256/6/3 254/6/3 255/6/3
f 257/6/3 254/6/3 256/6/3
f 258/6/3 254/6/3 257/6/3
f 261/6/3 257/6/3 256/6/3
f 262/6/3 257/6/3 261/6/3
f 263/2/3 260/2/3 259/2/3
f 263/2/3 261/2/3 260/2/3
f 264/2/3 261/2/3 263/2/3
f 267/6/3 266/6/3 265/6/3
f 268/6/3 266/6/3 267/6/3
f 271/6/3 270/6/3 269/6/3
f 272/6/3 270/6/3 271/6/3
f 275/6/3 274/6/3 273/6/3
f 276/6/3 274/6/3 275/6/3
f 277/6/4 278/6/4 279/6/4
f 279/6/4 278/6/4 280/6/4
f 281/2/4 282/2/4 283/2/4
f 283/2/4 282/2/4 284/2/4
f 285/2/4 286/2/4 287/2/4
f 287/2/4 286/2/4 288/2/4
f 289/2/4 290/2/4 291/2/4
f 291/2/4 290/2/4 292/2/4
f 293/2/4 294/2/4 295/2/4
f 295/2/4 294/2/4 296/2/4
f 297/2/4 298/2/4 299/2/4
f 299/2/4 298/2/4 300/2/4
f 301/6/4 302/6/4 303/6/4
f 303/6/4 302/6/4 304/6/4
f 305/5/4 306/5/4 307/5/4
f 307/5/4 306/5/4 308/5/4
f 307/4/4 308/4/4 309/4/4
f 309/4/4 308/4/4 310/4/4
f 311/6/4 312/6/4 313/6/4
f 313/6/4 312/6/4 314/6/4
f 315/6/4 316/6/4 318/6/4
f 316/6/4 317/6/4 318/6/4
f 318/6/4 317/6/4 319/6/4
f 319/6/4 317/6/4 320/6/4
f 320/6/4 321/6/4 324/6/4
f 319/6/4 320/6/4 324/6/4
f 324/6/4 321/6/4 325/6/4
f 322/6/4 323/6/4 330/6/4
f 330/6/4 323/6/4 331/6/4
f 331/6/4 323/6/4 333/6/4
f 328/5/4 329/5/4 334/5/4
f 334/5/4 329/5/4 335/5/4
f 326/6/4 327/6/4 336/6/4
f 336/6/4 327/6/4 337/6/4
f 332/6/4 333/6/4 338/6/4
f 333/6/4 323/6/4 339/6/4
f 338/6/4 333/6/4 339/6/4
f 340/6/4 341/6/4 343/6/4
f 343/6/4 341/6/4 344/6/4
f 344/6/4 341/6/4 345/6/4
f 342/6/4 343/6/4 346/6/4
f 343/6/4 344/6/4 346/6/4
f 346/6/4 344/6/4 347/6/4
f 347/6/4 344/6/4 348/6/4
f 349/6/4 350/6/4 351/6/4
f 351/6/4 350/6/4 352/6/4
f 353/2/4 354/2/4 355/2/4
f 355/2/4 354/2/4 356/2/4
f 357/6/4 358/6/4 359/6/4
f 359/6/4 358/6/4 360/6/4
f 361/2/4 362/2/4 363/2/4
f 363/2/4 362/2/4 364/2/4
f 369/6/5 366/6/5 365/6/5
f 370/6/5 366/6/5 369/6/5
f 371/6/5 368/6/5 367/6/5
f 372/6/5 368/6/5 371/6/5
f 377/2/5 374/2/5 373/2/5
f 378/2/5 374/2/5 377/2/5
f 379/2/5 376/2/5 375/2/5
f 380/2/5 376/2/5 379/2/5
f 384/2/5 382/2/5 381/2/5
f 385/2/5 382/2/5 384/2/5
f 386/2/5 382/2/5 385/2/5
f 387/2/5 382/2/5 386/2/5
f 388/2/5 382/2/5 387/2/5
f 389/2/5 382/2/5 388/2/5
f 391/2/5 384/2/5 383/2/5
f 392/2/5 384/2/5 391/2/5
f 393/2/5 390/2/5 389/2/5
f 394/2/5 390/2/5 393/2/5
f 399/6/5 396/6/5 395/6/5
f 400/6/5 396/6/5 399/6/5
f 401/6/5 398/6/5 397/6/5
f 402/6/5 398/6/5 401/6/5
f 405/6/5 404/6/5 403/6/5
f 406/6/5 404/6/5 405/6/5
f 409/6/5 408/6/5 407/6/5
f 410/6/5 408/6/5 409/6/5
f 415/6/5 412/6/5 411/6/5
f 416/6/5 412/6/5 415/6/5
f 417/6/5 414/6/5 413/6/5
f 418/6/5 414/6/5 417/6/5
f 421/6/5 420/6/5 419/6/5
f 422/6/5 420/6/5 421/6/5
f 423/6/5 421/6/5 419/6/5
f 424/6/5 420/6/5 422/6/5
f 425/6/5 423/6/5 419/6/5
f 425/6/5 424/6/5 423/6/5
f 426/6/5 420/6/5 424/6/5
f 426/6/5 424/6/5 425/6/5
f 431/6/5 428/6/5 427/6/5
f 432/6/5 428/6/5 431/6/5
f 433/6/5 430/6/5 429/6/5
f 434/6/5 430/6/5 433/6/5
f 435/6/6 436/6/6 439/6/6
f 439/6/6 436/6/6 440/6/6
f 437/6/6 438/6/6 441/6/6
f 441/6/6 438/6/6 442/6/6
f 443/2/6 444/2/6 446/2/6
f 446/2/6 444/2/6 447/2/6
f 447/2/6 444/2/6 448/2/6
f 448/2/6 444/2/6 449/2/6
f 445/2/6 446/2/6 452/2/6
f 452/2/6 446/2/6 453/2/6
f 449/2/6 450/2/6 454/2/6
f 454/2/6 450/2/6 455/2/6
f 451/2/6 452/2/6 457/2/6
f 455/2/6 456/2/6 458/2/6
f 451/2/6 457/2/6 459/2/6
f 459/2/6 457/2/6 460/2/6
f 458/2/6 456/2/6 461/2/6
f 461/2/6 456/2/6 462/2/6
f 463/6/6 464/6/6 467/6/6
f 467/6/6 464/6/6 468/6/6
f 465/6/6 466/6/6 469/6/6
f 469/6/6 466/6/6 470/6/6
f 471/6/6 472/6/6 474/6/6
f 474/6/6 472/6/6 475/6/6
f 475/6/6 472/6/6 476/6/6
f 476/6/6 472/6/6 477/6/6
f 473/6/6 474/6/6 479/6/6
f 474/6/6 475/6/6 479/6/6
f 479/6/6 475/6/6 480/6/6
f 480/6/6 475/6/6 481/6/6
f 477/6/6 478/6/6 482/6/6
f 476/6/6 477/6/6 482/6/6
f 482/6/6 478/6/6 483/6/6
f 483/6/6 478/6/6 484/6/6
f 480/6/6 481/6/6 485/6/6
f 482/6/6 483/6/6 485/6/6
f 481/6/6 482/6/6 485/6/6
f 485/6/6 483/6/6 486/6/6
f 487/6/6 488/6/6 491/6/6
f 491/6/6 488/6/6 492/6/6
f 489/6/6 490/6/6 493/6/6
f 493/6/6 490/6/6 494/6/6
f 495/3/6 496/3/6 497/3/6
f 497/3/6 496/3/6 498/3/6
f 498/3/6 496/3/6 499/3/6
f 499/3/6 496/3/6 500/3/6
f 500/3/6 496/3/6 501/3/6
f 495/3/6 497/3/6 502/3/6
f 501/3/6 496/3/6 503/3/6
f 495/3/6 502/3/6 504/3/6
f 495/3/6 504/3/6 505/3/6
f 503/3/6 496/3/6 506/3/6
f 495/3/6 505/3/6 507/3/6
f 505/3/6 506/3/6 507/3/6
f 506/3/6 496/3/6 508/3/6
f 507/3/6 506/3/6 508/3/6
f 509/6/6 510/6/6 511/6/6
f 511/6/6 510/6/6 512/6/6
f 513/5/6 514/5/6 517/5/6
f 514/4/6 515/4/6 518/4/6
f 517/5/6 514/5/6 518/5/6
f 515/5/6 516/5/6 519/5/6
f 518/4/6 515/4/6 519/4/6
f 519/5/6 516/5/6 520/5/6
f 513/5/6 517/5/6 521/5/6
f 521/5/6 517/5/6 522/5/6
f 519/4/6 520/4/6 523/4/6
f 523/4/6 520/4/6 524/4/6
f 521/4/6 522/4/6 525/4/6
f 525/4/6 522/4/6 526/4/6
f 523/5/6 524/5/6 528/5/6
f 526/5/6 527/5/6 529/5/6
f 527/5/6 528/5/6 529/5/6
f 525/5/6 526/5/6 529/5/6
f 528/5/6 524/5/6 530/5/6
f 529/5/6 528/5/6 530/5/6
f 509/6/6 511/6/6 531/6/6
f 512/6/6 510/6/6 532/6/6
f 509/6/6 531/6/6 533/6/6
f 531/6/6 532/6/6 533/6/6
f 532/6/6 510/6/6 534/6/6
f 533/6/6 532/6/6 534/6/6
f 535/4/6 536/4/6 538/4/6
f 536/5/6 537/5/6 539/5/6
f 538/4/6 536/4/6 539/4/6
f 539/5/6 537/5/6 540/5/6
f 538/5/6 539/5/6 541/5/6
f 539/4/6 540/4/6 542/4/6
f 541/5/6 539/5/6 542/5/6
f 542/4/6 540/4/6 543/4/6
