# MagicaVoxel @ Ephtracy

# group
o 

# material
mtllib portrait6.mtl
usemtl palette

# normals
vn -1 0 0
vn 1 0 0
vn 0 0 1
vn 0 0 -1
vn 0 -1 0
vn 0 1 0

# texcoords
vt 0.00585938 0.5
vt 0.0214844 0.5
vt 0.115234 0.5
vt 0.267578 0.5
vt 0.271484 0.5
vt 0.279297 0.5
vt 0.294922 0.5
vt 0.669922 0.5
vt 0.677734 0.5
vt 0.681641 0.5
vt 0.966797 0.5

# verts
v -1 0 0
v -1 0 -0.1
v -1 0.1 0
v -1 0.1 -0.1
v -1 1.9 0
v -1 1.9 -0.1
v -1 2 0
v -1 2 -0.1
v 1 0 0
v 1 0 -0.1
v 1 0.1 0
v 1 0.1 -0.1
v 1 1.9 0
v 1 1.9 -0.1
v 1 2 0
v 1 2 -0.1
v -1 0 0
v -1 0.1 0
v -1 1.9 0
v -1 2 0
v -0.9 0 0
v -0.9 0.1 0
v -0.9 1.9 0
v -0.9 2 0
v -0.8 0.1 0
v -0.8 0.2 0
v -0.8 0.3 0
v -0.8 0.5 0
v -0.8 1.2 0
v -0.7 0.2 0
v -0.7 0.3 0
v -0.7 0.4 0
v -0.7 0.5 0
v -0.7 1.2 0
v -0.7 1.5 0
v -0.6 0.3 0
v -0.6 0.4 0
v -0.6 1.5 0
v -0.6 1.6 0
v -0.5 0.3 0
v -0.5 0.5 0
v -0.5 0.9 0
v -0.5 1.6 0
v -0.5 1.7 0
v -0.4 0.4 0
v -0.4 0.5 0
v -0.4 0.9 0
v -0.4 1.4 0
v -0.3 0.3 0
v -0.3 0.4 0
v -0.3 1 0
v -0.3 1.3 0
v -0.2 0.5 0
v -0.2 0.7 0
v -0.2 1 0
v -0.2 1.1 0
v -0.2 1.7 0
v -0.2 1.8 0
v -0.1 1 0
v -0.1 1.1 0
v -0.1 1.3 0
v -0.1 1.9 0
v -0.1 2 0
v 0.1 1 0
v 0.1 1.3 0
v 0.1 1.9 0
v 0.1 2 0
v 0.2 0.6 0
v 0.2 0.7 0
v 0.2 1 0
v 0.2 1.1 0
v 0.3 0.3 0
v 0.3 0.4 0
v 0.3 0.5 0
v 0.3 0.6 0
v 0.3 1 0
v 0.3 1.1 0
v 0.3 1.3 0
v 0.4 0.4 0
v 0.4 0.5 0
v 0.4 1.2 0
v 0.4 1.4 0
v 0.4 1.7 0
v 0.4 1.8 0
v 0.5 0.4 0
v 0.5 0.5 0
v 0.5 0.6 0
v 0.5 1 0
v 0.5 1.2 0
v 0.5 1.6 0
v 0.5 1.7 0
v 0.6 0.3 0
v 0.6 0.4 0
v 0.6 0.5 0
v 0.6 0.6 0
v 0.6 0.8 0
v 0.6 1 0
v 0.6 1.1 0
v 0.6 1.3 0
v 0.6 1.6 0
v 0.7 0.2 0
v 0.7 0.3 0
v 0.7 0.4 0
v 0.7 0.8 0
v 0.7 1.1 0
v 0.7 1.3 0
v 0.8 0.1 0
v 0.8 0.2 0
v 0.8 0.3 0
v 0.9 0 0
v 0.9 0.1 0
v 0.9 1.9 0
v 0.9 2 0
v 1 0 0
v 1 0.1 0
v 1 1.9 0
v 1 2 0
v -1 0 -0.1
v -1 0.1 -0.1
v -1 1.9 -0.1
v -1 2 -0.1
v -0.9 0 -0.1
v -0.9 0.1 -0.1
v -0.9 1.9 -0.1
v -0.9 2 -0.1
v -0.8 0.1 -0.1
v -0.8 0.2 -0.1
v -0.8 0.3 -0.1
v -0.8 0.5 -0.1
v -0.8 1.2 -0.1
v -0.7 0.2 -0.1
v -0.7 0.3 -0.1
v -0.7 0.4 -0.1
v -0.7 0.5 -0.1
v -0.7 1.2 -0.1
v -0.7 1.5 -0.1
v -0.6 0.3 -0.1
v -0.6 0.4 -0.1
v -0.6 1.5 -0.1
v -0.6 1.6 -0.1
v -0.5 0.3 -0.1
v -0.5 0.5 -0.1
v -0.5 0.9 -0.1
v -0.5 1.6 -0.1
v -0.5 1.7 -0.1
v -0.4 0.4 -0.1
v -0.4 0.5 -0.1
v -0.4 0.9 -0.1
v -0.4 1.4 -0.1
v -0.3 0.3 -0.1
v -0.3 0.4 -0.1
v -0.3 1 -0.1
v -0.3 1.3 -0.1
v -0.2 0.5 -0.1
v -0.2 0.7 -0.1
v -0.2 1 -0.1
v -0.2 1.1 -0.1
v -0.2 1.7 -0.1
v -0.2 1.8 -0.1
v -0.1 1 -0.1
v -0.1 1.1 -0.1
v -0.1 1.3 -0.1
v -0.1 1.9 -0.1
v -0.1 2 -0.1
v 0.1 1 -0.1
v 0.1 1.3 -0.1
v 0.1 1.9 -0.1
v 0.1 2 -0.1
v 0.2 0.6 -0.1
v 0.2 0.7 -0.1
v 0.2 1 -0.1
v 0.2 1.1 -0.1
v 0.3 0.3 -0.1
v 0.3 0.4 -0.1
v 0.3 0.5 -0.1
v 0.3 0.6 -0.1
v 0.3 1 -0.1
v 0.3 1.1 -0.1
v 0.3 1.3 -0.1
v 0.4 0.4 -0.1
v 0.4 0.5 -0.1
v 0.4 1.2 -0.1
v 0.4 1.4 -0.1
v 0.4 1.7 -0.1
v 0.4 1.8 -0.1
v 0.5 0.4 -0.1
v 0.5 0.5 -0.1
v 0.5 0.6 -0.1
v 0.5 1 -0.1
v 0.5 1.2 -0.1
v 0.5 1.6 -0.1
v 0.5 1.7 -0.1
v 0.6 0.3 -0.1
v 0.6 0.4 -0.1
v 0.6 0.5 -0.1
v 0.6 0.6 -0.1
v 0.6 0.8 -0.1
v 0.6 1 -0.1
v 0.6 1.1 -0.1
v 0.6 1.3 -0.1
v 0.6 1.6 -0.1
v 0.7 0.2 -0.1
v 0.7 0.3 -0.1
v 0.7 0.4 -0.1
v 0.7 0.8 -0.1
v 0.7 1.1 -0.1
v 0.7 1.3 -0.1
v 0.8 0.1 -0.1
v 0.8 0.2 -0.1
v 0.8 0.3 -0.1
v 0.9 0 -0.1
v 0.9 0.1 -0.1
v 0.9 1.9 -0.1
v 0.9 2 -0.1
v 1 0 -0.1
v 1 0.1 -0.1
v 1 1.9 -0.1
v 1 2 -0.1
v -1 0 0
v -0.9 0 0
v 0.9 0 0
v 1 0 0
v -1 0 -0.1
v -0.9 0 -0.1
v 0.9 0 -0.1
v 1 0 -0.1
v -1 2 0
v -0.9 2 0
v -0.1 2 0
v 0.1 2 0
v 0.9 2 0
v 1 2 0
v -1 2 -0.1
v -0.9 2 -0.1
v -0.1 2 -0.1
v 0.1 2 -0.1
v 0.9 2 -0.1
v 1 2 -0.1

# faces
f 3/8/1 2/8/1 1/8/1
f 4/8/1 2/8/1 3/8/1
f 5/9/1 4/9/1 3/9/1
f 6/9/1 4/9/1 5/9/1
f 7/8/1 6/8/1 5/8/1
f 8/8/1 6/8/1 7/8/1
f 9/8/2 10/8/2 11/8/2
f 11/8/2 10/8/2 12/8/2
f 11/9/2 12/9/2 13/9/2
f 13/9/2 12/9/2 14/9/2
f 13/8/2 14/8/2 15/8/2
f 15/8/2 14/8/2 16/8/2
f 21/8/3 18/8/3 17/8/3
f 22/9/3 19/9/3 18/9/3
f 22/8/3 18/8/3 21/8/3
f 23/8/3 20/8/3 19/8/3
f 23/9/3 19/9/3 22/9/3
f 24/8/3 20/8/3 23/8/3
f 25/9/3 22/9/3 21/9/3
f 25/5/3 23/5/3 22/5/3
f 26/5/3 23/5/3 25/5/3
f 27/5/3 23/5/3 26/5/3
f 28/5/3 23/5/3 27/5/3
f 29/5/3 23/5/3 28/5/3
f 30/3/3 26/3/3 25/3/3
f 30/2/3 27/2/3 26/2/3
f 31/5/3 28/5/3 27/5/3
f 31/2/3 27/2/3 30/2/3
f 32/5/3 28/5/3 31/5/3
f 33/1/3 29/1/3 28/1/3
f 33/5/3 28/5/3 32/5/3
f 34/5/3 23/5/3 29/5/3
f 34/1/3 29/1/3 33/1/3
f 35/5/3 23/5/3 34/5/3
f 36/2/3 32/2/3 31/2/3
f 36/3/3 31/3/3 30/3/3
f 37/1/3 33/1/3 32/1/3
f 37/2/3 32/2/3 36/2/3
f 37/1/3 35/1/3 34/1/3
f 37/1/3 34/1/3 33/1/3
f 38/5/3 23/5/3 35/5/3
f 38/1/3 35/1/3 37/1/3
f 39/5/3 23/5/3 38/5/3
f 40/3/3 36/3/3 30/3/3
f 40/1/3 37/1/3 36/1/3
f 40/1/3 39/1/3 38/1/3
f 40/1/3 38/1/3 37/1/3
f 41/1/3 39/1/3 40/1/3
f 42/1/3 39/1/3 41/1/3
f 43/5/3 23/5/3 39/5/3
f 43/1/3 39/1/3 42/1/3
f 44/5/3 23/5/3 43/5/3
f 45/3/3 41/3/3 40/3/3
f 46/11/3 42/11/3 41/11/3
f 46/3/3 41/3/3 45/3/3
f 47/1/3 43/1/3 42/1/3
f 47/11/3 42/11/3 46/11/3
f 47/1/3 44/1/3 43/1/3
f 48/1/3 44/1/3 47/1/3
f 49/3/3 45/3/3 40/3/3
f 49/3/3 40/3/3 30/3/3
f 50/11/3 48/11/3 47/11/3
f 50/3/3 45/3/3 49/3/3
f 50/11/3 46/11/3 45/11/3
f 50/11/3 47/11/3 46/11/3
f 51/11/3 48/11/3 50/11/3
f 52/11/3 48/11/3 51/11/3
f 53/11/3 50/11/3 49/11/3
f 53/11/3 51/11/3 50/11/3
f 54/11/3 51/11/3 53/11/3
f 55/4/3 52/4/3 51/4/3
f 55/11/3 51/11/3 54/11/3
f 56/4/3 52/4/3 55/4/3
f 57/1/3 44/1/3 48/1/3
f 57/5/3 23/5/3 44/5/3
f 58/5/3 23/5/3 57/5/3
f 59/6/3 56/6/3 55/6/3
f 59/11/3 55/11/3 54/11/3
f 60/4/3 52/4/3 56/4/3
f 60/6/3 56/6/3 59/6/3
f 61/11/3 48/11/3 52/11/3
f 61/4/3 52/4/3 60/4/3
f 62/9/3 24/9/3 23/9/3
f 62/5/3 23/5/3 58/5/3
f 63/9/3 24/9/3 62/9/3
f 64/11/3 59/11/3 54/11/3
f 64/11/3 61/11/3 60/11/3
f 64/11/3 60/11/3 59/11/3
f 65/11/3 48/11/3 61/11/3
f 65/11/3 61/11/3 64/11/3
f 66/10/3 63/10/3 62/10/3
f 66/5/3 62/5/3 58/5/3
f 67/10/3 63/10/3 66/10/3
f 68/7/3 54/7/3 53/7/3
f 69/11/3 64/11/3 54/11/3
f 69/7/3 54/7/3 68/7/3
f 70/4/3 65/4/3 64/4/3
f 70/11/3 64/11/3 69/11/3
f 71/4/3 65/4/3 70/4/3
f 72/3/3 49/3/3 30/3/3
f 72/11/3 53/11/3 49/11/3
f 73/11/3 53/11/3 72/11/3
f 74/7/3 68/7/3 53/7/3
f 74/11/3 53/11/3 73/11/3
f 75/11/3 69/11/3 68/11/3
f 75/7/3 68/7/3 74/7/3
f 75/11/3 70/11/3 69/11/3
f 76/6/3 71/6/3 70/6/3
f 76/11/3 70/11/3 75/11/3
f 77/4/3 65/4/3 71/4/3
f 77/6/3 71/6/3 76/6/3
f 78/11/3 48/11/3 65/11/3
f 78/4/3 65/4/3 77/4/3
f 79/3/3 73/3/3 72/3/3
f 79/11/3 76/11/3 75/11/3
f 79/11/3 78/11/3 77/11/3
f 79/11/3 77/11/3 76/11/3
f 79/11/3 74/11/3 73/11/3
f 79/11/3 75/11/3 74/11/3
f 80/11/3 78/11/3 79/11/3
f 81/11/3 78/11/3 80/11/3
f 82/11/3 48/11/3 78/11/3
f 82/11/3 78/11/3 81/11/3
f 82/1/3 57/1/3 48/1/3
f 82/1/3 58/1/3 57/1/3
f 83/1/3 58/1/3 82/1/3
f 84/5/3 66/5/3 58/5/3
f 84/1/3 58/1/3 83/1/3
f 85/3/3 80/3/3 79/3/3
f 85/3/3 79/3/3 72/3/3
f 86/11/3 81/11/3 80/11/3
f 86/3/3 80/3/3 85/3/3
f 87/11/3 81/11/3 86/11/3
f 88/11/3 81/11/3 87/11/3
f 89/1/3 83/1/3 82/1/3
f 89/11/3 81/11/3 88/11/3
f 89/1/3 82/1/3 81/1/3
f 90/1/3 83/1/3 89/1/3
f 91/5/3 84/5/3 83/5/3
f 91/1/3 83/1/3 90/1/3
f 92/3/3 85/3/3 72/3/3
f 92/3/3 72/3/3 30/3/3
f 93/2/3 86/2/3 85/2/3
f 93/3/3 85/3/3 92/3/3
f 94/5/3 87/5/3 86/5/3
f 94/2/3 86/2/3 93/2/3
f 95/11/3 88/11/3 87/11/3
f 95/5/3 87/5/3 94/5/3
f 96/11/3 88/11/3 95/11/3
f 97/1/3 90/1/3 89/1/3
f 97/11/3 88/11/3 96/11/3
f 97/1/3 89/1/3 88/1/3
f 98/1/3 90/1/3 97/1/3
f 99/1/3 90/1/3 98/1/3
f 100/5/3 91/5/3 90/5/3
f 100/1/3 90/1/3 99/1/3
f 101/3/3 30/3/3 25/3/3
f 101/3/3 92/3/3 30/3/3
f 102/2/3 93/2/3 92/2/3
f 102/3/3 92/3/3 101/3/3
f 103/5/3 94/5/3 93/5/3
f 103/2/3 93/2/3 102/2/3
f 103/5/3 96/5/3 95/5/3
f 103/5/3 95/5/3 94/5/3
f 104/11/3 98/11/3 97/11/3
f 104/5/3 96/5/3 103/5/3
f 104/11/3 97/11/3 96/11/3
f 105/1/3 99/1/3 98/1/3
f 105/11/3 98/11/3 104/11/3
f 106/5/3 100/5/3 99/5/3
f 106/1/3 99/1/3 105/1/3
f 107/9/3 25/9/3 21/9/3
f 107/3/3 101/3/3 25/3/3
f 108/2/3 102/2/3 101/2/3
f 108/3/3 101/3/3 107/3/3
f 109/5/3 104/5/3 103/5/3
f 109/2/3 102/2/3 108/2/3
f 109/5/3 103/5/3 102/5/3
f 109/5/3 105/5/3 104/5/3
f 109/5/3 106/5/3 105/5/3
f 110/9/3 107/9/3 21/9/3
f 111/5/3 108/5/3 107/5/3
f 111/9/3 107/9/3 110/9/3
f 111/5/3 109/5/3 108/5/3
f 112/5/3 84/5/3 91/5/3
f 112/5/3 109/5/3 111/5/3
f 112/5/3 100/5/3 106/5/3
f 112/5/3 66/5/3 84/5/3
f 112/5/3 91/5/3 100/5/3
f 112/5/3 106/5/3 109/5/3
f 112/9/3 67/9/3 66/9/3
f 113/9/3 67/9/3 112/9/3
f 114/8/3 111/8/3 110/8/3
f 115/9/3 112/9/3 111/9/3
f 115/8/3 111/8/3 114/8/3
f 116/8/3 113/8/3 112/8/3
f 116/9/3 112/9/3 115/9/3
f 117/8/3 113/8/3 116/8/3
f 118/8/4 119/8/4 122/8/4
f 119/9/4 120/9/4 123/9/4
f 122/8/4 119/8/4 123/8/4
f 120/8/4 121/8/4 124/8/4
f 123/9/4 120/9/4 124/9/4
f 124/8/4 121/8/4 125/8/4
f 122/9/4 123/9/4 126/9/4
f 123/5/4 124/5/4 126/5/4
f 126/5/4 124/5/4 127/5/4
f 127/5/4 124/5/4 128/5/4
f 128/5/4 124/5/4 129/5/4
f 129/5/4 124/5/4 130/5/4
f 126/3/4 127/3/4 131/3/4
f 127/2/4 128/2/4 131/2/4
f 128/5/4 129/5/4 132/5/4
f 131/2/4 128/2/4 132/2/4
f 132/5/4 129/5/4 133/5/4
f 129/1/4 130/1/4 134/1/4
f 133/5/4 129/5/4 134/5/4
f 130/5/4 124/5/4 135/5/4
f 134/1/4 130/1/4 135/1/4
f 135/5/4 124/5/4 136/5/4
f 132/2/4 133/2/4 137/2/4
f 131/3/4 132/3/4 137/3/4
f 133/1/4 134/1/4 138/1/4
f 137/2/4 133/2/4 138/2/4
f 135/1/4 136/1/4 138/1/4
f 134/1/4 135/1/4 138/1/4
f 136/5/4 124/5/4 139/5/4
f 138/1/4 136/1/4 139/1/4
f 139/5/4 124/5/4 140/5/4
f 131/3/4 137/3/4 141/3/4
f 137/1/4 138/1/4 141/1/4
f 139/1/4 140/1/4 141/1/4
f 138/1/4 139/1/4 141/1/4
f 141/1/4 140/1/4 142/1/4
f 142/1/4 140/1/4 143/1/4
f 140/5/4 124/5/4 144/5/4
f 143/1/4 140/1/4 144/1/4
f 144/5/4 124/5/4 145/5/4
f 141/3/4 142/3/4 146/3/4
f 142/11/4 143/11/4 147/11/4
f 146/3/4 142/3/4 147/3/4
f 143/1/4 144/1/4 148/1/4
f 147/11/4 143/11/4 148/11/4
f 144/1/4 145/1/4 148/1/4
f 148/1/4 145/1/4 149/1/4
f 141/3/4 146/3/4 150/3/4
f 131/3/4 141/3/4 150/3/4
f 148/11/4 149/11/4 151/11/4
f 150/3/4 146/3/4 151/3/4
f 146/11/4 147/11/4 151/11/4
f 147/11/4 148/11/4 151/11/4
f 151/11/4 149/11/4 152/11/4
f 152/11/4 149/11/4 153/11/4
f 150/11/4 151/11/4 154/11/4
f 151/11/4 152/11/4 154/11/4
f 154/11/4 152/11/4 155/11/4
f 152/4/4 153/4/4 156/4/4
f 155/11/4 152/11/4 156/11/4
f 156/4/4 153/4/4 157/4/4
f 149/1/4 145/1/4 158/1/4
f 145/5/4 124/5/4 158/5/4
f 158/5/4 124/5/4 159/5/4
f 156/6/4 157/6/4 160/6/4
f 155/11/4 156/11/4 160/11/4
f 157/4/4 153/4/4 161/4/4
f 160/6/4 157/6/4 161/6/4
f 153/11/4 149/11/4 162/11/4
f 161/4/4 153/4/4 162/4/4
f 124/9/4 125/9/4 163/9/4
f 159/5/4 124/5/4 163/5/4
f 163/9/4 125/9/4 164/9/4
f 155/11/4 160/11/4 165/11/4
f 161/11/4 162/11/4 165/11/4
f 160/11/4 161/11/4 165/11/4
f 162/11/4 149/11/4 166/11/4
f 165/11/4 162/11/4 166/11/4
f 163/10/4 164/10/4 167/10/4
f 159/5/4 163/5/4 167/5/4
f 167/10/4 164/10/4 168/10/4
f 154/7/4 155/7/4 169/7/4
f 155/11/4 165/11/4 170/11/4
f 169/7/4 155/7/4 170/7/4
f 165/4/4 166/4/4 171/4/4
f 170/11/4 165/11/4 171/11/4
f 171/4/4 166/4/4 172/4/4
f 131/3/4 150/3/4 173/3/4
f 150/11/4 154/11/4 173/11/4
f 173/11/4 154/11/4 174/11/4
f 154/7/4 169/7/4 175/7/4
f 174/11/4 154/11/4 175/11/4
f 169/11/4 170/11/4 176/11/4
f 175/7/4 169/7/4 176/7/4
f 170/11/4 171/11/4 176/11/4
f 171/6/4 172/6/4 177/6/4
f 176/11/4 171/11/4 177/11/4
f 172/4/4 166/4/4 178/4/4
f 177/6/4 172/6/4 178/6/4
f 166/11/4 149/11/4 179/11/4
f 178/4/4 166/4/4 179/4/4
f 173/3/4 174/3/4 180/3/4
f 176/11/4 177/11/4 180/11/4
f 178/11/4 179/11/4 180/11/4
f 177/11/4 178/11/4 180/11/4
f 174/11/4 175/11/4 180/11/4
f 175/11/4 176/11/4 180/11/4
f 180/11/4 179/11/4 181/11/4
f 181/11/4 179/11/4 182/11/4
f 179/11/4 149/11/4 183/11/4
f 182/11/4 179/11/4 183/11/4
f 149/1/4 158/1/4 183/1/4
f 158/1/4 159/1/4 183/1/4
f 183/1/4 159/1/4 184/1/4
f 159/5/4 167/5/4 185/5/4
f 184/1/4 159/1/4 185/1/4
f 180/3/4 181/3/4 186/3/4
f 173/3/4 180/3/4 186/3/4
f 181/11/4 182/11/4 187/11/4
f 186/3/4 181/3/4 187/3/4
f 187/11/4 182/11/4 188/11/4
f 188/11/4 182/11/4 189/11/4
f 183/1/4 184/1/4 190/1/4
f 189/11/4 182/11/4 190/11/4
f 182/1/4 183/1/4 190/1/4
f 190/1/4 184/1/4 191/1/4
f 184/5/4 185/5/4 192/5/4
f 191/1/4 184/1/4 192/1/4
f 173/3/4 186/3/4 193/3/4
f 131/3/4 173/3/4 193/3/4
f 186/2/4 187/2/4 194/2/4
f 193/3/4 186/3/4 194/3/4
f 187/5/4 188/5/4 195/5/4
f 194/2/4 187/2/4 195/2/4
f 188/11/4 189/11/4 196/11/4
f 195/5/4 188/5/4 196/5/4
f 196/11/4 189/11/4 197/11/4
f 190/1/4 191/1/4 198/1/4
f 197/11/4 189/11/4 198/11/4
f 189/1/4 190/1/4 198/1/4
f 198/1/4 191/1/4 199/1/4
f 199/1/4 191/1/4 200/1/4
f 191/5/4 192/5/4 201/5/4
f 200/1/4 191/1/4 201/1/4
f 126/3/4 131/3/4 202/3/4
f 131/3/4 193/3/4 202/3/4
f 193/2/4 194/2/4 203/2/4
f 202/3/4 193/3/4 203/3/4
f 194/5/4 195/5/4 204/5/4
f 203/2/4 194/2/4 204/2/4
f 196/5/4 197/5/4 204/5/4
f 195/5/4 196/5/4 204/5/4
f 198/11/4 199/11/4 205/11/4
f 204/5/4 197/5/4 205/5/4
f 197/11/4 198/11/4 205/11/4
f 199/1/4 200/1/4 206/1/4
f 205/11/4 199/11/4 206/11/4
f 200/5/4 201/5/4 207/5/4
f 206/1/4 200/1/4 207/1/4
f 122/9/4 126/9/4 208/9/4
f 126/3/4 202/3/4 208/3/4
f 202/2/4 203/2/4 209/2/4
f 208/3/4 202/3/4 209/3/4
f 204/5/4 205/5/4 210/5/4
f 209/2/4 203/2/4 210/2/4
f 203/5/4 204/5/4 210/5/4
f 205/5/4 206/5/4 210/5/4
f 206/5/4 207/5/4 210/5/4
f 122/9/4 208/9/4 211/9/4
f 208/5/4 209/5/4 212/5/4
f 211/9/4 208/9/4 212/9/4
f 209/5/4 210/5/4 212/5/4
f 192/5/4 185/5/4 213/5/4
f 212/5/4 210/5/4 213/5/4
f 207/5/4 201/5/4 213/5/4
f 185/5/4 167/5/4 213/5/4
f 201/5/4 192/5/4 213/5/4
f 210/5/4 207/5/4 213/5/4
f 167/9/4 168/9/4 213/9/4
f 213/9/4 168/9/4 214/9/4
f 211/8/4 212/8/4 215/8/4
f 212/9/4 213/9/4 216/9/4
f 215/8/4 212/8/4 216/8/4
f 213/8/4 214/8/4 217/8/4
f 216/9/4 213/9/4 217/9/4
f 217/8/4 214/8/4 218/8/4
f 223/8/5 220/8/5 219/8/5
f 224/9/5 221/9/5 220/9/5
f 224/8/5 220/8/5 223/8/5
f 225/8/5 222/8/5 221/8/5
f 225/9/5 221/9/5 224/9/5
f 226/8/5 222/8/5 225/8/5
f 227/8/6 228/8/6 233/8/6
f 228/9/6 229/9/6 234/9/6
f 233/8/6 228/8/6 234/8/6
f 229/10/6 230/10/6 235/10/6
f 234/9/6 229/9/6 235/9/6
f 230/9/6 231/9/6 236/9/6
f 235/10/6 230/10/6 236/10/6
f 231/8/6 232/8/6 237/8/6
f 236/9/6 231/9/6 237/9/6
f 237/8/6 232/8/6 238/8/6
