# MagicaVoxel @ Ephtracy

# group
o 

# material
mtllib portrait8.mtl
usemtl palette

# normals
vn -1 0 0
vn 1 0 0
vn 0 0 1
vn 0 0 -1
vn 0 -1 0
vn 0 1 0

# texcoords
vt 0.0605469 0.5
vt 0.126953 0.5
vt 0.134766 0.5
vt 0.224609 0.5
vt 0.236328 0.5
vt 0.271484 0.5
vt 0.294922 0.5
vt 0.384766 0.5
vt 0.669922 0.5
vt 0.677734 0.5
vt 0.681641 0.5

# verts
v -1 0 0
v -1 0 -0.1
v -1 0.1 0
v -1 0.1 -0.1
v -1 1.9 0
v -1 1.9 -0.1
v -1 2 0
v -1 2 -0.1
v 1 0 0
v 1 0 -0.1
v 1 0.1 0
v 1 0.1 -0.1
v 1 1.9 0
v 1 1.9 -0.1
v 1 2 0
v 1 2 -0.1
v -1 0 0
v -1 0.1 0
v -1 1.9 0
v -1 2 0
v -0.9 0 0
v -0.9 0.1 0
v -0.9 0.2 0
v -0.9 1.9 0
v -0.9 2 0
v -0.8 0.1 0
v -0.8 0.2 0
v -0.8 0.3 0
v -0.8 0.5 0
v -0.8 1.2 0
v -0.7 0.2 0
v -0.7 0.3 0
v -0.7 0.4 0
v -0.7 0.5 0
v -0.7 1.2 0
v -0.7 1.5 0
v -0.6 0.3 0
v -0.6 0.4 0
v -0.6 1.5 0
v -0.6 1.6 0
v -0.5 0.3 0
v -0.5 0.4 0
v -0.5 0.7 0
v -0.5 0.9 0
v -0.5 1.6 0
v -0.5 1.7 0
v -0.4 0.5 0
v -0.4 0.7 0
v -0.4 0.9 0
v -0.4 1.3 0
v -0.3 0.4 0
v -0.3 0.5 0
v -0.3 1 0
v -0.3 1.1 0
v -0.3 1.2 0
v -0.3 1.3 0
v -0.3 1.4 0
v -0.3 1.7 0
v -0.3 1.8 0
v -0.2 0.3 0
v -0.2 0.4 0
v -0.2 0.5 0
v -0.2 0.6 0
v -0.2 1.1 0
v -0.2 1.2 0
v -0.1 0.7 0
v -0.1 1 0
v -0.1 1.3 0
v -0.1 1.9 0
v -0.1 2 0
v 0 0.7 0
v 0 0.8 0
v 0 1 0
v 0 1.4 0
v 0.1 0.8 0
v 0.1 0.9 0
v 0.1 1.9 0
v 0.1 2 0
v 0.2 0.3 0
v 0.2 0.4 0
v 0.2 0.5 0
v 0.2 0.6 0
v 0.2 0.9 0
v 0.2 1 0
v 0.3 0.4 0
v 0.3 0.5 0
v 0.3 0.9 0
v 0.3 1 0
v 0.3 1.7 0
v 0.3 1.8 0
v 0.4 0.5 0
v 0.4 0.6 0
v 0.4 0.8 0
v 0.4 0.9 0
v 0.5 0.3 0
v 0.5 0.6 0
v 0.5 0.8 0
v 0.5 1.6 0
v 0.5 1.7 0
v 0.6 0.3 0
v 0.6 0.4 0
v 0.6 1.5 0
v 0.6 1.6 0
v 0.7 0.2 0
v 0.7 0.3 0
v 0.7 0.4 0
v 0.7 0.5 0
v 0.7 1.2 0
v 0.7 1.5 0
v 0.8 0.1 0
v 0.8 0.2 0
v 0.8 0.3 0
v 0.8 0.5 0
v 0.8 1.2 0
v 0.9 0 0
v 0.9 0.1 0
v 0.9 0.2 0
v 0.9 1.9 0
v 0.9 2 0
v 1 0 0
v 1 0.1 0
v 1 1.9 0
v 1 2 0
v -1 0 -0.1
v -1 0.1 -0.1
v -1 1.9 -0.1
v -1 2 -0.1
v -0.9 0 -0.1
v -0.9 0.1 -0.1
v -0.9 0.2 -0.1
v -0.9 1.9 -0.1
v -0.9 2 -0.1
v -0.8 0.1 -0.1
v -0.8 0.2 -0.1
v -0.8 0.3 -0.1
v -0.8 0.5 -0.1
v -0.8 1.2 -0.1
v -0.7 0.2 -0.1
v -0.7 0.3 -0.1
v -0.7 0.4 -0.1
v -0.7 0.5 -0.1
v -0.7 1.2 -0.1
v -0.7 1.5 -0.1
v -0.6 0.3 -0.1
v -0.6 0.4 -0.1
v -0.6 1.5 -0.1
v -0.6 1.6 -0.1
v -0.5 0.3 -0.1
v -0.5 0.4 -0.1
v -0.5 0.7 -0.1
v -0.5 0.9 -0.1
v -0.5 1.6 -0.1
v -0.5 1.7 -0.1
v -0.4 0.5 -0.1
v -0.4 0.7 -0.1
v -0.4 0.9 -0.1
v -0.4 1.3 -0.1
v -0.3 0.4 -0.1
v -0.3 0.5 -0.1
v -0.3 1 -0.1
v -0.3 1.1 -0.1
v -0.3 1.2 -0.1
v -0.3 1.3 -0.1
v -0.3 1.4 -0.1
v -0.3 1.7 -0.1
v -0.3 1.8 -0.1
v -0.2 0.3 -0.1
v -0.2 0.4 -0.1
v -0.2 0.5 -0.1
v -0.2 0.6 -0.1
v -0.2 1.1 -0.1
v -0.2 1.2 -0.1
v -0.1 0.7 -0.1
v -0.1 1 -0.1
v -0.1 1.3 -0.1
v -0.1 1.9 -0.1
v -0.1 2 -0.1
v 0 0.7 -0.1
v 0 0.8 -0.1
v 0 1 -0.1
v 0 1.4 -0.1
v 0.1 0.8 -0.1
v 0.1 0.9 -0.1
v 0.1 1.9 -0.1
v 0.1 2 -0.1
v 0.2 0.3 -0.1
v 0.2 0.4 -0.1
v 0.2 0.5 -0.1
v 0.2 0.6 -0.1
v 0.2 0.9 -0.1
v 0.2 1 -0.1
v 0.3 0.4 -0.1
v 0.3 0.5 -0.1
v 0.3 0.9 -0.1
v 0.3 1 -0.1
v 0.3 1.7 -0.1
v 0.3 1.8 -0.1
v 0.4 0.5 -0.1
v 0.4 0.6 -0.1
v 0.4 0.8 -0.1
v 0.4 0.9 -0.1
v 0.5 0.3 -0.1
v 0.5 0.6 -0.1
v 0.5 0.8 -0.1
v 0.5 1.6 -0.1
v 0.5 1.7 -0.1
v 0.6 0.3 -0.1
v 0.6 0.4 -0.1
v 0.6 1.5 -0.1
v 0.6 1.6 -0.1
v 0.7 0.2 -0.1
v 0.7 0.3 -0.1
v 0.7 0.4 -0.1
v 0.7 0.5 -0.1
v 0.7 1.2 -0.1
v 0.7 1.5 -0.1
v 0.8 0.1 -0.1
v 0.8 0.2 -0.1
v 0.8 0.3 -0.1
v 0.8 0.5 -0.1
v 0.8 1.2 -0.1
v 0.9 0 -0.1
v 0.9 0.1 -0.1
v 0.9 0.2 -0.1
v 0.9 1.9 -0.1
v 0.9 2 -0.1
v 1 0 -0.1
v 1 0.1 -0.1
v 1 1.9 -0.1
v 1 2 -0.1
v -1 0 0
v -0.9 0 0
v 0.9 0 0
v 1 0 0
v -1 0 -0.1
v -0.9 0 -0.1
v 0.9 0 -0.1
v 1 0 -0.1
v -1 2 0
v -0.9 2 0
v -0.1 2 0
v 0.1 2 0
v 0.9 2 0
v 1 2 0
v -1 2 -0.1
v -0.9 2 -0.1
v -0.1 2 -0.1
v 0.1 2 -0.1
v 0.9 2 -0.1
v 1 2 -0.1

# faces
f 3/9/1 2/9/1 1/9/1
f 4/9/1 2/9/1 3/9/1
f 5/10/1 4/10/1 3/10/1
f 6/10/1 4/10/1 5/10/1
f 7/9/1 6/9/1 5/9/1
f 8/9/1 6/9/1 7/9/1
f 9/9/2 10/9/2 11/9/2
f 11/9/2 10/9/2 12/9/2
f 11/10/2 12/10/2 13/10/2
f 13/10/2 12/10/2 14/10/2
f 13/9/2 14/9/2 15/9/2
f 15/9/2 14/9/2 16/9/2
f 21/9/3 18/9/3 17/9/3
f 22/10/3 19/10/3 18/10/3
f 22/9/3 18/9/3 21/9/3
f 23/10/3 19/10/3 22/10/3
f 24/9/3 20/9/3 19/9/3
f 24/10/3 19/10/3 23/10/3
f 25/9/3 20/9/3 24/9/3
f 26/2/3 23/2/3 22/2/3
f 26/10/3 22/10/3 21/10/3
f 27/6/3 24/6/3 23/6/3
f 27/2/3 23/2/3 26/2/3
f 28/6/3 24/6/3 27/6/3
f 29/6/3 24/6/3 28/6/3
f 30/6/3 24/6/3 29/6/3
f 31/3/3 27/3/3 26/3/3
f 31/2/3 28/2/3 27/2/3
f 32/6/3 29/6/3 28/6/3
f 32/2/3 28/2/3 31/2/3
f 33/6/3 29/6/3 32/6/3
f 34/9/3 30/9/3 29/9/3
f 34/6/3 29/6/3 33/6/3
f 35/6/3 24/6/3 30/6/3
f 35/9/3 30/9/3 34/9/3
f 36/6/3 24/6/3 35/6/3
f 37/2/3 33/2/3 32/2/3
f 37/3/3 32/3/3 31/3/3
f 38/9/3 34/9/3 33/9/3
f 38/2/3 33/2/3 37/2/3
f 38/9/3 36/9/3 35/9/3
f 38/9/3 35/9/3 34/9/3
f 39/6/3 24/6/3 36/6/3
f 39/9/3 36/9/3 38/9/3
f 40/6/3 24/6/3 39/6/3
f 41/3/3 37/3/3 31/3/3
f 41/8/3 38/8/3 37/8/3
f 42/9/3 40/9/3 39/9/3
f 42/8/3 38/8/3 41/8/3
f 42/9/3 39/9/3 38/9/3
f 43/9/3 40/9/3 42/9/3
f 44/9/3 40/9/3 43/9/3
f 45/6/3 24/6/3 40/6/3
f 45/9/3 40/9/3 44/9/3
f 46/6/3 24/6/3 45/6/3
f 47/3/3 42/3/3 41/3/3
f 47/3/3 43/3/3 42/3/3
f 48/1/3 44/1/3 43/1/3
f 48/3/3 43/3/3 47/3/3
f 49/9/3 46/9/3 45/9/3
f 49/1/3 44/1/3 48/1/3
f 49/9/3 45/9/3 44/9/3
f 50/9/3 46/9/3 49/9/3
f 51/3/3 47/3/3 41/3/3
f 52/1/3 48/1/3 47/1/3
f 52/3/3 47/3/3 51/3/3
f 52/1/3 49/1/3 48/1/3
f 52/1/3 50/1/3 49/1/3
f 53/1/3 50/1/3 52/1/3
f 54/1/3 50/1/3 53/1/3
f 55/1/3 50/1/3 54/1/3
f 56/9/3 46/9/3 50/9/3
f 56/1/3 50/1/3 55/1/3
f 57/9/3 46/9/3 56/9/3
f 58/6/3 24/6/3 46/6/3
f 58/9/3 46/9/3 57/9/3
f 59/6/3 24/6/3 58/6/3
f 60/3/3 41/3/3 31/3/3
f 60/3/3 51/3/3 41/3/3
f 61/1/3 52/1/3 51/1/3
f 61/3/3 51/3/3 60/3/3
f 61/1/3 53/1/3 52/1/3
f 62/1/3 53/1/3 61/1/3
f 63/1/3 53/1/3 62/1/3
f 64/5/3 55/5/3 54/5/3
f 64/4/3 54/4/3 53/4/3
f 65/4/3 56/4/3 55/4/3
f 65/5/3 55/5/3 64/5/3
f 66/1/3 53/1/3 63/1/3
f 67/4/3 64/4/3 53/4/3
f 67/1/3 53/1/3 66/1/3
f 67/4/3 65/4/3 64/4/3
f 68/4/3 56/4/3 65/4/3
f 68/4/3 65/4/3 67/4/3
f 68/1/3 57/1/3 56/1/3
f 69/10/3 25/10/3 24/10/3
f 69/6/3 24/6/3 59/6/3
f 70/10/3 25/10/3 69/10/3
f 71/9/3 67/9/3 66/9/3
f 71/1/3 66/1/3 63/1/3
f 72/9/3 67/9/3 71/9/3
f 73/1/3 68/1/3 67/1/3
f 73/9/3 67/9/3 72/9/3
f 74/1/3 57/1/3 68/1/3
f 74/1/3 68/1/3 73/1/3
f 74/9/3 59/9/3 58/9/3
f 74/9/3 58/9/3 57/9/3
f 75/9/3 73/9/3 72/9/3
f 75/1/3 72/1/3 71/1/3
f 75/9/3 74/9/3 73/9/3
f 76/9/3 74/9/3 75/9/3
f 77/6/3 69/6/3 59/6/3
f 77/11/3 70/11/3 69/11/3
f 78/11/3 70/11/3 77/11/3
f 79/1/3 61/1/3 60/1/3
f 79/1/3 62/1/3 61/1/3
f 79/3/3 60/3/3 31/3/3
f 80/1/3 62/1/3 79/1/3
f 81/7/3 63/7/3 62/7/3
f 81/1/3 62/1/3 80/1/3
f 82/1/3 71/1/3 63/1/3
f 82/7/3 63/7/3 81/7/3
f 82/1/3 76/1/3 75/1/3
f 82/1/3 75/1/3 71/1/3
f 83/9/3 74/9/3 76/9/3
f 83/1/3 76/1/3 82/1/3
f 84/9/3 74/9/3 83/9/3
f 85/1/3 81/1/3 80/1/3
f 85/1/3 82/1/3 81/1/3
f 85/1/3 84/1/3 83/1/3
f 85/1/3 83/1/3 82/1/3
f 85/3/3 80/3/3 79/3/3
f 86/1/3 84/1/3 85/1/3
f 87/1/3 84/1/3 86/1/3
f 88/9/3 74/9/3 84/9/3
f 88/1/3 84/1/3 87/1/3
f 89/9/3 59/9/3 74/9/3
f 89/9/3 74/9/3 88/9/3
f 90/6/3 77/6/3 59/6/3
f 90/9/3 59/9/3 89/9/3
f 91/1/3 87/1/3 86/1/3
f 91/3/3 86/3/3 85/3/3
f 92/1/3 87/1/3 91/1/3
f 93/1/3 87/1/3 92/1/3
f 94/9/3 88/9/3 87/9/3
f 94/1/3 87/1/3 93/1/3
f 94/9/3 89/9/3 88/9/3
f 95/3/3 92/3/3 91/3/3
f 95/3/3 79/3/3 31/3/3
f 95/3/3 85/3/3 79/3/3
f 95/3/3 91/3/3 85/3/3
f 96/1/3 93/1/3 92/1/3
f 96/3/3 92/3/3 95/3/3
f 97/9/3 94/9/3 93/9/3
f 97/1/3 93/1/3 96/1/3
f 98/9/3 89/9/3 94/9/3
f 98/9/3 94/9/3 97/9/3
f 99/6/3 90/6/3 89/6/3
f 99/9/3 89/9/3 98/9/3
f 100/3/3 95/3/3 31/3/3
f 100/9/3 97/9/3 96/9/3
f 100/9/3 96/9/3 95/9/3
f 100/9/3 98/9/3 97/9/3
f 101/9/3 98/9/3 100/9/3
f 102/9/3 98/9/3 101/9/3
f 103/6/3 99/6/3 98/6/3
f 103/9/3 98/9/3 102/9/3
f 104/3/3 31/3/3 26/3/3
f 104/3/3 100/3/3 31/3/3
f 105/2/3 101/2/3 100/2/3
f 105/3/3 100/3/3 104/3/3
f 106/9/3 102/9/3 101/9/3
f 106/2/3 101/2/3 105/2/3
f 107/9/3 102/9/3 106/9/3
f 108/9/3 102/9/3 107/9/3
f 109/6/3 103/6/3 102/6/3
f 109/9/3 102/9/3 108/9/3
f 110/10/3 26/10/3 21/10/3
f 110/3/3 104/3/3 26/3/3
f 111/2/3 105/2/3 104/2/3
f 111/3/3 104/3/3 110/3/3
f 112/6/3 106/6/3 105/6/3
f 112/2/3 105/2/3 111/2/3
f 112/6/3 107/6/3 106/6/3
f 113/9/3 108/9/3 107/9/3
f 113/6/3 107/6/3 112/6/3
f 114/6/3 109/6/3 108/6/3
f 114/9/3 108/9/3 113/9/3
f 115/10/3 110/10/3 21/10/3
f 116/2/3 111/2/3 110/2/3
f 116/10/3 110/10/3 115/10/3
f 117/6/3 112/6/3 111/6/3
f 117/2/3 111/2/3 116/2/3
f 117/6/3 113/6/3 112/6/3
f 117/6/3 114/6/3 113/6/3
f 118/6/3 90/6/3 99/6/3
f 118/6/3 114/6/3 117/6/3
f 118/6/3 103/6/3 109/6/3
f 118/6/3 99/6/3 103/6/3
f 118/10/3 78/10/3 77/10/3
f 118/6/3 109/6/3 114/6/3
f 118/6/3 77/6/3 90/6/3
f 119/10/3 78/10/3 118/10/3
f 120/9/3 116/9/3 115/9/3
f 121/10/3 117/10/3 116/10/3
f 121/9/3 116/9/3 120/9/3
f 121/10/3 118/10/3 117/10/3
f 122/9/3 119/9/3 118/9/3
f 122/10/3 118/10/3 121/10/3
f 123/9/3 119/9/3 122/9/3
f 124/9/4 125/9/4 128/9/4
f 125/10/4 126/10/4 129/10/4
f 128/9/4 125/9/4 129/9/4
f 129/10/4 126/10/4 130/10/4
f 126/9/4 127/9/4 131/9/4
f 130/10/4 126/10/4 131/10/4
f 131/9/4 127/9/4 132/9/4
f 129/2/4 130/2/4 133/2/4
f 128/10/4 129/10/4 133/10/4
f 130/6/4 131/6/4 134/6/4
f 133/2/4 130/2/4 134/2/4
f 134/6/4 131/6/4 135/6/4
f 135/6/4 131/6/4 136/6/4
f 136/6/4 131/6/4 137/6/4
f 133/3/4 134/3/4 138/3/4
f 134/2/4 135/2/4 138/2/4
f 135/6/4 136/6/4 139/6/4
f 138/2/4 135/2/4 139/2/4
f 139/6/4 136/6/4 140/6/4
f 136/9/4 137/9/4 141/9/4
f 140/6/4 136/6/4 141/6/4
f 137/6/4 131/6/4 142/6/4
f 141/9/4 137/9/4 142/9/4
f 142/6/4 131/6/4 143/6/4
f 139/2/4 140/2/4 144/2/4
f 138/3/4 139/3/4 144/3/4
f 140/9/4 141/9/4 145/9/4
f 144/2/4 140/2/4 145/2/4
f 142/9/4 143/9/4 145/9/4
f 141/9/4 142/9/4 145/9/4
f 143/6/4 131/6/4 146/6/4
f 145/9/4 143/9/4 146/9/4
f 146/6/4 131/6/4 147/6/4
f 138/3/4 144/3/4 148/3/4
f 144/8/4 145/8/4 148/8/4
f 146/9/4 147/9/4 149/9/4
f 148/8/4 145/8/4 149/8/4
f 145/9/4 146/9/4 149/9/4
f 149/9/4 147/9/4 150/9/4
f 150/9/4 147/9/4 151/9/4
f 147/6/4 131/6/4 152/6/4
f 151/9/4 147/9/4 152/9/4
f 152/6/4 131/6/4 153/6/4
f 148/3/4 149/3/4 154/3/4
f 149/3/4 150/3/4 154/3/4
f 150/1/4 151/1/4 155/1/4
f 154/3/4 150/3/4 155/3/4
f 152/9/4 153/9/4 156/9/4
f 155/1/4 151/1/4 156/1/4
f 151/9/4 152/9/4 156/9/4
f 156/9/4 153/9/4 157/9/4
f 148/3/4 154/3/4 158/3/4
f 154/1/4 155/1/4 159/1/4
f 158/3/4 154/3/4 159/3/4
f 155/1/4 156/1/4 159/1/4
f 156/1/4 157/1/4 159/1/4
f 159/1/4 157/1/4 160/1/4
f 160/1/4 157/1/4 161/1/4
f 161/1/4 157/1/4 162/1/4
f 157/9/4 153/9/4 163/9/4
f 162/1/4 157/1/4 163/1/4
f 163/9/4 153/9/4 164/9/4
f 153/6/4 131/6/4 165/6/4
f 164/9/4 153/9/4 165/9/4
f 165/6/4 131/6/4 166/6/4
f 138/3/4 148/3/4 167/3/4
f 148/3/4 158/3/4 167/3/4
f 158/1/4 159/1/4 168/1/4
f 167/3/4 158/3/4 168/3/4
f 159/1/4 160/1/4 168/1/4
f 168/1/4 160/1/4 169/1/4
f 169/1/4 160/1/4 170/1/4
f 161/5/4 162/5/4 171/5/4
f 160/4/4 161/4/4 171/4/4
f 162/4/4 163/4/4 172/4/4
f 171/5/4 162/5/4 172/5/4
f 170/1/4 160/1/4 173/1/4
f 160/4/4 171/4/4 174/4/4
f 173/1/4 160/1/4 174/1/4
f 171/4/4 172/4/4 174/4/4
f 172/4/4 163/4/4 175/4/4
f 174/4/4 172/4/4 175/4/4
f 163/1/4 164/1/4 175/1/4
f 131/10/4 132/10/4 176/10/4
f 166/6/4 131/6/4 176/6/4
f 176/10/4 132/10/4 177/10/4
f 173/9/4 174/9/4 178/9/4
f 170/1/4 173/1/4 178/1/4
f 178/9/4 174/9/4 179/9/4
f 174/1/4 175/1/4 180/1/4
f 179/9/4 174/9/4 180/9/4
f 175/1/4 164/1/4 181/1/4
f 180/1/4 175/1/4 181/1/4
f 165/9/4 166/9/4 181/9/4
f 164/9/4 165/9/4 181/9/4
f 179/9/4 180/9/4 182/9/4
f 178/1/4 179/1/4 182/1/4
f 180/9/4 181/9/4 182/9/4
f 182/9/4 181/9/4 183/9/4
f 166/6/4 176/6/4 184/6/4
f 176/11/4 177/11/4 184/11/4
f 184/11/4 177/11/4 185/11/4
f 167/1/4 168/1/4 186/1/4
f 168/1/4 169/1/4 186/1/4
f 138/3/4 167/3/4 186/3/4
f 186/1/4 169/1/4 187/1/4
f 169/7/4 170/7/4 188/7/4
f 187/1/4 169/1/4 188/1/4
f 170/1/4 178/1/4 189/1/4
f 188/7/4 170/7/4 189/7/4
f 182/1/4 183/1/4 189/1/4
f 178/1/4 182/1/4 189/1/4
f 183/9/4 181/9/4 190/9/4
f 189/1/4 183/1/4 190/1/4
f 190/9/4 181/9/4 191/9/4
f 187/1/4 188/1/4 192/1/4
f 188/1/4 189/1/4 192/1/4
f 190/1/4 191/1/4 192/1/4
f 189/1/4 190/1/4 192/1/4
f 186/3/4 187/3/4 192/3/4
f 192/1/4 191/1/4 193/1/4
f 193/1/4 191/1/4 194/1/4
f 191/9/4 181/9/4 195/9/4
f 194/1/4 191/1/4 195/1/4
f 181/9/4 166/9/4 196/9/4
f 195/9/4 181/9/4 196/9/4
f 166/6/4 184/6/4 197/6/4
f 196/9/4 166/9/4 197/9/4
f 193/1/4 194/1/4 198/1/4
f 192/3/4 193/3/4 198/3/4
f 198/1/4 194/1/4 199/1/4
f 199/1/4 194/1/4 200/1/4
f 194/9/4 195/9/4 201/9/4
f 200/1/4 194/1/4 201/1/4
f 195/9/4 196/9/4 201/9/4
f 198/3/4 199/3/4 202/3/4
f 138/3/4 186/3/4 202/3/4
f 186/3/4 192/3/4 202/3/4
f 192/3/4 198/3/4 202/3/4
f 199/1/4 200/1/4 203/1/4
f 202/3/4 199/3/4 203/3/4
f 200/9/4 201/9/4 204/9/4
f 203/1/4 200/1/4 204/1/4
f 201/9/4 196/9/4 205/9/4
f 204/9/4 201/9/4 205/9/4
f 196/6/4 197/6/4 206/6/4
f 205/9/4 196/9/4 206/9/4
f 138/3/4 202/3/4 207/3/4
f 203/9/4 204/9/4 207/9/4
f 202/9/4 203/9/4 207/9/4
f 204/9/4 205/9/4 207/9/4
f 207/9/4 205/9/4 208/9/4
f 208/9/4 205/9/4 209/9/4
f 205/6/4 206/6/4 210/6/4
f 209/9/4 205/9/4 210/9/4
f 133/3/4 138/3/4 211/3/4
f 138/3/4 207/3/4 211/3/4
f 207/2/4 208/2/4 212/2/4
f 211/3/4 207/3/4 212/3/4
f 208/9/4 209/9/4 213/9/4
f 212/2/4 208/2/4 213/2/4
f 213/9/4 209/9/4 214/9/4
f 214/9/4 209/9/4 215/9/4
f 209/6/4 210/6/4 216/6/4
f 215/9/4 209/9/4 216/9/4
f 128/10/4 133/10/4 217/10/4
f 133/3/4 211/3/4 217/3/4
f 211/2/4 212/2/4 218/2/4
f 217/3/4 211/3/4 218/3/4
f 212/6/4 213/6/4 219/6/4
f 218/2/4 212/2/4 219/2/4
f 213/6/4 214/6/4 219/6/4
f 214/9/4 215/9/4 220/9/4
f 219/6/4 214/6/4 220/6/4
f 215/6/4 216/6/4 221/6/4
f 220/9/4 215/9/4 221/9/4
f 128/10/4 217/10/4 222/10/4
f 217/2/4 218/2/4 223/2/4
f 222/10/4 217/10/4 223/10/4
f 218/6/4 219/6/4 224/6/4
f 223/2/4 218/2/4 224/2/4
f 219/6/4 220/6/4 224/6/4
f 220/6/4 221/6/4 224/6/4
f 206/6/4 197/6/4 225/6/4
f 224/6/4 221/6/4 225/6/4
f 216/6/4 210/6/4 225/6/4
f 210/6/4 206/6/4 225/6/4
f 184/10/4 185/10/4 225/10/4
f 221/6/4 216/6/4 225/6/4
f 197/6/4 184/6/4 225/6/4
f 225/10/4 185/10/4 226/10/4
f 222/9/4 223/9/4 227/9/4
f 223/10/4 224/10/4 228/10/4
f 227/9/4 223/9/4 228/9/4
f 224/10/4 225/10/4 228/10/4
f 225/9/4 226/9/4 229/9/4
f 228/10/4 225/10/4 229/10/4
f 229/9/4 226/9/4 230/9/4
f 235/9/5 232/9/5 231/9/5
f 236/10/5 233/10/5 232/10/5
f 236/9/5 232/9/5 235/9/5
f 237/9/5 234/9/5 233/9/5
f 237/10/5 233/10/5 236/10/5
f 238/9/5 234/9/5 237/9/5
f 239/9/6 240/9/6 245/9/6
f 240/10/6 241/10/6 246/10/6
f 245/9/6 240/9/6 246/9/6
f 241/11/6 242/11/6 247/11/6
f 246/10/6 241/10/6 247/10/6
f 242/10/6 243/10/6 248/10/6
f 247/11/6 242/11/6 248/11/6
f 243/9/6 244/9/6 249/9/6
f 248/10/6 243/10/6 249/10/6
f 249/9/6 244/9/6 250/9/6
