# MagicaVoxel @ Ephtracy

# group
o 

# material
mtllib portrait3.mtl
usemtl palette

# normals
vn -1 0 0
vn 1 0 0
vn 0 0 1
vn 0 0 -1
vn 0 -1 0
vn 0 1 0

# texcoords
vt 0.00585938 0.5
vt 0.00976562 0.5
vt 0.0136719 0.5
vt 0.271484 0.5
vt 0.283203 0.5
vt 0.287109 0.5
vt 0.291016 0.5
vt 0.294922 0.5
vt 0.498047 0.5
vt 0.669922 0.5
vt 0.677734 0.5
vt 0.681641 0.5

# verts
v -1 0 0
v -1 0 -0.1
v -1 0.1 0
v -1 0.1 -0.1
v -1 1.9 0
v -1 1.9 -0.1
v -1 2 0
v -1 2 -0.1
v 1 0 0
v 1 0 -0.1
v 1 0.1 0
v 1 0.1 -0.1
v 1 1.9 0
v 1 1.9 -0.1
v 1 2 0
v 1 2 -0.1
v -1 0 0
v -1 0.1 0
v -1 1.9 0
v -1 2 0
v -0.9 0 0
v -0.9 0.1 0
v -0.9 1.9 0
v -0.9 2 0
v -0.8 0.1 0
v -0.8 0.2 0
v -0.8 0.3 0
v -0.7 0.2 0
v -0.7 0.3 0
v -0.7 0.4 0
v -0.7 0.8 0
v -0.7 1.1 0
v -0.7 1.3 0
v -0.6 0.3 0
v -0.6 0.4 0
v -0.6 0.5 0
v -0.6 0.6 0
v -0.6 0.8 0
v -0.6 1 0
v -0.6 1.1 0
v -0.6 1.3 0
v -0.6 1.5 0
v -0.5 0.4 0
v -0.5 0.5 0
v -0.5 0.6 0
v -0.5 1 0
v -0.5 1.2 0
v -0.5 1.5 0
v -0.5 1.6 0
v -0.4 0.4 0
v -0.4 0.5 0
v -0.4 1.2 0
v -0.4 1.4 0
v -0.4 1.6 0
v -0.4 1.7 0
v -0.3 0.3 0
v -0.3 0.4 0
v -0.3 1 0
v -0.3 1.2 0
v -0.3 1.3 0
v -0.2 0.1 0
v -0.2 0.2 0
v -0.2 0.5 0
v -0.2 0.7 0
v -0.2 1.2 0
v -0.2 1.3 0
v -0.2 1.7 0
v -0.2 1.8 0
v -0.1 0.2 0
v -0.1 0.3 0
v -0.1 1 0
v -0.1 1.3 0
v -0.1 1.9 0
v -0.1 2 0
v 0.1 0.2 0
v 0.1 0.3 0
v 0.1 1 0
v 0.1 1.2 0
v 0.1 1.3 0
v 0.1 1.9 0
v 0.1 2 0
v 0.2 0.1 0
v 0.2 0.2 0
v 0.2 0.5 0
v 0.2 0.7 0
v 0.2 1.2 0
v 0.2 1.3 0
v 0.2 1.7 0
v 0.2 1.8 0
v 0.3 0.3 0
v 0.3 0.4 0
v 0.3 1 0
v 0.3 1.3 0
v 0.4 0.4 0
v 0.4 0.5 0
v 0.4 1.2 0
v 0.4 1.4 0
v 0.4 1.6 0
v 0.4 1.7 0
v 0.5 0.4 0
v 0.5 0.5 0
v 0.5 0.6 0
v 0.5 1 0
v 0.5 1.2 0
v 0.5 1.5 0
v 0.5 1.6 0
v 0.6 0.3 0
v 0.6 0.4 0
v 0.6 0.5 0
v 0.6 0.6 0
v 0.6 0.8 0
v 0.6 1 0
v 0.6 1.1 0
v 0.6 1.3 0
v 0.6 1.5 0
v 0.7 0.2 0
v 0.7 0.3 0
v 0.7 0.4 0
v 0.7 0.8 0
v 0.7 1.1 0
v 0.7 1.3 0
v 0.8 0.1 0
v 0.8 0.2 0
v 0.8 0.3 0
v 0.9 0 0
v 0.9 0.1 0
v 0.9 1.9 0
v 0.9 2 0
v 1 0 0
v 1 0.1 0
v 1 1.9 0
v 1 2 0
v -1 0 -0.1
v -1 0.1 -0.1
v -1 1.9 -0.1
v -1 2 -0.1
v -0.9 0 -0.1
v -0.9 0.1 -0.1
v -0.9 1.9 -0.1
v -0.9 2 -0.1
v -0.8 0.1 -0.1
v -0.8 0.2 -0.1
v -0.8 0.3 -0.1
v -0.7 0.2 -0.1
v -0.7 0.3 -0.1
v -0.7 0.4 -0.1
v -0.7 0.8 -0.1
v -0.7 1.1 -0.1
v -0.7 1.3 -0.1
v -0.6 0.3 -0.1
v -0.6 0.4 -0.1
v -0.6 0.5 -0.1
v -0.6 0.6 -0.1
v -0.6 0.8 -0.1
v -0.6 1 -0.1
v -0.6 1.1 -0.1
v -0.6 1.3 -0.1
v -0.6 1.5 -0.1
v -0.5 0.4 -0.1
v -0.5 0.5 -0.1
v -0.5 0.6 -0.1
v -0.5 1 -0.1
v -0.5 1.2 -0.1
v -0.5 1.5 -0.1
v -0.5 1.6 -0.1
v -0.4 0.4 -0.1
v -0.4 0.5 -0.1
v -0.4 1.2 -0.1
v -0.4 1.4 -0.1
v -0.4 1.6 -0.1
v -0.4 1.7 -0.1
v -0.3 0.3 -0.1
v -0.3 0.4 -0.1
v -0.3 1 -0.1
v -0.3 1.2 -0.1
v -0.3 1.3 -0.1
v -0.2 0.1 -0.1
v -0.2 0.2 -0.1
v -0.2 0.5 -0.1
v -0.2 0.7 -0.1
v -0.2 1.2 -0.1
v -0.2 1.3 -0.1
v -0.2 1.7 -0.1
v -0.2 1.8 -0.1
v -0.1 0.2 -0.1
v -0.1 0.3 -0.1
v -0.1 1 -0.1
v -0.1 1.3 -0.1
v -0.1 1.9 -0.1
v -0.1 2 -0.1
v 0.1 0.2 -0.1
v 0.1 0.3 -0.1
v 0.1 1 -0.1
v 0.1 1.2 -0.1
v 0.1 1.3 -0.1
v 0.1 1.9 -0.1
v 0.1 2 -0.1
v 0.2 0.1 -0.1
v 0.2 0.2 -0.1
v 0.2 0.5 -0.1
v 0.2 0.7 -0.1
v 0.2 1.2 -0.1
v 0.2 1.3 -0.1
v 0.2 1.7 -0.1
v 0.2 1.8 -0.1
v 0.3 0.3 -0.1
v 0.3 0.4 -0.1
v 0.3 1 -0.1
v 0.3 1.3 -0.1
v 0.4 0.4 -0.1
v 0.4 0.5 -0.1
v 0.4 1.2 -0.1
v 0.4 1.4 -0.1
v 0.4 1.6 -0.1
v 0.4 1.7 -0.1
v 0.5 0.4 -0.1
v 0.5 0.5 -0.1
v 0.5 0.6 -0.1
v 0.5 1 -0.1
v 0.5 1.2 -0.1
v 0.5 1.5 -0.1
v 0.5 1.6 -0.1
v 0.6 0.3 -0.1
v 0.6 0.4 -0.1
v 0.6 0.5 -0.1
v 0.6 0.6 -0.1
v 0.6 0.8 -0.1
v 0.6 1 -0.1
v 0.6 1.1 -0.1
v 0.6 1.3 -0.1
v 0.6 1.5 -0.1
v 0.7 0.2 -0.1
v 0.7 0.3 -0.1
v 0.7 0.4 -0.1
v 0.7 0.8 -0.1
v 0.7 1.1 -0.1
v 0.7 1.3 -0.1
v 0.8 0.1 -0.1
v 0.8 0.2 -0.1
v 0.8 0.3 -0.1
v 0.9 0 -0.1
v 0.9 0.1 -0.1
v 0.9 1.9 -0.1
v 0.9 2 -0.1
v 1 0 -0.1
v 1 0.1 -0.1
v 1 1.9 -0.1
v 1 2 -0.1
v -1 0 0
v -0.9 0 0
v 0.9 0 0
v 1 0 0
v -1 0 -0.1
v -0.9 0 -0.1
v 0.9 0 -0.1
v 1 0 -0.1
v -1 2 0
v -0.9 2 0
v -0.1 2 0
v 0.1 2 0
v 0.9 2 0
v 1 2 0
v -1 2 -0.1
v -0.9 2 -0.1
v -0.1 2 -0.1
v 0.1 2 -0.1
v 0.9 2 -0.1
v 1 2 -0.1

# faces
f 3/10/1 2/10/1 1/10/1
f 4/10/1 2/10/1 3/10/1
f 5/11/1 4/11/1 3/11/1
f 6/11/1 4/11/1 5/11/1
f 7/10/1 6/10/1 5/10/1
f 8/10/1 6/10/1 7/10/1
f 9/10/2 10/10/2 11/10/2
f 11/10/2 10/10/2 12/10/2
f 11/11/2 12/11/2 13/11/2
f 13/11/2 12/11/2 14/11/2
f 13/10/2 14/10/2 15/10/2
f 15/10/2 14/10/2 16/10/2
f 21/10/3 18/10/3 17/10/3
f 22/11/3 19/11/3 18/11/3
f 22/10/3 18/10/3 21/10/3
f 23/10/3 20/10/3 19/10/3
f 23/11/3 19/11/3 22/11/3
f 24/10/3 20/10/3 23/10/3
f 25/11/3 22/11/3 21/11/3
f 25/4/3 23/4/3 22/4/3
f 26/4/3 23/4/3 25/4/3
f 27/4/3 23/4/3 26/4/3
f 28/6/3 26/6/3 25/6/3
f 28/5/3 27/5/3 26/5/3
f 29/4/3 23/4/3 27/4/3
f 29/5/3 27/5/3 28/5/3
f 30/4/3 23/4/3 29/4/3
f 31/4/3 23/4/3 30/4/3
f 32/4/3 23/4/3 31/4/3
f 33/4/3 23/4/3 32/4/3
f 34/6/3 29/6/3 28/6/3
f 34/5/3 30/5/3 29/5/3
f 35/4/3 31/4/3 30/4/3
f 35/5/3 30/5/3 34/5/3
f 36/4/3 31/4/3 35/4/3
f 37/4/3 31/4/3 36/4/3
f 38/9/3 32/9/3 31/9/3
f 38/4/3 31/4/3 37/4/3
f 39/9/3 32/9/3 38/9/3
f 40/1/3 33/1/3 32/1/3
f 40/9/3 32/9/3 39/9/3
f 41/4/3 23/4/3 33/4/3
f 41/1/3 33/1/3 40/1/3
f 42/4/3 23/4/3 41/4/3
f 43/6/3 35/6/3 34/6/3
f 43/5/3 36/5/3 35/5/3
f 44/4/3 37/4/3 36/4/3
f 44/5/3 36/5/3 43/5/3
f 45/9/3 39/9/3 38/9/3
f 45/4/3 37/4/3 44/4/3
f 45/9/3 38/9/3 37/9/3
f 46/1/3 40/1/3 39/1/3
f 46/9/3 39/9/3 45/9/3
f 46/1/3 42/1/3 41/1/3
f 46/1/3 41/1/3 40/1/3
f 47/1/3 42/1/3 46/1/3
f 48/4/3 23/4/3 42/4/3
f 48/1/3 42/1/3 47/1/3
f 49/4/3 23/4/3 48/4/3
f 50/6/3 44/6/3 43/6/3
f 50/6/3 43/6/3 34/6/3
f 51/9/3 45/9/3 44/9/3
f 51/6/3 44/6/3 50/6/3
f 51/9/3 47/9/3 46/9/3
f 51/9/3 46/9/3 45/9/3
f 52/1/3 49/1/3 48/1/3
f 52/9/3 47/9/3 51/9/3
f 52/1/3 48/1/3 47/1/3
f 53/1/3 49/1/3 52/1/3
f 54/4/3 23/4/3 49/4/3
f 54/1/3 49/1/3 53/1/3
f 55/4/3 23/4/3 54/4/3
f 56/6/3 50/6/3 34/6/3
f 56/6/3 34/6/3 28/6/3
f 57/9/3 53/9/3 52/9/3
f 57/6/3 50/6/3 56/6/3
f 57/9/3 51/9/3 50/9/3
f 57/9/3 52/9/3 51/9/3
f 58/9/3 53/9/3 57/9/3
f 59/9/3 53/9/3 58/9/3
f 60/9/3 53/9/3 59/9/3
f 61/11/3 25/11/3 21/11/3
f 61/6/3 28/6/3 25/6/3
f 61/6/3 56/6/3 28/6/3
f 62/6/3 56/6/3 61/6/3
f 63/9/3 57/9/3 56/9/3
f 63/9/3 58/9/3 57/9/3
f 64/9/3 58/9/3 63/9/3
f 65/2/3 60/2/3 59/2/3
f 65/3/3 59/3/3 58/3/3
f 66/9/3 53/9/3 60/9/3
f 66/2/3 60/2/3 65/2/3
f 67/4/3 23/4/3 55/4/3
f 67/1/3 55/1/3 54/1/3
f 67/1/3 54/1/3 53/1/3
f 68/4/3 23/4/3 67/4/3
f 69/6/3 56/6/3 62/6/3
f 69/7/3 62/7/3 61/7/3
f 70/9/3 63/9/3 56/9/3
f 70/6/3 56/6/3 69/6/3
f 71/3/3 65/3/3 58/3/3
f 71/9/3 58/9/3 64/9/3
f 71/3/3 66/3/3 65/3/3
f 72/9/3 53/9/3 66/9/3
f 72/3/3 66/3/3 71/3/3
f 73/11/3 24/11/3 23/11/3
f 73/4/3 23/4/3 68/4/3
f 74/11/3 24/11/3 73/11/3
f 75/7/3 70/7/3 69/7/3
f 75/7/3 69/7/3 61/7/3
f 76/9/3 63/9/3 70/9/3
f 76/7/3 70/7/3 75/7/3
f 77/9/3 71/9/3 64/9/3
f 77/9/3 72/9/3 71/9/3
f 78/9/3 72/9/3 77/9/3
f 79/9/3 53/9/3 72/9/3
f 79/9/3 72/9/3 78/9/3
f 80/12/3 74/12/3 73/12/3
f 80/4/3 73/4/3 68/4/3
f 81/12/3 74/12/3 80/12/3
f 82/7/3 75/7/3 61/7/3
f 82/11/3 61/11/3 21/11/3
f 83/6/3 76/6/3 75/6/3
f 83/7/3 75/7/3 82/7/3
f 84/9/3 63/9/3 76/9/3
f 84/8/3 64/8/3 63/8/3
f 85/9/3 77/9/3 64/9/3
f 85/8/3 64/8/3 84/8/3
f 86/3/3 78/3/3 77/3/3
f 86/2/3 79/2/3 78/2/3
f 87/9/3 53/9/3 79/9/3
f 87/2/3 79/2/3 86/2/3
f 88/1/3 67/1/3 53/1/3
f 88/1/3 68/1/3 67/1/3
f 89/4/3 80/4/3 68/4/3
f 89/1/3 68/1/3 88/1/3
f 90/6/3 76/6/3 83/6/3
f 90/6/3 83/6/3 82/6/3
f 90/9/3 85/9/3 84/9/3
f 90/9/3 84/9/3 76/9/3
f 91/9/3 85/9/3 90/9/3
f 92/9/3 77/9/3 85/9/3
f 92/9/3 85/9/3 91/9/3
f 92/3/3 86/3/3 77/3/3
f 92/3/3 87/3/3 86/3/3
f 93/9/3 53/9/3 87/9/3
f 93/3/3 87/3/3 92/3/3
f 94/6/3 91/6/3 90/6/3
f 94/9/3 92/9/3 91/9/3
f 94/9/3 93/9/3 92/9/3
f 95/9/3 93/9/3 94/9/3
f 96/9/3 93/9/3 95/9/3
f 97/9/3 53/9/3 93/9/3
f 97/9/3 93/9/3 96/9/3
f 97/1/3 88/1/3 53/1/3
f 98/1/3 88/1/3 97/1/3
f 99/4/3 89/4/3 88/4/3
f 99/1/3 88/1/3 98/1/3
f 100/6/3 95/6/3 94/6/3
f 100/6/3 94/6/3 90/6/3
f 101/9/3 96/9/3 95/9/3
f 101/6/3 95/6/3 100/6/3
f 102/9/3 96/9/3 101/9/3
f 103/9/3 96/9/3 102/9/3
f 104/1/3 98/1/3 97/1/3
f 104/9/3 96/9/3 103/9/3
f 104/1/3 97/1/3 96/1/3
f 105/1/3 98/1/3 104/1/3
f 106/4/3 99/4/3 98/4/3
f 106/1/3 98/1/3 105/1/3
f 107/6/3 100/6/3 90/6/3
f 107/6/3 90/6/3 82/6/3
f 108/5/3 101/5/3 100/5/3
f 108/6/3 100/6/3 107/6/3
f 109/4/3 102/4/3 101/4/3
f 109/5/3 101/5/3 108/5/3
f 110/9/3 103/9/3 102/9/3
f 110/4/3 102/4/3 109/4/3
f 111/9/3 103/9/3 110/9/3
f 112/1/3 105/1/3 104/1/3
f 112/9/3 103/9/3 111/9/3
f 112/1/3 104/1/3 103/1/3
f 113/1/3 105/1/3 112/1/3
f 114/1/3 105/1/3 113/1/3
f 115/4/3 106/4/3 105/4/3
f 115/1/3 105/1/3 114/1/3
f 116/6/3 107/6/3 82/6/3
f 117/5/3 108/5/3 107/5/3
f 117/6/3 107/6/3 116/6/3
f 118/4/3 109/4/3 108/4/3
f 118/5/3 108/5/3 117/5/3
f 118/4/3 111/4/3 110/4/3
f 118/4/3 110/4/3 109/4/3
f 119/9/3 113/9/3 112/9/3
f 119/4/3 111/4/3 118/4/3
f 119/9/3 112/9/3 111/9/3
f 120/1/3 114/1/3 113/1/3
f 120/9/3 113/9/3 119/9/3
f 121/4/3 115/4/3 114/4/3
f 121/1/3 114/1/3 120/1/3
f 122/11/3 82/11/3 21/11/3
f 122/6/3 116/6/3 82/6/3
f 123/5/3 117/5/3 116/5/3
f 123/6/3 116/6/3 122/6/3
f 124/4/3 119/4/3 118/4/3
f 124/5/3 117/5/3 123/5/3
f 124/4/3 120/4/3 119/4/3
f 124/4/3 118/4/3 117/4/3
f 124/4/3 121/4/3 120/4/3
f 125/11/3 122/11/3 21/11/3
f 126/4/3 123/4/3 122/4/3
f 126/11/3 122/11/3 125/11/3
f 126/4/3 124/4/3 123/4/3
f 127/4/3 99/4/3 106/4/3
f 127/4/3 124/4/3 126/4/3
f 127/4/3 80/4/3 89/4/3
f 127/4/3 106/4/3 115/4/3
f 127/4/3 89/4/3 99/4/3
f 127/4/3 115/4/3 121/4/3
f 127/4/3 121/4/3 124/4/3
f 127/11/3 81/11/3 80/11/3
f 128/11/3 81/11/3 127/11/3
f 129/10/3 126/10/3 125/10/3
f 130/11/3 127/11/3 126/11/3
f 130/10/3 126/10/3 129/10/3
f 131/10/3 128/10/3 127/10/3
f 131/11/3 127/11/3 130/11/3
f 132/10/3 128/10/3 131/10/3
f 133/10/4 134/10/4 137/10/4
f 134/11/4 135/11/4 138/11/4
f 137/10/4 134/10/4 138/10/4
f 135/10/4 136/10/4 139/10/4
f 138/11/4 135/11/4 139/11/4
f 139/10/4 136/10/4 140/10/4
f 137/11/4 138/11/4 141/11/4
f 138/4/4 139/4/4 141/4/4
f 141/4/4 139/4/4 142/4/4
f 142/4/4 139/4/4 143/4/4
f 141/6/4 142/6/4 144/6/4
f 142/5/4 143/5/4 144/5/4
f 143/4/4 139/4/4 145/4/4
f 144/5/4 143/5/4 145/5/4
f 145/4/4 139/4/4 146/4/4
f 146/4/4 139/4/4 147/4/4
f 147/4/4 139/4/4 148/4/4
f 148/4/4 139/4/4 149/4/4
f 144/6/4 145/6/4 150/6/4
f 145/5/4 146/5/4 150/5/4
f 146/4/4 147/4/4 151/4/4
f 150/5/4 146/5/4 151/5/4
f 151/4/4 147/4/4 152/4/4
f 152/4/4 147/4/4 153/4/4
f 147/9/4 148/9/4 154/9/4
f 153/4/4 147/4/4 154/4/4
f 154/9/4 148/9/4 155/9/4
f 148/1/4 149/1/4 156/1/4
f 155/9/4 148/9/4 156/9/4
f 149/4/4 139/4/4 157/4/4
f 156/1/4 149/1/4 157/1/4
f 157/4/4 139/4/4 158/4/4
f 150/6/4 151/6/4 159/6/4
f 151/5/4 152/5/4 159/5/4
f 152/4/4 153/4/4 160/4/4
f 159/5/4 152/5/4 160/5/4
f 154/9/4 155/9/4 161/9/4
f 160/4/4 153/4/4 161/4/4
f 153/9/4 154/9/4 161/9/4
f 155/1/4 156/1/4 162/1/4
f 161/9/4 155/9/4 162/9/4
f 157/1/4 158/1/4 162/1/4
f 156/1/4 157/1/4 162/1/4
f 162/1/4 158/1/4 163/1/4
f 158/4/4 139/4/4 164/4/4
f 163/1/4 158/1/4 164/1/4
f 164/4/4 139/4/4 165/4/4
f 159/6/4 160/6/4 166/6/4
f 150/6/4 159/6/4 166/6/4
f 160/9/4 161/9/4 167/9/4
f 166/6/4 160/6/4 167/6/4
f 162/9/4 163/9/4 167/9/4
f 161/9/4 162/9/4 167/9/4
f 164/1/4 165/1/4 168/1/4
f 167/9/4 163/9/4 168/9/4
f 163/1/4 164/1/4 168/1/4
f 168/1/4 165/1/4 169/1/4
f 165/4/4 139/4/4 170/4/4
f 169/1/4 165/1/4 170/1/4
f 170/4/4 139/4/4 171/4/4
f 150/6/4 166/6/4 172/6/4
f 144/6/4 150/6/4 172/6/4
f 168/9/4 169/9/4 173/9/4
f 172/6/4 166/6/4 173/6/4
f 166/9/4 167/9/4 173/9/4
f 167/9/4 168/9/4 173/9/4
f 173/9/4 169/9/4 174/9/4
f 174/9/4 169/9/4 175/9/4
f 175/9/4 169/9/4 176/9/4
f 137/11/4 141/11/4 177/11/4
f 141/6/4 144/6/4 177/6/4
f 144/6/4 172/6/4 177/6/4
f 177/6/4 172/6/4 178/6/4
f 172/9/4 173/9/4 179/9/4
f 173/9/4 174/9/4 179/9/4
f 179/9/4 174/9/4 180/9/4
f 175/2/4 176/2/4 181/2/4
f 174/3/4 175/3/4 181/3/4
f 176/9/4 169/9/4 182/9/4
f 181/2/4 176/2/4 182/2/4
f 171/4/4 139/4/4 183/4/4
f 170/1/4 171/1/4 183/1/4
f 169/1/4 170/1/4 183/1/4
f 183/4/4 139/4/4 184/4/4
f 178/6/4 172/6/4 185/6/4
f 177/7/4 178/7/4 185/7/4
f 172/9/4 179/9/4 186/9/4
f 185/6/4 172/6/4 186/6/4
f 174/3/4 181/3/4 187/3/4
f 180/9/4 174/9/4 187/9/4
f 181/3/4 182/3/4 187/3/4
f 182/9/4 169/9/4 188/9/4
f 187/3/4 182/3/4 188/3/4
f 139/11/4 140/11/4 189/11/4
f 184/4/4 139/4/4 189/4/4
f 189/11/4 140/11/4 190/11/4
f 185/7/4 186/7/4 191/7/4
f 177/7/4 185/7/4 191/7/4
f 186/9/4 179/9/4 192/9/4
f 191/7/4 186/7/4 192/7/4
f 180/9/4 187/9/4 193/9/4
f 187/9/4 188/9/4 193/9/4
f 193/9/4 188/9/4 194/9/4
f 188/9/4 169/9/4 195/9/4
f 194/9/4 188/9/4 195/9/4
f 189/12/4 190/12/4 196/12/4
f 184/4/4 189/4/4 196/4/4
f 196/12/4 190/12/4 197/12/4
f 177/7/4 191/7/4 198/7/4
f 137/11/4 177/11/4 198/11/4
f 191/6/4 192/6/4 199/6/4
f 198/7/4 191/7/4 199/7/4
f 192/9/4 179/9/4 200/9/4
f 179/8/4 180/8/4 200/8/4
f 180/9/4 193/9/4 201/9/4
f 200/8/4 180/8/4 201/8/4
f 193/3/4 194/3/4 202/3/4
f 194/2/4 195/2/4 202/2/4
f 195/9/4 169/9/4 203/9/4
f 202/2/4 195/2/4 203/2/4
f 169/1/4 183/1/4 204/1/4
f 183/1/4 184/1/4 204/1/4
f 184/4/4 196/4/4 205/4/4
f 204/1/4 184/1/4 205/1/4
f 199/6/4 192/6/4 206/6/4
f 198/6/4 199/6/4 206/6/4
f 200/9/4 201/9/4 206/9/4
f 192/9/4 200/9/4 206/9/4
f 206/9/4 201/9/4 207/9/4
f 201/9/4 193/9/4 208/9/4
f 207/9/4 201/9/4 208/9/4
f 193/3/4 202/3/4 208/3/4
f 202/3/4 203/3/4 208/3/4
f 203/9/4 169/9/4 209/9/4
f 208/3/4 203/3/4 209/3/4
f 206/6/4 207/6/4 210/6/4
f 207/9/4 208/9/4 210/9/4
f 208/9/4 209/9/4 210/9/4
f 210/9/4 209/9/4 211/9/4
f 211/9/4 209/9/4 212/9/4
f 209/9/4 169/9/4 213/9/4
f 212/9/4 209/9/4 213/9/4
f 169/1/4 204/1/4 213/1/4
f 213/1/4 204/1/4 214/1/4
f 204/4/4 205/4/4 215/4/4
f 214/1/4 204/1/4 215/1/4
f 210/6/4 211/6/4 216/6/4
f 206/6/4 210/6/4 216/6/4
f 211/9/4 212/9/4 217/9/4
f 216/6/4 211/6/4 217/6/4
f 217/9/4 212/9/4 218/9/4
f 218/9/4 212/9/4 219/9/4
f 213/1/4 214/1/4 220/1/4
f 219/9/4 212/9/4 220/9/4
f 212/1/4 213/1/4 220/1/4
f 220/1/4 214/1/4 221/1/4
f 214/4/4 215/4/4 222/4/4
f 221/1/4 214/1/4 222/1/4
f 206/6/4 216/6/4 223/6/4
f 198/6/4 206/6/4 223/6/4
f 216/5/4 217/5/4 224/5/4
f 223/6/4 216/6/4 224/6/4
f 217/4/4 218/4/4 225/4/4
f 224/5/4 217/5/4 225/5/4
f 218/9/4 219/9/4 226/9/4
f 225/4/4 218/4/4 226/4/4
f 226/9/4 219/9/4 227/9/4
f 220/1/4 221/1/4 228/1/4
f 227/9/4 219/9/4 228/9/4
f 219/1/4 220/1/4 228/1/4
f 228/1/4 221/1/4 229/1/4
f 229/1/4 221/1/4 230/1/4
f 221/4/4 222/4/4 231/4/4
f 230/1/4 221/1/4 231/1/4
f 198/6/4 223/6/4 232/6/4
f 223/5/4 224/5/4 233/5/4
f 232/6/4 223/6/4 233/6/4
f 224/4/4 225/4/4 234/4/4
f 233/5/4 224/5/4 234/5/4
f 226/4/4 227/4/4 234/4/4
f 225/4/4 226/4/4 234/4/4
f 228/9/4 229/9/4 235/9/4
f 234/4/4 227/4/4 235/4/4
f 227/9/4 228/9/4 235/9/4
f 229/1/4 230/1/4 236/1/4
f 235/9/4 229/9/4 236/9/4
f 230/4/4 231/4/4 237/4/4
f 236/1/4 230/1/4 237/1/4
f 137/11/4 198/11/4 238/11/4
f 198/6/4 232/6/4 238/6/4
f 232/5/4 233/5/4 239/5/4
f 238/6/4 232/6/4 239/6/4
f 234/4/4 235/4/4 240/4/4
f 239/5/4 233/5/4 240/5/4
f 235/4/4 236/4/4 240/4/4
f 233/4/4 234/4/4 240/4/4
f 236/4/4 237/4/4 240/4/4
f 137/11/4 238/11/4 241/11/4
f 238/4/4 239/4/4 242/4/4
f 241/11/4 238/11/4 242/11/4
f 239/4/4 240/4/4 242/4/4
f 222/4/4 215/4/4 243/4/4
f 242/4/4 240/4/4 243/4/4
f 205/4/4 196/4/4 243/4/4
f 231/4/4 222/4/4 243/4/4
f 215/4/4 205/4/4 243/4/4
f 237/4/4 231/4/4 243/4/4
f 240/4/4 237/4/4 243/4/4
f 196/11/4 197/11/4 243/11/4
f 243/11/4 197/11/4 244/11/4
f 241/10/4 242/10/4 245/10/4
f 242/11/4 243/11/4 246/11/4
f 245/10/4 242/10/4 246/10/4
f 243/10/4 244/10/4 247/10/4
f 246/11/4 243/11/4 247/11/4
f 247/10/4 244/10/4 248/10/4
f 253/10/5 250/10/5 249/10/5
f 254/11/5 251/11/5 250/11/5
f 254/10/5 250/10/5 253/10/5
f 255/10/5 252/10/5 251/10/5
f 255/11/5 251/11/5 254/11/5
f 256/10/5 252/10/5 255/10/5
f 257/10/6 258/10/6 263/10/6
f 258/11/6 259/11/6 264/11/6
f 263/10/6 258/10/6 264/10/6
f 259/12/6 260/12/6 265/12/6
f 264/11/6 259/11/6 265/11/6
f 260/11/6 261/11/6 266/11/6
f 265/12/6 260/12/6 266/12/6
f 261/10/6 262/10/6 267/10/6
f 266/11/6 261/11/6 267/11/6
f 267/10/6 262/10/6 268/10/6
