# MagicaVoxel @ Ephtracy

# group
o 

# material
mtllib door-lab-left.mtl
usemtl palette

# normals
vn -1 0 0
vn 1 0 0
vn 0 0 1
vn 0 0 -1
vn 0 -1 0
vn 0 1 0

# texcoords
vt 0.00976562 0.5
vt 0.0253906 0.5
vt 0.150391 0.5
vt 0.181641 0.5
vt 0.337891 0.5

# verts
v -1 0 0.1
v -1 0 0
v -1 0 -0.1
v -1 0 -0.2
v -1 0.1 0
v -1 0.1 -0.1
v -1 5.9 0
v -1 5.9 -0.1
v -1 6 0.1
v -1 6 -0.2
v 0.8 1.6 0.1
v 0.8 1.6 0
v 0.8 1.6 -0.1
v 0.8 1.6 -0.2
v 0.8 4.2 0.1
v 0.8 4.2 0
v 0.8 4.2 -0.1
v 0.8 4.2 -0.2
v 0.7 1.6 0.1
v 0.7 1.6 0
v 0.7 1.6 -0.1
v 0.7 1.6 -0.2
v 0.7 4.2 0.1
v 0.7 4.2 0
v 0.7 4.2 -0.1
v 0.7 4.2 -0.2
v 1 0 0.1
v 1 0 0
v 1 0 -0.1
v 1 0 -0.2
v 1 0.1 0
v 1 0.1 -0.1
v 1 5.7 0.1
v 1 5.7 0
v 1 5.7 -0.1
v 1 5.7 -0.2
v 1 5.8 0.1
v 1 5.8 0
v 1 5.8 -0.1
v 1 5.8 -0.2
v 1 5.9 0
v 1 5.9 -0.1
v 1 6 0.1
v 1 6 -0.2
v -1 0 0.1
v -1 6 0.1
v -0.8 5.7 0.1
v -0.8 5.8 0.1
v 0.7 1.6 0.1
v 0.7 4.2 0.1
v 0.8 1.6 0.1
v 0.8 4.2 0.1
v 0.9 1.6 0.1
v 0.9 4.2 0.1
v 1 0 0.1
v 1 5.7 0.1
v 1 5.8 0.1
v 1 6 0.1
v 0.7 1.6 0
v 0.7 4.2 0
v 0.8 1.6 0
v 0.8 4.2 0
v 0.7 1.6 -0.1
v 0.7 4.2 -0.1
v 0.8 1.6 -0.1
v 0.8 4.2 -0.1
v -1 0 -0.2
v -1 6 -0.2
v -0.8 5.7 -0.2
v -0.8 5.8 -0.2
v 0.7 1.6 -0.2
v 0.7 4.2 -0.2
v 0.8 1.6 -0.2
v 0.8 4.2 -0.2
v 0.9 1.6 -0.2
v 0.9 4.2 -0.2
v 1 0 -0.2
v 1 5.7 -0.2
v 1 5.8 -0.2
v 1 6 -0.2
v -1 0 0.1
v 1 0 0.1
v -1 0 0
v 1 0 0
v -1 0 -0.1
v 1 0 -0.1
v -1 0 -0.2
v 1 0 -0.2
v 0.7 4.2 0.1
v 0.8 4.2 0.1
v 0.7 4.2 0
v 0.8 4.2 0
v 0.7 4.2 -0.1
v 0.8 4.2 -0.1
v 0.7 4.2 -0.2
v 0.8 4.2 -0.2
v 0.7 1.6 0.1
v 0.8 1.6 0.1
v 0.7 1.6 0
v 0.8 1.6 0
v 0.7 1.6 -0.1
v 0.8 1.6 -0.1
v 0.7 1.6 -0.2
v 0.8 1.6 -0.2
v -1 6 0.1
v 1 6 0.1
v -1 6 -0.2
v 1 6 -0.2

# faces
f 5/5/1 2/5/1 1/5/1
f 5/1/1 3/1/1 2/1/1
f 6/5/1 4/5/1 3/5/1
f 6/1/1 3/1/1 5/1/1
f 7/5/1 5/5/1 1/5/1
f 7/2/1 6/2/1 5/2/1
f 8/5/1 4/5/1 6/5/1
f 8/2/1 6/2/1 7/2/1
f 9/5/1 7/5/1 1/5/1
f 9/5/1 8/5/1 7/5/1
f 10/5/1 4/5/1 8/5/1
f 10/5/1 8/5/1 9/5/1
f 15/4/1 12/4/1 11/4/1
f 16/4/1 12/4/1 15/4/1
f 17/4/1 14/4/1 13/4/1
f 18/4/1 14/4/1 17/4/1
f 19/5/2 20/5/2 23/5/2
f 23/5/2 20/5/2 24/5/2
f 21/5/2 22/5/2 25/5/2
f 25/5/2 22/5/2 26/5/2
f 27/5/2 28/5/2 31/5/2
f 28/1/2 29/1/2 31/1/2
f 29/5/2 30/5/2 32/5/2
f 31/1/2 29/1/2 32/1/2
f 27/5/2 31/5/2 33/5/2
f 31/2/2 32/2/2 34/2/2
f 33/5/2 31/5/2 34/5/2
f 32/5/2 30/5/2 35/5/2
f 34/2/2 32/2/2 35/2/2
f 35/5/2 30/5/2 36/5/2
f 33/3/2 34/3/2 37/3/2
f 34/2/2 35/2/2 38/2/2
f 37/3/2 34/3/2 38/3/2
f 35/3/2 36/3/2 39/3/2
f 38/2/2 35/2/2 39/2/2
f 39/3/2 36/3/2 40/3/2
f 37/5/2 38/5/2 41/5/2
f 38/2/2 39/2/2 41/2/2
f 39/5/2 40/5/2 42/5/2
f 41/2/2 39/2/2 42/2/2
f 37/5/2 41/5/2 43/5/2
f 41/5/2 42/5/2 43/5/2
f 42/5/2 40/5/2 44/5/2
f 43/5/2 42/5/2 44/5/2
f 47/5/3 46/5/3 45/5/3
f 48/5/3 46/5/3 47/5/3
f 49/5/3 47/5/3 45/5/3
f 50/5/3 47/5/3 49/5/3
f 51/5/3 49/5/3 45/5/3
f 52/5/3 47/5/3 50/5/3
f 53/5/3 51/5/3 45/5/3
f 53/4/3 52/4/3 51/4/3
f 54/5/3 47/5/3 52/5/3
f 54/4/3 52/4/3 53/4/3
f 55/5/3 53/5/3 45/5/3
f 55/5/3 54/5/3 53/5/3
f 56/3/3 48/3/3 47/3/3
f 56/5/3 54/5/3 55/5/3
f 56/5/3 47/5/3 54/5/3
f 57/5/3 46/5/3 48/5/3
f 57/3/3 48/3/3 56/3/3
f 58/5/3 46/5/3 57/5/3
f 61/2/3 60/2/3 59/2/3
f 62/2/3 60/2/3 61/2/3
f 63/2/4 64/2/4 65/2/4
f 65/2/4 64/2/4 66/2/4
f 67/5/4 68/5/4 69/5/4
f 69/5/4 68/5/4 70/5/4
f 67/5/4 69/5/4 71/5/4
f 71/5/4 69/5/4 72/5/4
f 67/5/4 71/5/4 73/5/4
f 72/5/4 69/5/4 74/5/4
f 67/5/4 73/5/4 75/5/4
f 73/4/4 74/4/4 75/4/4
f 74/5/4 69/5/4 76/5/4
f 75/4/4 74/4/4 76/4/4
f 67/5/4 75/5/4 77/5/4
f 75/5/4 76/5/4 77/5/4
f 69/3/4 70/3/4 78/3/4
f 77/5/4 76/5/4 78/5/4
f 76/5/4 69/5/4 78/5/4
f 70/5/4 68/5/4 79/5/4
f 78/3/4 70/3/4 79/3/4
f 79/5/4 68/5/4 80/5/4
f 83/5/5 82/5/5 81/5/5
f 84/5/5 82/5/5 83/5/5
f 85/1/5 84/1/5 83/1/5
f 86/1/5 84/1/5 85/1/5
f 87/5/5 86/5/5 85/5/5
f 88/5/5 86/5/5 87/5/5
f 91/5/5 90/5/5 89/5/5
f 92/5/5 90/5/5 91/5/5
f 95/5/5 94/5/5 93/5/5
f 96/5/5 94/5/5 95/5/5
f 97/5/6 98/5/6 99/5/6
f 99/5/6 98/5/6 100/5/6
f 101/5/6 102/5/6 103/5/6
f 103/5/6 102/5/6 104/5/6
f 105/5/6 106/5/6 107/5/6
f 107/5/6 106/5/6 108/5/6
