# MagicaVoxel @ Ephtracy

# group
o 

# material
mtllib door-frame-no-glass.mtl
usemtl palette

# normals
vn -1 0 0
vn 1 0 0
vn 0 0 1
vn 0 0 -1
vn 0 -1 0
vn 0 1 0

# texcoords
vt 0.0722656 0.5
vt 0.0800781 0.5
vt 0.677734 0.5
vt 0.681641 0.5

# verts
v -0.8 0 0
v -0.8 0 -0.1
v -0.8 3.5 0
v -0.8 3.5 -0.1
v 0.5 1.2 0.1
v 0.5 1.2 0
v 0.5 1.2 -0.1
v 0.5 1.2 -0.2
v 0.5 1.3 0.1
v 0.5 1.3 0
v 0.5 1.3 -0.1
v 0.5 1.3 -0.2
v 0.5 1.4 0.1
v 0.5 1.4 0
v 0.5 1.4 -0.1
v 0.5 1.4 -0.2
v 0.7 2.3 0
v 0.7 2.3 -0.1
v 0.7 3.3 0
v 0.7 3.3 -0.1
v -0.6 2.3 0
v -0.6 2.3 -0.1
v -0.6 3.3 0
v -0.6 3.3 -0.1
v 0.7 1.2 0.1
v 0.7 1.2 0
v 0.7 1.2 -0.1
v 0.7 1.2 -0.2
v 0.7 1.4 0.1
v 0.7 1.4 0
v 0.7 1.4 -0.1
v 0.7 1.4 -0.2
v 0.9 0 0
v 0.9 0 -0.1
v 0.9 3.5 0
v 0.9 3.5 -0.1
v 0.5 1.2 0.1
v 0.5 1.3 0.1
v 0.5 1.4 0.1
v 0.6 1.2 0.1
v 0.6 1.3 0.1
v 0.7 1.2 0.1
v 0.7 1.4 0.1
v -0.8 0 0
v -0.8 3.5 0
v -0.7 0.1 0
v -0.7 0.2 0
v -0.7 0.3 0
v -0.7 0.4 0
v -0.7 2.2 0
v -0.7 3.4 0
v -0.6 0.1 0
v -0.6 0.2 0
v -0.6 0.3 0
v -0.6 0.4 0
v -0.6 2.3 0
v -0.6 3.3 0
v -0.5 0.1 0
v -0.5 0.2 0
v -0.5 0.3 0
v -0.4 0.1 0
v -0.4 0.2 0
v 0.5 1.2 0
v 0.5 1.3 0
v 0.5 1.4 0
v 0.5 2 0
v 0.5 2.1 0
v 0.6 1.2 0
v 0.6 1.9 0
v 0.6 2 0
v 0.6 2.1 0
v 0.7 1.2 0
v 0.7 1.4 0
v 0.7 1.8 0
v 0.7 1.9 0
v 0.7 2 0
v 0.7 2.1 0
v 0.7 2.3 0
v 0.7 3.3 0
v 0.8 1.8 0
v 0.8 1.9 0
v 0.8 2 0
v 0.8 2.1 0
v 0.8 2.2 0
v 0.8 3.4 0
v 0.9 0 0
v 0.9 3.5 0
v -0.8 0 -0.1
v -0.8 3.5 -0.1
v -0.7 0.1 -0.1
v -0.7 0.2 -0.1
v -0.7 0.3 -0.1
v -0.7 0.4 -0.1
v -0.7 2.2 -0.1
v -0.7 3.4 -0.1
v -0.6 0.1 -0.1
v -0.6 0.2 -0.1
v -0.6 0.3 -0.1
v -0.6 0.4 -0.1
v -0.6 2.3 -0.1
v -0.6 3.3 -0.1
v -0.5 0.1 -0.1
v -0.5 0.2 -0.1
v -0.5 0.3 -0.1
v -0.4 0.1 -0.1
v -0.4 0.2 -0.1
v 0.5 1.2 -0.1
v 0.5 1.3 -0.1
v 0.5 1.4 -0.1
v 0.5 2 -0.1
v 0.5 2.1 -0.1
v 0.6 1.2 -0.1
v 0.6 1.9 -0.1
v 0.6 2 -0.1
v 0.6 2.1 -0.1
v 0.7 1.2 -0.1
v 0.7 1.4 -0.1
v 0.7 1.8 -0.1
v 0.7 1.9 -0.1
v 0.7 2 -0.1
v 0.7 2.1 -0.1
v 0.7 2.3 -0.1
v 0.7 3.3 -0.1
v 0.8 1.8 -0.1
v 0.8 1.9 -0.1
v 0.8 2 -0.1
v 0.8 2.1 -0.1
v 0.8 2.2 -0.1
v 0.8 3.4 -0.1
v 0.9 0 -0.1
v 0.9 3.5 -0.1
v 0.5 1.2 -0.2
v 0.5 1.3 -0.2
v 0.5 1.4 -0.2
v 0.6 1.2 -0.2
v 0.6 1.3 -0.2
v 0.7 1.2 -0.2
v 0.7 1.4 -0.2
v -0.8 0 0
v 0.9 0 0
v -0.8 0 -0.1
v 0.9 0 -0.1
v 0.5 1.2 0.1
v 0.6 1.2 0.1
v 0.7 1.2 0.1
v 0.5 1.2 0
v 0.6 1.2 0
v 0.7 1.2 0
v 0.5 1.2 -0.1
v 0.6 1.2 -0.1
v 0.7 1.2 -0.1
v 0.5 1.2 -0.2
v 0.6 1.2 -0.2
v 0.7 1.2 -0.2
v -0.6 3.3 0
v 0.7 3.3 0
v -0.6 3.3 -0.1
v 0.7 3.3 -0.1
v 0.5 1.4 0.1
v 0.7 1.4 0.1
v 0.5 1.4 0
v 0.7 1.4 0
v 0.5 1.4 -0.1
v 0.7 1.4 -0.1
v 0.5 1.4 -0.2
v 0.7 1.4 -0.2
v -0.6 2.3 0
v 0.7 2.3 0
v -0.6 2.3 -0.1
v 0.7 2.3 -0.1
v -0.8 3.5 0
v 0.9 3.5 0
v -0.8 3.5 -0.1
v 0.9 3.5 -0.1

# faces
f 3/2/1 2/2/1 1/2/1
f 4/2/1 2/2/1 3/2/1
f 9/3/1 6/3/1 5/3/1
f 10/3/1 6/3/1 9/3/1
f 11/3/1 8/3/1 7/3/1
f 12/3/1 8/3/1 11/3/1
f 13/4/1 10/4/1 9/4/1
f 14/4/1 10/4/1 13/4/1
f 15/4/1 12/4/1 11/4/1
f 16/4/1 12/4/1 15/4/1
f 19/1/1 18/1/1 17/1/1
f 20/1/1 18/1/1 19/1/1
f 21/1/2 22/1/2 23/1/2
f 23/1/2 22/1/2 24/1/2
f 25/4/2 26/4/2 29/4/2
f 29/4/2 26/4/2 30/4/2
f 27/4/2 28/4/2 31/4/2
f 31/4/2 28/4/2 32/4/2
f 33/2/2 34/2/2 35/2/2
f 35/2/2 34/2/2 36/2/2
f 40/3/3 38/3/3 37/3/3
f 41/4/3 39/4/3 38/4/3
f 41/3/3 38/3/3 40/3/3
f 42/4/3 41/4/3 40/4/3
f 43/4/3 39/4/3 41/4/3
f 43/4/3 41/4/3 42/4/3
f 46/2/3 45/2/3 44/2/3
f 47/2/3 45/2/3 46/2/3
f 48/2/3 45/2/3 47/2/3
f 49/2/3 45/2/3 48/2/3
f 50/2/3 45/2/3 49/2/3
f 51/2/3 45/2/3 50/2/3
f 52/2/3 46/2/3 44/2/3
f 52/1/3 47/1/3 46/1/3
f 53/2/3 48/2/3 47/2/3
f 53/1/3 47/1/3 52/1/3
f 54/1/3 49/1/3 48/1/3
f 54/2/3 48/2/3 53/2/3
f 55/2/3 50/2/3 49/2/3
f 55/1/3 49/1/3 54/1/3
f 56/1/3 51/1/3 50/1/3
f 57/1/3 51/1/3 56/1/3
f 58/2/3 52/2/3 44/2/3
f 58/2/3 53/2/3 52/2/3
f 59/1/3 54/1/3 53/1/3
f 59/2/3 53/2/3 58/2/3
f 60/2/3 55/2/3 54/2/3
f 60/1/3 54/1/3 59/1/3
f 61/2/3 58/2/3 44/2/3
f 61/1/3 59/1/3 58/1/3
f 62/2/3 60/2/3 59/2/3
f 62/1/3 59/1/3 61/1/3
f 63/2/3 50/2/3 55/2/3
f 63/2/3 60/2/3 62/2/3
f 63/2/3 62/2/3 61/2/3
f 63/2/3 55/2/3 60/2/3
f 64/2/3 50/2/3 63/2/3
f 65/2/3 50/2/3 64/2/3
f 66/2/3 50/2/3 65/2/3
f 67/2/3 50/2/3 66/2/3
f 68/2/3 63/2/3 61/2/3
f 69/2/3 66/2/3 65/2/3
f 70/1/3 67/1/3 66/1/3
f 70/2/3 66/2/3 69/2/3
f 71/2/3 50/2/3 67/2/3
f 71/1/3 67/1/3 70/1/3
f 72/2/3 68/2/3 61/2/3
f 73/2/3 69/2/3 65/2/3
f 74/2/3 69/2/3 73/2/3
f 75/1/3 70/1/3 69/1/3
f 75/2/3 69/2/3 74/2/3
f 76/2/3 71/2/3 70/2/3
f 76/1/3 70/1/3 75/1/3
f 77/2/3 50/2/3 71/2/3
f 77/2/3 71/2/3 76/2/3
f 78/1/3 56/1/3 50/1/3
f 79/1/3 51/1/3 57/1/3
f 80/2/3 74/2/3 73/2/3
f 80/1/3 75/1/3 74/1/3
f 80/2/3 73/2/3 72/2/3
f 81/2/3 76/2/3 75/2/3
f 81/1/3 75/1/3 80/1/3
f 82/1/3 77/1/3 76/1/3
f 82/2/3 76/2/3 81/2/3
f 83/2/3 50/2/3 77/2/3
f 83/1/3 77/1/3 82/1/3
f 84/1/3 78/1/3 50/1/3
f 84/2/3 50/2/3 83/2/3
f 84/1/3 79/1/3 78/1/3
f 85/2/3 45/2/3 51/2/3
f 85/1/3 79/1/3 84/1/3
f 85/1/3 51/1/3 79/1/3
f 86/2/3 84/2/3 83/2/3
f 86/2/3 61/2/3 44/2/3
f 86/2/3 85/2/3 84/2/3
f 86/2/3 83/2/3 82/2/3
f 86/2/3 82/2/3 81/2/3
f 86/2/3 80/2/3 72/2/3
f 86/2/3 72/2/3 61/2/3
f 86/2/3 81/2/3 80/2/3
f 87/2/3 45/2/3 85/2/3
f 87/2/3 85/2/3 86/2/3
f 88/2/4 89/2/4 90/2/4
f 90/2/4 89/2/4 91/2/4
f 91/2/4 89/2/4 92/2/4
f 92/2/4 89/2/4 93/2/4
f 93/2/4 89/2/4 94/2/4
f 94/2/4 89/2/4 95/2/4
f 88/2/4 90/2/4 96/2/4
f 90/1/4 91/1/4 96/1/4
f 91/2/4 92/2/4 97/2/4
f 96/1/4 91/1/4 97/1/4
f 92/1/4 93/1/4 98/1/4
f 97/2/4 92/2/4 98/2/4
f 93/2/4 94/2/4 99/2/4
f 98/1/4 93/1/4 99/1/4
f 94/1/4 95/1/4 100/1/4
f 100/1/4 95/1/4 101/1/4
f 88/2/4 96/2/4 102/2/4
f 96/2/4 97/2/4 102/2/4
f 97/1/4 98/1/4 103/1/4
f 102/2/4 97/2/4 103/2/4
f 98/2/4 99/2/4 104/2/4
f 103/1/4 98/1/4 104/1/4
f 88/2/4 102/2/4 105/2/4
f 102/1/4 103/1/4 105/1/4
f 103/2/4 104/2/4 106/2/4
f 105/1/4 103/1/4 106/1/4
f 99/2/4 94/2/4 107/2/4
f 106/2/4 104/2/4 107/2/4
f 105/2/4 106/2/4 107/2/4
f 104/2/4 99/2/4 107/2/4
f 107/2/4 94/2/4 108/2/4
f 108/2/4 94/2/4 109/2/4
f 109/2/4 94/2/4 110/2/4
f 110/2/4 94/2/4 111/2/4
f 105/2/4 107/2/4 112/2/4
f 109/2/4 110/2/4 113/2/4
f 110/1/4 111/1/4 114/1/4
f 113/2/4 110/2/4 114/2/4
f 111/2/4 94/2/4 115/2/4
f 114/1/4 111/1/4 115/1/4
f 105/2/4 112/2/4 116/2/4
f 109/2/4 113/2/4 117/2/4
f 117/2/4 113/2/4 118/2/4
f 113/1/4 114/1/4 119/1/4
f 118/2/4 113/2/4 119/2/4
f 114/2/4 115/2/4 120/2/4
f 119/1/4 114/1/4 120/1/4
f 115/2/4 94/2/4 121/2/4
f 120/2/4 115/2/4 121/2/4
f 94/1/4 100/1/4 122/1/4
f 101/1/4 95/1/4 123/1/4
f 117/2/4 118/2/4 124/2/4
f 118/1/4 119/1/4 124/1/4
f 116/2/4 117/2/4 124/2/4
f 119/2/4 120/2/4 125/2/4
f 124/1/4 119/1/4 125/1/4
f 120/1/4 121/1/4 126/1/4
f 125/2/4 120/2/4 126/2/4
f 121/2/4 94/2/4 127/2/4
f 126/1/4 121/1/4 127/1/4
f 94/1/4 122/1/4 128/1/4
f 127/2/4 94/2/4 128/2/4
f 122/1/4 123/1/4 128/1/4
f 95/2/4 89/2/4 129/2/4
f 128/1/4 123/1/4 129/1/4
f 123/1/4 95/1/4 129/1/4
f 127/2/4 128/2/4 130/2/4
f 88/2/4 105/2/4 130/2/4
f 128/2/4 129/2/4 130/2/4
f 126/2/4 127/2/4 130/2/4
f 125/2/4 126/2/4 130/2/4
f 116/2/4 124/2/4 130/2/4
f 105/2/4 116/2/4 130/2/4
f 124/2/4 125/2/4 130/2/4
f 129/2/4 89/2/4 131/2/4
f 130/2/4 129/2/4 131/2/4
f 132/3/4 133/3/4 135/3/4
f 133/4/4 134/4/4 136/4/4
f 135/3/4 133/3/4 136/3/4
f 135/4/4 136/4/4 137/4/4
f 136/4/4 134/4/4 138/4/4
f 137/4/4 136/4/4 138/4/4
f 141/2/5 140/2/5 139/2/5
f 142/2/5 140/2/5 141/2/5
f 146/3/5 144/3/5 143/3/5
f 147/4/5 145/4/5 144/4/5
f 147/3/5 144/3/5 146/3/5
f 148/4/5 145/4/5 147/4/5
f 152/3/5 150/3/5 149/3/5
f 153/4/5 151/4/5 150/4/5
f 153/3/5 150/3/5 152/3/5
f 154/4/5 151/4/5 153/4/5
f 157/1/5 156/1/5 155/1/5
f 158/1/5 156/1/5 157/1/5
f 159/4/6 160/4/6 161/4/6
f 161/4/6 160/4/6 162/4/6
f 163/4/6 164/4/6 165/4/6
f 165/4/6 164/4/6 166/4/6
f 167/1/6 168/1/6 169/1/6
f 169/1/6 168/1/6 170/1/6
f 171/2/6 172/2/6 173/2/6
f 173/2/6 172/2/6 174/2/6
