# MagicaVoxel @ Ephtracy

# group
o 

# material
mtllib hallway-door.mtl
usemtl palette

# normals
vn -1 0 0
vn 1 0 0
vn 0 0 1
vn 0 0 -1
vn 0 -1 0
vn 0 1 0

# texcoords
vt 0.0136719 0.5
vt 0.0175781 0.5
vt 0.0253906 0.5
vt 0.216797 0.5

# verts
v -1.2 0 0
v -1.2 0 -0.1
v -1.2 4.5 0
v -1.2 4.5 -0.1
v 1.2 0 0
v 1.2 0 -0.1
v 1.2 4.5 0
v 1.2 4.5 -0.1
v -1.2 0 0
v -1.2 4.5 0
v -1.1 0.1 0
v -1.1 4.4 0
v -1 2.8 0
v -1 2.9 0
v -1 3.7 0
v -1 3.8 0
v -0.9 3 0
v -0.9 3.6 0
v 0.9 3 0
v 0.9 3.6 0
v 1 2.8 0
v 1 2.9 0
v 1 3.7 0
v 1 3.8 0
v 1.1 0.1 0
v 1.1 4.4 0
v 1.2 0 0
v 1.2 4.5 0
v -1.2 0 -0.1
v -1.2 4.5 -0.1
v -1.1 0.1 -0.1
v -1.1 4.4 -0.1
v -1 2.8 -0.1
v -1 2.9 -0.1
v -1 3.7 -0.1
v -1 3.8 -0.1
v -0.9 3 -0.1
v -0.9 3.6 -0.1
v 0.9 3 -0.1
v 0.9 3.6 -0.1
v 1 2.8 -0.1
v 1 2.9 -0.1
v 1 3.7 -0.1
v 1 3.8 -0.1
v 1.1 0.1 -0.1
v 1.1 4.4 -0.1
v 1.2 0 -0.1
v 1.2 4.5 -0.1
v -1.2 0 0
v 1.2 0 0
v -1.2 0 -0.1
v 1.2 0 -0.1
v -1.2 4.5 0
v 1.2 4.5 0
v -1.2 4.5 -0.1
v 1.2 4.5 -0.1

# faces
f 3/1/1 2/1/1 1/1/1
f 4/1/1 2/1/1 3/1/1
f 5/1/2 6/1/2 7/1/2
f 7/1/2 6/1/2 8/1/2
f 11/1/3 10/1/3 9/1/3
f 12/1/3 10/1/3 11/1/3
f 13/3/3 12/3/3 11/3/3
f 14/3/3 12/3/3 13/3/3
f 15/3/3 12/3/3 14/3/3
f 16/3/3 12/3/3 15/3/3
f 17/1/3 15/1/3 14/1/3
f 18/1/3 15/1/3 17/1/3
f 19/1/3 17/1/3 14/1/3
f 19/2/3 18/2/3 17/2/3
f 20/1/3 15/1/3 18/1/3
f 20/2/3 18/2/3 19/2/3
f 21/3/3 13/3/3 11/3/3
f 21/4/3 14/4/3 13/4/3
f 22/1/3 20/1/3 19/1/3
f 22/4/3 14/4/3 21/4/3
f 22/1/3 19/1/3 14/1/3
f 23/1/3 15/1/3 20/1/3
f 23/1/3 20/1/3 22/1/3
f 23/4/3 16/4/3 15/4/3
f 24/3/3 12/3/3 16/3/3
f 24/4/3 16/4/3 23/4/3
f 25/1/3 11/1/3 9/1/3
f 25/3/3 22/3/3 21/3/3
f 25/3/3 24/3/3 23/3/3
f 25/3/3 23/3/3 22/3/3
f 25/3/3 21/3/3 11/3/3
f 26/3/3 12/3/3 24/3/3
f 26/3/3 24/3/3 25/3/3
f 26/1/3 10/1/3 12/1/3
f 27/1/3 25/1/3 9/1/3
f 27/1/3 26/1/3 25/1/3
f 28/1/3 10/1/3 26/1/3
f 28/1/3 26/1/3 27/1/3
f 29/1/4 30/1/4 31/1/4
f 31/1/4 30/1/4 32/1/4
f 31/3/4 32/3/4 33/3/4
f 33/3/4 32/3/4 34/3/4
f 34/3/4 32/3/4 35/3/4
f 35/3/4 32/3/4 36/3/4
f 34/1/4 35/1/4 37/1/4
f 37/1/4 35/1/4 38/1/4
f 34/1/4 37/1/4 39/1/4
f 37/2/4 38/2/4 39/2/4
f 38/1/4 35/1/4 40/1/4
f 39/2/4 38/2/4 40/2/4
f 31/3/4 33/3/4 41/3/4
f 33/4/4 34/4/4 41/4/4
f 39/1/4 40/1/4 42/1/4
f 41/4/4 34/4/4 42/4/4
f 34/1/4 39/1/4 42/1/4
f 40/1/4 35/1/4 43/1/4
f 42/1/4 40/1/4 43/1/4
f 35/4/4 36/4/4 43/4/4
f 36/3/4 32/3/4 44/3/4
f 43/4/4 36/4/4 44/4/4
f 29/1/4 31/1/4 45/1/4
f 41/3/4 42/3/4 45/3/4
f 43/3/4 44/3/4 45/3/4
f 42/3/4 43/3/4 45/3/4
f 31/3/4 41/3/4 45/3/4
f 44/3/4 32/3/4 46/3/4
f 45/3/4 44/3/4 46/3/4
f 32/1/4 30/1/4 46/1/4
f 29/1/4 45/1/4 47/1/4
f 45/1/4 46/1/4 47/1/4
f 46/1/4 30/1/4 48/1/4
f 47/1/4 46/1/4 48/1/4
f 51/1/5 50/1/5 49/1/5
f 52/1/5 50/1/5 51/1/5
f 53/1/6 54/1/6 55/1/6
f 55/1/6 54/1/6 56/1/6
