# MagicaVoxel @ Ephtracy

# group
o 

# material
mtllib hallway-door-frame.mtl
usemtl palette

# normals
vn -1 0 0
vn 1 0 0
vn 0 0 1
vn 0 0 -1
vn 0 -1 0
vn 0 1 0

# texcoords
vt 0.00976562 0.5
vt 0.0253906 0.5
vt 0.212891 0.5
vt 0.216797 0.5
vt 0.337891 0.5

# verts
v -2 0 0
v -2 0 -0.1
v -2 0.1 0
v -2 0.1 -0.1
v -2 2.7 0
v -2 2.7 -0.1
v -2 2.8 0
v -2 2.8 -0.1
v -2 3.3 0
v -2 3.3 -0.1
v -2 3.4 0
v -2 3.4 -0.1
v -2 5.9 0.1
v -2 5.9 0
v -2 5.9 -0.1
v -2 5.9 -0.2
v -2 6 0.1
v -2 6 -0.2
v -1.3 0 0.1
v -1.3 0 0
v -1.3 0 -0.1
v -1.3 0 -0.2
v -1.3 0.1 0
v -1.3 0.1 -0.1
v -1.3 2.7 0
v -1.3 2.7 -0.1
v -1.3 2.8 0
v -1.3 2.8 -0.1
v -1.3 3.3 0
v -1.3 3.3 -0.1
v -1.3 3.4 0
v -1.3 3.4 -0.1
v -1.3 4.6 0.1
v -1.3 4.6 0
v -1.3 4.6 -0.1
v -1.3 4.6 -0.2
v 1.2 0 0.1
v 1.2 0 -0.2
v 1.2 4.5 0.1
v 1.2 4.5 -0.2
v -1.2 0 0.1
v -1.2 0 -0.2
v -1.2 4.5 0.1
v -1.2 4.5 -0.2
v 1.3 0 0.1
v 1.3 0 0
v 1.3 0 -0.1
v 1.3 0 -0.2
v 1.3 0.1 0
v 1.3 0.1 -0.1
v 1.3 2.7 0
v 1.3 2.7 -0.1
v 1.3 2.8 0
v 1.3 2.8 -0.1
v 1.3 3.3 0
v 1.3 3.3 -0.1
v 1.3 3.4 0
v 1.3 3.4 -0.1
v 1.3 4.6 0.1
v 1.3 4.6 0
v 1.3 4.6 -0.1
v 1.3 4.6 -0.2
v 2 0 0
v 2 0 -0.1
v 2 0.1 0
v 2 0.1 -0.1
v 2 2.7 0
v 2 2.7 -0.1
v 2 2.8 0
v 2 2.8 -0.1
v 2 3.3 0
v 2 3.3 -0.1
v 2 3.4 0
v 2 3.4 -0.1
v 2 5.9 0.1
v 2 5.9 0
v 2 5.9 -0.1
v 2 5.9 -0.2
v 2 6 0.1
v 2 6 -0.2
v -2 5.9 0.1
v -2 6 0.1
v -1.3 0 0.1
v -1.3 4.6 0.1
v -1.2 0 0.1
v -1.2 4.5 0.1
v 1.2 0 0.1
v 1.2 4.5 0.1
v 1.3 0 0.1
v 1.3 4.6 0.1
v 2 5.9 0.1
v 2 6 0.1
v -2 0 0
v -2 0.1 0
v -2 2.7 0
v -2 2.8 0
v -2 3.3 0
v -2 3.4 0
v -2 5.9 0
v -1.3 0 0
v -1.3 0.1 0
v -1.3 2.7 0
v -1.3 2.8 0
v -1.3 3.3 0
v -1.3 3.4 0
v -1.3 4.6 0
v 1.3 0 0
v 1.3 0.1 0
v 1.3 2.7 0
v 1.3 2.8 0
v 1.3 3.3 0
v 1.3 3.4 0
v 1.3 4.6 0
v 2 0 0
v 2 0.1 0
v 2 2.7 0
v 2 2.8 0
v 2 3.3 0
v 2 3.4 0
v 2 5.9 0
v -2 0 -0.1
v -2 0.1 -0.1
v -2 2.7 -0.1
v -2 2.8 -0.1
v -2 3.3 -0.1
v -2 3.4 -0.1
v -2 5.9 -0.1
v -1.3 0 -0.1
v -1.3 0.1 -0.1
v -1.3 2.7 -0.1
v -1.3 2.8 -0.1
v -1.3 3.3 -0.1
v -1.3 3.4 -0.1
v -1.3 4.6 -0.1
v 1.3 0 -0.1
v 1.3 0.1 -0.1
v 1.3 2.7 -0.1
v 1.3 2.8 -0.1
v 1.3 3.3 -0.1
v 1.3 3.4 -0.1
v 1.3 4.6 -0.1
v 2 0 -0.1
v 2 0.1 -0.1
v 2 2.7 -0.1
v 2 2.8 -0.1
v 2 3.3 -0.1
v 2 3.4 -0.1
v 2 5.9 -0.1
v -2 5.9 -0.2
v -2 6 -0.2
v -1.3 0 -0.2
v -1.3 4.6 -0.2
v -1.2 0 -0.2
v -1.2 4.5 -0.2
v 1.2 0 -0.2
v 1.2 4.5 -0.2
v 1.3 0 -0.2
v 1.3 4.6 -0.2
v 2 5.9 -0.2
v 2 6 -0.2
v -1.3 0 0.1
v -1.2 0 0.1
v 1.2 0 0.1
v 1.3 0 0.1
v -2 0 0
v -1.3 0 0
v 1.3 0 0
v 2 0 0
v -2 0 -0.1
v -1.3 0 -0.1
v 1.3 0 -0.1
v 2 0 -0.1
v -1.3 0 -0.2
v -1.2 0 -0.2
v 1.2 0 -0.2
v 1.3 0 -0.2
v -1.2 4.5 0.1
v 1.2 4.5 0.1
v -1.2 4.5 -0.2
v 1.2 4.5 -0.2
v -2 5.9 0.1
v 2 5.9 0.1
v -2 5.9 0
v 2 5.9 0
v -2 5.9 -0.1
v 2 5.9 -0.1
v -2 5.9 -0.2
v 2 5.9 -0.2
v -1.3 4.6 0.1
v 1.3 4.6 0.1
v -1.3 4.6 0
v 1.3 4.6 0
v -1.3 4.6 -0.1
v 1.3 4.6 -0.1
v -1.3 4.6 -0.2
v 1.3 4.6 -0.2
v -2 6 0.1
v 2 6 0.1
v -2 6 -0.2
v 2 6 -0.2

# faces
f 3/1/1 2/1/1 1/1/1
f 4/1/1 2/1/1 3/1/1
f 5/2/1 4/2/1 3/2/1
f 6/2/1 4/2/1 5/2/1
f 7/3/1 6/3/1 5/3/1
f 8/3/1 6/3/1 7/3/1
f 9/4/1 8/4/1 7/4/1
f 10/4/1 8/4/1 9/4/1
f 11/3/1 10/3/1 9/3/1
f 12/3/1 10/3/1 11/3/1
f 14/2/1 12/2/1 11/2/1
f 15/2/1 12/2/1 14/2/1
f 17/5/1 15/5/1 14/5/1
f 17/5/1 16/5/1 15/5/1
f 17/5/1 14/5/1 13/5/1
f 18/5/1 16/5/1 17/5/1
f 23/3/1 20/3/1 19/3/1
f 24/3/1 22/3/1 21/3/1
f 25/3/1 23/3/1 19/3/1
f 26/3/1 22/3/1 24/3/1
f 27/3/1 25/3/1 19/3/1
f 28/3/1 22/3/1 26/3/1
f 29/3/1 27/3/1 19/3/1
f 30/3/1 22/3/1 28/3/1
f 31/3/1 29/3/1 19/3/1
f 32/3/1 22/3/1 30/3/1
f 33/3/1 31/3/1 19/3/1
f 34/3/1 31/3/1 33/3/1
f 35/3/1 22/3/1 32/3/1
f 36/3/1 22/3/1 35/3/1
f 39/3/1 38/3/1 37/3/1
f 40/3/1 38/3/1 39/3/1
f 41/3/2 42/3/2 43/3/2
f 43/3/2 42/3/2 44/3/2
f 45/3/2 46/3/2 49/3/2
f 47/3/2 48/3/2 50/3/2
f 45/3/2 49/3/2 51/3/2
f 50/3/2 48/3/2 52/3/2
f 45/3/2 51/3/2 53/3/2
f 52/3/2 48/3/2 54/3/2
f 45/3/2 53/3/2 55/3/2
f 54/3/2 48/3/2 56/3/2
f 45/3/2 55/3/2 57/3/2
f 56/3/2 48/3/2 58/3/2
f 45/3/2 57/3/2 59/3/2
f 59/3/2 57/3/2 60/3/2
f 58/3/2 48/3/2 61/3/2
f 61/3/2 48/3/2 62/3/2
f 63/1/2 64/1/2 65/1/2
f 65/1/2 64/1/2 66/1/2
f 65/2/2 66/2/2 67/2/2
f 67/2/2 66/2/2 68/2/2
f 67/3/2 68/3/2 69/3/2
f 69/3/2 68/3/2 70/3/2
f 69/4/2 70/4/2 71/4/2
f 71/4/2 70/4/2 72/4/2
f 71/3/2 72/3/2 73/3/2
f 73/3/2 72/3/2 74/3/2
f 73/2/2 74/2/2 76/2/2
f 76/2/2 74/2/2 77/2/2
f 76/5/2 77/5/2 79/5/2
f 77/5/2 78/5/2 79/5/2
f 75/5/2 76/5/2 79/5/2
f 79/5/2 78/5/2 80/5/2
f 85/3/3 84/3/3 83/3/3
f 86/3/3 84/3/3 85/3/3
f 88/3/3 84/3/3 86/3/3
f 89/3/3 88/3/3 87/3/3
f 90/3/3 84/3/3 88/3/3
f 90/3/3 88/3/3 89/3/3
f 91/5/3 82/5/3 81/5/3
f 92/5/3 82/5/3 91/5/3
f 100/1/3 94/1/3 93/1/3
f 101/2/3 95/2/3 94/2/3
f 101/1/3 94/1/3 100/1/3
f 102/3/3 96/3/3 95/3/3
f 102/2/3 95/2/3 101/2/3
f 103/4/3 97/4/3 96/4/3
f 103/3/3 96/3/3 102/3/3
f 104/3/3 98/3/3 97/3/3
f 104/4/3 97/4/3 103/4/3
f 105/2/3 99/2/3 98/2/3
f 105/3/3 98/3/3 104/3/3
f 106/2/3 99/2/3 105/2/3
f 113/2/3 99/2/3 106/2/3
f 114/1/3 108/1/3 107/1/3
f 115/2/3 109/2/3 108/2/3
f 115/1/3 108/1/3 114/1/3
f 116/3/3 110/3/3 109/3/3
f 116/2/3 109/2/3 115/2/3
f 117/4/3 111/4/3 110/4/3
f 117/3/3 110/3/3 116/3/3
f 118/3/3 112/3/3 111/3/3
f 118/4/3 111/4/3 117/4/3
f 119/2/3 113/2/3 112/2/3
f 119/3/3 112/3/3 118/3/3
f 120/2/3 99/2/3 113/2/3
f 120/2/3 113/2/3 119/2/3
f 121/1/4 122/1/4 128/1/4
f 122/2/4 123/2/4 129/2/4
f 128/1/4 122/1/4 129/1/4
f 123/3/4 124/3/4 130/3/4
f 129/2/4 123/2/4 130/2/4
f 124/4/4 125/4/4 131/4/4
f 130/3/4 124/3/4 131/3/4
f 125/3/4 126/3/4 132/3/4
f 131/4/4 125/4/4 132/4/4
f 126/2/4 127/2/4 133/2/4
f 132/3/4 126/3/4 133/3/4
f 133/2/4 127/2/4 134/2/4
f 134/2/4 127/2/4 141/2/4
f 135/1/4 136/1/4 142/1/4
f 136/2/4 137/2/4 143/2/4
f 142/1/4 136/1/4 143/1/4
f 137/3/4 138/3/4 144/3/4
f 143/2/4 137/2/4 144/2/4
f 138/4/4 139/4/4 145/4/4
f 144/3/4 138/3/4 145/3/4
f 139/3/4 140/3/4 146/3/4
f 145/4/4 139/4/4 146/4/4
f 140/2/4 141/2/4 147/2/4
f 146/3/4 140/3/4 147/3/4
f 141/2/4 127/2/4 148/2/4
f 147/2/4 141/2/4 148/2/4
f 151/3/4 152/3/4 153/3/4
f 153/3/4 152/3/4 154/3/4
f 154/3/4 152/3/4 156/3/4
f 155/3/4 156/3/4 157/3/4
f 156/3/4 152/3/4 158/3/4
f 157/3/4 156/3/4 158/3/4
f 149/5/4 150/5/4 159/5/4
f 159/5/4 150/5/4 160/5/4
f 166/3/5 162/3/5 161/3/5
f 167/3/5 164/3/5 163/3/5
f 169/1/5 166/1/5 165/1/5
f 170/3/5 162/3/5 166/3/5
f 170/1/5 166/1/5 169/1/5
f 171/1/5 168/1/5 167/1/5
f 171/3/5 167/3/5 163/3/5
f 172/1/5 168/1/5 171/1/5
f 173/3/5 162/3/5 170/3/5
f 174/3/5 162/3/5 173/3/5
f 175/3/5 171/3/5 163/3/5
f 176/3/5 171/3/5 175/3/5
f 179/3/5 178/3/5 177/3/5
f 180/3/5 178/3/5 179/3/5
f 183/5/5 182/5/5 181/5/5
f 184/5/5 182/5/5 183/5/5
f 187/5/5 186/5/5 185/5/5
f 188/5/5 186/5/5 187/5/5
f 189/3/6 190/3/6 191/3/6
f 191/3/6 190/3/6 192/3/6
f 193/3/6 194/3/6 195/3/6
f 195/3/6 194/3/6 196/3/6
f 197/5/6 198/5/6 199/5/6
f 199/5/6 198/5/6 200/5/6
