# MagicaVoxel @ Ephtracy

# group
o 

# material
mtllib wall-elevator.mtl
usemtl palette

# normals
vn -1 0 0
vn 1 0 0
vn 0 0 1
vn 0 0 -1
vn 0 -1 0
vn 0 1 0

# texcoords
vt 0.00976562 0.5
vt 0.0136719 0.5
vt 0.0214844 0.5
vt 0.0253906 0.5
vt 0.337891 0.5

# verts
v -2 0 0
v -2 0 -0.1
v -2 0.1 0
v -2 0.1 -0.1
v -2 0.6 0
v -2 0.6 -0.1
v -2 0.7 0
v -2 0.7 -0.1
v -2 5.9 0.1
v -2 5.9 0
v -2 5.9 -0.1
v -2 5.9 -0.2
v -2 6 0.1
v -2 6 -0.2
v 2 0 0
v 2 0 -0.1
v 2 0.1 0
v 2 0.1 -0.1
v 2 0.6 0
v 2 0.6 -0.1
v 2 0.7 0
v 2 0.7 -0.1
v 2 5.9 0.1
v 2 5.9 0
v 2 5.9 -0.1
v 2 5.9 -0.2
v 2 6 0.1
v 2 6 -0.2
v -2 5.9 0.1
v -2 6 0.1
v 2 5.9 0.1
v 2 6 0.1
v -2 0 0
v -2 0.1 0
v -2 0.6 0
v -2 0.7 0
v -2 5.9 0
v 2 0 0
v 2 0.1 0
v 2 0.6 0
v 2 0.7 0
v 2 5.9 0
v -2 0 -0.1
v -2 0.1 -0.1
v -2 0.6 -0.1
v -2 0.7 -0.1
v -2 5.9 -0.1
v 2 0 -0.1
v 2 0.1 -0.1
v 2 0.6 -0.1
v 2 0.7 -0.1
v 2 5.9 -0.1
v -2 5.9 -0.2
v -2 6 -0.2
v 2 5.9 -0.2
v 2 6 -0.2
v -2 0 0
v 2 0 0
v -2 0 -0.1
v 2 0 -0.1
v -2 5.9 0.1
v 2 5.9 0.1
v -2 5.9 0
v 2 5.9 0
v -2 5.9 -0.1
v 2 5.9 -0.1
v -2 5.9 -0.2
v 2 5.9 -0.2
v -2 6 0.1
v 2 6 0.1
v -2 6 -0.2
v 2 6 -0.2

# faces
f 3/1/1 2/1/1 1/1/1
f 4/1/1 2/1/1 3/1/1
f 5/3/1 4/3/1 3/3/1
f 6/3/1 4/3/1 5/3/1
f 7/2/1 6/2/1 5/2/1
f 8/2/1 6/2/1 7/2/1
f 10/4/1 8/4/1 7/4/1
f 11/4/1 8/4/1 10/4/1
f 13/5/1 11/5/1 10/5/1
f 13/5/1 12/5/1 11/5/1
f 13/5/1 10/5/1 9/5/1
f 14/5/1 12/5/1 13/5/1
f 15/1/2 16/1/2 17/1/2
f 17/1/2 16/1/2 18/1/2
f 17/3/2 18/3/2 19/3/2
f 19/3/2 18/3/2 20/3/2
f 19/2/2 20/2/2 21/2/2
f 21/2/2 20/2/2 22/2/2
f 21/4/2 22/4/2 24/4/2
f 24/4/2 22/4/2 25/4/2
f 24/5/2 25/5/2 27/5/2
f 25/5/2 26/5/2 27/5/2
f 23/5/2 24/5/2 27/5/2
f 27/5/2 26/5/2 28/5/2
f 31/5/3 30/5/3 29/5/3
f 32/5/3 30/5/3 31/5/3
f 38/1/3 34/1/3 33/1/3
f 39/3/3 35/3/3 34/3/3
f 39/1/3 34/1/3 38/1/3
f 40/2/3 36/2/3 35/2/3
f 40/3/3 35/3/3 39/3/3
f 41/4/3 37/4/3 36/4/3
f 41/2/3 36/2/3 40/2/3
f 42/4/3 37/4/3 41/4/3
f 43/1/4 44/1/4 48/1/4
f 44/3/4 45/3/4 49/3/4
f 48/1/4 44/1/4 49/1/4
f 45/2/4 46/2/4 50/2/4
f 49/3/4 45/3/4 50/3/4
f 46/4/4 47/4/4 51/4/4
f 50/2/4 46/2/4 51/2/4
f 51/4/4 47/4/4 52/4/4
f 53/5/4 54/5/4 55/5/4
f 55/5/4 54/5/4 56/5/4
f 59/1/5 58/1/5 57/1/5
f 60/1/5 58/1/5 59/1/5
f 63/5/5 62/5/5 61/5/5
f 64/5/5 62/5/5 63/5/5
f 67/5/5 66/5/5 65/5/5
f 68/5/5 66/5/5 67/5/5
f 69/5/6 70/5/6 71/5/6
f 71/5/6 70/5/6 72/5/6
