# MagicaVoxel @ Ephtracy

# group
o 

# material
mtllib wall-door-frame.mtl
usemtl palette

# normals
vn -1 0 0
vn 1 0 0
vn 0 0 1
vn 0 0 -1
vn 0 -1 0
vn 0 1 0

# texcoords
vt 0.228516 0.5
vt 0.232422 0.5
vt 0.337891 0.5
vt 0.341797 0.5
vt 0.599609 0.5

# verts
v -2 0 0
v -2 0 -0.1
v -2 0.8 0
v -2 0.8 -0.1
v -2 0.9 0
v -2 0.9 -0.1
v -2 5.9 0.1
v -2 5.9 0
v -2 5.9 -0.1
v -2 5.9 -0.2
v -2 6 0.1
v -2 6 -0.2
v -0.9 0 0.1
v -0.9 0 0
v -0.9 0 -0.1
v -0.9 0 -0.2
v -0.9 0.1 0
v -0.9 0.1 -0.1
v -0.9 0.2 0
v -0.9 0.2 -0.1
v -0.9 0.3 0
v -0.9 0.3 -0.1
v -0.9 0.4 0
v -0.9 0.4 -0.1
v -0.9 0.8 0
v -0.9 0.8 -0.1
v -0.9 0.9 0
v -0.9 0.9 -0.1
v -0.9 3.6 0.1
v -0.9 3.6 0
v -0.9 3.6 -0.1
v -0.9 3.6 -0.2
v 0.9 0 0.1
v 0.9 0 -0.2
v 0.9 3.5 0.1
v 0.9 3.5 -0.2
v -0.8 0 0.1
v -0.8 0 -0.2
v -0.8 3.5 0.1
v -0.8 3.5 -0.2
v 1 0 0.1
v 1 0 0
v 1 0 -0.1
v 1 0 -0.2
v 1 0.1 0
v 1 0.1 -0.1
v 1 0.2 0
v 1 0.2 -0.1
v 1 0.3 0
v 1 0.3 -0.1
v 1 0.4 0
v 1 0.4 -0.1
v 1 0.8 0
v 1 0.8 -0.1
v 1 0.9 0
v 1 0.9 -0.1
v 1 3.6 0.1
v 1 3.6 0
v 1 3.6 -0.1
v 1 3.6 -0.2
v 2.1 0 0
v 2.1 0 -0.1
v 2.1 0.8 0
v 2.1 0.8 -0.1
v 2.1 0.9 0
v 2.1 0.9 -0.1
v 2.1 5.9 0.1
v 2.1 5.9 0
v 2.1 5.9 -0.1
v 2.1 5.9 -0.2
v 2.1 6 0.1
v 2.1 6 -0.2
v -2 5.9 0.1
v -2 6 0.1
v -0.9 0 0.1
v -0.9 3.6 0.1
v -0.8 0 0.1
v -0.8 3.5 0.1
v 0.9 0 0.1
v 0.9 3.5 0.1
v 1 0 0.1
v 1 3.6 0.1
v 2.1 5.9 0.1
v 2.1 6 0.1
v -2 0 0
v -2 0.8 0
v -2 0.9 0
v -2 5.9 0
v -1.5 1.5 0
v -1.5 1.6 0
v -1.5 3.3 0
v -1.5 3.4 0
v -1.4 1.5 0
v -1.4 1.6 0
v -1.4 3.3 0
v -1.4 3.4 0
v -1.4 5 0
v -1.4 5.1 0
v -1.3 5 0
v -1.3 5.1 0
v -1.2 0.1 0
v -1.2 0.2 0
v -1.2 0.3 0
v -1.2 0.4 0
v -0.9 0 0
v -0.9 0.1 0
v -0.9 0.2 0
v -0.9 0.3 0
v -0.9 0.4 0
v -0.9 0.8 0
v -0.9 0.9 0
v -0.9 3.6 0
v 0.1 4.8 0
v 0.1 4.9 0
v 0.2 4.8 0
v 0.2 4.9 0
v 1 0 0
v 1 0.1 0
v 1 0.2 0
v 1 0.3 0
v 1 0.4 0
v 1 0.8 0
v 1 0.9 0
v 1 3.6 0
v 1.3 0.1 0
v 1.3 0.2 0
v 1.3 0.3 0
v 1.3 0.4 0
v 1.4 3.7 0
v 1.4 3.8 0
v 1.5 1.1 0
v 1.5 1.2 0
v 1.5 3.7 0
v 1.5 3.8 0
v 1.6 1.1 0
v 1.6 1.2 0
v 2.1 0 0
v 2.1 0.8 0
v 2.1 0.9 0
v 2.1 5.9 0
v -2 0 -0.1
v -2 0.8 -0.1
v -2 0.9 -0.1
v -2 5.9 -0.1
v -1.5 1.5 -0.1
v -1.5 1.6 -0.1
v -1.5 3.3 -0.1
v -1.5 3.4 -0.1
v -1.4 1.5 -0.1
v -1.4 1.6 -0.1
v -1.4 3.3 -0.1
v -1.4 3.4 -0.1
v -1.4 5 -0.1
v -1.4 5.1 -0.1
v -1.3 5 -0.1
v -1.3 5.1 -0.1
v -1.2 0.1 -0.1
v -1.2 0.2 -0.1
v -1.2 0.3 -0.1
v -1.2 0.4 -0.1
v -0.9 0 -0.1
v -0.9 0.1 -0.1
v -0.9 0.2 -0.1
v -0.9 0.3 -0.1
v -0.9 0.4 -0.1
v -0.9 0.8 -0.1
v -0.9 0.9 -0.1
v -0.9 3.6 -0.1
v 0.1 4.8 -0.1
v 0.1 4.9 -0.1
v 0.2 4.8 -0.1
v 0.2 4.9 -0.1
v 1 0 -0.1
v 1 0.1 -0.1
v 1 0.2 -0.1
v 1 0.3 -0.1
v 1 0.4 -0.1
v 1 0.8 -0.1
v 1 0.9 -0.1
v 1 3.6 -0.1
v 1.3 0.1 -0.1
v 1.3 0.2 -0.1
v 1.3 0.3 -0.1
v 1.3 0.4 -0.1
v 1.4 3.7 -0.1
v 1.4 3.8 -0.1
v 1.5 1.1 -0.1
v 1.5 1.2 -0.1
v 1.5 3.7 -0.1
v 1.5 3.8 -0.1
v 1.6 1.1 -0.1
v 1.6 1.2 -0.1
v 2.1 0 -0.1
v 2.1 0.8 -0.1
v 2.1 0.9 -0.1
v 2.1 5.9 -0.1
v -2 5.9 -0.2
v -2 6 -0.2
v -0.9 0 -0.2
v -0.9 3.6 -0.2
v -0.8 0 -0.2
v -0.8 3.5 -0.2
v 0.9 0 -0.2
v 0.9 3.5 -0.2
v 1 0 -0.2
v 1 3.6 -0.2
v 2.1 5.9 -0.2
v 2.1 6 -0.2
v -0.9 0 0.1
v -0.8 0 0.1
v 0.9 0 0.1
v 1 0 0.1
v -2 0 0
v -0.9 0 0
v 1 0 0
v 2.1 0 0
v -2 0 -0.1
v -0.9 0 -0.1
v 1 0 -0.1
v 2.1 0 -0.1
v -0.9 0 -0.2
v -0.8 0 -0.2
v 0.9 0 -0.2
v 1 0 -0.2
v -0.8 3.5 0.1
v 0.9 3.5 0.1
v -0.8 3.5 -0.2
v 0.9 3.5 -0.2
v -2 5.9 0.1
v 2.1 5.9 0.1
v -2 5.9 0
v 2.1 5.9 0
v -2 5.9 -0.1
v 2.1 5.9 -0.1
v -2 5.9 -0.2
v 2.1 5.9 -0.2
v -0.9 3.6 0.1
v 1 3.6 0.1
v -0.9 3.6 0
v 1 3.6 0
v -0.9 3.6 -0.1
v 1 3.6 -0.1
v -0.9 3.6 -0.2
v 1 3.6 -0.2
v -2 6 0.1
v 2.1 6 0.1
v -2 6 -0.2
v 2.1 6 -0.2

# faces
f 3/2/1 2/2/1 1/2/1
f 4/2/1 2/2/1 3/2/1
f 5/3/1 4/3/1 3/3/1
f 6/3/1 4/3/1 5/3/1
f 8/4/1 6/4/1 5/4/1
f 9/4/1 6/4/1 8/4/1
f 11/3/1 9/3/1 8/3/1
f 11/3/1 10/3/1 9/3/1
f 11/3/1 8/3/1 7/3/1
f 12/3/1 10/3/1 11/3/1
f 17/5/1 14/5/1 13/5/1
f 18/5/1 16/5/1 15/5/1
f 19/5/1 17/5/1 13/5/1
f 20/5/1 16/5/1 18/5/1
f 21/5/1 19/5/1 13/5/1
f 22/5/1 16/5/1 20/5/1
f 23/5/1 21/5/1 13/5/1
f 24/5/1 16/5/1 22/5/1
f 25/5/1 23/5/1 13/5/1
f 26/5/1 16/5/1 24/5/1
f 27/5/1 25/5/1 13/5/1
f 28/5/1 16/5/1 26/5/1
f 29/5/1 27/5/1 13/5/1
f 30/5/1 27/5/1 29/5/1
f 31/5/1 16/5/1 28/5/1
f 32/5/1 16/5/1 31/5/1
f 35/5/1 34/5/1 33/5/1
f 36/5/1 34/5/1 35/5/1
f 37/5/2 38/5/2 39/5/2
f 39/5/2 38/5/2 40/5/2
f 41/5/2 42/5/2 45/5/2
f 43/5/2 44/5/2 46/5/2
f 41/5/2 45/5/2 47/5/2
f 46/5/2 44/5/2 48/5/2
f 41/5/2 47/5/2 49/5/2
f 48/5/2 44/5/2 50/5/2
f 41/5/2 49/5/2 51/5/2
f 50/5/2 44/5/2 52/5/2
f 41/5/2 51/5/2 53/5/2
f 52/5/2 44/5/2 54/5/2
f 41/5/2 53/5/2 55/5/2
f 54/5/2 44/5/2 56/5/2
f 41/5/2 55/5/2 57/5/2
f 57/5/2 55/5/2 58/5/2
f 56/5/2 44/5/2 59/5/2
f 59/5/2 44/5/2 60/5/2
f 61/2/2 62/2/2 63/2/2
f 63/2/2 62/2/2 64/2/2
f 63/3/2 64/3/2 65/3/2
f 65/3/2 64/3/2 66/3/2
f 65/4/2 66/4/2 68/4/2
f 68/4/2 66/4/2 69/4/2
f 68/3/2 69/3/2 71/3/2
f 69/3/2 70/3/2 71/3/2
f 67/3/2 68/3/2 71/3/2
f 71/3/2 70/3/2 72/3/2
f 77/5/3 76/5/3 75/5/3
f 78/5/3 76/5/3 77/5/3
f 80/5/3 76/5/3 78/5/3
f 81/5/3 80/5/3 79/5/3
f 82/5/3 76/5/3 80/5/3
f 82/5/3 80/5/3 81/5/3
f 83/3/3 74/3/3 73/3/3
f 84/3/3 74/3/3 83/3/3
f 89/4/3 88/4/3 87/4/3
f 90/4/3 88/4/3 89/4/3
f 91/4/3 88/4/3 90/4/3
f 92/4/3 88/4/3 91/4/3
f 93/4/3 89/4/3 87/4/3
f 93/3/3 90/3/3 89/3/3
f 94/4/3 91/4/3 90/4/3
f 94/3/3 90/3/3 93/3/3
f 95/3/3 92/3/3 91/3/3
f 95/4/3 91/4/3 94/4/3
f 96/4/3 88/4/3 92/4/3
f 96/3/3 92/3/3 95/3/3
f 97/4/3 88/4/3 96/4/3
f 98/4/3 88/4/3 97/4/3
f 99/4/3 95/4/3 94/4/3
f 99/4/3 94/4/3 93/4/3
f 99/3/3 98/3/3 97/3/3
f 99/4/3 97/4/3 96/4/3
f 99/4/3 96/4/3 95/4/3
f 100/4/3 88/4/3 98/4/3
f 100/3/3 98/3/3 99/3/3
f 101/2/3 86/2/3 85/2/3
f 102/2/3 86/2/3 101/2/3
f 103/2/3 86/2/3 102/2/3
f 104/2/3 86/2/3 103/2/3
f 105/2/3 101/2/3 85/2/3
f 106/1/3 102/1/3 101/1/3
f 106/2/3 101/2/3 105/2/3
f 107/2/3 103/2/3 102/2/3
f 107/1/3 102/1/3 106/1/3
f 108/1/3 104/1/3 103/1/3
f 108/2/3 103/2/3 107/2/3
f 109/2/3 86/2/3 104/2/3
f 109/1/3 104/1/3 108/1/3
f 110/3/3 87/3/3 86/3/3
f 110/2/3 86/2/3 109/2/3
f 111/4/3 99/4/3 93/4/3
f 111/3/3 87/3/3 110/3/3
f 111/4/3 93/4/3 87/4/3
f 111/4/3 100/4/3 99/4/3
f 112/4/3 100/4/3 111/4/3
f 113/4/3 100/4/3 112/4/3
f 114/4/3 100/4/3 113/4/3
f 115/4/3 113/4/3 112/4/3
f 115/3/3 114/3/3 113/3/3
f 116/4/3 100/4/3 114/4/3
f 116/3/3 114/3/3 115/3/3
f 124/4/3 115/4/3 112/4/3
f 124/4/3 116/4/3 115/4/3
f 125/2/3 118/2/3 117/2/3
f 125/1/3 119/1/3 118/1/3
f 126/2/3 120/2/3 119/2/3
f 126/1/3 119/1/3 125/1/3
f 127/1/3 121/1/3 120/1/3
f 127/2/3 120/2/3 126/2/3
f 128/2/3 122/2/3 121/2/3
f 128/1/3 121/1/3 127/1/3
f 129/4/3 124/4/3 123/4/3
f 129/4/3 116/4/3 124/4/3
f 130/4/3 116/4/3 129/4/3
f 131/4/3 129/4/3 123/4/3
f 132/4/3 129/4/3 131/4/3
f 133/3/3 130/3/3 129/3/3
f 133/4/3 129/4/3 132/4/3
f 134/4/3 116/4/3 130/4/3
f 134/3/3 130/3/3 133/3/3
f 135/3/3 132/3/3 131/3/3
f 135/4/3 131/4/3 123/4/3
f 136/4/3 133/4/3 132/4/3
f 136/3/3 132/3/3 135/3/3
f 136/4/3 134/4/3 133/4/3
f 137/2/3 127/2/3 126/2/3
f 137/2/3 128/2/3 127/2/3
f 137/2/3 125/2/3 117/2/3
f 137/2/3 126/2/3 125/2/3
f 138/3/3 123/3/3 122/3/3
f 138/2/3 128/2/3 137/2/3
f 138/2/3 122/2/3 128/2/3
f 139/4/3 136/4/3 135/4/3
f 139/3/3 123/3/3 138/3/3
f 139/4/3 135/4/3 123/4/3
f 140/4/3 88/4/3 100/4/3
f 140/4/3 136/4/3 139/4/3
f 140/4/3 134/4/3 136/4/3
f 140/4/3 116/4/3 134/4/3
f 140/4/3 100/4/3 116/4/3
f 143/4/4 144/4/4 145/4/4
f 145/4/4 144/4/4 146/4/4
f 146/4/4 144/4/4 147/4/4
f 147/4/4 144/4/4 148/4/4
f 143/4/4 145/4/4 149/4/4
f 145/3/4 146/3/4 149/3/4
f 146/4/4 147/4/4 150/4/4
f 149/3/4 146/3/4 150/3/4
f 147/3/4 148/3/4 151/3/4
f 150/4/4 147/4/4 151/4/4
f 148/4/4 144/4/4 152/4/4
f 151/3/4 148/3/4 152/3/4
f 152/4/4 144/4/4 153/4/4
f 153/4/4 144/4/4 154/4/4
f 150/4/4 151/4/4 155/4/4
f 149/4/4 150/4/4 155/4/4
f 153/3/4 154/3/4 155/3/4
f 152/4/4 153/4/4 155/4/4
f 151/4/4 152/4/4 155/4/4
f 154/4/4 144/4/4 156/4/4
f 155/3/4 154/3/4 156/3/4
f 141/2/4 142/2/4 157/2/4
f 157/2/4 142/2/4 158/2/4
f 158/2/4 142/2/4 159/2/4
f 159/2/4 142/2/4 160/2/4
f 141/2/4 157/2/4 161/2/4
f 157/1/4 158/1/4 162/1/4
f 161/2/4 157/2/4 162/2/4
f 158/2/4 159/2/4 163/2/4
f 162/1/4 158/1/4 163/1/4
f 159/1/4 160/1/4 164/1/4
f 163/2/4 159/2/4 164/2/4
f 160/2/4 142/2/4 165/2/4
f 164/1/4 160/1/4 165/1/4
f 142/3/4 143/3/4 166/3/4
f 165/2/4 142/2/4 166/2/4
f 149/4/4 155/4/4 167/4/4
f 166/3/4 143/3/4 167/3/4
f 143/4/4 149/4/4 167/4/4
f 155/4/4 156/4/4 167/4/4
f 167/4/4 156/4/4 168/4/4
f 168/4/4 156/4/4 169/4/4
f 169/4/4 156/4/4 170/4/4
f 168/4/4 169/4/4 171/4/4
f 169/3/4 170/3/4 171/3/4
f 170/4/4 156/4/4 172/4/4
f 171/3/4 170/3/4 172/3/4
f 168/4/4 171/4/4 180/4/4
f 171/4/4 172/4/4 180/4/4
f 173/2/4 174/2/4 181/2/4
f 174/1/4 175/1/4 181/1/4
f 175/2/4 176/2/4 182/2/4
f 181/1/4 175/1/4 182/1/4
f 176/1/4 177/1/4 183/1/4
f 182/2/4 176/2/4 183/2/4
f 177/2/4 178/2/4 184/2/4
f 183/1/4 177/1/4 184/1/4
f 179/4/4 180/4/4 185/4/4
f 180/4/4 172/4/4 185/4/4
f 185/4/4 172/4/4 186/4/4
f 179/4/4 185/4/4 187/4/4
f 187/4/4 185/4/4 188/4/4
f 185/3/4 186/3/4 189/3/4
f 188/4/4 185/4/4 189/4/4
f 186/4/4 172/4/4 190/4/4
f 189/3/4 186/3/4 190/3/4
f 187/3/4 188/3/4 191/3/4
f 179/4/4 187/4/4 191/4/4
f 188/4/4 189/4/4 192/4/4
f 191/3/4 188/3/4 192/3/4
f 189/4/4 190/4/4 192/4/4
f 182/2/4 183/2/4 193/2/4
f 183/2/4 184/2/4 193/2/4
f 173/2/4 181/2/4 193/2/4
f 181/2/4 182/2/4 193/2/4
f 178/3/4 179/3/4 194/3/4
f 193/2/4 184/2/4 194/2/4
f 184/2/4 178/2/4 194/2/4
f 191/4/4 192/4/4 195/4/4
f 194/3/4 179/3/4 195/3/4
f 179/4/4 191/4/4 195/4/4
f 156/4/4 144/4/4 196/4/4
f 195/4/4 192/4/4 196/4/4
f 192/4/4 190/4/4 196/4/4
f 190/4/4 172/4/4 196/4/4
f 172/4/4 156/4/4 196/4/4
f 199/5/4 200/5/4 201/5/4
f 201/5/4 200/5/4 202/5/4
f 202/5/4 200/5/4 204/5/4
f 203/5/4 204/5/4 205/5/4
f 204/5/4 200/5/4 206/5/4
f 205/5/4 204/5/4 206/5/4
f 197/3/4 198/3/4 207/3/4
f 207/3/4 198/3/4 208/3/4
f 214/5/5 210/5/5 209/5/5
f 215/5/5 212/5/5 211/5/5
f 217/2/5 214/2/5 213/2/5
f 218/5/5 210/5/5 214/5/5
f 218/2/5 214/2/5 217/2/5
f 219/2/5 216/2/5 215/2/5
f 219/5/5 215/5/5 211/5/5
f 220/2/5 216/2/5 219/2/5
f 221/5/5 210/5/5 218/5/5
f 222/5/5 210/5/5 221/5/5
f 223/5/5 219/5/5 211/5/5
f 224/5/5 219/5/5 223/5/5
f 227/5/5 226/5/5 225/5/5
f 228/5/5 226/5/5 227/5/5
f 231/3/5 230/3/5 229/3/5
f 232/3/5 230/3/5 231/3/5
f 235/3/5 234/3/5 233/3/5
f 236/3/5 234/3/5 235/3/5
f 237/5/6 238/5/6 239/5/6
f 239/5/6 238/5/6 240/5/6
f 241/5/6 242/5/6 243/5/6
f 243/5/6 242/5/6 244/5/6
f 245/3/6 246/3/6 247/3/6
f 247/3/6 246/3/6 248/3/6
