# MagicaVoxel @ Ephtracy

# group
o 

# material
mtllib wall-blue.mtl
usemtl palette

# normals
vn -1 0 0
vn 1 0 0
vn 0 0 1
vn 0 0 -1
vn 0 -1 0
vn 0 1 0

# texcoords
vt 0.00976562 0.5
vt 0.0136719 0.5
vt 0.244141 0.5
vt 0.337891 0.5

# verts
v -2 0 0
v -2 0 -0.1
v -2 0.1 0
v -2 0.1 -0.1
v -2 0.8 0
v -2 0.8 -0.1
v -2 0.9 0
v -2 0.9 -0.1
v -2 5.9 0.1
v -2 5.9 0
v -2 5.9 -0.1
v -2 5.9 -0.2
v -2 6 0.1
v -2 6 -0.2
v 2 0 0
v 2 0 -0.1
v 2 0.1 0
v 2 0.1 -0.1
v 2 0.8 0
v 2 0.8 -0.1
v 2 0.9 0
v 2 0.9 -0.1
v 2 5.9 0.1
v 2 5.9 0
v 2 5.9 -0.1
v 2 5.9 -0.2
v 2 6 0.1
v 2 6 -0.2
v -2 5.9 0.1
v -2 6 0.1
v 2 5.9 0.1
v 2 6 0.1
v -2 0 0
v -2 0.1 0
v -2 0.8 0
v -2 0.9 0
v -2 5.9 0
v 2 0 0
v 2 0.1 0
v 2 0.8 0
v 2 0.9 0
v 2 5.9 0
v -2 0 -0.1
v -2 0.1 -0.1
v -2 0.8 -0.1
v -2 0.9 -0.1
v -2 5.9 -0.1
v 2 0 -0.1
v 2 0.1 -0.1
v 2 0.8 -0.1
v 2 0.9 -0.1
v 2 5.9 -0.1
v -2 5.9 -0.2
v -2 6 -0.2
v 2 5.9 -0.2
v 2 6 -0.2
v -2 0 0
v 2 0 0
v -2 0 -0.1
v 2 0 -0.1
v -2 5.9 0.1
v 2 5.9 0.1
v -2 5.9 0
v 2 5.9 0
v -2 5.9 -0.1
v 2 5.9 -0.1
v -2 5.9 -0.2
v 2 5.9 -0.2
v -2 6 0.1
v 2 6 0.1
v -2 6 -0.2
v 2 6 -0.2

# faces
f 3/1/1 2/1/1 1/1/1
f 4/1/1 2/1/1 3/1/1
f 5/2/1 4/2/1 3/2/1
f 6/2/1 4/2/1 5/2/1
f 7/3/1 6/3/1 5/3/1
f 8/3/1 6/3/1 7/3/1
f 10/2/1 8/2/1 7/2/1
f 11/2/1 8/2/1 10/2/1
f 13/4/1 11/4/1 10/4/1
f 13/4/1 12/4/1 11/4/1
f 13/4/1 10/4/1 9/4/1
f 14/4/1 12/4/1 13/4/1
f 15/1/2 16/1/2 17/1/2
f 17/1/2 16/1/2 18/1/2
f 17/2/2 18/2/2 19/2/2
f 19/2/2 18/2/2 20/2/2
f 19/3/2 20/3/2 21/3/2
f 21/3/2 20/3/2 22/3/2
f 21/2/2 22/2/2 24/2/2
f 24/2/2 22/2/2 25/2/2
f 24/4/2 25/4/2 27/4/2
f 25/4/2 26/4/2 27/4/2
f 23/4/2 24/4/2 27/4/2
f 27/4/2 26/4/2 28/4/2
f 31/4/3 30/4/3 29/4/3
f 32/4/3 30/4/3 31/4/3
f 38/1/3 34/1/3 33/1/3
f 39/2/3 35/2/3 34/2/3
f 39/1/3 34/1/3 38/1/3
f 40/3/3 36/3/3 35/3/3
f 40/2/3 35/2/3 39/2/3
f 41/2/3 37/2/3 36/2/3
f 41/3/3 36/3/3 40/3/3
f 42/2/3 37/2/3 41/2/3
f 43/1/4 44/1/4 48/1/4
f 44/2/4 45/2/4 49/2/4
f 48/1/4 44/1/4 49/1/4
f 45/3/4 46/3/4 50/3/4
f 49/2/4 45/2/4 50/2/4
f 46/2/4 47/2/4 51/2/4
f 50/3/4 46/3/4 51/3/4
f 51/2/4 47/2/4 52/2/4
f 53/4/4 54/4/4 55/4/4
f 55/4/4 54/4/4 56/4/4
f 59/1/5 58/1/5 57/1/5
f 60/1/5 58/1/5 59/1/5
f 63/4/5 62/4/5 61/4/5
f 64/4/5 62/4/5 63/4/5
f 67/4/5 66/4/5 65/4/5
f 68/4/5 66/4/5 67/4/5
f 69/4/6 70/4/6 71/4/6
f 71/4/6 70/4/6 72/4/6
