# MagicaVoxel @ Ephtracy

# group
o 

# material
mtllib wall-yellow.mtl
usemtl palette

# normals
vn -1 0 0
vn 1 0 0
vn 0 0 1
vn 0 0 -1
vn 0 -1 0
vn 0 1 0

# texcoords
vt 0.00976562 0.5
vt 0.154297 0.5
vt 0.337891 0.5
vt 0.341797 0.5

# verts
v -2 0 0
v -2 0 -0.1
v -2 0.1 0
v -2 0.1 -0.1
v -2 4.4 0
v -2 4.4 -0.1
v -2 4.5 0
v -2 4.5 -0.1
v -2 4.6 0
v -2 4.6 -0.1
v -2 4.8 0
v -2 4.8 -0.1
v -2 5.9 0.1
v -2 5.9 0
v -2 5.9 -0.1
v -2 5.9 -0.2
v -2 6 0.1
v -2 6 -0.2
v 2 0 0
v 2 0 -0.1
v 2 0.1 0
v 2 0.1 -0.1
v 2 4.4 0
v 2 4.4 -0.1
v 2 4.5 0
v 2 4.5 -0.1
v 2 4.6 0
v 2 4.6 -0.1
v 2 4.8 0
v 2 4.8 -0.1
v 2 5.9 0.1
v 2 5.9 0
v 2 5.9 -0.1
v 2 5.9 -0.2
v 2 6 0.1
v 2 6 -0.2
v -2 5.9 0.1
v -2 6 0.1
v 2 5.9 0.1
v 2 6 0.1
v -2 0 0
v -2 0.1 0
v -2 4.4 0
v -2 4.5 0
v -2 4.6 0
v -2 4.8 0
v -2 5.9 0
v 2 0 0
v 2 0.1 0
v 2 4.4 0
v 2 4.5 0
v 2 4.6 0
v 2 4.8 0
v 2 5.9 0
v -2 0 -0.1
v -2 0.1 -0.1
v -2 4.4 -0.1
v -2 4.5 -0.1
v -2 4.6 -0.1
v -2 4.8 -0.1
v -2 5.9 -0.1
v 2 0 -0.1
v 2 0.1 -0.1
v 2 4.4 -0.1
v 2 4.5 -0.1
v 2 4.6 -0.1
v 2 4.8 -0.1
v 2 5.9 -0.1
v -2 5.9 -0.2
v -2 6 -0.2
v 2 5.9 -0.2
v 2 6 -0.2
v -2 0 0
v 2 0 0
v -2 0 -0.1
v 2 0 -0.1
v -2 5.9 0.1
v 2 5.9 0.1
v -2 5.9 0
v 2 5.9 0
v -2 5.9 -0.1
v 2 5.9 -0.1
v -2 5.9 -0.2
v 2 5.9 -0.2
v -2 6 0.1
v 2 6 0.1
v -2 6 -0.2
v 2 6 -0.2

# faces
f 3/1/1 2/1/1 1/1/1
f 4/1/1 2/1/1 3/1/1
f 5/4/1 4/4/1 3/4/1
f 6/4/1 4/4/1 5/4/1
f 7/2/1 6/2/1 5/2/1
f 8/2/1 6/2/1 7/2/1
f 9/4/1 8/4/1 7/4/1
f 10/4/1 8/4/1 9/4/1
f 11/2/1 10/2/1 9/2/1
f 12/2/1 10/2/1 11/2/1
f 14/4/1 12/4/1 11/4/1
f 15/4/1 12/4/1 14/4/1
f 17/3/1 15/3/1 14/3/1
f 17/3/1 16/3/1 15/3/1
f 17/3/1 14/3/1 13/3/1
f 18/3/1 16/3/1 17/3/1
f 19/1/2 20/1/2 21/1/2
f 21/1/2 20/1/2 22/1/2
f 21/4/2 22/4/2 23/4/2
f 23/4/2 22/4/2 24/4/2
f 23/2/2 24/2/2 25/2/2
f 25/2/2 24/2/2 26/2/2
f 25/4/2 26/4/2 27/4/2
f 27/4/2 26/4/2 28/4/2
f 27/2/2 28/2/2 29/2/2
f 29/2/2 28/2/2 30/2/2
f 29/4/2 30/4/2 32/4/2
f 32/4/2 30/4/2 33/4/2
f 32/3/2 33/3/2 35/3/2
f 33/3/2 34/3/2 35/3/2
f 31/3/2 32/3/2 35/3/2
f 35/3/2 34/3/2 36/3/2
f 39/3/3 38/3/3 37/3/3
f 40/3/3 38/3/3 39/3/3
f 48/1/3 42/1/3 41/1/3
f 49/4/3 43/4/3 42/4/3
f 49/1/3 42/1/3 48/1/3
f 50/2/3 44/2/3 43/2/3
f 50/4/3 43/4/3 49/4/3
f 51/4/3 45/4/3 44/4/3
f 51/2/3 44/2/3 50/2/3
f 52/2/3 46/2/3 45/2/3
f 52/4/3 45/4/3 51/4/3
f 53/4/3 47/4/3 46/4/3
f 53/2/3 46/2/3 52/2/3
f 54/4/3 47/4/3 53/4/3
f 55/1/4 56/1/4 62/1/4
f 56/4/4 57/4/4 63/4/4
f 62/1/4 56/1/4 63/1/4
f 57/2/4 58/2/4 64/2/4
f 63/4/4 57/4/4 64/4/4
f 58/4/4 59/4/4 65/4/4
f 64/2/4 58/2/4 65/2/4
f 59/2/4 60/2/4 66/2/4
f 65/4/4 59/4/4 66/4/4
f 60/4/4 61/4/4 67/4/4
f 66/2/4 60/2/4 67/2/4
f 67/4/4 61/4/4 68/4/4
f 69/3/4 70/3/4 71/3/4
f 71/3/4 70/3/4 72/3/4
f 75/1/5 74/1/5 73/1/5
f 76/1/5 74/1/5 75/1/5
f 79/3/5 78/3/5 77/3/5
f 80/3/5 78/3/5 79/3/5
f 83/3/5 82/3/5 81/3/5
f 84/3/5 82/3/5 83/3/5
f 85/3/6 86/3/6 87/3/6
f 87/3/6 86/3/6 88/3/6
