# MagicaVoxel @ Ephtracy

# group
o 

# material
mtllib wall-orange-door-frame.mtl
usemtl palette

# normals
vn -1 0 0
vn 1 0 0
vn 0 0 1
vn 0 0 -1
vn 0 -1 0
vn 0 1 0

# texcoords
vt 0.00976562 0.5
vt 0.0175781 0.5
vt 0.142578 0.5
vt 0.337891 0.5
vt 0.341797 0.5

# verts
v -2 0 0
v -2 0 -0.1
v -2 0.1 0
v -2 0.1 -0.1
v -2 4.4 0
v -2 4.4 -0.1
v -2 4.5 0
v -2 4.5 -0.1
v -2 4.6 0
v -2 4.6 -0.1
v -2 5.7 0
v -2 5.7 -0.1
v -2 5.9 0.1
v -2 5.9 0
v -2 5.9 -0.1
v -2 5.9 -0.2
v -2 6 0.1
v -2 6 -0.2
v -1.6 0 0.1
v -1.6 0 0
v -1.6 0 -0.1
v -1.6 0 -0.2
v -1.6 0.1 0
v -1.6 0.1 -0.1
v -1.6 4.4 0
v -1.6 4.4 -0.1
v -1.6 5.3 0.1
v -1.6 5.3 0
v -1.6 5.3 -0.1
v -1.6 5.3 -0.2
v 1.5 0 0.1
v 1.5 0 -0.2
v 1.5 5.2 0.1
v 1.5 5.2 -0.2
v -1.5 0 0.1
v -1.5 0 -0.2
v -1.5 5.2 0.1
v -1.5 5.2 -0.2
v 1.6 0 0.1
v 1.6 0 0
v 1.6 0 -0.1
v 1.6 0 -0.2
v 1.6 0.1 0
v 1.6 0.1 -0.1
v 1.6 4.4 0
v 1.6 4.4 -0.1
v 1.6 5.3 0.1
v 1.6 5.3 0
v 1.6 5.3 -0.1
v 1.6 5.3 -0.2
v 2 0 0
v 2 0 -0.1
v 2 0.1 0
v 2 0.1 -0.1
v 2 4.4 0
v 2 4.4 -0.1
v 2 4.5 0
v 2 4.5 -0.1
v 2 4.6 0
v 2 4.6 -0.1
v 2 5.7 0
v 2 5.7 -0.1
v 2 5.9 0.1
v 2 5.9 0
v 2 5.9 -0.1
v 2 5.9 -0.2
v 2 6 0.1
v 2 6 -0.2
v -2 5.9 0.1
v -2 6 0.1
v -1.6 0 0.1
v -1.6 5.3 0.1
v -1.5 0 0.1
v -1.5 5.2 0.1
v 1.5 0 0.1
v 1.5 5.2 0.1
v 1.6 0 0.1
v 1.6 5.3 0.1
v 2 5.9 0.1
v 2 6 0.1
v -2 0 0
v -2 0.1 0
v -2 4.4 0
v -2 4.5 0
v -2 4.6 0
v -2 5.7 0
v -2 5.9 0
v -1.8 4.6 0
v -1.8 5.5 0
v -1.7 4.5 0
v -1.7 5.4 0
v -1.6 0 0
v -1.6 0.1 0
v -1.6 4.4 0
v -1.6 5.3 0
v 1.6 0 0
v 1.6 0.1 0
v 1.6 4.4 0
v 1.6 5.3 0
v 1.7 4.5 0
v 1.7 5.4 0
v 1.8 4.6 0
v 1.8 5.5 0
v 2 0 0
v 2 0.1 0
v 2 4.4 0
v 2 4.5 0
v 2 4.6 0
v 2 5.7 0
v 2 5.9 0
v -2 0 -0.1
v -2 0.1 -0.1
v -2 4.4 -0.1
v -2 4.5 -0.1
v -2 4.6 -0.1
v -2 5.7 -0.1
v -2 5.9 -0.1
v -1.8 4.6 -0.1
v -1.8 5.5 -0.1
v -1.7 4.5 -0.1
v -1.7 5.4 -0.1
v -1.6 0 -0.1
v -1.6 0.1 -0.1
v -1.6 4.4 -0.1
v -1.6 5.3 -0.1
v 1.6 0 -0.1
v 1.6 0.1 -0.1
v 1.6 4.4 -0.1
v 1.6 5.3 -0.1
v 1.7 4.5 -0.1
v 1.7 5.4 -0.1
v 1.8 4.6 -0.1
v 1.8 5.5 -0.1
v 2 0 -0.1
v 2 0.1 -0.1
v 2 4.4 -0.1
v 2 4.5 -0.1
v 2 4.6 -0.1
v 2 5.7 -0.1
v 2 5.9 -0.1
v -2 5.9 -0.2
v -2 6 -0.2
v -1.6 0 -0.2
v -1.6 5.3 -0.2
v -1.5 0 -0.2
v -1.5 5.2 -0.2
v 1.5 0 -0.2
v 1.5 5.2 -0.2
v 1.6 0 -0.2
v 1.6 5.3 -0.2
v 2 5.9 -0.2
v 2 6 -0.2
v -1.6 0 0.1
v -1.5 0 0.1
v 1.5 0 0.1
v 1.6 0 0.1
v -2 0 0
v -1.6 0 0
v 1.6 0 0
v 2 0 0
v -2 0 -0.1
v -1.6 0 -0.1
v 1.6 0 -0.1
v 2 0 -0.1
v -1.6 0 -0.2
v -1.5 0 -0.2
v 1.5 0 -0.2
v 1.6 0 -0.2
v -1.5 5.2 0.1
v 1.5 5.2 0.1
v -1.5 5.2 -0.2
v 1.5 5.2 -0.2
v -2 5.9 0.1
v 2 5.9 0.1
v -2 5.9 0
v 2 5.9 0
v -2 5.9 -0.1
v 2 5.9 -0.1
v -2 5.9 -0.2
v 2 5.9 -0.2
v -1.6 5.3 0.1
v 1.6 5.3 0.1
v -1.6 5.3 0
v 1.6 5.3 0
v -1.6 5.3 -0.1
v 1.6 5.3 -0.1
v -1.6 5.3 -0.2
v 1.6 5.3 -0.2
v -2 6 0.1
v 2 6 0.1
v -2 6 -0.2
v 2 6 -0.2

# faces
f 3/1/1 2/1/1 1/1/1
f 4/1/1 2/1/1 3/1/1
f 5/5/1 4/5/1 3/5/1
f 6/5/1 4/5/1 5/5/1
f 7/3/1 6/3/1 5/3/1
f 8/3/1 6/3/1 7/3/1
f 9/5/1 8/5/1 7/5/1
f 10/5/1 8/5/1 9/5/1
f 11/3/1 10/3/1 9/3/1
f 12/3/1 10/3/1 11/3/1
f 14/5/1 12/5/1 11/5/1
f 15/5/1 12/5/1 14/5/1
f 17/4/1 15/4/1 14/4/1
f 17/4/1 16/4/1 15/4/1
f 17/4/1 14/4/1 13/4/1
f 18/4/1 16/4/1 17/4/1
f 23/2/1 20/2/1 19/2/1
f 24/2/1 22/2/1 21/2/1
f 25/2/1 23/2/1 19/2/1
f 26/2/1 22/2/1 24/2/1
f 27/2/1 25/2/1 19/2/1
f 28/2/1 25/2/1 27/2/1
f 29/2/1 22/2/1 26/2/1
f 30/2/1 22/2/1 29/2/1
f 33/2/1 32/2/1 31/2/1
f 34/2/1 32/2/1 33/2/1
f 35/2/2 36/2/2 37/2/2
f 37/2/2 36/2/2 38/2/2
f 39/2/2 40/2/2 43/2/2
f 41/2/2 42/2/2 44/2/2
f 39/2/2 43/2/2 45/2/2
f 44/2/2 42/2/2 46/2/2
f 39/2/2 45/2/2 47/2/2
f 47/2/2 45/2/2 48/2/2
f 46/2/2 42/2/2 49/2/2
f 49/2/2 42/2/2 50/2/2
f 51/1/2 52/1/2 53/1/2
f 53/1/2 52/1/2 54/1/2
f 53/5/2 54/5/2 55/5/2
f 55/5/2 54/5/2 56/5/2
f 55/3/2 56/3/2 57/3/2
f 57/3/2 56/3/2 58/3/2
f 57/5/2 58/5/2 59/5/2
f 59/5/2 58/5/2 60/5/2
f 59/3/2 60/3/2 61/3/2
f 61/3/2 60/3/2 62/3/2
f 61/5/2 62/5/2 64/5/2
f 64/5/2 62/5/2 65/5/2
f 64/4/2 65/4/2 67/4/2
f 65/4/2 66/4/2 67/4/2
f 63/4/2 64/4/2 67/4/2
f 67/4/2 66/4/2 68/4/2
f 73/2/3 72/2/3 71/2/3
f 74/2/3 72/2/3 73/2/3
f 76/2/3 72/2/3 74/2/3
f 77/2/3 76/2/3 75/2/3
f 78/2/3 72/2/3 76/2/3
f 78/2/3 76/2/3 77/2/3
f 79/4/3 70/4/3 69/4/3
f 80/4/3 70/4/3 79/4/3
f 88/5/3 85/5/3 84/5/3
f 88/3/3 86/3/3 85/3/3
f 89/3/3 86/3/3 88/3/3
f 90/3/3 84/3/3 83/3/3
f 90/5/3 88/5/3 84/5/3
f 90/5/3 89/5/3 88/5/3
f 91/5/3 89/5/3 90/5/3
f 92/1/3 82/1/3 81/1/3
f 93/5/3 83/5/3 82/5/3
f 93/1/3 82/1/3 92/1/3
f 94/3/3 90/3/3 83/3/3
f 94/5/3 83/5/3 93/5/3
f 94/3/3 91/3/3 90/3/3
f 95/3/3 91/3/3 94/3/3
f 99/3/3 91/3/3 95/3/3
f 100/3/3 99/3/3 98/3/3
f 101/5/3 89/5/3 91/5/3
f 101/3/3 99/3/3 100/3/3
f 101/3/3 91/3/3 99/3/3
f 102/5/3 101/5/3 100/5/3
f 103/3/3 86/3/3 89/3/3
f 103/5/3 101/5/3 102/5/3
f 103/5/3 89/5/3 101/5/3
f 104/1/3 97/1/3 96/1/3
f 105/5/3 98/5/3 97/5/3
f 105/1/3 97/1/3 104/1/3
f 106/3/3 100/3/3 98/3/3
f 106/5/3 98/5/3 105/5/3
f 107/5/3 102/5/3 100/5/3
f 107/3/3 100/3/3 106/3/3
f 108/3/3 103/3/3 102/3/3
f 108/5/3 102/5/3 107/5/3
f 109/5/3 87/5/3 86/5/3
f 109/3/3 103/3/3 108/3/3
f 109/3/3 86/3/3 103/3/3
f 110/5/3 87/5/3 109/5/3
f 114/5/4 115/5/4 118/5/4
f 115/3/4 116/3/4 118/3/4
f 118/3/4 116/3/4 119/3/4
f 113/3/4 114/3/4 120/3/4
f 114/5/4 118/5/4 120/5/4
f 118/5/4 119/5/4 120/5/4
f 120/5/4 119/5/4 121/5/4
f 111/1/4 112/1/4 122/1/4
f 112/5/4 113/5/4 123/5/4
f 122/1/4 112/1/4 123/1/4
f 113/3/4 120/3/4 124/3/4
f 123/5/4 113/5/4 124/5/4
f 120/3/4 121/3/4 124/3/4
f 124/3/4 121/3/4 125/3/4
f 125/3/4 121/3/4 129/3/4
f 128/3/4 129/3/4 130/3/4
f 121/5/4 119/5/4 131/5/4
f 130/3/4 129/3/4 131/3/4
f 129/3/4 121/3/4 131/3/4
f 130/5/4 131/5/4 132/5/4
f 119/3/4 116/3/4 133/3/4
f 132/5/4 131/5/4 133/5/4
f 131/5/4 119/5/4 133/5/4
f 126/1/4 127/1/4 134/1/4
f 127/5/4 128/5/4 135/5/4
f 134/1/4 127/1/4 135/1/4
f 128/3/4 130/3/4 136/3/4
f 135/5/4 128/5/4 136/5/4
f 130/5/4 132/5/4 137/5/4
f 136/3/4 130/3/4 137/3/4
f 132/3/4 133/3/4 138/3/4
f 137/5/4 132/5/4 138/5/4
f 116/5/4 117/5/4 139/5/4
f 138/3/4 133/3/4 139/3/4
f 133/3/4 116/3/4 139/3/4
f 139/5/4 117/5/4 140/5/4
f 143/2/4 144/2/4 145/2/4
f 145/2/4 144/2/4 146/2/4
f 146/2/4 144/2/4 148/2/4
f 147/2/4 148/2/4 149/2/4
f 148/2/4 144/2/4 150/2/4
f 149/2/4 148/2/4 150/2/4
f 141/4/4 142/4/4 151/4/4
f 151/4/4 142/4/4 152/4/4
f 158/2/5 154/2/5 153/2/5
f 159/2/5 156/2/5 155/2/5
f 161/1/5 158/1/5 157/1/5
f 162/2/5 154/2/5 158/2/5
f 162/1/5 158/1/5 161/1/5
f 163/1/5 160/1/5 159/1/5
f 163/2/5 159/2/5 155/2/5
f 164/1/5 160/1/5 163/1/5
f 165/2/5 154/2/5 162/2/5
f 166/2/5 154/2/5 165/2/5
f 167/2/5 163/2/5 155/2/5
f 168/2/5 163/2/5 167/2/5
f 171/2/5 170/2/5 169/2/5
f 172/2/5 170/2/5 171/2/5
f 175/4/5 174/4/5 173/4/5
f 176/4/5 174/4/5 175/4/5
f 179/4/5 178/4/5 177/4/5
f 180/4/5 178/4/5 179/4/5
f 181/2/6 182/2/6 183/2/6
f 183/2/6 182/2/6 184/2/6
f 185/2/6 186/2/6 187/2/6
f 187/2/6 186/2/6 188/2/6
f 189/4/6 190/4/6 191/4/6
f 191/4/6 190/4/6 192/4/6
