# MagicaVoxel @ Ephtracy

# group
o 

# material
mtllib wall-blue-center-arch.mtl
usemtl palette

# normals
vn -1 0 0
vn 1 0 0
vn 0 0 1
vn 0 0 -1
vn 0 -1 0
vn 0 1 0

# texcoords
vt 0.0136719 0.5
vt 0.244141 0.5
vt 0.337891 0.5

# verts
v -2 4.2 0.1
v -2 4.2 -0.2
v -2 4.3 0.1
v -2 4.3 0
v -2 4.3 -0.1
v -2 4.3 -0.2
v -2 5.9 0.1
v -2 5.9 0
v -2 5.9 -0.1
v -2 5.9 -0.2
v -2 6 0.1
v -2 6 -0.2
v 2 4.2 0.1
v 2 4.2 -0.2
v 2 4.3 0.1
v 2 4.3 0
v 2 4.3 -0.1
v 2 4.3 -0.2
v 2 5.9 0.1
v 2 5.9 0
v 2 5.9 -0.1
v 2 5.9 -0.2
v 2 6 0.1
v 2 6 -0.2
v -2 4.2 0.1
v -2 4.3 0.1
v -2 5.9 0.1
v -2 6 0.1
v 2 4.2 0.1
v 2 4.3 0.1
v 2 5.9 0.1
v 2 6 0.1
v -2 4.3 0
v -2 5.9 0
v 2 4.3 0
v 2 5.9 0
v -2 4.3 -0.1
v -2 5.9 -0.1
v 2 4.3 -0.1
v 2 5.9 -0.1
v -2 4.2 -0.2
v -2 4.3 -0.2
v -2 5.9 -0.2
v -2 6 -0.2
v 2 4.2 -0.2
v 2 4.3 -0.2
v 2 5.9 -0.2
v 2 6 -0.2
v -2 4.2 0.1
v 2 4.2 0.1
v -2 4.2 -0.2
v 2 4.2 -0.2
v -2 5.9 0.1
v 2 5.9 0.1
v -2 5.9 0
v 2 5.9 0
v -2 5.9 -0.1
v 2 5.9 -0.1
v -2 5.9 -0.2
v 2 5.9 -0.2
v -2 4.3 0.1
v 2 4.3 0.1
v -2 4.3 0
v 2 4.3 0
v -2 4.3 -0.1
v 2 4.3 -0.1
v -2 4.3 -0.2
v 2 4.3 -0.2
v -2 6 0.1
v 2 6 0.1
v -2 6 -0.2
v 2 6 -0.2

# faces
f 3/2/1 2/2/1 1/2/1
f 4/2/1 2/2/1 3/2/1
f 5/2/1 2/2/1 4/2/1
f 6/2/1 2/2/1 5/2/1
f 8/1/1 5/1/1 4/1/1
f 9/1/1 5/1/1 8/1/1
f 11/3/1 8/3/1 7/3/1
f 11/3/1 10/3/1 9/3/1
f 11/3/1 9/3/1 8/3/1
f 12/3/1 10/3/1 11/3/1
f 13/2/2 14/2/2 15/2/2
f 15/2/2 14/2/2 16/2/2
f 16/2/2 14/2/2 17/2/2
f 17/2/2 14/2/2 18/2/2
f 16/1/2 17/1/2 20/1/2
f 20/1/2 17/1/2 21/1/2
f 19/3/2 20/3/2 23/3/2
f 21/3/2 22/3/2 23/3/2
f 20/3/2 21/3/2 23/3/2
f 23/3/2 22/3/2 24/3/2
f 29/2/3 26/2/3 25/2/3
f 30/2/3 26/2/3 29/2/3
f 31/3/3 28/3/3 27/3/3
f 32/3/3 28/3/3 31/3/3
f 35/1/3 34/1/3 33/1/3
f 36/1/3 34/1/3 35/1/3
f 37/1/4 38/1/4 39/1/4
f 39/1/4 38/1/4 40/1/4
f 41/2/4 42/2/4 45/2/4
f 45/2/4 42/2/4 46/2/4
f 43/3/4 44/3/4 47/3/4
f 47/3/4 44/3/4 48/3/4
f 51/2/5 50/2/5 49/2/5
f 52/2/5 50/2/5 51/2/5
f 55/3/5 54/3/5 53/3/5
f 56/3/5 54/3/5 55/3/5
f 59/3/5 58/3/5 57/3/5
f 60/3/5 58/3/5 59/3/5
f 61/2/6 62/2/6 63/2/6
f 63/2/6 62/2/6 64/2/6
f 65/2/6 66/2/6 67/2/6
f 67/2/6 66/2/6 68/2/6
f 69/3/6 70/3/6 71/3/6
f 71/3/6 70/3/6 72/3/6
