# MagicaVoxel @ Ephtracy

# group
o 

# material
mtllib wall-hallway.mtl
usemtl palette

# normals
vn -1 0 0
vn 1 0 0
vn 0 0 1
vn 0 0 -1
vn 0 -1 0
vn 0 1 0

# texcoords
vt 0.00976562 0.5
vt 0.208984 0.5
vt 0.212891 0.5
vt 0.216797 0.5
vt 0.337891 0.5
vt 0.341797 0.5

# verts
v -2 0 0
v -2 0 -0.1
v -2 0.1 0
v -2 0.1 -0.1
v -2 0.8 0
v -2 0.8 -0.1
v -2 1.5 0
v -2 1.5 -0.1
v -2 1.7 0
v -2 1.7 -0.1
v -2 3.3 0
v -2 3.3 -0.1
v -2 3.4 0
v -2 3.4 -0.1
v -2 5.9 0.1
v -2 5.9 0
v -2 5.9 -0.1
v -2 5.9 -0.2
v -2 6 0.1
v -2 6 -0.2
v 2 0 0
v 2 0 -0.1
v 2 0.1 0
v 2 0.1 -0.1
v 2 0.8 0
v 2 0.8 -0.1
v 2 1.5 0
v 2 1.5 -0.1
v 2 1.7 0
v 2 1.7 -0.1
v 2 3.3 0
v 2 3.3 -0.1
v 2 3.4 0
v 2 3.4 -0.1
v 2 5.9 0.1
v 2 5.9 0
v 2 5.9 -0.1
v 2 5.9 -0.2
v 2 6 0.1
v 2 6 -0.2
v -2 5.9 0.1
v -2 6 0.1
v 2 5.9 0.1
v 2 6 0.1
v -2 0 0
v -2 0.1 0
v -2 0.8 0
v -2 1.5 0
v -2 1.7 0
v -2 3.3 0
v -2 3.4 0
v -2 5.9 0
v -0.4 0.8 0
v -0.4 0.9 0
v 0.4 0.8 0
v 0.4 0.9 0
v 2 0 0
v 2 0.1 0
v 2 0.8 0
v 2 1.5 0
v 2 1.7 0
v 2 3.3 0
v 2 3.4 0
v 2 5.9 0
v -2 0 -0.1
v -2 0.1 -0.1
v -2 0.8 -0.1
v -2 1.5 -0.1
v -2 1.7 -0.1
v -2 3.3 -0.1
v -2 3.4 -0.1
v -2 5.9 -0.1
v -0.4 0.8 -0.1
v -0.4 0.9 -0.1
v 0.4 0.8 -0.1
v 0.4 0.9 -0.1
v 2 0 -0.1
v 2 0.1 -0.1
v 2 0.8 -0.1
v 2 1.5 -0.1
v 2 1.7 -0.1
v 2 3.3 -0.1
v 2 3.4 -0.1
v 2 5.9 -0.1
v -2 5.9 -0.2
v -2 6 -0.2
v 2 5.9 -0.2
v 2 6 -0.2
v -2 0 0
v 2 0 0
v -2 0 -0.1
v 2 0 -0.1
v -2 5.9 0.1
v 2 5.9 0.1
v -2 5.9 0
v 2 5.9 0
v -2 5.9 -0.1
v 2 5.9 -0.1
v -2 5.9 -0.2
v 2 5.9 -0.2
v -2 6 0.1
v 2 6 0.1
v -2 6 -0.2
v 2 6 -0.2

# faces
f 3/1/1 2/1/1 1/1/1
f 4/1/1 2/1/1 3/1/1
f 5/6/1 4/6/1 3/6/1
f 6/6/1 4/6/1 5/6/1
f 7/2/1 6/2/1 5/2/1
f 8/2/1 6/2/1 7/2/1
f 9/3/1 8/3/1 7/3/1
f 10/3/1 8/3/1 9/3/1
f 11/4/1 10/4/1 9/4/1
f 12/4/1 10/4/1 11/4/1
f 13/3/1 12/3/1 11/3/1
f 14/3/1 12/3/1 13/3/1
f 16/6/1 14/6/1 13/6/1
f 17/6/1 14/6/1 16/6/1
f 19/5/1 17/5/1 16/5/1
f 19/5/1 18/5/1 17/5/1
f 19/5/1 16/5/1 15/5/1
f 20/5/1 18/5/1 19/5/1
f 21/1/2 22/1/2 23/1/2
f 23/1/2 22/1/2 24/1/2
f 23/6/2 24/6/2 25/6/2
f 25/6/2 24/6/2 26/6/2
f 25/2/2 26/2/2 27/2/2
f 27/2/2 26/2/2 28/2/2
f 27/3/2 28/3/2 29/3/2
f 29/3/2 28/3/2 30/3/2
f 29/4/2 30/4/2 31/4/2
f 31/4/2 30/4/2 32/4/2
f 31/3/2 32/3/2 33/3/2
f 33/3/2 32/3/2 34/3/2
f 33/6/2 34/6/2 36/6/2
f 36/6/2 34/6/2 37/6/2
f 36/5/2 37/5/2 39/5/2
f 37/5/2 38/5/2 39/5/2
f 35/5/2 36/5/2 39/5/2
f 39/5/2 38/5/2 40/5/2
f 43/5/3 42/5/3 41/5/3
f 44/5/3 42/5/3 43/5/3
f 53/6/3 47/6/3 46/6/3
f 53/2/3 48/2/3 47/2/3
f 54/2/3 48/2/3 53/2/3
f 55/6/3 53/6/3 46/6/3
f 55/6/3 54/6/3 53/6/3
f 56/2/3 48/2/3 54/2/3
f 56/6/3 54/6/3 55/6/3
f 57/1/3 46/1/3 45/1/3
f 58/6/3 55/6/3 46/6/3
f 58/1/3 46/1/3 57/1/3
f 59/2/3 56/2/3 55/2/3
f 59/6/3 55/6/3 58/6/3
f 60/2/3 48/2/3 56/2/3
f 60/2/3 56/2/3 59/2/3
f 60/3/3 49/3/3 48/3/3
f 61/4/3 50/4/3 49/4/3
f 61/3/3 49/3/3 60/3/3
f 62/3/3 51/3/3 50/3/3
f 62/4/3 50/4/3 61/4/3
f 63/6/3 52/6/3 51/6/3
f 63/3/3 51/3/3 62/3/3
f 64/6/3 52/6/3 63/6/3
f 66/6/4 67/6/4 73/6/4
f 67/2/4 68/2/4 73/2/4
f 73/2/4 68/2/4 74/2/4
f 66/6/4 73/6/4 75/6/4
f 73/6/4 74/6/4 75/6/4
f 74/2/4 68/2/4 76/2/4
f 75/6/4 74/6/4 76/6/4
f 65/1/4 66/1/4 77/1/4
f 66/6/4 75/6/4 78/6/4
f 77/1/4 66/1/4 78/1/4
f 75/2/4 76/2/4 79/2/4
f 78/6/4 75/6/4 79/6/4
f 76/2/4 68/2/4 80/2/4
f 79/2/4 76/2/4 80/2/4
f 68/3/4 69/3/4 80/3/4
f 69/4/4 70/4/4 81/4/4
f 80/3/4 69/3/4 81/3/4
f 70/3/4 71/3/4 82/3/4
f 81/4/4 70/4/4 82/4/4
f 71/6/4 72/6/4 83/6/4
f 82/3/4 71/3/4 83/3/4
f 83/6/4 72/6/4 84/6/4
f 85/5/4 86/5/4 87/5/4
f 87/5/4 86/5/4 88/5/4
f 91/1/5 90/1/5 89/1/5
f 92/1/5 90/1/5 91/1/5
f 95/5/5 94/5/5 93/5/5
f 96/5/5 94/5/5 95/5/5
f 99/5/5 98/5/5 97/5/5
f 100/5/5 98/5/5 99/5/5
f 101/5/6 102/5/6 103/5/6
f 103/5/6 102/5/6 104/5/6
