# MagicaVoxel @ Ephtracy

# group
o 

# material
mtllib wall.mtl
usemtl palette

# normals
vn -1 0 0
vn 1 0 0
vn 0 0 1
vn 0 0 -1
vn 0 -1 0
vn 0 1 0

# texcoords
vt 0.228516 0.5
vt 0.232422 0.5
vt 0.337891 0.5
vt 0.341797 0.5

# verts
v -2 0 0
v -2 0 -0.1
v -2 0.8 0
v -2 0.8 -0.1
v -2 0.9 0
v -2 0.9 -0.1
v -2 5.9 0.1
v -2 5.9 0
v -2 5.9 -0.1
v -2 5.9 -0.2
v -2 6 0.1
v -2 6 -0.2
v 2 0 0
v 2 0 -0.1
v 2 0.8 0
v 2 0.8 -0.1
v 2 0.9 0
v 2 0.9 -0.1
v 2 5.9 0.1
v 2 5.9 0
v 2 5.9 -0.1
v 2 5.9 -0.2
v 2 6 0.1
v 2 6 -0.2
v -2 5.9 0.1
v -2 6 0.1
v 2 5.9 0.1
v 2 6 0.1
v -2 0 0
v -2 0.8 0
v -2 0.9 0
v -2 5.9 0
v -1.5 1.5 0
v -1.5 1.6 0
v -1.5 3.3 0
v -1.5 3.4 0
v -1.4 1.5 0
v -1.4 1.6 0
v -1.4 3.3 0
v -1.4 3.4 0
v -1.4 5 0
v -1.4 5.1 0
v -1.3 5 0
v -1.3 5.1 0
v -1.2 0.1 0
v -1.2 0.2 0
v -1.2 0.3 0
v -1.2 0.4 0
v -0.4 3.4 0
v -0.4 3.5 0
v -0.3 3.4 0
v -0.3 3.5 0
v 2.38419e-07 4.8 0
v 2.38419e-07 4.9 0
v 0.1 4.8 0
v 0.1 4.9 0
v 0.3 2.4 0
v 0.3 2.5 0
v 0.4 2.4 0
v 0.4 2.5 0
v 1.2 0.1 0
v 1.2 0.2 0
v 1.2 0.3 0
v 1.2 0.4 0
v 1.3 3.7 0
v 1.3 3.8 0
v 1.4 1.1 0
v 1.4 1.2 0
v 1.4 3.7 0
v 1.4 3.8 0
v 1.5 1.1 0
v 1.5 1.2 0
v 2 0 0
v 2 0.8 0
v 2 0.9 0
v 2 5.9 0
v -2 0 -0.1
v -2 0.8 -0.1
v -2 0.9 -0.1
v -2 5.9 -0.1
v -1.5 1.5 -0.1
v -1.5 1.6 -0.1
v -1.5 3.3 -0.1
v -1.5 3.4 -0.1
v -1.4 1.5 -0.1
v -1.4 1.6 -0.1
v -1.4 3.3 -0.1
v -1.4 3.4 -0.1
v -1.4 5 -0.1
v -1.4 5.1 -0.1
v -1.3 5 -0.1
v -1.3 5.1 -0.1
v -1.2 0.1 -0.1
v -1.2 0.2 -0.1
v -1.2 0.3 -0.1
v -1.2 0.4 -0.1
v -0.4 3.4 -0.1
v -0.4 3.5 -0.1
v -0.3 3.4 -0.1
v -0.3 3.5 -0.1
v 2.38419e-07 4.8 -0.1
v 2.38419e-07 4.9 -0.1
v 0.1 4.8 -0.1
v 0.1 4.9 -0.1
v 0.3 2.4 -0.1
v 0.3 2.5 -0.1
v 0.4 2.4 -0.1
v 0.4 2.5 -0.1
v 1.2 0.1 -0.1
v 1.2 0.2 -0.1
v 1.2 0.3 -0.1
v 1.2 0.4 -0.1
v 1.3 3.7 -0.1
v 1.3 3.8 -0.1
v 1.4 1.1 -0.1
v 1.4 1.2 -0.1
v 1.4 3.7 -0.1
v 1.4 3.8 -0.1
v 1.5 1.1 -0.1
v 1.5 1.2 -0.1
v 2 0 -0.1
v 2 0.8 -0.1
v 2 0.9 -0.1
v 2 5.9 -0.1
v -2 5.9 -0.2
v -2 6 -0.2
v 2 5.9 -0.2
v 2 6 -0.2
v -2 0 0
v 2 0 0
v -2 0 -0.1
v 2 0 -0.1
v -2 5.9 0.1
v 2 5.9 0.1
v -2 5.9 0
v 2 5.9 0
v -2 5.9 -0.1
v 2 5.9 -0.1
v -2 5.9 -0.2
v 2 5.9 -0.2
v -2 6 0.1
v 2 6 0.1
v -2 6 -0.2
v 2 6 -0.2

# faces
f 3/2/1 2/2/1 1/2/1
f 4/2/1 2/2/1 3/2/1
f 5/3/1 4/3/1 3/3/1
f 6/3/1 4/3/1 5/3/1
f 8/4/1 6/4/1 5/4/1
f 9/4/1 6/4/1 8/4/1
f 11/3/1 9/3/1 8/3/1
f 11/3/1 10/3/1 9/3/1
f 11/3/1 8/3/1 7/3/1
f 12/3/1 10/3/1 11/3/1
f 13/2/2 14/2/2 15/2/2
f 15/2/2 14/2/2 16/2/2
f 15/3/2 16/3/2 17/3/2
f 17/3/2 16/3/2 18/3/2
f 17/4/2 18/4/2 20/4/2
f 20/4/2 18/4/2 21/4/2
f 20/3/2 21/3/2 23/3/2
f 21/3/2 22/3/2 23/3/2
f 19/3/2 20/3/2 23/3/2
f 23/3/2 22/3/2 24/3/2
f 27/3/3 26/3/3 25/3/3
f 28/3/3 26/3/3 27/3/3
f 33/4/3 32/4/3 31/4/3
f 34/4/3 32/4/3 33/4/3
f 35/4/3 32/4/3 34/4/3
f 36/4/3 32/4/3 35/4/3
f 37/4/3 33/4/3 31/4/3
f 37/3/3 34/3/3 33/3/3
f 38/4/3 35/4/3 34/4/3
f 38/3/3 34/3/3 37/3/3
f 39/3/3 36/3/3 35/3/3
f 39/4/3 35/4/3 38/4/3
f 40/4/3 32/4/3 36/4/3
f 40/3/3 36/3/3 39/3/3
f 41/4/3 32/4/3 40/4/3
f 42/4/3 32/4/3 41/4/3
f 43/4/3 39/4/3 38/4/3
f 43/4/3 38/4/3 37/4/3
f 43/3/3 42/3/3 41/3/3
f 43/4/3 41/4/3 40/4/3
f 43/4/3 40/4/3 39/4/3
f 44/4/3 32/4/3 42/4/3
f 44/3/3 42/3/3 43/3/3
f 45/2/3 30/2/3 29/2/3
f 46/2/3 30/2/3 45/2/3
f 47/2/3 30/2/3 46/2/3
f 48/2/3 30/2/3 47/2/3
f 49/4/3 43/4/3 37/4/3
f 49/4/3 44/4/3 43/4/3
f 50/4/3 44/4/3 49/4/3
f 51/4/3 49/4/3 37/4/3
f 51/3/3 50/3/3 49/3/3
f 52/4/3 44/4/3 50/4/3
f 52/3/3 50/3/3 51/3/3
f 53/4/3 52/4/3 51/4/3
f 53/4/3 44/4/3 52/4/3
f 54/4/3 44/4/3 53/4/3
f 55/4/3 53/4/3 51/4/3
f 55/3/3 54/3/3 53/3/3
f 56/4/3 44/4/3 54/4/3
f 56/3/3 54/3/3 55/3/3
f 57/4/3 51/4/3 37/4/3
f 57/4/3 55/4/3 51/4/3
f 57/4/3 56/4/3 55/4/3
f 58/4/3 56/4/3 57/4/3
f 59/4/3 57/4/3 37/4/3
f 59/3/3 58/3/3 57/3/3
f 60/4/3 56/4/3 58/4/3
f 60/3/3 58/3/3 59/3/3
f 61/2/3 45/2/3 29/2/3
f 61/1/3 46/1/3 45/1/3
f 62/2/3 47/2/3 46/2/3
f 62/1/3 46/1/3 61/1/3
f 63/1/3 48/1/3 47/1/3
f 63/2/3 47/2/3 62/2/3
f 64/2/3 30/2/3 48/2/3
f 64/1/3 48/1/3 63/1/3
f 65/4/3 56/4/3 60/4/3
f 65/4/3 60/4/3 59/4/3
f 66/4/3 56/4/3 65/4/3
f 67/4/3 37/4/3 31/4/3
f 67/4/3 59/4/3 37/4/3
f 67/4/3 65/4/3 59/4/3
f 68/4/3 65/4/3 67/4/3
f 69/3/3 66/3/3 65/3/3
f 69/4/3 65/4/3 68/4/3
f 70/4/3 56/4/3 66/4/3
f 70/3/3 66/3/3 69/3/3
f 71/3/3 68/3/3 67/3/3
f 71/4/3 67/4/3 31/4/3
f 72/4/3 69/4/3 68/4/3
f 72/3/3 68/3/3 71/3/3
f 72/4/3 70/4/3 69/4/3
f 73/2/3 63/2/3 62/2/3
f 73/2/3 62/2/3 61/2/3
f 73/2/3 64/2/3 63/2/3
f 73/2/3 61/2/3 29/2/3
f 74/3/3 31/3/3 30/3/3
f 74/2/3 64/2/3 73/2/3
f 74/2/3 30/2/3 64/2/3
f 75/4/3 71/4/3 31/4/3
f 75/3/3 31/3/3 74/3/3
f 75/4/3 72/4/3 71/4/3
f 76/4/3 32/4/3 44/4/3
f 76/4/3 72/4/3 75/4/3
f 76/4/3 70/4/3 72/4/3
f 76/4/3 44/4/3 56/4/3
f 76/4/3 56/4/3 70/4/3
f 79/4/4 80/4/4 81/4/4
f 81/4/4 80/4/4 82/4/4
f 82/4/4 80/4/4 83/4/4
f 83/4/4 80/4/4 84/4/4
f 79/4/4 81/4/4 85/4/4
f 81/3/4 82/3/4 85/3/4
f 82/4/4 83/4/4 86/4/4
f 85/3/4 82/3/4 86/3/4
f 83/3/4 84/3/4 87/3/4
f 86/4/4 83/4/4 87/4/4
f 84/4/4 80/4/4 88/4/4
f 87/3/4 84/3/4 88/3/4
f 88/4/4 80/4/4 89/4/4
f 89/4/4 80/4/4 90/4/4
f 86/4/4 87/4/4 91/4/4
f 85/4/4 86/4/4 91/4/4
f 89/3/4 90/3/4 91/3/4
f 88/4/4 89/4/4 91/4/4
f 87/4/4 88/4/4 91/4/4
f 90/4/4 80/4/4 92/4/4
f 91/3/4 90/3/4 92/3/4
f 77/2/4 78/2/4 93/2/4
f 93/2/4 78/2/4 94/2/4
f 94/2/4 78/2/4 95/2/4
f 95/2/4 78/2/4 96/2/4
f 85/4/4 91/4/4 97/4/4
f 91/4/4 92/4/4 97/4/4
f 97/4/4 92/4/4 98/4/4
f 85/4/4 97/4/4 99/4/4
f 97/3/4 98/3/4 99/3/4
f 98/4/4 92/4/4 100/4/4
f 99/3/4 98/3/4 100/3/4
f 99/4/4 100/4/4 101/4/4
f 100/4/4 92/4/4 101/4/4
f 101/4/4 92/4/4 102/4/4
f 99/4/4 101/4/4 103/4/4
f 101/3/4 102/3/4 103/3/4
f 102/4/4 92/4/4 104/4/4
f 103/3/4 102/3/4 104/3/4
f 85/4/4 99/4/4 105/4/4
f 99/4/4 103/4/4 105/4/4
f 103/4/4 104/4/4 105/4/4
f 105/4/4 104/4/4 106/4/4
f 85/4/4 105/4/4 107/4/4
f 105/3/4 106/3/4 107/3/4
f 106/4/4 104/4/4 108/4/4
f 107/3/4 106/3/4 108/3/4
f 77/2/4 93/2/4 109/2/4
f 93/1/4 94/1/4 109/1/4
f 94/2/4 95/2/4 110/2/4
f 109/1/4 94/1/4 110/1/4
f 95/1/4 96/1/4 111/1/4
f 110/2/4 95/2/4 111/2/4
f 96/2/4 78/2/4 112/2/4
f 111/1/4 96/1/4 112/1/4
f 108/4/4 104/4/4 113/4/4
f 107/4/4 108/4/4 113/4/4
f 113/4/4 104/4/4 114/4/4
f 79/4/4 85/4/4 115/4/4
f 85/4/4 107/4/4 115/4/4
f 107/4/4 113/4/4 115/4/4
f 115/4/4 113/4/4 116/4/4
f 113/3/4 114/3/4 117/3/4
f 116/4/4 113/4/4 117/4/4
f 114/4/4 104/4/4 118/4/4
f 117/3/4 114/3/4 118/3/4
f 115/3/4 116/3/4 119/3/4
f 79/4/4 115/4/4 119/4/4
f 116/4/4 117/4/4 120/4/4
f 119/3/4 116/3/4 120/3/4
f 117/4/4 118/4/4 120/4/4
f 110/2/4 111/2/4 121/2/4
f 109/2/4 110/2/4 121/2/4
f 111/2/4 112/2/4 121/2/4
f 77/2/4 109/2/4 121/2/4
f 78/3/4 79/3/4 122/3/4
f 121/2/4 112/2/4 122/2/4
f 112/2/4 78/2/4 122/2/4
f 79/4/4 119/4/4 123/4/4
f 122/3/4 79/3/4 123/3/4
f 119/4/4 120/4/4 123/4/4
f 92/4/4 80/4/4 124/4/4
f 123/4/4 120/4/4 124/4/4
f 120/4/4 118/4/4 124/4/4
f 104/4/4 92/4/4 124/4/4
f 118/4/4 104/4/4 124/4/4
f 125/3/4 126/3/4 127/3/4
f 127/3/4 126/3/4 128/3/4
f 131/2/5 130/2/5 129/2/5
f 132/2/5 130/2/5 131/2/5
f 135/3/5 134/3/5 133/3/5
f 136/3/5 134/3/5 135/3/5
f 139/3/5 138/3/5 137/3/5
f 140/3/5 138/3/5 139/3/5
f 141/3/6 142/3/6 143/3/6
f 143/3/6 142/3/6 144/3/6
