# MagicaVoxel @ Ephtracy

# group
o 

# material
mtllib chair.mtl
usemtl palette

# normals
vn -1 0 0
vn 1 0 0
vn 0 0 1
vn 0 0 -1
vn 0 -1 0
vn 0 1 0

# texcoords
vt 0.0136719 0.5
vt 0.0761719 0.5
vt 0.0800781 0.5

# verts
v -0.5 0 0.6
v -0.5 0 0.5
v -0.5 0 -0.3
v -0.5 0 -0.4
v -0.5 0.6 0.5
v -0.5 0.6 -0.3
v -0.5 0.6 -0.4
v -0.5 0.7 0.5
v -0.5 0.7 -0.4
v -0.5 1.5 0.6
v -0.5 1.5 0.5
v -0.5 1.6 0.6
v -0.5 1.6 0.5
v -0.4 0.6 -0.4
v -0.4 0.6 -0.5
v -0.4 0.7 -0.4
v -0.4 0.7 -0.5
v -0.4 1.6 0.6
v -0.4 1.6 0.5
v -0.4 1.7 0.6
v -0.4 1.7 0.5
v 0.4 0 0.6
v 0.4 0 0.5
v 0.4 0 -0.3
v 0.4 0 -0.4
v 0.4 0.6 0.6
v 0.4 0.6 0.5
v 0.4 0.6 -0.3
v 0.4 0.6 -0.4
v 0.4 0.7 0.6
v 0.4 0.7 0.5
v 0.4 1 0.6
v 0.4 1 0.5
v -0.4 0 0.6
v -0.4 0 0.5
v -0.4 0 -0.3
v -0.4 0 -0.4
v -0.4 0.6 0.6
v -0.4 0.6 0.5
v -0.4 0.6 -0.3
v -0.4 0.6 -0.4
v -0.4 0.7 0.6
v -0.4 0.7 0.5
v -0.4 1 0.6
v -0.4 1 0.5
v 0.4 0.6 -0.4
v 0.4 0.6 -0.5
v 0.4 0.7 -0.4
v 0.4 0.7 -0.5
v 0.4 1.6 0.6
v 0.4 1.6 0.5
v 0.4 1.7 0.6
v 0.4 1.7 0.5
v 0.5 0 0.6
v 0.5 0 0.5
v 0.5 0 -0.3
v 0.5 0 -0.4
v 0.5 0.6 0.5
v 0.5 0.6 -0.3
v 0.5 0.6 -0.4
v 0.5 0.7 0.5
v 0.5 0.7 -0.4
v 0.5 1.5 0.6
v 0.5 1.5 0.5
v 0.5 1.6 0.6
v 0.5 1.6 0.5
v -0.5 0 0.6
v -0.5 1.5 0.6
v -0.5 1.6 0.6
v -0.4 0 0.6
v -0.4 0.6 0.6
v -0.4 0.7 0.6
v -0.4 1 0.6
v -0.4 1.1 0.6
v -0.4 1.5 0.6
v -0.4 1.6 0.6
v -0.4 1.7 0.6
v 0.4 0 0.6
v 0.4 0.6 0.6
v 0.4 0.7 0.6
v 0.4 1 0.6
v 0.4 1.1 0.6
v 0.4 1.5 0.6
v 0.4 1.6 0.6
v 0.4 1.7 0.6
v 0.5 0 0.6
v 0.5 1.5 0.6
v 0.5 1.6 0.6
v -0.5 0 -0.3
v -0.5 0.6 -0.3
v -0.4 0 -0.3
v -0.4 0.6 -0.3
v 0.4 0 -0.3
v 0.4 0.6 -0.3
v 0.5 0 -0.3
v 0.5 0.6 -0.3
v -0.5 0 0.5
v -0.5 0.6 0.5
v -0.5 0.7 0.5
v -0.5 1.5 0.5
v -0.5 1.6 0.5
v -0.4 0 0.5
v -0.4 0.6 0.5
v -0.4 0.7 0.5
v -0.4 1 0.5
v -0.4 1.1 0.5
v -0.4 1.5 0.5
v -0.4 1.6 0.5
v -0.4 1.7 0.5
v 0.4 0 0.5
v 0.4 0.6 0.5
v 0.4 0.7 0.5
v 0.4 1 0.5
v 0.4 1.1 0.5
v 0.4 1.5 0.5
v 0.4 1.6 0.5
v 0.4 1.7 0.5
v 0.5 0 0.5
v 0.5 0.6 0.5
v 0.5 0.7 0.5
v 0.5 1.5 0.5
v 0.5 1.6 0.5
v -0.5 0 -0.4
v -0.5 0.6 -0.4
v -0.5 0.7 -0.4
v -0.4 0 -0.4
v -0.4 0.6 -0.4
v -0.4 0.7 -0.4
v 0.4 0 -0.4
v 0.4 0.6 -0.4
v 0.4 0.7 -0.4
v 0.5 0 -0.4
v 0.5 0.6 -0.4
v 0.5 0.7 -0.4
v -0.4 0.6 -0.5
v -0.4 0.7 -0.5
v 0.4 0.6 -0.5
v 0.4 0.7 -0.5
v -0.5 0 0.6
v -0.4 0 0.6
v 0.4 0 0.6
v 0.5 0 0.6
v -0.5 0 0.5
v -0.4 0 0.5
v 0.4 0 0.5
v 0.5 0 0.5
v -0.5 0 -0.3
v -0.4 0 -0.3
v 0.4 0 -0.3
v 0.5 0 -0.3
v -0.5 0 -0.4
v -0.4 0 -0.4
v 0.4 0 -0.4
v 0.5 0 -0.4
v -0.4 0.6 0.6
v 0.4 0.6 0.6
v -0.5 0.6 0.5
v -0.4 0.6 0.5
v 0.4 0.6 0.5
v 0.5 0.6 0.5
v -0.5 0.6 -0.3
v -0.4 0.6 -0.3
v 0.4 0.6 -0.3
v 0.5 0.6 -0.3
v -0.4 0.6 -0.4
v 0.4 0.6 -0.4
v -0.4 0.6 -0.5
v 0.4 0.6 -0.5
v -0.4 1 0.6
v 0.4 1 0.6
v -0.4 1 0.5
v 0.4 1 0.5
v -0.4 0.7 0.6
v 0.4 0.7 0.6
v -0.5 0.7 0.5
v -0.4 0.7 0.5
v 0.4 0.7 0.5
v 0.5 0.7 0.5
v -0.5 0.7 -0.4
v -0.4 0.7 -0.4
v 0.4 0.7 -0.4
v 0.5 0.7 -0.4
v -0.4 0.7 -0.5
v 0.4 0.7 -0.5
v -0.5 1.6 0.6
v -0.4 1.6 0.6
v 0.4 1.6 0.6
v 0.5 1.6 0.6
v -0.5 1.6 0.5
v -0.4 1.6 0.5
v 0.4 1.6 0.5
v 0.5 1.6 0.5
v -0.4 1.7 0.6
v 0.4 1.7 0.6
v -0.4 1.7 0.5
v 0.4 1.7 0.5

# faces
f 5/1/1 2/1/1 1/1/1
f 6/1/1 4/1/1 3/1/1
f 7/1/1 4/1/1 6/1/1
f 8/1/1 5/1/1 1/1/1
f 8/2/1 6/2/1 5/2/1
f 8/2/1 7/2/1 6/2/1
f 9/2/1 7/2/1 8/2/1
f 10/1/1 8/1/1 1/1/1
f 11/1/1 8/1/1 10/1/1
f 12/2/1 11/2/1 10/2/1
f 13/2/1 11/2/1 12/2/1
f 16/2/1 15/2/1 14/2/1
f 17/2/1 15/2/1 16/2/1
f 20/2/1 19/2/1 18/2/1
f 21/2/1 19/2/1 20/2/1
f 26/1/1 23/1/1 22/1/1
f 27/1/1 23/1/1 26/1/1
f 28/1/1 25/1/1 24/1/1
f 29/1/1 25/1/1 28/1/1
f 32/1/1 31/1/1 30/1/1
f 33/1/1 31/1/1 32/1/1
f 34/1/2 35/1/2 38/1/2
f 38/1/2 35/1/2 39/1/2
f 36/1/2 37/1/2 40/1/2
f 40/1/2 37/1/2 41/1/2
f 42/1/2 43/1/2 44/1/2
f 44/1/2 43/1/2 45/1/2
f 46/2/2 47/2/2 48/2/2
f 48/2/2 47/2/2 49/2/2
f 50/2/2 51/2/2 52/2/2
f 52/2/2 51/2/2 53/2/2
f 54/1/2 55/1/2 58/1/2
f 56/1/2 57/1/2 59/1/2
f 59/1/2 57/1/2 60/1/2
f 54/1/2 58/1/2 61/1/2
f 58/2/2 59/2/2 61/2/2
f 59/2/2 60/2/2 61/2/2
f 61/2/2 60/2/2 62/2/2
f 54/1/2 61/1/2 63/1/2
f 63/1/2 61/1/2 64/1/2
f 63/2/2 64/2/2 65/2/2
f 65/2/2 64/2/2 66/2/2
f 70/1/3 68/1/3 67/1/3
f 71/1/3 68/1/3 70/1/3
f 72/1/3 68/1/3 71/1/3
f 73/1/3 68/1/3 72/1/3
f 74/1/3 68/1/3 73/1/3
f 75/2/3 69/2/3 68/2/3
f 75/1/3 68/1/3 74/1/3
f 76/2/3 69/2/3 75/2/3
f 79/2/3 72/2/3 71/2/3
f 80/2/3 72/2/3 79/2/3
f 81/2/3 74/2/3 73/2/3
f 82/3/3 75/3/3 74/3/3
f 82/3/3 76/3/3 75/3/3
f 82/2/3 74/2/3 81/2/3
f 83/3/3 76/3/3 82/3/3
f 84/2/3 77/2/3 76/2/3
f 84/3/3 76/3/3 83/3/3
f 85/2/3 77/2/3 84/2/3
f 86/1/3 80/1/3 79/1/3
f 86/1/3 83/1/3 82/1/3
f 86/1/3 81/1/3 80/1/3
f 86/1/3 82/1/3 81/1/3
f 86/1/3 79/1/3 78/1/3
f 87/2/3 84/2/3 83/2/3
f 87/1/3 83/1/3 86/1/3
f 88/2/3 84/2/3 87/2/3
f 91/1/3 90/1/3 89/1/3
f 92/1/3 90/1/3 91/1/3
f 95/1/3 94/1/3 93/1/3
f 96/1/3 94/1/3 95/1/3
f 97/1/4 98/1/4 102/1/4
f 102/1/4 98/1/4 103/1/4
f 99/1/4 100/1/4 104/1/4
f 104/1/4 100/1/4 105/1/4
f 105/1/4 100/1/4 106/1/4
f 100/2/4 101/2/4 107/2/4
f 106/1/4 100/1/4 107/1/4
f 107/2/4 101/2/4 108/2/4
f 105/2/4 106/2/4 113/2/4
f 107/3/4 108/3/4 114/3/4
f 106/3/4 107/3/4 114/3/4
f 113/2/4 106/2/4 114/2/4
f 114/3/4 108/3/4 115/3/4
f 108/2/4 109/2/4 116/2/4
f 115/3/4 108/3/4 116/3/4
f 116/2/4 109/2/4 117/2/4
f 110/1/4 111/1/4 118/1/4
f 118/1/4 111/1/4 119/1/4
f 114/1/4 115/1/4 120/1/4
f 112/1/4 113/1/4 120/1/4
f 113/1/4 114/1/4 120/1/4
f 115/2/4 116/2/4 121/2/4
f 120/1/4 115/1/4 121/1/4
f 121/2/4 116/2/4 122/2/4
f 123/1/4 124/1/4 126/1/4
f 124/2/4 125/2/4 127/2/4
f 126/1/4 124/1/4 127/1/4
f 127/2/4 125/2/4 128/2/4
f 129/1/4 130/1/4 132/1/4
f 130/2/4 131/2/4 133/2/4
f 132/1/4 130/1/4 133/1/4
f 133/2/4 131/2/4 134/2/4
f 135/2/4 136/2/4 137/2/4
f 137/2/4 136/2/4 138/2/4
f 143/1/5 140/1/5 139/1/5
f 144/1/5 140/1/5 143/1/5
f 145/1/5 142/1/5 141/1/5
f 146/1/5 142/1/5 145/1/5
f 151/1/5 148/1/5 147/1/5
f 152/1/5 148/1/5 151/1/5
f 153/1/5 150/1/5 149/1/5
f 154/1/5 150/1/5 153/1/5
f 158/2/5 156/2/5 155/2/5
f 159/2/5 156/2/5 158/2/5
f 161/2/5 158/2/5 157/2/5
f 162/3/5 159/3/5 158/3/5
f 162/2/5 158/2/5 161/2/5
f 163/2/5 160/2/5 159/2/5
f 163/3/5 159/3/5 162/3/5
f 164/2/5 160/2/5 163/2/5
f 165/3/5 163/3/5 162/3/5
f 166/3/5 163/3/5 165/3/5
f 167/2/5 166/2/5 165/2/5
f 168/2/5 166/2/5 167/2/5
f 171/2/5 170/2/5 169/2/5
f 172/2/5 170/2/5 171/2/5
f 173/2/6 174/2/6 176/2/6
f 176/2/6 174/2/6 177/2/6
f 175/2/6 176/2/6 179/2/6
f 176/3/6 177/3/6 180/3/6
f 179/2/6 176/2/6 180/2/6
f 177/2/6 178/2/6 181/2/6
f 180/3/6 177/3/6 181/3/6
f 181/2/6 178/2/6 182/2/6
f 180/2/6 181/2/6 183/2/6
f 183/2/6 181/2/6 184/2/6
f 185/2/6 186/2/6 189/2/6
f 189/2/6 186/2/6 190/2/6
f 187/2/6 188/2/6 191/2/6
f 191/2/6 188/2/6 192/2/6
f 193/2/6 194/2/6 195/2/6
f 195/2/6 194/2/6 196/2/6
