# MagicaVoxel @ Ephtracy

# group
o 

# material
mtllib floor-1.mtl
usemtl palette

# normals
vn -1 0 0
vn 1 0 0
vn 0 0 1
vn 0 0 -1
vn 0 -1 0
vn 0 1 0

# texcoords
vt 0.00585938 0.5
vt 0.0175781 0.5
vt 0.0253906 0.5
vt 0.154297 0.5

# verts
v -2 0 0
v -2 0 -0.1
v -2 2.9 0
v -2 2.9 -0.1
v 2 0 0
v 2 0 -0.1
v 2 2.9 0
v 2 2.9 -0.1
v -2 0 0
v -2 2.9 0
v -1.9 0.1 0
v -1.9 2.8 0
v -1.7 0.4 0
v -1.7 0.5 0
v -1.7 0.8 0
v -1.7 0.9 0
v -1.7 1.2 0
v -1.7 1.5 0
v -1.7 1.6 0
v -1.7 1.7 0
v -1.7 2 0
v -1.7 2.1 0
v -1.7 2.4 0
v -1.7 2.5 0
v -1.6 0.5 0
v -1.6 0.8 0
v -1.6 1.3 0
v -1.6 1.4 0
v -1.6 2.2 0
v -1.6 2.3 0
v -1.5 0.5 0
v -1.5 0.9 0
v -1.5 1.5 0
v -1.5 1.6 0
v -1.5 2.1 0
v -1.5 2.2 0
v -1.5 2.3 0
v -1.5 2.4 0
v -1.4 0.4 0
v -1.4 0.5 0
v -1.4 1.2 0
v -1.4 1.3 0
v -1.4 1.4 0
v -1.4 1.7 0
v -1.4 2 0
v -1.4 2.5 0
v -1.3 0.4 0
v -1.3 0.5 0
v -1.3 1.2 0
v -1.3 1.3 0
v -1.3 2 0
v -1.3 2.1 0
v -1.2 0.4 0
v -1.2 0.5 0
v -1.2 1.2 0
v -1.2 1.3 0
v -1.2 2 0
v -1.2 2.1 0
v -1 0.4 0
v -1 0.5 0
v -1 0.6 0
v -1 0.8 0
v -1 1.2 0
v -1 1.7 0
v -1 2.1 0
v -1 2.4 0
v -0.9 0.7 0
v -0.9 0.8 0
v -0.9 0.9 0
v -0.9 1.3 0
v -0.9 1.7 0
v -0.9 2 0
v -0.9 2.1 0
v -0.9 2.4 0
v -0.9 2.5 0
v -0.8 0.4 0
v -0.8 0.5 0
v -0.8 0.6 0
v -0.7 0.5 0
v -0.7 0.7 0
v -0.7 0.8 0
v -0.7 0.9 0
v -0.7 1.2 0
v -0.7 1.3 0
v -0.7 2 0
v -0.7 2.1 0
v -0.7 2.4 0
v -0.7 2.5 0
v -0.6 0.7 0
v -0.6 0.8 0
v -0.6 1.2 0
v -0.6 1.6 0
v -0.6 2 0
v -0.6 2.3 0
v -0.5 0.4 0
v -0.5 0.7 0
v -0.5 1.2 0
v -0.5 1.3 0
v -0.5 1.4 0
v -0.5 1.5 0
v -0.5 2.1 0
v -0.5 2.3 0
v -0.5 2.4 0
v -0.4 0.4 0
v -0.4 0.7 0
v -0.4 1.2 0
v -0.4 1.3 0
v -0.4 1.4 0
v -0.4 1.5 0
v -0.4 2 0
v -0.4 2.1 0
v -0.4 2.3 0
v -0.3 0.7 0
v -0.3 0.8 0
v -0.3 1.2 0
v -0.3 1.6 0
v -0.3 2.1 0
v -0.3 2.4 0
v -0.2 0.5 0
v -0.2 0.8 0
v -0.2 1.2 0
v -0.2 1.6 0
v -0.2 2 0
v -0.2 2.4 0
v -0.0999999 0.4 0
v -0.0999999 0.5 0
v -0.0999999 0.8 0
v -0.0999999 1.3 0
v -0.0999999 1.4 0
v -0.0999999 2 0
v -0.0999999 2.1 0
v -0.0999999 2.2 0
v -0.0999999 2.3 0
v 2.38419e-07 0.5 0
v 2.38419e-07 0.8 0
v 2.38419e-07 1.3 0
v 2.38419e-07 1.4 0
v 2.38419e-07 1.6 0
v 2.38419e-07 2 0
v 2.38419e-07 2.1 0
v 2.38419e-07 2.2 0
v 2.38419e-07 2.3 0
v 0.1 0.4 0
v 0.1 0.8 0
v 0.1 1.2 0
v 0.1 1.4 0
v 0.1 2 0
v 0.1 2.1 0
v 0.1 2.2 0
v 0.1 2.4 0
v 0.2 0.4 0
v 0.2 0.8 0
v 0.2 2 0
v 0.2 2.4 0
v 0.3 0.5 0
v 0.3 0.7 0
v 0.3 2.1 0
v 0.3 2.2 0
v 0.4 0.4 0
v 0.4 0.5 0
v 0.4 0.7 0
v 0.4 0.8 0
v 0.4 2.2 0
v 0.4 2.3 0
v 0.5 0.5 0
v 0.5 0.7 0
v 0.5 2 0
v 0.5 2.1 0
v 0.5 2.3 0
v 0.5 2.4 0
v 0.6 0.4 0
v 0.6 0.5 0
v 0.6 0.6 0
v 0.6 0.8 0
v 0.7 0.7 0
v 0.7 0.8 0
v 0.8 0.5 0
v 0.8 0.6 0
v 0.8 0.7 0
v 0.8 0.8 0
v 0.9 0.4 0
v 0.9 0.8 0
v 1.9 0.1 0
v 1.9 2.8 0
v 2 0 0
v 2 2.9 0
v -2 0 -0.1
v -2 2.9 -0.1
v -1.9 0.1 -0.1
v -1.9 2.8 -0.1
v -1.7 0.4 -0.1
v -1.7 0.5 -0.1
v -1.7 0.8 -0.1
v -1.7 0.9 -0.1
v -1.7 1.2 -0.1
v -1.7 1.5 -0.1
v -1.7 1.6 -0.1
v -1.7 1.7 -0.1
v -1.7 2 -0.1
v -1.7 2.1 -0.1
v -1.7 2.4 -0.1
v -1.7 2.5 -0.1
v -1.6 0.5 -0.1
v -1.6 0.8 -0.1
v -1.6 1.3 -0.1
v -1.6 1.4 -0.1
v -1.6 2.2 -0.1
v -1.6 2.3 -0.1
v -1.5 0.5 -0.1
v -1.5 0.9 -0.1
v -1.5 1.5 -0.1
v -1.5 1.6 -0.1
v -1.5 2.1 -0.1
v -1.5 2.2 -0.1
v -1.5 2.3 -0.1
v -1.5 2.4 -0.1
v -1.4 0.4 -0.1
v -1.4 0.5 -0.1
v -1.4 1.2 -0.1
v -1.4 1.3 -0.1
v -1.4 1.4 -0.1
v -1.4 1.7 -0.1
v -1.4 2 -0.1
v -1.4 2.5 -0.1
v -1.3 0.4 -0.1
v -1.3 0.5 -0.1
v -1.3 1.2 -0.1
v -1.3 1.3 -0.1
v -1.3 2 -0.1
v -1.3 2.1 -0.1
v -1.2 0.4 -0.1
v -1.2 0.5 -0.1
v -1.2 1.2 -0.1
v -1.2 1.3 -0.1
v -1.2 2 -0.1
v -1.2 2.1 -0.1
v -1 0.4 -0.1
v -1 0.5 -0.1
v -1 0.6 -0.1
v -1 0.8 -0.1
v -1 1.2 -0.1
v -1 1.7 -0.1
v -1 2.1 -0.1
v -1 2.4 -0.1
v -0.9 0.7 -0.1
v -0.9 0.8 -0.1
v -0.9 0.9 -0.1
v -0.9 1.3 -0.1
v -0.9 1.7 -0.1
v -0.9 2 -0.1
v -0.9 2.1 -0.1
v -0.9 2.4 -0.1
v -0.9 2.5 -0.1
v -0.8 0.4 -0.1
v -0.8 0.5 -0.1
v -0.8 0.6 -0.1
v -0.7 0.5 -0.1
v -0.7 0.7 -0.1
v -0.7 0.8 -0.1
v -0.7 0.9 -0.1
v -0.7 1.2 -0.1
v -0.7 1.3 -0.1
v -0.7 2 -0.1
v -0.7 2.1 -0.1
v -0.7 2.4 -0.1
v -0.7 2.5 -0.1
v -0.6 0.7 -0.1
v -0.6 0.8 -0.1
v -0.6 1.2 -0.1
v -0.6 1.6 -0.1
v -0.6 2 -0.1
v -0.6 2.3 -0.1
v -0.5 0.4 -0.1
v -0.5 0.7 -0.1
v -0.5 1.2 -0.1
v -0.5 1.3 -0.1
v -0.5 1.4 -0.1
v -0.5 1.5 -0.1
v -0.5 2.1 -0.1
v -0.5 2.3 -0.1
v -0.5 2.4 -0.1
v -0.4 0.4 -0.1
v -0.4 0.7 -0.1
v -0.4 1.2 -0.1
v -0.4 1.3 -0.1
v -0.4 1.4 -0.1
v -0.4 1.5 -0.1
v -0.4 2 -0.1
v -0.4 2.1 -0.1
v -0.4 2.3 -0.1
v -0.3 0.7 -0.1
v -0.3 0.8 -0.1
v -0.3 1.2 -0.1
v -0.3 1.6 -0.1
v -0.3 2.1 -0.1
v -0.3 2.4 -0.1
v -0.2 0.5 -0.1
v -0.2 0.8 -0.1
v -0.2 1.2 -0.1
v -0.2 1.6 -0.1
v -0.2 2 -0.1
v -0.2 2.4 -0.1
v -0.0999999 0.4 -0.1
v -0.0999999 0.5 -0.1
v -0.0999999 0.8 -0.1
v -0.0999999 1.3 -0.1
v -0.0999999 1.4 -0.1
v -0.0999999 2 -0.1
v -0.0999999 2.1 -0.1
v -0.0999999 2.2 -0.1
v -0.0999999 2.3 -0.1
v 2.38419e-07 0.5 -0.1
v 2.38419e-07 0.8 -0.1
v 2.38419e-07 1.3 -0.1
v 2.38419e-07 1.4 -0.1
v 2.38419e-07 1.6 -0.1
v 2.38419e-07 2 -0.1
v 2.38419e-07 2.1 -0.1
v 2.38419e-07 2.2 -0.1
v 2.38419e-07 2.3 -0.1
v 0.1 0.4 -0.1
v 0.1 0.8 -0.1
v 0.1 1.2 -0.1
v 0.1 1.4 -0.1
v 0.1 2 -0.1
v 0.1 2.1 -0.1
v 0.1 2.2 -0.1
v 0.1 2.4 -0.1
v 0.2 0.4 -0.1
v 0.2 0.8 -0.1
v 0.2 2 -0.1
v 0.2 2.4 -0.1
v 0.3 0.5 -0.1
v 0.3 0.7 -0.1
v 0.3 2.1 -0.1
v 0.3 2.2 -0.1
v 0.4 0.4 -0.1
v 0.4 0.5 -0.1
v 0.4 0.7 -0.1
v 0.4 0.8 -0.1
v 0.4 2.2 -0.1
v 0.4 2.3 -0.1
v 0.5 0.5 -0.1
v 0.5 0.7 -0.1
v 0.5 2 -0.1
v 0.5 2.1 -0.1
v 0.5 2.3 -0.1
v 0.5 2.4 -0.1
v 0.6 0.4 -0.1
v 0.6 0.5 -0.1
v 0.6 0.6 -0.1
v 0.6 0.8 -0.1
v 0.7 0.7 -0.1
v 0.7 0.8 -0.1
v 0.8 0.5 -0.1
v 0.8 0.6 -0.1
v 0.8 0.7 -0.1
v 0.8 0.8 -0.1
v 0.9 0.4 -0.1
v 0.9 0.8 -0.1
v 1.9 0.1 -0.1
v 1.9 2.8 -0.1
v 2 0 -0.1
v 2 2.9 -0.1
v -2 0 0
v 2 0 0
v -2 0 -0.1
v 2 0 -0.1
v -2 2.9 0
v 2 2.9 0
v -2 2.9 -0.1
v 2 2.9 -0.1

# faces
f 3/3/1 2/3/1 1/3/1
f 4/3/1 2/3/1 3/3/1
f 5/3/2 6/3/2 7/3/2
f 7/3/2 6/3/2 8/3/2
f 11/3/3 10/3/3 9/3/3
f 12/3/3 10/3/3 11/3/3
f 13/1/3 12/1/3 11/1/3
f 14/1/3 12/1/3 13/1/3
f 15/1/3 12/1/3 14/1/3
f 16/1/3 12/1/3 15/1/3
f 17/1/3 12/1/3 16/1/3
f 18/1/3 12/1/3 17/1/3
f 19/1/3 12/1/3 18/1/3
f 20/1/3 12/1/3 19/1/3
f 21/1/3 12/1/3 20/1/3
f 22/1/3 12/1/3 21/1/3
f 23/1/3 12/1/3 22/1/3
f 24/1/3 12/1/3 23/1/3
f 25/4/3 14/4/3 13/4/3
f 25/1/3 15/1/3 14/1/3
f 26/4/3 16/4/3 15/4/3
f 26/1/3 15/1/3 25/1/3
f 27/2/3 18/2/3 17/2/3
f 28/2/3 18/2/3 27/2/3
f 29/1/3 23/1/3 22/1/3
f 30/1/3 23/1/3 29/1/3
f 31/4/3 25/4/3 13/4/3
f 31/4/3 26/4/3 25/4/3
f 32/1/3 17/1/3 16/1/3
f 32/4/3 26/4/3 31/4/3
f 32/4/3 16/4/3 26/4/3
f 33/1/3 19/1/3 18/1/3
f 33/2/3 18/2/3 28/2/3
f 34/2/3 20/2/3 19/2/3
f 34/1/3 19/1/3 33/1/3
f 35/1/3 29/1/3 22/1/3
f 35/2/3 22/2/3 21/2/3
f 36/2/3 30/2/3 29/2/3
f 36/1/3 29/1/3 35/1/3
f 37/1/3 23/1/3 30/1/3
f 37/2/3 30/2/3 36/2/3
f 38/2/3 24/2/3 23/2/3
f 38/1/3 23/1/3 37/1/3
f 39/1/3 13/1/3 11/1/3
f 39/4/3 31/4/3 13/4/3
f 40/1/3 32/1/3 31/1/3
f 40/4/3 31/4/3 39/4/3
f 41/1/3 17/1/3 32/1/3
f 41/1/3 32/1/3 40/1/3
f 41/2/3 27/2/3 17/2/3
f 42/1/3 28/1/3 27/1/3
f 42/2/3 27/2/3 41/2/3
f 43/2/3 33/2/3 28/2/3
f 43/1/3 28/1/3 42/1/3
f 43/2/3 34/2/3 33/2/3
f 44/2/3 20/2/3 34/2/3
f 44/2/3 34/2/3 43/2/3
f 44/1/3 21/1/3 20/1/3
f 45/2/3 37/2/3 36/2/3
f 45/1/3 21/1/3 44/1/3
f 45/2/3 36/2/3 35/2/3
f 45/2/3 38/2/3 37/2/3
f 45/2/3 35/2/3 21/2/3
f 46/2/3 24/2/3 38/2/3
f 46/2/3 38/2/3 45/2/3
f 46/1/3 12/1/3 24/1/3
f 47/1/3 45/1/3 44/1/3
f 47/1/3 42/1/3 41/1/3
f 47/1/3 46/1/3 45/1/3
f 47/1/3 40/1/3 39/1/3
f 47/1/3 43/1/3 42/1/3
f 47/1/3 41/1/3 40/1/3
f 47/1/3 39/1/3 11/1/3
f 47/1/3 44/1/3 43/1/3
f 48/1/3 46/1/3 47/1/3
f 49/1/3 46/1/3 48/1/3
f 50/1/3 46/1/3 49/1/3
f 51/1/3 46/1/3 50/1/3
f 52/1/3 46/1/3 51/1/3
f 53/1/3 47/1/3 11/1/3
f 53/4/3 48/4/3 47/4/3
f 54/1/3 49/1/3 48/1/3
f 54/4/3 48/4/3 53/4/3
f 55/2/3 50/2/3 49/2/3
f 55/1/3 49/1/3 54/1/3
f 56/1/3 51/1/3 50/1/3
f 56/2/3 50/2/3 55/2/3
f 57/2/3 52/2/3 51/2/3
f 57/1/3 51/1/3 56/1/3
f 58/1/3 46/1/3 52/1/3
f 58/2/3 52/2/3 57/2/3
f 59/1/3 57/1/3 56/1/3
f 59/1/3 56/1/3 55/1/3
f 59/1/3 58/1/3 57/1/3
f 59/1/3 55/1/3 54/1/3
f 59/1/3 54/1/3 53/1/3
f 59/1/3 53/1/3 11/1/3
f 60/1/3 58/1/3 59/1/3
f 61/1/3 58/1/3 60/1/3
f 62/1/3 58/1/3 61/1/3
f 63/1/3 58/1/3 62/1/3
f 64/1/3 58/1/3 63/1/3
f 65/1/3 46/1/3 58/1/3
f 65/1/3 58/1/3 64/1/3
f 66/1/3 46/1/3 65/1/3
f 67/4/3 62/4/3 61/4/3
f 68/1/3 63/1/3 62/1/3
f 68/4/3 62/4/3 67/4/3
f 69/1/3 63/1/3 68/1/3
f 70/2/3 64/2/3 63/2/3
f 71/1/3 65/1/3 64/1/3
f 71/2/3 64/2/3 70/2/3
f 72/1/3 65/1/3 71/1/3
f 73/2/3 66/2/3 65/2/3
f 73/1/3 65/1/3 72/1/3
f 74/1/3 46/1/3 66/1/3
f 74/2/3 66/2/3 73/2/3
f 75/1/3 12/1/3 46/1/3
f 75/1/3 46/1/3 74/1/3
f 76/1/3 59/1/3 11/1/3
f 76/4/3 60/4/3 59/4/3
f 77/1/3 61/1/3 60/1/3
f 77/4/3 60/4/3 76/4/3
f 78/4/3 67/4/3 61/4/3
f 78/1/3 61/1/3 77/1/3
f 79/1/3 77/1/3 76/1/3
f 79/4/3 78/4/3 77/4/3
f 80/4/3 67/4/3 78/4/3
f 80/4/3 78/4/3 79/4/3
f 80/1/3 68/1/3 67/1/3
f 81/4/3 69/4/3 68/4/3
f 81/1/3 68/1/3 80/1/3
f 82/1/3 63/1/3 69/1/3
f 82/4/3 69/4/3 81/4/3
f 83/2/3 70/2/3 63/2/3
f 83/1/3 63/1/3 82/1/3
f 84/1/3 72/1/3 71/1/3
f 84/2/3 70/2/3 83/2/3
f 84/1/3 71/1/3 70/1/3
f 85/2/3 73/2/3 72/2/3
f 85/1/3 72/1/3 84/1/3
f 86/1/3 74/1/3 73/1/3
f 86/2/3 73/2/3 85/2/3
f 87/2/3 75/2/3 74/2/3
f 87/1/3 74/1/3 86/1/3
f 88/1/3 12/1/3 75/1/3
f 88/2/3 75/2/3 87/2/3
f 89/1/3 85/1/3 84/1/3
f 89/1/3 81/1/3 80/1/3
f 89/1/3 88/1/3 87/1/3
f 89/1/3 80/1/3 79/1/3
f 89/1/3 83/1/3 82/1/3
f 89/1/3 82/1/3 81/1/3
f 89/1/3 87/1/3 86/1/3
f 89/1/3 84/1/3 83/1/3
f 89/1/3 86/1/3 85/1/3
f 90/1/3 88/1/3 89/1/3
f 91/1/3 88/1/3 90/1/3
f 92/1/3 88/1/3 91/1/3
f 93/1/3 88/1/3 92/1/3
f 94/1/3 88/1/3 93/1/3
f 95/1/3 79/1/3 76/1/3
f 95/1/3 76/1/3 11/1/3
f 95/1/3 89/1/3 79/1/3
f 96/4/3 90/4/3 89/4/3
f 96/1/3 89/1/3 95/1/3
f 97/1/3 91/1/3 90/1/3
f 97/2/3 92/2/3 91/2/3
f 98/2/3 92/2/3 97/2/3
f 99/2/3 92/2/3 98/2/3
f 100/2/3 92/2/3 99/2/3
f 101/2/3 94/2/3 93/2/3
f 102/1/3 88/1/3 94/1/3
f 102/2/3 94/2/3 101/2/3
f 103/1/3 88/1/3 102/1/3
f 104/1/3 95/1/3 11/1/3
f 104/4/3 96/4/3 95/4/3
f 105/4/3 90/4/3 96/4/3
f 105/4/3 96/4/3 104/4/3
f 106/1/3 97/1/3 90/1/3
f 106/1/3 98/1/3 97/1/3
f 107/2/3 99/2/3 98/2/3
f 107/1/3 98/1/3 106/1/3
f 108/1/3 100/1/3 99/1/3
f 108/2/3 99/2/3 107/2/3
f 109/2/3 92/2/3 100/2/3
f 109/1/3 100/1/3 108/1/3
f 110/2/3 101/2/3 93/2/3
f 110/1/3 93/1/3 92/1/3
f 111/1/3 102/1/3 101/1/3
f 111/2/3 101/2/3 110/2/3
f 112/2/3 103/2/3 102/2/3
f 112/1/3 102/1/3 111/1/3
f 113/4/3 90/4/3 105/4/3
f 113/1/3 105/1/3 104/1/3
f 114/1/3 106/1/3 90/1/3
f 114/4/3 90/4/3 113/4/3
f 115/2/3 108/2/3 107/2/3
f 115/1/3 106/1/3 114/1/3
f 115/2/3 109/2/3 108/2/3
f 115/2/3 107/2/3 106/2/3
f 116/2/3 92/2/3 109/2/3
f 116/2/3 109/2/3 115/2/3
f 116/1/3 110/1/3 92/1/3
f 116/1/3 111/1/3 110/1/3
f 117/2/3 112/2/3 111/2/3
f 117/1/3 111/1/3 116/1/3
f 118/1/3 88/1/3 103/1/3
f 118/2/3 112/2/3 117/2/3
f 118/2/3 103/2/3 112/2/3
f 119/1/3 115/1/3 114/1/3
f 119/1/3 114/1/3 113/1/3
f 119/1/3 118/1/3 117/1/3
f 119/1/3 116/1/3 115/1/3
f 119/1/3 113/1/3 104/1/3
f 119/1/3 117/1/3 116/1/3
f 120/1/3 118/1/3 119/1/3
f 121/1/3 118/1/3 120/1/3
f 122/1/3 118/1/3 121/1/3
f 123/1/3 118/1/3 122/1/3
f 124/1/3 88/1/3 118/1/3
f 124/1/3 118/1/3 123/1/3
f 125/1/3 104/1/3 11/1/3
f 125/1/3 119/1/3 104/1/3
f 126/4/3 120/4/3 119/4/3
f 126/1/3 119/1/3 125/1/3
f 127/1/3 121/1/3 120/1/3
f 127/4/3 120/4/3 126/4/3
f 128/2/3 122/2/3 121/2/3
f 129/2/3 122/2/3 128/2/3
f 130/1/3 123/1/3 122/1/3
f 130/2/3 124/2/3 123/2/3
f 131/2/3 124/2/3 130/2/3
f 132/2/3 124/2/3 131/2/3
f 133/2/3 124/2/3 132/2/3
f 134/4/3 126/4/3 125/4/3
f 134/1/3 127/1/3 126/1/3
f 135/1/3 121/1/3 127/1/3
f 135/1/3 127/1/3 134/1/3
f 136/1/3 129/1/3 128/1/3
f 136/2/3 128/2/3 121/2/3
f 137/2/3 122/2/3 129/2/3
f 137/1/3 129/1/3 136/1/3
f 138/1/3 130/1/3 122/1/3
f 138/2/3 122/2/3 137/2/3
f 138/1/3 131/1/3 130/1/3
f 139/1/3 131/1/3 138/1/3
f 140/2/3 132/2/3 131/2/3
f 140/1/3 131/1/3 139/1/3
f 141/1/3 133/1/3 132/1/3
f 141/2/3 132/2/3 140/2/3
f 142/2/3 124/2/3 133/2/3
f 142/1/3 133/1/3 141/1/3
f 143/1/3 125/1/3 11/1/3
f 143/4/3 134/4/3 125/4/3
f 143/4/3 135/4/3 134/4/3
f 144/1/3 121/1/3 135/1/3
f 144/4/3 135/4/3 143/4/3
f 145/2/3 136/2/3 121/2/3
f 145/1/3 121/1/3 144/1/3
f 145/2/3 137/2/3 136/2/3
f 146/1/3 138/1/3 137/1/3
f 146/2/3 137/2/3 145/2/3
f 146/1/3 139/1/3 138/1/3
f 147/2/3 140/2/3 139/2/3
f 147/1/3 139/1/3 146/1/3
f 148/1/3 141/1/3 140/1/3
f 148/2/3 140/2/3 147/2/3
f 149/2/3 142/2/3 141/2/3
f 149/1/3 141/1/3 148/1/3
f 150/1/3 88/1/3 124/1/3
f 150/2/3 142/2/3 149/2/3
f 150/2/3 124/2/3 142/2/3
f 151/1/3 144/1/3 143/1/3
f 151/1/3 149/1/3 148/1/3
f 151/1/3 150/1/3 149/1/3
f 151/1/3 146/1/3 145/1/3
f 151/1/3 148/1/3 147/1/3
f 151/1/3 147/1/3 146/1/3
f 151/1/3 145/1/3 144/1/3
f 151/1/3 143/1/3 11/1/3
f 152/1/3 150/1/3 151/1/3
f 153/1/3 150/1/3 152/1/3
f 154/1/3 88/1/3 150/1/3
f 154/1/3 150/1/3 153/1/3
f 155/4/3 152/4/3 151/4/3
f 156/4/3 152/4/3 155/4/3
f 157/2/3 154/2/3 153/2/3
f 158/2/3 154/2/3 157/2/3
f 159/1/3 151/1/3 11/1/3
f 159/4/3 155/4/3 151/4/3
f 160/1/3 156/1/3 155/1/3
f 160/4/3 155/4/3 159/4/3
f 161/4/3 152/4/3 156/4/3
f 161/1/3 156/1/3 160/1/3
f 162/1/3 153/1/3 152/1/3
f 162/4/3 152/4/3 161/4/3
f 163/2/3 154/2/3 158/2/3
f 163/1/3 158/1/3 157/1/3
f 164/2/3 154/2/3 163/2/3
f 165/4/3 161/4/3 160/4/3
f 165/1/3 160/1/3 159/1/3
f 166/1/3 162/1/3 161/1/3
f 166/4/3 161/4/3 165/4/3
f 167/1/3 153/1/3 162/1/3
f 167/1/3 162/1/3 166/1/3
f 167/2/3 157/2/3 153/2/3
f 168/1/3 164/1/3 163/1/3
f 168/2/3 157/2/3 167/2/3
f 168/1/3 163/1/3 157/1/3
f 169/2/3 154/2/3 164/2/3
f 169/1/3 164/1/3 168/1/3
f 170/1/3 88/1/3 154/1/3
f 170/2/3 154/2/3 169/2/3
f 171/1/3 168/1/3 167/1/3
f 171/1/3 166/1/3 165/1/3
f 171/1/3 170/1/3 169/1/3
f 171/1/3 159/1/3 11/1/3
f 171/1/3 165/1/3 159/1/3
f 171/1/3 167/1/3 166/1/3
f 171/1/3 169/1/3 168/1/3
f 172/1/3 170/1/3 171/1/3
f 173/1/3 170/1/3 172/1/3
f 174/1/3 170/1/3 173/1/3
f 175/4/3 174/4/3 173/4/3
f 176/1/3 170/1/3 174/1/3
f 176/4/3 174/4/3 175/4/3
f 177/4/3 172/4/3 171/4/3
f 177/1/3 173/1/3 172/1/3
f 178/4/3 175/4/3 173/4/3
f 178/1/3 173/1/3 177/1/3
f 179/1/3 176/1/3 175/1/3
f 179/4/3 175/4/3 178/4/3
f 180/1/3 170/1/3 176/1/3
f 180/1/3 176/1/3 179/1/3
f 181/1/3 171/1/3 11/1/3
f 181/4/3 179/4/3 178/4/3
f 181/4/3 180/4/3 179/4/3
f 181/4/3 177/4/3 171/4/3
f 181/4/3 178/4/3 177/4/3
f 182/1/3 170/1/3 180/1/3
f 182/4/3 180/4/3 181/4/3
f 183/3/3 11/3/3 9/3/3
f 183/1/3 181/1/3 11/1/3
f 183/1/3 182/1/3 181/1/3
f 184/1/3 170/1/3 182/1/3
f 184/1/3 182/1/3 183/1/3
f 184/3/3 10/3/3 12/3/3
f 184/1/3 88/1/3 170/1/3
f 184/1/3 12/1/3 88/1/3
f 185/3/3 183/3/3 9/3/3
f 185/3/3 184/3/3 183/3/3
f 186/3/3 10/3/3 184/3/3
f 186/3/3 184/3/3 185/3/3
f 187/3/4 188/3/4 189/3/4
f 189/3/4 188/3/4 190/3/4
f 189/1/4 190/1/4 191/1/4
f 191/1/4 190/1/4 192/1/4
f 192/1/4 190/1/4 193/1/4
f 193/1/4 190/1/4 194/1/4
f 194/1/4 190/1/4 195/1/4
f 195/1/4 190/1/4 196/1/4
f 196/1/4 190/1/4 197/1/4
f 197/1/4 190/1/4 198/1/4
f 198/1/4 190/1/4 199/1/4
f 199/1/4 190/1/4 200/1/4
f 200/1/4 190/1/4 201/1/4
f 201/1/4 190/1/4 202/1/4
f 191/4/4 192/4/4 203/4/4
f 192/1/4 193/1/4 203/1/4
f 193/4/4 194/4/4 204/4/4
f 203/1/4 193/1/4 204/1/4
f 195/2/4 196/2/4 205/2/4
f 205/2/4 196/2/4 206/2/4
f 200/1/4 201/1/4 207/1/4
f 207/1/4 201/1/4 208/1/4
f 191/4/4 203/4/4 209/4/4
f 203/4/4 204/4/4 209/4/4
f 194/1/4 195/1/4 210/1/4
f 209/4/4 204/4/4 210/4/4
f 204/4/4 194/4/4 210/4/4
f 196/1/4 197/1/4 211/1/4
f 206/2/4 196/2/4 211/2/4
f 197/2/4 198/2/4 212/2/4
f 211/1/4 197/1/4 212/1/4
f 200/1/4 207/1/4 213/1/4
f 199/2/4 200/2/4 213/2/4
f 207/2/4 208/2/4 214/2/4
f 213/1/4 207/1/4 214/1/4
f 208/1/4 201/1/4 215/1/4
f 214/2/4 208/2/4 215/2/4
f 201/2/4 202/2/4 216/2/4
f 215/1/4 201/1/4 216/1/4
f 189/1/4 191/1/4 217/1/4
f 191/4/4 209/4/4 217/4/4
f 209/1/4 210/1/4 218/1/4
f 217/4/4 209/4/4 218/4/4
f 210/1/4 195/1/4 219/1/4
f 218/1/4 210/1/4 219/1/4
f 195/2/4 205/2/4 219/2/4
f 205/1/4 206/1/4 220/1/4
f 219/2/4 205/2/4 220/2/4
f 206/2/4 211/2/4 221/2/4
f 220/1/4 206/1/4 221/1/4
f 211/2/4 212/2/4 221/2/4
f 212/2/4 198/2/4 222/2/4
f 221/2/4 212/2/4 222/2/4
f 198/1/4 199/1/4 222/1/4
f 214/2/4 215/2/4 223/2/4
f 222/1/4 199/1/4 223/1/4
f 213/2/4 214/2/4 223/2/4
f 215/2/4 216/2/4 223/2/4
f 199/2/4 213/2/4 223/2/4
f 216/2/4 202/2/4 224/2/4
f 223/2/4 216/2/4 224/2/4
f 202/1/4 190/1/4 224/1/4
f 222/1/4 223/1/4 225/1/4
f 219/1/4 220/1/4 225/1/4
f 223/1/4 224/1/4 225/1/4
f 217/1/4 218/1/4 225/1/4
f 220/1/4 221/1/4 225/1/4
f 218/1/4 219/1/4 225/1/4
f 189/1/4 217/1/4 225/1/4
f 221/1/4 222/1/4 225/1/4
f 225/1/4 224/1/4 226/1/4
f 226/1/4 224/1/4 227/1/4
f 227/1/4 224/1/4 228/1/4
f 228/1/4 224/1/4 229/1/4
f 229/1/4 224/1/4 230/1/4
f 189/1/4 225/1/4 231/1/4
f 225/4/4 226/4/4 231/4/4
f 226/1/4 227/1/4 232/1/4
f 231/4/4 226/4/4 232/4/4
f 227/2/4 228/2/4 233/2/4
f 232/1/4 227/1/4 233/1/4
f 228/1/4 229/1/4 234/1/4
f 233/2/4 228/2/4 234/2/4
f 229/2/4 230/2/4 235/2/4
f 234/1/4 229/1/4 235/1/4
f 230/1/4 224/1/4 236/1/4
f 235/2/4 230/2/4 236/2/4
f 234/1/4 235/1/4 237/1/4
f 233/1/4 234/1/4 237/1/4
f 235/1/4 236/1/4 237/1/4
f 232/1/4 233/1/4 237/1/4
f 231/1/4 232/1/4 237/1/4
f 189/1/4 231/1/4 237/1/4
f 237/1/4 236/1/4 238/1/4
f 238/1/4 236/1/4 239/1/4
f 239/1/4 236/1/4 240/1/4
f 240/1/4 236/1/4 241/1/4
f 241/1/4 236/1/4 242/1/4
f 236/1/4 224/1/4 243/1/4
f 242/1/4 236/1/4 243/1/4
f 243/1/4 224/1/4 244/1/4
f 239/4/4 240/4/4 245/4/4
f 240/1/4 241/1/4 246/1/4
f 245/4/4 240/4/4 246/4/4
f 246/1/4 241/1/4 247/1/4
f 241/2/4 242/2/4 248/2/4
f 242/1/4 243/1/4 249/1/4
f 248/2/4 242/2/4 249/2/4
f 249/1/4 243/1/4 250/1/4
f 243/2/4 244/2/4 251/2/4
f 250/1/4 243/1/4 251/1/4
f 244/1/4 224/1/4 252/1/4
f 251/2/4 244/2/4 252/2/4
f 224/1/4 190/1/4 253/1/4
f 252/1/4 224/1/4 253/1/4
f 189/1/4 237/1/4 254/1/4
f 237/4/4 238/4/4 254/4/4
f 238/1/4 239/1/4 255/1/4
f 254/4/4 238/4/4 255/4/4
f 239/4/4 245/4/4 256/4/4
f 255/1/4 239/1/4 256/1/4
f 254/1/4 255/1/4 257/1/4
f 255/4/4 256/4/4 257/4/4
f 256/4/4 245/4/4 258/4/4
f 257/4/4 256/4/4 258/4/4
f 245/1/4 246/1/4 258/1/4
f 246/4/4 247/4/4 259/4/4
f 258/1/4 246/1/4 259/1/4
f 247/1/4 241/1/4 260/1/4
f 259/4/4 247/4/4 260/4/4
f 241/2/4 248/2/4 261/2/4
f 260/1/4 241/1/4 261/1/4
f 249/1/4 250/1/4 262/1/4
f 261/2/4 248/2/4 262/2/4
f 248/1/4 249/1/4 262/1/4
f 250/2/4 251/2/4 263/2/4
f 262/1/4 250/1/4 263/1/4
f 251/1/4 252/1/4 264/1/4
f 263/2/4 251/2/4 264/2/4
f 252/2/4 253/2/4 265/2/4
f 264/1/4 252/1/4 265/1/4
f 253/1/4 190/1/4 266/1/4
f 265/2/4 253/2/4 266/2/4
f 262/1/4 263/1/4 267/1/4
f 258/1/4 259/1/4 267/1/4
f 265/1/4 266/1/4 267/1/4
f 257/1/4 258/1/4 267/1/4
f 260/1/4 261/1/4 267/1/4
f 259/1/4 260/1/4 267/1/4
f 264/1/4 265/1/4 267/1/4
f 261/1/4 262/1/4 267/1/4
f 263/1/4 264/1/4 267/1/4
f 267/1/4 266/1/4 268/1/4
f 268/1/4 266/1/4 269/1/4
f 269/1/4 266/1/4 270/1/4
f 270/1/4 266/1/4 271/1/4
f 271/1/4 266/1/4 272/1/4
f 254/1/4 257/1/4 273/1/4
f 189/1/4 254/1/4 273/1/4
f 257/1/4 267/1/4 273/1/4
f 267/4/4 268/4/4 274/4/4
f 273/1/4 267/1/4 274/1/4
f 268/1/4 269/1/4 275/1/4
f 269/2/4 270/2/4 275/2/4
f 275/2/4 270/2/4 276/2/4
f 276/2/4 270/2/4 277/2/4
f 277/2/4 270/2/4 278/2/4
f 271/2/4 272/2/4 279/2/4
f 272/1/4 266/1/4 280/1/4
f 279/2/4 272/2/4 280/2/4
f 280/1/4 266/1/4 281/1/4
f 189/1/4 273/1/4 282/1/4
f 273/4/4 274/4/4 282/4/4
f 274/4/4 268/4/4 283/4/4
f 282/4/4 274/4/4 283/4/4
f 268/1/4 275/1/4 284/1/4
f 275/1/4 276/1/4 284/1/4
f 276/2/4 277/2/4 285/2/4
f 284/1/4 276/1/4 285/1/4
f 277/1/4 278/1/4 286/1/4
f 285/2/4 277/2/4 286/2/4
f 278/2/4 270/2/4 287/2/4
f 286/1/4 278/1/4 287/1/4
f 271/2/4 279/2/4 288/2/4
f 270/1/4 271/1/4 288/1/4
f 279/1/4 280/1/4 289/1/4
f 288/2/4 279/2/4 289/2/4
f 280/2/4 281/2/4 290/2/4
f 289/1/4 280/1/4 290/1/4
f 283/4/4 268/4/4 291/4/4
f 282/1/4 283/1/4 291/1/4
f 268/1/4 284/1/4 292/1/4
f 291/4/4 268/4/4 292/4/4
f 285/2/4 286/2/4 293/2/4
f 292/1/4 284/1/4 293/1/4
f 286/2/4 287/2/4 293/2/4
f 284/2/4 285/2/4 293/2/4
f 287/2/4 270/2/4 294/2/4
f 293/2/4 287/2/4 294/2/4
f 270/1/4 288/1/4 294/1/4
f 288/1/4 289/1/4 294/1/4
f 289/2/4 290/2/4 295/2/4
f 294/1/4 289/1/4 295/1/4
f 281/1/4 266/1/4 296/1/4
f 295/2/4 290/2/4 296/2/4
f 290/2/4 281/2/4 296/2/4
f 292/1/4 293/1/4 297/1/4
f 291/1/4 292/1/4 297/1/4
f 295/1/4 296/1/4 297/1/4
f 293/1/4 294/1/4 297/1/4
f 282/1/4 291/1/4 297/1/4
f 294/1/4 295/1/4 297/1/4
f 297/1/4 296/1/4 298/1/4
f 298/1/4 296/1/4 299/1/4
f 299/1/4 296/1/4 300/1/4
f 300/1/4 296/1/4 301/1/4
f 296/1/4 266/1/4 302/1/4
f 301/1/4 296/1/4 302/1/4
f 189/1/4 282/1/4 303/1/4
f 282/1/4 297/1/4 303/1/4
f 297/4/4 298/4/4 304/4/4
f 303/1/4 297/1/4 304/1/4
f 298/1/4 299/1/4 305/1/4
f 304/4/4 298/4/4 305/4/4
f 299/2/4 300/2/4 306/2/4
f 306/2/4 300/2/4 307/2/4
f 300/1/4 301/1/4 308/1/4
f 301/2/4 302/2/4 308/2/4
f 308/2/4 302/2/4 309/2/4
f 309/2/4 302/2/4 310/2/4
f 310/2/4 302/2/4 311/2/4
f 303/4/4 304/4/4 312/4/4
f 304/1/4 305/1/4 312/1/4
f 305/1/4 299/1/4 313/1/4
f 312/1/4 305/1/4 313/1/4
f 306/1/4 307/1/4 314/1/4
f 299/2/4 306/2/4 314/2/4
f 307/2/4 300/2/4 315/2/4
f 314/1/4 307/1/4 315/1/4
f 300/1/4 308/1/4 316/1/4
f 315/2/4 300/2/4 316/2/4
f 308/1/4 309/1/4 316/1/4
f 316/1/4 309/1/4 317/1/4
f 309/2/4 310/2/4 318/2/4
f 317/1/4 309/1/4 318/1/4
f 310/1/4 311/1/4 319/1/4
f 318/2/4 310/2/4 319/2/4
f 311/2/4 302/2/4 320/2/4
f 319/1/4 311/1/4 320/1/4
f 189/1/4 303/1/4 321/1/4
f 303/4/4 312/4/4 321/4/4
f 312/4/4 313/4/4 321/4/4
f 313/1/4 299/1/4 322/1/4
f 321/4/4 313/4/4 322/4/4
f 299/2/4 314/2/4 323/2/4
f 322/1/4 299/1/4 323/1/4
f 314/2/4 315/2/4 323/2/4
f 315/1/4 316/1/4 324/1/4
f 323/2/4 315/2/4 324/2/4
f 316/1/4 317/1/4 324/1/4
f 317/2/4 318/2/4 325/2/4
f 324/1/4 317/1/4 325/1/4
f 318/1/4 319/1/4 326/1/4
f 325/2/4 318/2/4 326/2/4
f 319/2/4 320/2/4 327/2/4
f 326/1/4 319/1/4 327/1/4
f 302/1/4 266/1/4 328/1/4
f 327/2/4 320/2/4 328/2/4
f 320/2/4 302/2/4 328/2/4
f 321/1/4 322/1/4 329/1/4
f 326/1/4 327/1/4 329/1/4
f 327/1/4 328/1/4 329/1/4
f 323/1/4 324/1/4 329/1/4
f 325/1/4 326/1/4 329/1/4
f 324/1/4 325/1/4 329/1/4
f 322/1/4 323/1/4 329/1/4
f 189/1/4 321/1/4 329/1/4
f 329/1/4 328/1/4 330/1/4
f 330/1/4 328/1/4 331/1/4
f 328/1/4 266/1/4 332/1/4
f 331/1/4 328/1/4 332/1/4
f 329/4/4 330/4/4 333/4/4
f 333/4/4 330/4/4 334/4/4
f 331/2/4 332/2/4 335/2/4
f 335/2/4 332/2/4 336/2/4
f 189/1/4 329/1/4 337/1/4
f 329/4/4 333/4/4 337/4/4
f 333/1/4 334/1/4 338/1/4
f 337/4/4 333/4/4 338/4/4
f 334/4/4 330/4/4 339/4/4
f 338/1/4 334/1/4 339/1/4
f 330/1/4 331/1/4 340/1/4
f 339/4/4 330/4/4 340/4/4
f 336/2/4 332/2/4 341/2/4
f 335/1/4 336/1/4 341/1/4
f 341/2/4 332/2/4 342/2/4
f 338/4/4 339/4/4 343/4/4
f 337/1/4 338/1/4 343/1/4
f 339/1/4 340/1/4 344/1/4
f 343/4/4 339/4/4 344/4/4
f 340/1/4 331/1/4 345/1/4
f 344/1/4 340/1/4 345/1/4
f 331/2/4 335/2/4 345/2/4
f 341/1/4 342/1/4 346/1/4
f 345/2/4 335/2/4 346/2/4
f 335/1/4 341/1/4 346/1/4
f 342/2/4 332/2/4 347/2/4
f 346/1/4 342/1/4 347/1/4
f 332/1/4 266/1/4 348/1/4
f 347/2/4 332/2/4 348/2/4
f 345/1/4 346/1/4 349/1/4
f 343/1/4 344/1/4 349/1/4
f 347/1/4 348/1/4 349/1/4
f 189/1/4 337/1/4 349/1/4
f 337/1/4 343/1/4 349/1/4
f 344/1/4 345/1/4 349/1/4
f 346/1/4 347/1/4 349/1/4
f 349/1/4 348/1/4 350/1/4
f 350/1/4 348/1/4 351/1/4
f 351/1/4 348/1/4 352/1/4
f 351/4/4 352/4/4 353/4/4
f 352/1/4 348/1/4 354/1/4
f 353/4/4 352/4/4 354/4/4
f 349/4/4 350/4/4 355/4/4
f 350/1/4 351/1/4 355/1/4
f 351/4/4 353/4/4 356/4/4
f 355/1/4 351/1/4 356/1/4
f 353/1/4 354/1/4 357/1/4
f 356/4/4 353/4/4 357/4/4
f 354/1/4 348/1/4 358/1/4
f 357/1/4 354/1/4 358/1/4
f 189/1/4 349/1/4 359/1/4
f 356/4/4 357/4/4 359/4/4
f 357/4/4 358/4/4 359/4/4
f 349/4/4 355/4/4 359/4/4
f 355/4/4 356/4/4 359/4/4
f 358/1/4 348/1/4 360/1/4
f 359/4/4 358/4/4 360/4/4
f 187/3/4 189/3/4 361/3/4
f 189/1/4 359/1/4 361/1/4
f 359/1/4 360/1/4 361/1/4
f 360/1/4 348/1/4 362/1/4
f 361/1/4 360/1/4 362/1/4
f 190/3/4 188/3/4 362/3/4
f 348/1/4 266/1/4 362/1/4
f 266/1/4 190/1/4 362/1/4
f 187/3/4 361/3/4 363/3/4
f 361/3/4 362/3/4 363/3/4
f 362/3/4 188/3/4 364/3/4
f 363/3/4 362/3/4 364/3/4
f 367/3/5 366/3/5 365/3/5
f 368/3/5 366/3/5 367/3/5
f 369/3/6 370/3/6 371/3/6
f 371/3/6 370/3/6 372/3/6
