# MagicaVoxel @ Ephtracy

# group
o 

# material
mtllib food-counter-food-green.mtl
usemtl palette

# normals
vn -1 0 0
vn 1 0 0
vn 0 0 1
vn 0 0 -1
vn 0 -1 0
vn 0 1 0

# texcoords
vt 0.271484 0.5
vt 0.275391 0.5
vt 0.279297 0.5

# verts
v -0.4 0 0.6
v -0.4 0 0.5
v -0.4 0 0
v -0.4 0 -0.1
v -0.4 0 -0.2
v -0.4 0 -0.3
v -0.4 0 -0.4
v -0.4 0 -0.5
v -0.4 0 -0.6
v -0.4 0 -0.7
v -0.4 0.1 0.5
v -0.4 0.1 0.4
v -0.4 0.1 0.2
v -0.4 0.1 0
v -0.4 0.1 -0.1
v -0.4 0.1 -0.2
v -0.4 0.1 -0.3
v -0.4 0.1 -0.4
v -0.4 0.1 -0.5
v -0.4 0.1 -0.6
v -0.4 0.1 -0.7
v -0.4 0.2 0.6
v -0.4 0.2 0.5
v -0.4 0.2 0.4
v -0.4 0.2 0.2
v -0.4 0.2 -0.3
v -0.4 0.2 -0.4
v -0.4 0.2 -0.6
v -0.4 0.2 -0.7
v 0.4 0 0.6
v 0.4 0 0.4
v 0.4 0 0.3
v 0.4 0 0.2
v 0.4 0 0.1
v 0.4 0 -0.1
v 0.4 0 -0.2
v 0.4 0 -0.4
v 0.4 0 -0.5
v 0.4 0 -0.6
v 0.4 0 -0.7
v 0.4 0.1 0.4
v 0.4 0.1 0.3
v 0.4 0.1 0.2
v 0.4 0.1 0.1
v 0.4 0.1 0
v 0.4 0.1 -0.1
v 0.4 0.1 -0.2
v 0.4 0.1 -0.3
v 0.4 0.1 -0.4
v 0.4 0.1 -0.5
v 0.4 0.2 0.6
v 0.4 0.2 0.4
v 0.4 0.2 0.3
v 0.4 0.2 0.2
v 0.4 0.2 0
v 0.4 0.2 -0.1
v 0.4 0.2 -0.3
v 0.4 0.2 -0.4
v 0.4 0.2 -0.6
v 0.4 0.2 -0.7
v -0.4 0 0.6
v -0.4 0.2 0.6
v -0.2 0 0.6
v -0.2 0.2 0.6
v -0.1 0 0.6
v -0.1 0.2 0.6
v 0 0 0.6
v 0 0.1 0.6
v 0.2 0 0.6
v 0.2 0.1 0.6
v 0.2 0.2 0.6
v 0.3 0 0.6
v 0.3 0.1 0.6
v 0.4 0 0.6
v 0.4 0.2 0.6
v -0.4 0 -0.7
v -0.4 0.1 -0.7
v -0.4 0.2 -0.7
v -0.3 0 -0.7
v -0.3 0.1 -0.7
v -0.2 0.1 -0.7
v -0.2 0.2 -0.7
v -0.1 0 -0.7
v -0.1 0.1 -0.7
v -0.1 0.2 -0.7
v 0 0.1 -0.7
v 0 0.2 -0.7
v 0.1 0.1 -0.7
v 0.1 0.2 -0.7
v 0.2 0 -0.7
v 0.2 0.1 -0.7
v 0.2 0.2 -0.7
v 0.3 0 -0.7
v 0.3 0.1 -0.7
v 0.3 0.2 -0.7
v 0.4 0 -0.7
v 0.4 0.2 -0.7
v -0.4 0 0.6
v -0.2 0 0.6
v -0.1 0 0.6
v 0 0 0.6
v 0.2 0 0.6
v 0.3 0 0.6
v 0.4 0 0.6
v -0.4 0 0.5
v -0.3 0 0.5
v -0.2 0 0.5
v 0 0 0.5
v 0.1 0 0.5
v 0.2 0 0.5
v 0.3 0 0.5
v -0.3 0 0.4
v -0.1 0 0.4
v 0 0 0.4
v 0.2 0 0.4
v 0.3 0 0.4
v 0.4 0 0.4
v -0.2 0 0.3
v 0 0 0.3
v 0.1 0 0.3
v 0.2 0 0.3
v 0.3 0 0.3
v 0.4 0 0.3
v -0.2 0 0.2
v -0.1 0 0.2
v 0 0 0.2
v 0.1 0 0.2
v 0.2 0 0.2
v 0.3 0 0.2
v 0.4 0 0.2
v -0.2 0 0.1
v -0.1 0 0.1
v 0 0 0.1
v 0.1 0 0.1
v 0.2 0 0.1
v 0.3 0 0.1
v 0.4 0 0.1
v -0.4 0 0
v -0.3 0 0
v -0.1 0 0
v 0 0 0
v 0.1 0 0
v 0.2 0 0
v -0.4 0 -0.1
v -0.3 0 -0.1
v -0.2 0 -0.1
v -0.1 0 -0.1
v 0.1 0 -0.1
v 0.2 0 -0.1
v 0.3 0 -0.1
v 0.4 0 -0.1
v -0.4 0 -0.2
v -0.3 0 -0.2
v -0.2 0 -0.2
v 0 0 -0.2
v 0.1 0 -0.2
v 0.2 0 -0.2
v 0.3 0 -0.2
v 0.4 0 -0.2
v -0.4 0 -0.3
v -0.3 0 -0.3
v -0.2 0 -0.3
v 0.1 0 -0.3
v -0.4 0 -0.4
v -0.3 0 -0.4
v -0.2 0 -0.4
v 0 0 -0.4
v 0.3 0 -0.4
v 0.4 0 -0.4
v -0.4 0 -0.5
v -0.3 0 -0.5
v -0.2 0 -0.5
v -0.1 0 -0.5
v 0.1 0 -0.5
v 0.2 0 -0.5
v 0.3 0 -0.5
v 0.4 0 -0.5
v -0.4 0 -0.6
v -0.3 0 -0.6
v -0.2 0 -0.6
v -0.1 0 -0.6
v 0 0 -0.6
v 0.1 0 -0.6
v 0.3 0 -0.6
v 0.4 0 -0.6
v -0.4 0 -0.7
v -0.3 0 -0.7
v -0.1 0 -0.7
v 0.2 0 -0.7
v 0.3 0 -0.7
v 0.4 0 -0.7
v -0.4 0.2 0.6
v -0.2 0.2 0.6
v -0.1 0.2 0.6
v 0.2 0.2 0.6
v 0.4 0.2 0.6
v -0.4 0.2 0.5
v -0.3 0.2 0.5
v -0.2 0.2 0.5
v 0 0.2 0.5
v 0.2 0.2 0.5
v 0.3 0.2 0.5
v -0.4 0.2 0.4
v -0.3 0.2 0.4
v 0 0.2 0.4
v 0.1 0.2 0.4
v 0.2 0.2 0.4
v 0.3 0.2 0.4
v 0.4 0.2 0.4
v -0.3 0.2 0.3
v -0.2 0.2 0.3
v -0.1 0.2 0.3
v 0 0.2 0.3
v 0.1 0.2 0.3
v 0.2 0.2 0.3
v 0.3 0.2 0.3
v 0.4 0.2 0.3
v -0.4 0.2 0.2
v -0.3 0.2 0.2
v -0.2 0.2 0.2
v -0.1 0.2 0.2
v 0 0.2 0.2
v 0.1 0.2 0.2
v 0.2 0.2 0.2
v 0.3 0.2 0.2
v 0.4 0.2 0.2
v -0.3 0.2 0.1
v -0.2 0.2 0.1
v -0.1 0.2 0.1
v 0 0.2 0.1
v 0.1 0.2 0.1
v 0.2 0.2 0.1
v 0.3 0.2 0.1
v -0.2 0.2 0
v -0.1 0.2 0
v 0 0.2 0
v 0.1 0.2 0
v 0.2 0.2 0
v 0.3 0.2 0
v 0.4 0.2 0
v -0.2 0.2 -0.1
v -0.1 0.2 -0.1
v 0 0.2 -0.1
v 0.1 0.2 -0.1
v 0.2 0.2 -0.1
v 0.3 0.2 -0.1
v 0.4 0.2 -0.1
v -0.3 0.2 -0.2
v -0.2 0.2 -0.2
v 0 0.2 -0.2
v 0.1 0.2 -0.2
v 0.2 0.2 -0.2
v 0.3 0.2 -0.2
v -0.4 0.2 -0.3
v -0.3 0.2 -0.3
v -0.2 0.2 -0.3
v 0 0.2 -0.3
v 0.2 0.2 -0.3
v 0.3 0.2 -0.3
v 0.4 0.2 -0.3
v -0.4 0.2 -0.4
v -0.3 0.2 -0.4
v -0.2 0.2 -0.4
v -0.1 0.2 -0.4
v 0 0.2 -0.4
v 0.1 0.2 -0.4
v 0.2 0.2 -0.4
v 0.3 0.2 -0.4
v 0.4 0.2 -0.4
v -0.3 0.2 -0.5
v -0.2 0.2 -0.5
v -0.1 0.2 -0.5
v 0 0.2 -0.5
v 0.1 0.2 -0.5
v 0.2 0.2 -0.5
v -0.4 0.2 -0.6
v -0.3 0.2 -0.6
v -0.2 0.2 -0.6
v -0.1 0.2 -0.6
v 0 0.2 -0.6
v 0.1 0.2 -0.6
v 0.2 0.2 -0.6
v 0.3 0.2 -0.6
v 0.4 0.2 -0.6
v -0.4 0.2 -0.7
v -0.2 0.2 -0.7
v -0.1 0.2 -0.7
v 0 0.2 -0.7
v 0.1 0.2 -0.7
v 0.2 0.2 -0.7
v 0.3 0.2 -0.7
v 0.4 0.2 -0.7

# faces
f 11/2/1 2/2/1 1/2/1
f 11/1/1 3/1/1 2/1/1
f 12/1/1 3/1/1 11/1/1
f 13/1/1 3/1/1 12/1/1
f 14/2/1 4/2/1 3/2/1
f 14/1/1 3/1/1 13/1/1
f 15/1/1 5/1/1 4/1/1
f 15/2/1 4/2/1 14/2/1
f 16/2/1 6/2/1 5/2/1
f 16/1/1 5/1/1 15/1/1
f 17/3/1 7/3/1 6/3/1
f 17/2/1 6/2/1 16/2/1
f 18/1/1 8/1/1 7/1/1
f 18/3/1 7/3/1 17/3/1
f 19/3/1 9/3/1 8/3/1
f 19/1/1 8/1/1 18/1/1
f 20/2/1 10/2/1 9/2/1
f 20/3/1 9/3/1 19/3/1
f 21/2/1 10/2/1 20/2/1
f 22/2/1 11/2/1 1/2/1
f 23/3/1 12/3/1 11/3/1
f 23/2/1 11/2/1 22/2/1
f 24/2/1 13/2/1 12/2/1
f 24/3/1 12/3/1 23/3/1
f 25/3/1 14/3/1 13/3/1
f 25/2/1 13/2/1 24/2/1
f 25/3/1 15/3/1 14/3/1
f 25/3/1 16/3/1 15/3/1
f 25/3/1 17/3/1 16/3/1
f 26/2/1 18/2/1 17/2/1
f 26/3/1 17/3/1 25/3/1
f 27/1/1 19/1/1 18/1/1
f 27/2/1 18/2/1 26/2/1
f 27/1/1 20/1/1 19/1/1
f 28/3/1 21/3/1 20/3/1
f 28/1/1 20/1/1 27/1/1
f 29/3/1 21/3/1 28/3/1
f 30/3/2 31/3/2 41/3/2
f 31/1/2 32/1/2 41/1/2
f 32/3/2 33/3/2 42/3/2
f 41/1/2 32/1/2 42/1/2
f 33/2/2 34/2/2 43/2/2
f 42/3/2 33/3/2 43/3/2
f 34/1/2 35/1/2 44/1/2
f 43/2/2 34/2/2 44/2/2
f 44/1/2 35/1/2 45/1/2
f 35/2/2 36/2/2 46/2/2
f 45/1/2 35/1/2 46/1/2
f 36/3/2 37/3/2 47/3/2
f 46/2/2 36/2/2 47/2/2
f 47/3/2 37/3/2 48/3/2
f 37/2/2 38/2/2 49/2/2
f 48/3/2 37/3/2 49/3/2
f 38/1/2 39/1/2 50/1/2
f 49/2/2 38/2/2 50/2/2
f 30/3/2 41/3/2 51/3/2
f 41/2/2 42/2/2 52/2/2
f 51/3/2 41/3/2 52/3/2
f 42/3/2 43/3/2 53/3/2
f 52/2/2 42/2/2 53/2/2
f 44/1/2 45/1/2 54/1/2
f 53/3/2 43/3/2 54/3/2
f 43/1/2 44/1/2 54/1/2
f 45/2/2 46/2/2 55/2/2
f 54/1/2 45/1/2 55/1/2
f 47/1/2 48/1/2 56/1/2
f 55/2/2 46/2/2 56/2/2
f 46/1/2 47/1/2 56/1/2
f 48/3/2 49/3/2 57/3/2
f 56/1/2 48/1/2 57/1/2
f 49/1/2 50/1/2 58/1/2
f 57/3/2 49/3/2 58/3/2
f 39/2/2 40/2/2 59/2/2
f 58/1/2 50/1/2 59/1/2
f 50/1/2 39/1/2 59/1/2
f 59/2/2 40/2/2 60/2/2
f 63/2/3 62/2/3 61/2/3
f 64/2/3 62/2/3 63/2/3
f 65/3/3 64/3/3 63/3/3
f 66/3/3 64/3/3 65/3/3
f 67/2/3 66/2/3 65/2/3
f 68/2/3 66/2/3 67/2/3
f 69/1/3 68/1/3 67/1/3
f 70/2/3 66/2/3 68/2/3
f 70/1/3 68/1/3 69/1/3
f 71/2/3 66/2/3 70/2/3
f 72/2/3 70/2/3 69/2/3
f 73/3/3 71/3/3 70/3/3
f 73/2/3 70/2/3 72/2/3
f 74/3/3 73/3/3 72/3/3
f 75/3/3 71/3/3 73/3/3
f 75/3/3 73/3/3 74/3/3
f 76/2/4 77/2/4 79/2/4
f 77/3/4 78/3/4 80/3/4
f 79/2/4 77/2/4 80/2/4
f 79/3/4 80/3/4 81/3/4
f 80/3/4 78/3/4 81/3/4
f 81/3/4 78/3/4 82/3/4
f 79/3/4 81/3/4 83/3/4
f 81/1/4 82/1/4 84/1/4
f 83/3/4 81/3/4 84/3/4
f 84/1/4 82/1/4 85/1/4
f 83/1/4 84/1/4 86/1/4
f 84/2/4 85/2/4 86/2/4
f 86/2/4 85/2/4 87/2/4
f 83/1/4 86/1/4 88/1/4
f 86/3/4 87/3/4 88/3/4
f 88/3/4 87/3/4 89/3/4
f 83/1/4 88/1/4 90/1/4
f 88/2/4 89/2/4 91/2/4
f 90/1/4 88/1/4 91/1/4
f 91/2/4 89/2/4 92/2/4
f 90/3/4 91/3/4 93/3/4
f 91/1/4 92/1/4 94/1/4
f 93/3/4 91/3/4 94/3/4
f 94/1/4 92/1/4 95/1/4
f 93/2/4 94/2/4 96/2/4
f 94/2/4 95/2/4 96/2/4
f 96/2/4 95/2/4 97/2/4
f 105/2/5 99/2/5 98/2/5
f 106/2/5 99/2/5 105/2/5
f 107/3/5 100/3/5 99/3/5
f 107/2/5 99/2/5 106/2/5
f 108/2/5 101/2/5 100/2/5
f 108/1/5 102/1/5 101/1/5
f 109/1/5 102/1/5 108/1/5
f 110/2/5 103/2/5 102/2/5
f 110/1/5 102/1/5 109/1/5
f 111/3/5 104/3/5 103/3/5
f 111/2/5 103/2/5 110/2/5
f 112/1/5 106/1/5 105/1/5
f 112/3/5 107/3/5 106/3/5
f 113/3/5 100/3/5 107/3/5
f 113/3/5 107/3/5 112/3/5
f 113/2/5 109/2/5 108/2/5
f 113/2/5 108/2/5 100/2/5
f 114/2/5 109/2/5 113/2/5
f 115/3/5 110/3/5 109/3/5
f 115/1/5 111/1/5 110/1/5
f 116/3/5 104/3/5 111/3/5
f 116/1/5 111/1/5 115/1/5
f 117/3/5 104/3/5 116/3/5
f 118/1/5 114/1/5 113/1/5
f 118/1/5 113/1/5 112/1/5
f 119/2/5 109/2/5 114/2/5
f 119/1/5 114/1/5 118/1/5
f 120/3/5 115/3/5 109/3/5
f 120/2/5 109/2/5 119/2/5
f 121/2/5 116/2/5 115/2/5
f 121/3/5 115/3/5 120/3/5
f 122/1/5 117/1/5 116/1/5
f 122/2/5 116/2/5 121/2/5
f 123/1/5 117/1/5 122/1/5
f 124/1/5 118/1/5 112/1/5
f 124/2/5 119/2/5 118/2/5
f 125/2/5 119/2/5 124/2/5
f 126/3/5 121/3/5 120/3/5
f 126/2/5 119/2/5 125/2/5
f 126/3/5 120/3/5 119/3/5
f 127/3/5 121/3/5 126/3/5
f 128/1/5 122/1/5 121/1/5
f 128/3/5 121/3/5 127/3/5
f 129/3/5 123/3/5 122/3/5
f 129/1/5 122/1/5 128/1/5
f 130/3/5 123/3/5 129/3/5
f 131/3/5 125/3/5 124/3/5
f 131/1/5 124/1/5 112/1/5
f 132/2/5 127/2/5 126/2/5
f 132/3/5 125/3/5 131/3/5
f 132/2/5 126/2/5 125/2/5
f 133/2/5 127/2/5 132/2/5
f 134/1/5 128/1/5 127/1/5
f 134/2/5 127/2/5 133/2/5
f 135/2/5 130/2/5 129/2/5
f 135/1/5 128/1/5 134/1/5
f 135/2/5 129/2/5 128/2/5
f 136/2/5 130/2/5 135/2/5
f 137/2/5 130/2/5 136/2/5
f 138/1/5 112/1/5 105/1/5
f 138/1/5 131/1/5 112/1/5
f 138/1/5 132/1/5 131/1/5
f 139/1/5 132/1/5 138/1/5
f 140/2/5 133/2/5 132/2/5
f 140/1/5 132/1/5 139/1/5
f 141/3/5 134/3/5 133/3/5
f 141/2/5 133/2/5 140/2/5
f 142/2/5 136/2/5 135/2/5
f 142/3/5 134/3/5 141/3/5
f 142/2/5 135/2/5 134/2/5
f 143/2/5 136/2/5 142/2/5
f 144/2/5 139/2/5 138/2/5
f 145/1/5 140/1/5 139/1/5
f 145/2/5 139/2/5 144/2/5
f 146/1/5 140/1/5 145/1/5
f 147/3/5 141/3/5 140/3/5
f 147/1/5 140/1/5 146/1/5
f 148/1/5 142/1/5 141/1/5
f 148/3/5 143/3/5 142/3/5
f 149/2/5 136/2/5 143/2/5
f 149/3/5 143/3/5 148/3/5
f 150/1/5 137/1/5 136/1/5
f 150/2/5 136/2/5 149/2/5
f 151/1/5 137/1/5 150/1/5
f 152/1/5 146/1/5 145/1/5
f 152/1/5 145/1/5 144/1/5
f 153/1/5 146/1/5 152/1/5
f 154/3/5 147/3/5 146/3/5
f 154/1/5 146/1/5 153/1/5
f 155/1/5 148/1/5 141/1/5
f 155/3/5 147/3/5 154/3/5
f 155/3/5 141/3/5 147/3/5
f 156/2/5 149/2/5 148/2/5
f 156/1/5 148/1/5 155/1/5
f 156/2/5 151/2/5 150/2/5
f 156/2/5 150/2/5 149/2/5
f 157/2/5 151/2/5 156/2/5
f 158/2/5 151/2/5 157/2/5
f 159/2/5 151/2/5 158/2/5
f 160/2/5 153/2/5 152/2/5
f 161/1/5 154/1/5 153/1/5
f 161/2/5 153/2/5 160/2/5
f 162/2/5 155/2/5 154/2/5
f 162/1/5 154/1/5 161/1/5
f 162/2/5 156/2/5 155/2/5
f 163/3/5 157/3/5 156/3/5
f 163/2/5 156/2/5 162/2/5
f 164/3/5 161/3/5 160/3/5
f 165/1/5 162/1/5 161/1/5
f 165/3/5 161/3/5 164/3/5
f 166/3/5 163/3/5 162/3/5
f 166/1/5 162/1/5 165/1/5
f 167/3/5 163/3/5 166/3/5
f 168/3/5 159/3/5 158/3/5
f 168/1/5 158/1/5 157/1/5
f 169/3/5 159/3/5 168/3/5
f 170/1/5 165/1/5 164/1/5
f 171/3/5 166/3/5 165/3/5
f 171/1/5 165/1/5 170/1/5
f 172/2/5 167/2/5 166/2/5
f 172/3/5 166/3/5 171/3/5
f 173/2/5 167/2/5 172/2/5
f 174/3/5 157/3/5 163/3/5
f 174/3/5 163/3/5 167/3/5
f 175/1/5 168/1/5 157/1/5
f 175/3/5 157/3/5 174/3/5
f 176/2/5 169/2/5 168/2/5
f 176/1/5 168/1/5 175/1/5
f 177/2/5 169/2/5 176/2/5
f 178/3/5 171/3/5 170/3/5
f 179/1/5 172/1/5 171/1/5
f 179/3/5 171/3/5 178/3/5
f 180/3/5 173/3/5 172/3/5
f 180/1/5 172/1/5 179/1/5
f 181/2/5 167/2/5 173/2/5
f 181/3/5 173/3/5 180/3/5
f 182/3/5 174/3/5 167/3/5
f 182/2/5 167/2/5 181/2/5
f 183/1/5 175/1/5 174/1/5
f 183/3/5 174/3/5 182/3/5
f 184/3/5 176/3/5 175/3/5
f 184/1/5 177/1/5 176/1/5
f 185/1/5 177/1/5 184/1/5
f 186/2/5 179/2/5 178/2/5
f 187/3/5 180/3/5 179/3/5
f 187/2/5 179/2/5 186/2/5
f 187/3/5 181/3/5 180/3/5
f 188/1/5 182/1/5 181/1/5
f 188/3/5 181/3/5 187/3/5
f 188/1/5 183/1/5 182/1/5
f 189/1/5 175/1/5 183/1/5
f 189/1/5 183/1/5 188/1/5
f 189/3/5 184/3/5 175/3/5
f 190/2/5 185/2/5 184/2/5
f 190/3/5 184/3/5 189/3/5
f 191/2/5 185/2/5 190/2/5
f 192/2/6 193/2/6 197/2/6
f 197/2/6 193/2/6 198/2/6
f 193/3/6 194/3/6 199/3/6
f 198/2/6 193/2/6 199/2/6
f 194/2/6 195/2/6 200/2/6
f 195/3/6 196/3/6 201/3/6
f 200/2/6 195/2/6 201/2/6
f 201/3/6 196/3/6 202/3/6
f 197/3/6 198/3/6 203/3/6
f 198/1/6 199/1/6 204/1/6
f 203/3/6 198/3/6 204/3/6
f 194/2/6 200/2/6 205/2/6
f 200/3/6 201/3/6 205/3/6
f 205/3/6 201/3/6 206/3/6
f 201/1/6 202/1/6 207/1/6
f 206/3/6 201/3/6 207/3/6
f 202/3/6 196/3/6 208/3/6
f 207/1/6 202/1/6 208/1/6
f 208/3/6 196/3/6 209/3/6
f 204/1/6 199/1/6 210/1/6
f 203/2/6 204/2/6 210/2/6
f 199/3/6 194/3/6 211/3/6
f 210/1/6 199/1/6 211/1/6
f 194/2/6 205/2/6 212/2/6
f 211/3/6 194/3/6 212/3/6
f 205/1/6 206/1/6 213/1/6
f 212/2/6 205/2/6 213/2/6
f 206/2/6 207/2/6 214/2/6
f 213/1/6 206/1/6 214/1/6
f 207/1/6 208/1/6 215/1/6
f 214/2/6 207/2/6 215/2/6
f 208/2/6 209/2/6 216/2/6
f 215/1/6 208/1/6 216/1/6
f 216/2/6 209/2/6 217/2/6
f 203/2/6 210/2/6 218/2/6
f 210/3/6 211/3/6 219/3/6
f 218/2/6 210/2/6 219/2/6
f 211/2/6 212/2/6 220/2/6
f 219/3/6 211/3/6 220/3/6
f 212/1/6 213/1/6 221/1/6
f 220/2/6 212/2/6 221/2/6
f 213/2/6 214/2/6 222/2/6
f 221/1/6 213/1/6 222/1/6
f 214/1/6 215/1/6 223/1/6
f 222/2/6 214/2/6 223/2/6
f 215/2/6 216/2/6 224/2/6
f 223/1/6 215/1/6 224/1/6
f 216/3/6 217/3/6 225/3/6
f 224/2/6 216/2/6 225/2/6
f 225/3/6 217/3/6 226/3/6
f 219/2/6 220/2/6 227/2/6
f 218/3/6 219/3/6 227/3/6
f 221/3/6 222/3/6 228/3/6
f 227/2/6 220/2/6 228/2/6
f 220/3/6 221/3/6 228/3/6
f 222/3/6 223/3/6 228/3/6
f 223/3/6 224/3/6 228/3/6
f 228/3/6 224/3/6 229/3/6
f 229/3/6 224/3/6 230/3/6
f 230/3/6 224/3/6 231/3/6
f 225/1/6 226/1/6 232/1/6
f 231/3/6 224/3/6 232/3/6
f 224/1/6 225/1/6 232/1/6
f 232/1/6 226/1/6 233/1/6
f 227/3/6 228/3/6 234/3/6
f 228/2/6 229/2/6 234/2/6
f 229/3/6 230/3/6 235/3/6
f 234/2/6 229/2/6 235/2/6
f 230/1/6 231/1/6 236/1/6
f 235/3/6 230/3/6 236/3/6
f 231/3/6 232/3/6 237/3/6
f 236/1/6 231/1/6 237/1/6
f 232/2/6 233/2/6 238/2/6
f 237/3/6 232/3/6 238/3/6
f 233/1/6 226/1/6 239/1/6
f 238/2/6 233/2/6 239/2/6
f 239/1/6 226/1/6 240/1/6
f 234/3/6 235/3/6 241/3/6
f 227/3/6 234/3/6 241/3/6
f 235/2/6 236/2/6 242/2/6
f 241/3/6 235/3/6 242/3/6
f 236/3/6 237/3/6 243/3/6
f 242/2/6 236/2/6 243/2/6
f 237/1/6 238/1/6 244/1/6
f 243/3/6 237/3/6 244/3/6
f 238/1/6 239/1/6 244/1/6
f 244/1/6 239/1/6 245/1/6
f 239/2/6 240/2/6 246/2/6
f 245/1/6 239/1/6 246/1/6
f 246/2/6 240/2/6 247/2/6
f 218/3/6 227/3/6 248/3/6
f 227/3/6 241/3/6 248/3/6
f 242/2/6 243/2/6 249/2/6
f 248/3/6 241/3/6 249/3/6
f 241/2/6 242/2/6 249/2/6
f 243/2/6 244/2/6 249/2/6
f 249/2/6 244/2/6 250/2/6
f 244/1/6 245/1/6 251/1/6
f 250/2/6 244/2/6 251/2/6
f 245/3/6 246/3/6 252/3/6
f 251/1/6 245/1/6 252/1/6
f 246/1/6 247/1/6 253/1/6
f 252/3/6 246/3/6 253/3/6
f 218/3/6 248/3/6 254/3/6
f 248/1/6 249/1/6 255/1/6
f 254/3/6 248/3/6 255/3/6
f 249/3/6 250/3/6 256/3/6
f 255/1/6 249/1/6 256/1/6
f 250/1/6 251/1/6 257/1/6
f 256/3/6 250/3/6 257/3/6
f 251/1/6 252/1/6 257/1/6
f 252/2/6 253/2/6 258/2/6
f 257/1/6 252/1/6 258/1/6
f 253/1/6 247/1/6 259/1/6
f 258/2/6 253/2/6 259/2/6
f 259/1/6 247/1/6 260/1/6
f 254/2/6 255/2/6 261/2/6
f 257/1/6 258/1/6 262/1/6
f 261/2/6 255/2/6 262/2/6
f 255/1/6 256/1/6 262/1/6
f 256/1/6 257/1/6 262/1/6
f 262/1/6 258/1/6 263/1/6
f 263/1/6 258/1/6 264/1/6
f 264/1/6 258/1/6 265/1/6
f 265/1/6 258/1/6 266/1/6
f 259/3/6 260/3/6 267/3/6
f 266/1/6 258/1/6 267/1/6
f 258/3/6 259/3/6 267/3/6
f 267/3/6 260/3/6 268/3/6
f 268/3/6 260/3/6 269/3/6
f 261/1/6 262/1/6 270/1/6
f 262/1/6 263/1/6 270/1/6
f 263/3/6 264/3/6 271/3/6
f 270/1/6 263/1/6 271/1/6
f 264/1/6 265/1/6 272/1/6
f 271/3/6 264/3/6 272/3/6
f 265/3/6 266/3/6 273/3/6
f 272/1/6 265/1/6 273/1/6
f 266/2/6 267/2/6 274/2/6
f 273/3/6 266/3/6 274/3/6
f 267/2/6 268/2/6 274/2/6
f 274/2/6 268/2/6 275/2/6
f 261/1/6 270/1/6 276/1/6
f 270/2/6 271/2/6 277/2/6
f 276/1/6 270/1/6 277/1/6
f 271/3/6 272/3/6 278/3/6
f 277/2/6 271/2/6 278/2/6
f 272/3/6 273/3/6 278/3/6
f 273/3/6 274/3/6 278/3/6
f 278/3/6 274/3/6 279/3/6
f 279/3/6 274/3/6 280/3/6
f 274/1/6 275/1/6 281/1/6
f 280/3/6 274/3/6 281/3/6
f 275/2/6 268/2/6 282/2/6
f 281/1/6 275/1/6 282/1/6
f 268/1/6 269/1/6 283/1/6
f 282/2/6 268/2/6 283/2/6
f 283/1/6 269/1/6 284/1/6
f 276/3/6 277/3/6 285/3/6
f 277/3/6 278/3/6 285/3/6
f 278/1/6 279/1/6 286/1/6
f 285/3/6 278/3/6 286/3/6
f 279/2/6 280/2/6 287/2/6
f 286/1/6 279/1/6 287/1/6
f 280/3/6 281/3/6 288/3/6
f 287/2/6 280/2/6 288/2/6
f 281/2/6 282/2/6 289/2/6
f 288/3/6 281/3/6 289/3/6
f 282/1/6 283/1/6 290/1/6
f 289/2/6 282/2/6 290/2/6
f 283/2/6 284/2/6 291/2/6
f 290/1/6 283/1/6 291/1/6
f 291/2/6 284/2/6 292/2/6
