# MagicaVoxel @ Ephtracy

# group
o 

# material
mtllib trash.mtl
usemtl palette

# normals
vn -1 0 0
vn 1 0 0
vn 0 0 1
vn 0 0 -1
vn 0 -1 0
vn 0 1 0

# texcoords
vt 0.00585938 0.5
vt 0.00976562 0.5
vt 0.0136719 0.5
vt 0.0761719 0.5

# verts
v -1.5 0 1
v -1.5 0 -1
v -1.5 0.2 1
v -1.5 0.2 -1
v -1.5 0.3 1
v -1.5 0.3 -1
v -1.5 3 1
v -1.5 3 -1
v -1.3 1.8 1
v -1.3 1.8 0.9
v -1.3 2.5 1
v -1.3 2.5 0.9
v -1 2.7 0.6
v -1 2.7 -0.6
v -1 2.9 0.6
v -1 2.9 -0.6
v 0.9 2.8 0.5
v 0.9 2.8 -0.5
v 0.9 2.9 0.5
v 0.9 2.9 -0.5
v 1.4 1.6 1
v 1.4 1.6 0.9
v 1.4 1.8 0.9
v 1.4 2.6 1
v 1.4 2.6 0.9
v 1.4 2.7 1
v 1.4 2.7 -0.9
v 1.4 3 1
v 1.4 3 -0.9
v -1.4 1.6 1
v -1.4 1.6 0.9
v -1.4 1.8 0.9
v -1.4 2.6 1
v -1.4 2.6 0.9
v -1.4 2.7 1
v -1.4 2.7 -0.9
v -1.4 3 1
v -1.4 3 -0.9
v -0.9 2.8 0.5
v -0.9 2.8 -0.5
v -0.9 2.9 0.5
v -0.9 2.9 -0.5
v 1 2.7 0.6
v 1 2.7 -0.6
v 1 2.9 0.6
v 1 2.9 -0.6
v 1.3 1.8 1
v 1.3 1.8 0.9
v 1.3 2.5 1
v 1.3 2.5 0.9
v 1.6 0 1
v 1.6 0 -1
v 1.6 0.2 1
v 1.6 0.2 -1
v 1.6 0.3 1
v 1.6 0.3 -1
v 1.6 3 1
v 1.6 3 -1
v -1.5 0 1
v -1.5 0.2 1
v -1.5 0.3 1
v -1.5 3 1
v -1.4 1.6 1
v -1.4 2.6 1
v -1.4 2.7 1
v -1.4 3 1
v -1.3 1.8 1
v -1.3 2.5 1
v -0.9 1.2 1
v -0.9 1.3 1
v -0.8 1 1
v -0.8 1.2 1
v -0.7 1 1
v -0.7 1.2 1
v -0.6 1.2 1
v -0.6 1.3 1
v -0.5 0.7 1
v -0.5 0.8 1
v -0.5 1 1
v -0.5 1.3 1
v -0.4 0.5 1
v -0.4 0.7 1
v -0.4 0.8 1
v -0.4 1 1
v -0.4 1.1 1
v -0.4 1.2 1
v -0.4 1.3 1
v -0.3 0.5 1
v -0.3 0.7 1
v -0.3 0.8 1
v -0.3 1 1
v -0.3 1.1 1
v -0.3 1.2 1
v -0.3 1.3 1
v -0.2 0.7 1
v -0.2 0.8 1
v -0.2 1 1
v -0.2 1.3 1
v -0.1 0.6 1
v -0.1 0.7 1
v -0.1 1 1
v -0.1 1.2 1
v 0 0.5 1
v 0 0.6 1
v 0 0.7 1
v 0 0.8 1
v 0 1 1
v 0 1.1 1
v 0 1.2 1
v 0 1.3 1
v 0.1 0.5 1
v 0.1 0.6 1
v 0.1 0.7 1
v 0.1 0.8 1
v 0.1 1 1
v 0.1 1.1 1
v 0.1 1.2 1
v 0.1 1.3 1
v 0.2 0.6 1
v 0.2 0.7 1
v 0.2 1 1
v 0.2 1.2 1
v 0.3 0.6 1
v 0.3 0.8 1
v 0.3 1 1
v 0.3 1.3 1
v 0.4 0.5 1
v 0.4 0.6 1
v 0.4 0.8 1
v 0.4 1 1
v 0.4 1.1 1
v 0.4 1.2 1
v 0.4 1.3 1
v 0.5 0.5 1
v 0.5 0.6 1
v 0.5 0.8 1
v 0.5 1 1
v 0.5 1.1 1
v 0.5 1.2 1
v 0.5 1.3 1
v 0.6 0.6 1
v 0.6 0.8 1
v 0.6 1 1
v 0.6 1.3 1
v 0.7 1 1
v 0.7 1.3 1
v 0.8 1 1
v 0.8 1.1 1
v 0.8 1.2 1
v 0.8 1.3 1
v 0.9 1 1
v 0.9 1.1 1
v 0.9 1.2 1
v 0.9 1.3 1
v 1 1 1
v 1 1.1 1
v 1 1.2 1
v 1 1.3 1
v 1.3 1.8 1
v 1.3 2.5 1
v 1.4 1.6 1
v 1.4 2.6 1
v 1.4 2.7 1
v 1.4 3 1
v 1.6 0 1
v 1.6 0.2 1
v 1.6 0.3 1
v 1.6 3 1
v -1.4 1.6 0.9
v -1.4 1.8 0.9
v -1.4 2.6 0.9
v -1.3 1.8 0.9
v -1.3 2.5 0.9
v 1.3 1.8 0.9
v 1.3 2.5 0.9
v 1.4 1.6 0.9
v 1.4 1.8 0.9
v 1.4 2.6 0.9
v -1 2.7 0.6
v -1 2.9 0.6
v 1 2.7 0.6
v 1 2.9 0.6
v -0.9 2.8 -0.5
v -0.9 2.9 -0.5
v 0.9 2.8 -0.5
v 0.9 2.9 -0.5
v -1.4 2.7 -0.9
v -1.4 3 -0.9
v 1.4 2.7 -0.9
v 1.4 3 -0.9
v -0.9 2.8 0.5
v -0.9 2.9 0.5
v 0.9 2.8 0.5
v 0.9 2.9 0.5
v -1 2.7 -0.6
v -1 2.9 -0.6
v 1 2.7 -0.6
v 1 2.9 -0.6
v -1.5 0 -1
v -1.5 0.2 -1
v -1.5 0.3 -1
v -1.5 3 -1
v 1.6 0 -1
v 1.6 0.2 -1
v 1.6 0.3 -1
v 1.6 3 -1
v -1.5 0 1
v 1.6 0 1
v -1.5 0 -1
v 1.6 0 -1
v -1.3 1.8 1
v 1.3 1.8 1
v -1.3 1.8 0.9
v 1.3 1.8 0.9
v -1.4 2.6 1
v 1.4 2.6 1
v -1.4 2.6 0.9
v 1.4 2.6 0.9
v -1.4 1.6 1
v 1.4 1.6 1
v -1.4 1.6 0.9
v 1.4 1.6 0.9
v -1.3 2.5 1
v 1.3 2.5 1
v -1.3 2.5 0.9
v 1.3 2.5 0.9
v -1.4 2.7 1
v 1.4 2.7 1
v -1 2.7 0.6
v 1 2.7 0.6
v -1 2.7 -0.6
v 1 2.7 -0.6
v -1.4 2.7 -0.9
v 1.4 2.7 -0.9
v -0.9 2.8 0.5
v 0.9 2.8 0.5
v -0.9 2.8 -0.5
v 0.9 2.8 -0.5
v -1 2.9 0.6
v 1 2.9 0.6
v -0.9 2.9 0.5
v 0.9 2.9 0.5
v -0.9 2.9 -0.5
v 0.9 2.9 -0.5
v -1 2.9 -0.6
v 1 2.9 -0.6
v -1.5 3 1
v -1.4 3 1
v 1.4 3 1
v 1.6 3 1
v -1.4 3 -0.9
v 1.4 3 -0.9
v -1.5 3 -1
v 1.6 3 -1

# faces
f 3/2/1 2/2/1 1/2/1
f 4/2/1 2/2/1 3/2/1
f 5/3/1 4/3/1 3/3/1
f 6/3/1 4/3/1 5/3/1
f 7/2/1 6/2/1 5/2/1
f 8/2/1 6/2/1 7/2/1
f 11/3/1 10/3/1 9/3/1
f 12/3/1 10/3/1 11/3/1
f 15/4/1 14/4/1 13/4/1
f 16/4/1 14/4/1 15/4/1
f 19/4/1 18/4/1 17/4/1
f 20/4/1 18/4/1 19/4/1
f 23/2/1 22/2/1 21/2/1
f 24/2/1 23/2/1 21/2/1
f 25/2/1 23/2/1 24/2/1
f 28/2/1 27/2/1 26/2/1
f 29/2/1 27/2/1 28/2/1
f 30/2/2 31/2/2 32/2/2
f 30/2/2 32/2/2 33/2/2
f 33/2/2 32/2/2 34/2/2
f 35/2/2 36/2/2 37/2/2
f 37/2/2 36/2/2 38/2/2
f 39/4/2 40/4/2 41/4/2
f 41/4/2 40/4/2 42/4/2
f 43/4/2 44/4/2 45/4/2
f 45/4/2 44/4/2 46/4/2
f 47/3/2 48/3/2 49/3/2
f 49/3/2 48/3/2 50/3/2
f 51/2/2 52/2/2 53/2/2
f 53/2/2 52/2/2 54/2/2
f 53/3/2 54/3/2 55/3/2
f 55/3/2 54/3/2 56/3/2
f 55/2/2 56/2/2 57/2/2
f 57/2/2 56/2/2 58/2/2
f 63/2/3 62/2/3 61/2/3
f 64/2/3 62/2/3 63/2/3
f 65/2/3 62/2/3 64/2/3
f 66/2/3 62/2/3 65/2/3
f 69/2/3 63/2/3 61/2/3
f 70/2/3 63/2/3 69/2/3
f 71/2/3 69/2/3 61/2/3
f 72/3/3 70/3/3 69/3/3
f 72/2/3 69/2/3 71/2/3
f 73/2/3 71/2/3 61/2/3
f 73/3/3 72/3/3 71/3/3
f 74/3/3 70/3/3 72/3/3
f 74/3/3 72/3/3 73/3/3
f 75/2/3 74/2/3 73/2/3
f 75/3/3 70/3/3 74/3/3
f 76/2/3 63/2/3 70/2/3
f 76/3/3 70/3/3 75/3/3
f 77/2/3 75/2/3 73/2/3
f 77/2/3 73/2/3 61/2/3
f 77/2/3 76/2/3 75/2/3
f 78/2/3 76/2/3 77/2/3
f 79/2/3 76/2/3 78/2/3
f 80/2/3 63/2/3 76/2/3
f 80/2/3 76/2/3 79/2/3
f 81/2/3 77/2/3 61/2/3
f 82/3/3 78/3/3 77/3/3
f 82/2/3 77/2/3 81/2/3
f 83/2/3 79/2/3 78/2/3
f 83/3/3 78/3/3 82/3/3
f 84/3/3 80/3/3 79/3/3
f 84/2/3 79/2/3 83/2/3
f 85/3/3 80/3/3 84/3/3
f 86/3/3 80/3/3 85/3/3
f 87/2/3 63/2/3 80/2/3
f 87/3/3 80/3/3 86/3/3
f 88/3/3 82/3/3 81/3/3
f 88/2/3 81/2/3 61/2/3
f 89/2/3 83/2/3 82/2/3
f 89/3/3 82/3/3 88/3/3
f 89/2/3 84/2/3 83/2/3
f 89/2/3 85/2/3 84/2/3
f 90/2/3 85/2/3 89/2/3
f 91/2/3 85/2/3 90/2/3
f 92/3/3 86/3/3 85/3/3
f 92/2/3 85/2/3 91/2/3
f 93/2/3 87/2/3 86/2/3
f 93/3/3 86/3/3 92/3/3
f 94/2/3 63/2/3 87/2/3
f 94/2/3 87/2/3 93/2/3
f 95/2/3 89/2/3 88/2/3
f 95/3/3 90/3/3 89/3/3
f 96/2/3 91/2/3 90/2/3
f 96/3/3 90/3/3 95/3/3
f 97/3/3 93/3/3 92/3/3
f 97/2/3 91/2/3 96/2/3
f 97/3/3 92/3/3 91/3/3
f 97/3/3 94/3/3 93/3/3
f 98/2/3 63/2/3 94/2/3
f 98/3/3 94/3/3 97/3/3
f 99/2/3 96/2/3 95/2/3
f 99/2/3 95/2/3 88/2/3
f 99/2/3 98/2/3 97/2/3
f 99/2/3 97/2/3 96/2/3
f 100/2/3 98/2/3 99/2/3
f 101/2/3 98/2/3 100/2/3
f 102/2/3 98/2/3 101/2/3
f 103/2/3 88/2/3 61/2/3
f 103/2/3 99/2/3 88/2/3
f 104/3/3 100/3/3 99/3/3
f 104/2/3 99/2/3 103/2/3
f 105/2/3 101/2/3 100/2/3
f 105/3/3 100/3/3 104/3/3
f 106/2/3 101/2/3 105/2/3
f 107/3/3 102/3/3 101/3/3
f 107/2/3 101/2/3 106/2/3
f 108/3/3 102/3/3 107/3/3
f 109/2/3 98/2/3 102/2/3
f 109/3/3 102/3/3 108/3/3
f 110/2/3 63/2/3 98/2/3
f 110/2/3 98/2/3 109/2/3
f 111/2/3 103/2/3 61/2/3
f 111/3/3 104/3/3 103/3/3
f 112/2/3 105/2/3 104/2/3
f 112/3/3 104/3/3 111/3/3
f 113/3/3 106/3/3 105/3/3
f 113/2/3 105/2/3 112/2/3
f 114/2/3 108/2/3 107/2/3
f 114/3/3 106/3/3 113/3/3
f 114/2/3 107/2/3 106/2/3
f 115/2/3 108/2/3 114/2/3
f 116/3/3 109/3/3 108/3/3
f 116/2/3 108/2/3 115/2/3
f 116/3/3 110/3/3 109/3/3
f 117/3/3 110/3/3 116/3/3
f 118/2/3 63/2/3 110/2/3
f 118/3/3 110/3/3 117/3/3
f 119/3/3 113/3/3 112/3/3
f 119/2/3 112/2/3 111/2/3
f 120/2/3 115/2/3 114/2/3
f 120/3/3 113/3/3 119/3/3
f 120/2/3 114/2/3 113/2/3
f 121/3/3 117/3/3 116/3/3
f 121/2/3 115/2/3 120/2/3
f 121/3/3 116/3/3 115/3/3
f 122/2/3 118/2/3 117/2/3
f 122/3/3 117/3/3 121/3/3
f 123/2/3 119/2/3 111/2/3
f 123/2/3 121/2/3 120/2/3
f 123/2/3 122/2/3 121/2/3
f 123/2/3 120/2/3 119/2/3
f 124/2/3 122/2/3 123/2/3
f 125/2/3 122/2/3 124/2/3
f 126/2/3 118/2/3 122/2/3
f 126/2/3 122/2/3 125/2/3
f 126/2/3 63/2/3 118/2/3
f 127/2/3 111/2/3 61/2/3
f 127/2/3 123/2/3 111/2/3
f 128/3/3 124/3/3 123/3/3
f 128/2/3 123/2/3 127/2/3
f 129/2/3 125/2/3 124/2/3
f 129/3/3 124/3/3 128/3/3
f 130/3/3 126/3/3 125/3/3
f 130/2/3 125/2/3 129/2/3
f 131/3/3 126/3/3 130/3/3
f 132/3/3 126/3/3 131/3/3
f 133/2/3 63/2/3 126/2/3
f 133/3/3 126/3/3 132/3/3
f 134/3/3 128/3/3 127/3/3
f 134/2/3 127/2/3 61/2/3
f 135/2/3 129/2/3 128/2/3
f 135/3/3 128/3/3 134/3/3
f 135/2/3 130/2/3 129/2/3
f 135/2/3 131/2/3 130/2/3
f 136/2/3 131/2/3 135/2/3
f 137/2/3 131/2/3 136/2/3
f 138/3/3 132/3/3 131/3/3
f 138/2/3 131/2/3 137/2/3
f 139/2/3 133/2/3 132/2/3
f 139/3/3 132/3/3 138/3/3
f 140/2/3 63/2/3 133/2/3
f 140/2/3 133/2/3 139/2/3
f 141/2/3 135/2/3 134/2/3
f 141/3/3 136/3/3 135/3/3
f 142/2/3 137/2/3 136/2/3
f 142/3/3 136/3/3 141/3/3
f 143/3/3 139/3/3 138/3/3
f 143/2/3 137/2/3 142/2/3
f 143/3/3 138/3/3 137/3/3
f 143/3/3 140/3/3 139/3/3
f 144/2/3 63/2/3 140/2/3
f 144/3/3 140/3/3 143/3/3
f 145/2/3 142/2/3 141/2/3
f 145/2/3 143/2/3 142/2/3
f 145/2/3 144/2/3 143/2/3
f 146/2/3 63/2/3 144/2/3
f 146/2/3 144/2/3 145/2/3
f 147/2/3 145/2/3 141/2/3
f 147/3/3 146/3/3 145/3/3
f 148/3/3 146/3/3 147/3/3
f 149/3/3 146/3/3 148/3/3
f 150/2/3 63/2/3 146/2/3
f 150/3/3 146/3/3 149/3/3
f 151/2/3 147/2/3 141/2/3
f 151/2/3 148/2/3 147/2/3
f 152/3/3 149/3/3 148/3/3
f 152/2/3 148/2/3 151/2/3
f 153/2/3 150/2/3 149/2/3
f 153/3/3 149/3/3 152/3/3
f 154/2/3 63/2/3 150/2/3
f 154/2/3 150/2/3 153/2/3
f 155/2/3 151/2/3 141/2/3
f 155/3/3 152/3/3 151/3/3
f 156/2/3 153/2/3 152/2/3
f 156/3/3 152/3/3 155/3/3
f 157/3/3 154/3/3 153/3/3
f 157/2/3 153/2/3 156/2/3
f 158/2/3 63/2/3 154/2/3
f 158/3/3 154/3/3 157/3/3
f 159/3/3 68/3/3 67/3/3
f 160/3/3 68/3/3 159/3/3
f 161/2/3 63/2/3 158/2/3
f 161/2/3 157/2/3 156/2/3
f 161/2/3 156/2/3 155/2/3
f 161/2/3 158/2/3 157/2/3
f 162/1/3 65/1/3 64/1/3
f 163/1/3 65/1/3 162/1/3
f 165/2/3 60/2/3 59/2/3
f 166/3/3 61/3/3 60/3/3
f 166/2/3 60/2/3 165/2/3
f 167/2/3 164/2/3 163/2/3
f 167/3/3 61/3/3 166/3/3
f 167/2/3 161/2/3 155/2/3
f 167/2/3 163/2/3 162/2/3
f 167/2/3 162/2/3 161/2/3
f 167/2/3 155/2/3 141/2/3
f 167/2/3 141/2/3 134/2/3
f 167/2/3 134/2/3 61/2/3
f 168/2/3 164/2/3 167/2/3
f 172/1/3 170/1/3 169/1/3
f 172/2/3 171/2/3 170/2/3
f 173/2/3 171/2/3 172/2/3
f 174/1/3 172/1/3 169/1/3
f 175/2/3 171/2/3 173/2/3
f 176/1/3 174/1/3 169/1/3
f 177/2/3 175/2/3 174/2/3
f 177/1/3 174/1/3 176/1/3
f 178/2/3 171/2/3 175/2/3
f 178/2/3 175/2/3 177/2/3
f 181/4/3 180/4/3 179/4/3
f 182/4/3 180/4/3 181/4/3
f 185/4/3 184/4/3 183/4/3
f 186/4/3 184/4/3 185/4/3
f 189/2/3 188/2/3 187/2/3
f 190/2/3 188/2/3 189/2/3
f 191/4/4 192/4/4 193/4/4
f 193/4/4 192/4/4 194/4/4
f 195/4/4 196/4/4 197/4/4
f 197/4/4 196/4/4 198/4/4
f 199/2/4 200/2/4 203/2/4
f 200/3/4 201/3/4 204/3/4
f 203/2/4 200/2/4 204/2/4
f 201/2/4 202/2/4 205/2/4
f 204/3/4 201/3/4 205/3/4
f 205/2/4 202/2/4 206/2/4
f 209/2/5 208/2/5 207/2/5
f 210/2/5 208/2/5 209/2/5
f 213/3/5 212/3/5 211/3/5
f 214/3/5 212/3/5 213/3/5
f 217/1/5 216/1/5 215/1/5
f 218/1/5 216/1/5 217/1/5
f 219/2/6 220/2/6 221/2/6
f 221/2/6 220/2/6 222/2/6
f 223/3/6 224/3/6 225/3/6
f 225/3/6 224/3/6 226/3/6
f 227/1/6 228/1/6 229/1/6
f 229/1/6 228/1/6 230/1/6
f 227/1/6 229/1/6 231/1/6
f 230/1/6 228/1/6 232/1/6
f 227/1/6 231/1/6 233/1/6
f 231/1/6 232/1/6 233/1/6
f 232/1/6 228/1/6 234/1/6
f 233/1/6 232/1/6 234/1/6
f 235/4/6 236/4/6 237/4/6
f 237/4/6 236/4/6 238/4/6
f 239/4/6 240/4/6 241/4/6
f 241/4/6 240/4/6 242/4/6
f 239/4/6 241/4/6 243/4/6
f 242/4/6 240/4/6 244/4/6
f 239/4/6 243/4/6 245/4/6
f 243/4/6 244/4/6 245/4/6
f 244/4/6 240/4/6 246/4/6
f 245/4/6 244/4/6 246/4/6
f 247/2/6 248/2/6 251/2/6
f 249/2/6 250/2/6 252/2/6
f 247/2/6 251/2/6 253/2/6
f 251/2/6 252/2/6 253/2/6
f 252/2/6 250/2/6 254/2/6
f 253/2/6 252/2/6 254/2/6
