# MagicaVoxel @ Ephtracy

# group
o 

# material
mtllib sofa.mtl
usemtl palette

# normals
vn -1 0 0
vn 1 0 0
vn 0 0 1
vn 0 0 -1
vn 0 -1 0
vn 0 1 0

# texcoords
vt 0.0996094 0.5
vt 0.384766 0.5
vt 0.439453 0.5
vt 0.443359 0.5
vt 0.447266 0.5

# verts
v -1.5 0.3 1.1
v -1.5 0.3 -1.2
v -1.5 0.4 1.2
v -1.5 0.4 1.1
v -1.5 1.5 1.2
v -1.5 1.5 1.1
v -1.5 1.6 1.1
v -1.5 1.6 -1.2
v -1.4 0.3 1.2
v -1.4 0.3 1.1
v -1.4 0.4 1.2
v -1.4 0.4 1.1
v -1.4 1.6 1
v -1.4 1.6 -1.2
v -1.4 1.7 1
v -1.4 1.7 -1.2
v -1.3 0 1
v -1.3 0 0.8
v -1.3 0 -0.9
v -1.3 0 -1.1
v -1.3 0.3 1
v -1.3 0.3 0.8
v -1.3 0.3 -0.9
v -1.3 0.3 -1.1
v -1 1.7 -0.4
v -1 1.7 -0.9
v -1 1.9 -0.4
v -1 1.9 -0.5
v -1 2.1 -0.5
v -1 2.1 -0.9
v 1 0.8 1.2
v 1 0.8 1.1
v 1 0.9 1.1
v 1 0.9 0
v 1 1.1 0
v 1 1.1 -0.0999999
v 1 1.3 -0.0999999
v 1 1.3 -0.2
v 1 1.5 1.2
v 1 1.5 1.1
v 1 1.5 -0.2
v 1 1.5 -0.3
v 1 1.6 1.1
v 1 1.6 1
v 1 1.7 1
v 1 1.7 -0.3
v 1.1 0 1
v 1.1 0 0.8
v 1.1 0 -0.9
v 1.1 0 -1.1
v 1.1 0.3 1
v 1.1 0.3 0.8
v 1.1 0.3 -0.9
v 1.1 0.3 -1.1
v -1.1 0 1
v -1.1 0 0.8
v -1.1 0 -0.9
v -1.1 0 -1.1
v -1.1 0.3 1
v -1.1 0.3 0.8
v -1.1 0.3 -0.9
v -1.1 0.3 -1.1
v -1 0.8 1.2
v -1 0.8 1.1
v -1 0.9 1.1
v -1 0.9 0
v -1 1.1 0
v -1 1.1 -0.0999999
v -1 1.3 -0.0999999
v -1 1.3 -0.2
v -1 1.5 1.2
v -1 1.5 1.1
v -1 1.5 -0.2
v -1 1.5 -0.3
v -1 1.6 1.1
v -1 1.6 1
v -1 1.7 1
v -1 1.7 -0.3
v 1 1.7 -0.4
v 1 1.7 -0.9
v 1 1.9 -0.4
v 1 1.9 -0.5
v 1 2.1 -0.5
v 1 2.1 -0.9
v 1.3 0 1
v 1.3 0 0.8
v 1.3 0 -0.9
v 1.3 0 -1.1
v 1.3 0.3 1
v 1.3 0.3 0.8
v 1.3 0.3 -0.9
v 1.3 0.3 -1.1
v 1.4 0.3 1.2
v 1.4 0.3 1.1
v 1.4 0.4 1.2
v 1.4 0.4 1.1
v 1.4 1.6 1
v 1.4 1.6 -1.2
v 1.4 1.7 1
v 1.4 1.7 -1.2
v 1.5 0.3 1.1
v 1.5 0.3 -1.2
v 1.5 0.4 1.2
v 1.5 0.4 1.1
v 1.5 1.5 1.2
v 1.5 1.5 1.1
v 1.5 1.6 1.1
v 1.5 1.6 -1.2
v -1.5 0.4 1.2
v -1.5 1.5 1.2
v -1.4 0.3 1.2
v -1.4 0.4 1.2
v -1 0.3 1.2
v -1 0.8 1.2
v -1 1.5 1.2
v 1 0.3 1.2
v 1 0.8 1.2
v 1 1.5 1.2
v 1.4 0.3 1.2
v 1.4 0.4 1.2
v 1.5 0.4 1.2
v 1.5 1.5 1.2
v -1.5 0.3 1.1
v -1.5 0.4 1.1
v -1.5 1.5 1.1
v -1.5 1.6 1.1
v -1.4 0.3 1.1
v -1.4 0.4 1.1
v -1 0.8 1.1
v -1 0.9 1.1
v -1 1.5 1.1
v -1 1.6 1.1
v 1 0.8 1.1
v 1 0.9 1.1
v 1 1.5 1.1
v 1 1.6 1.1
v 1.4 0.3 1.1
v 1.4 0.4 1.1
v 1.5 0.3 1.1
v 1.5 0.4 1.1
v 1.5 1.5 1.1
v 1.5 1.6 1.1
v -1.4 1.6 1
v -1.4 1.7 1
v -1.3 0 1
v -1.3 0.3 1
v -1.1 0 1
v -1.1 0.3 1
v -1 1.6 1
v -1 1.7 1
v 1 1.6 1
v 1 1.7 1
v 1.1 0 1
v 1.1 0.3 1
v 1.3 0 1
v 1.3 0.3 1
v 1.4 1.6 1
v 1.4 1.7 1
v -1 0.9 0
v -1 1.1 0
v 1 0.9 0
v 1 1.1 0
v -1 1.1 -0.0999999
v -1 1.3 -0.0999999
v 1 1.1 -0.0999999
v 1 1.3 -0.0999999
v -1 1.3 -0.2
v -1 1.5 -0.2
v 1 1.3 -0.2
v 1 1.5 -0.2
v -1 1.5 -0.3
v -1 1.7 -0.3
v 1 1.5 -0.3
v 1 1.7 -0.3
v -1 1.7 -0.4
v -1 1.9 -0.4
v 1 1.7 -0.4
v 1 1.9 -0.4
v -1 1.9 -0.5
v -1 2.1 -0.5
v 1 1.9 -0.5
v 1 2.1 -0.5
v -1.3 0 -0.9
v -1.3 0.3 -0.9
v -1.1 0 -0.9
v -1.1 0.3 -0.9
v 1.1 0 -0.9
v 1.1 0.3 -0.9
v 1.3 0 -0.9
v 1.3 0.3 -0.9
v -1.3 0 0.8
v -1.3 0.3 0.8
v -1.1 0 0.8
v -1.1 0.3 0.8
v 1.1 0 0.8
v 1.1 0.3 0.8
v 1.3 0 0.8
v 1.3 0.3 0.8
v -1 1.7 -0.9
v -1 2.1 -0.9
v 1 1.7 -0.9
v 1 2.1 -0.9
v -1.3 0 -1.1
v -1.3 0.3 -1.1
v -1.1 0 -1.1
v -1.1 0.3 -1.1
v 1.1 0 -1.1
v 1.1 0.3 -1.1
v 1.3 0 -1.1
v 1.3 0.3 -1.1
v -1.5 0.3 -1.2
v -1.5 1.6 -1.2
v -1.4 1.6 -1.2
v -1.4 1.7 -1.2
v 1.4 1.6 -1.2
v 1.4 1.7 -1.2
v 1.5 0.3 -1.2
v 1.5 1.6 -1.2
v -1.3 0 1
v -1.1 0 1
v 1.1 0 1
v 1.3 0 1
v -1.3 0 0.8
v -1.1 0 0.8
v 1.1 0 0.8
v 1.3 0 0.8
v -1.3 0 -0.9
v -1.1 0 -0.9
v 1.1 0 -0.9
v 1.3 0 -0.9
v -1.3 0 -1.1
v -1.1 0 -1.1
v 1.1 0 -1.1
v 1.3 0 -1.1
v -1.4 0.3 1.2
v -1 0.3 1.2
v 1 0.3 1.2
v 1.4 0.3 1.2
v -1.5 0.3 1.1
v -1.4 0.3 1.1
v -1 0.3 1.1
v -0.9 0.3 1.1
v 0.9 0.3 1.1
v 1 0.3 1.1
v 1.4 0.3 1.1
v 1.5 0.3 1.1
v -1.3 0.3 1
v -1.1 0.3 1
v -1 0.3 1
v -0.9 0.3 1
v 0.9 0.3 1
v 1 0.3 1
v 1.1 0.3 1
v 1.3 0.3 1
v -1.3 0.3 0.8
v -1.1 0.3 0.8
v 1.1 0.3 0.8
v 1.3 0.3 0.8
v -1.3 0.3 -0.9
v -1.1 0.3 -0.9
v 1.1 0.3 -0.9
v 1.3 0.3 -0.9
v -1.3 0.3 -1.1
v -1.1 0.3 -1.1
v 1.1 0.3 -1.1
v 1.3 0.3 -1.1
v -1.5 0.3 -1.2
v 1.5 0.3 -1.2
v -1.5 0.4 1.2
v -1.4 0.4 1.2
v 1.4 0.4 1.2
v 1.5 0.4 1.2
v -1.5 0.4 1.1
v -1.4 0.4 1.1
v 1.4 0.4 1.1
v 1.5 0.4 1.1
v -1 0.8 1.2
v 1 0.8 1.2
v -1 0.8 1.1
v 1 0.8 1.1
v -1 0.9 1.1
v 1 0.9 1.1
v -1 0.9 0
v 1 0.9 0
v -1 1.1 0
v 1 1.1 0
v -1 1.1 -0.0999999
v 1 1.1 -0.0999999
v -1 1.3 -0.0999999
v 1 1.3 -0.0999999
v -1 1.3 -0.2
v 1 1.3 -0.2
v -1.5 1.5 1.2
v -1 1.5 1.2
v 1 1.5 1.2
v 1.5 1.5 1.2
v -1.5 1.5 1.1
v -1 1.5 1.1
v 1 1.5 1.1
v 1.5 1.5 1.1
v -1 1.5 -0.2
v 1 1.5 -0.2
v -1 1.5 -0.3
v 1 1.5 -0.3
v -1.5 1.6 1.1
v -1 1.6 1.1
v 1 1.6 1.1
v 1.5 1.6 1.1
v -1.4 1.6 1
v -1 1.6 1
v 1 1.6 1
v 1.4 1.6 1
v -1.5 1.6 -1.2
v -1.4 1.6 -1.2
v 1.4 1.6 -1.2
v 1.5 1.6 -1.2
v -1.4 1.7 1
v -1 1.7 1
v 1 1.7 1
v 1.4 1.7 1
v -1 1.7 -0.3
v 1 1.7 -0.3
v -1 1.7 -0.4
v 1 1.7 -0.4
v -1 1.7 -0.9
v 1 1.7 -0.9
v -1.4 1.7 -1.2
v 1.4 1.7 -1.2
v -1 1.9 -0.4
v 1 1.9 -0.4
v -1 1.9 -0.5
v 1 1.9 -0.5
v -1 2.1 -0.5
v 1 2.1 -0.5
v -1 2.1 -0.9
v 1 2.1 -0.9

# faces
f 4/1/1 2/1/1 1/1/1
f 5/1/1 4/1/1 3/1/1
f 6/1/1 2/1/1 4/1/1
f 6/1/1 4/1/1 5/1/1
f 7/1/1 2/1/1 6/1/1
f 8/1/1 2/1/1 7/1/1
f 11/1/1 10/1/1 9/1/1
f 12/1/1 10/1/1 11/1/1
f 15/1/1 14/1/1 13/1/1
f 16/1/1 14/1/1 15/1/1
f 21/2/1 18/2/1 17/2/1
f 22/2/1 18/2/1 21/2/1
f 23/2/1 20/2/1 19/2/1
f 24/2/1 20/2/1 23/2/1
f 27/5/1 26/5/1 25/5/1
f 28/5/1 26/5/1 27/5/1
f 29/5/1 26/5/1 28/5/1
f 30/5/1 26/5/1 29/5/1
f 33/1/1 32/1/1 31/1/1
f 35/1/1 34/1/1 33/1/1
f 37/1/1 36/1/1 35/1/1
f 39/1/1 33/1/1 31/1/1
f 39/1/1 38/1/1 37/1/1
f 39/1/1 37/1/1 35/1/1
f 39/1/1 35/1/1 33/1/1
f 40/1/1 38/1/1 39/1/1
f 41/1/1 38/1/1 40/1/1
f 43/1/1 42/1/1 41/1/1
f 43/1/1 41/1/1 40/1/1
f 44/1/1 42/1/1 43/1/1
f 45/1/1 42/1/1 44/1/1
f 46/1/1 42/1/1 45/1/1
f 51/2/1 48/2/1 47/2/1
f 52/2/1 48/2/1 51/2/1
f 53/2/1 50/2/1 49/2/1
f 54/2/1 50/2/1 53/2/1
f 55/2/2 56/2/2 59/2/2
f 59/2/2 56/2/2 60/2/2
f 57/2/2 58/2/2 61/2/2
f 61/2/2 58/2/2 62/2/2
f 63/1/2 64/1/2 65/1/2
f 65/1/2 66/1/2 67/1/2
f 67/1/2 68/1/2 69/1/2
f 63/1/2 65/1/2 71/1/2
f 69/1/2 70/1/2 71/1/2
f 67/1/2 69/1/2 71/1/2
f 65/1/2 67/1/2 71/1/2
f 71/1/2 70/1/2 72/1/2
f 72/1/2 70/1/2 73/1/2
f 73/1/2 74/1/2 75/1/2
f 72/1/2 73/1/2 75/1/2
f 75/1/2 74/1/2 76/1/2
f 76/1/2 74/1/2 77/1/2
f 77/1/2 74/1/2 78/1/2
f 79/5/2 80/5/2 81/5/2
f 81/5/2 80/5/2 82/5/2
f 82/5/2 80/5/2 83/5/2
f 83/5/2 80/5/2 84/5/2
f 85/2/2 86/2/2 89/2/2
f 89/2/2 86/2/2 90/2/2
f 87/2/2 88/2/2 91/2/2
f 91/2/2 88/2/2 92/2/2
f 93/1/2 94/1/2 95/1/2
f 95/1/2 94/1/2 96/1/2
f 97/1/2 98/1/2 99/1/2
f 99/1/2 98/1/2 100/1/2
f 101/1/2 102/1/2 104/1/2
f 103/1/2 104/1/2 105/1/2
f 104/1/2 102/1/2 106/1/2
f 105/1/2 104/1/2 106/1/2
f 106/1/2 102/1/2 107/1/2
f 107/1/2 102/1/2 108/1/2
f 112/1/3 110/1/3 109/1/3
f 113/1/3 112/1/3 111/1/3
f 114/1/3 110/1/3 112/1/3
f 114/1/3 112/1/3 113/1/3
f 115/1/3 110/1/3 114/1/3
f 116/4/3 114/4/3 113/4/3
f 117/4/3 114/4/3 116/4/3
f 119/1/3 117/1/3 116/1/3
f 119/1/3 118/1/3 117/1/3
f 120/1/3 118/1/3 119/1/3
f 121/1/3 118/1/3 120/1/3
f 122/1/3 118/1/3 121/1/3
f 127/1/3 124/1/3 123/1/3
f 128/1/3 124/1/3 127/1/3
f 131/1/3 126/1/3 125/1/3
f 132/1/3 126/1/3 131/1/3
f 133/5/3 130/5/3 129/5/3
f 134/5/3 130/5/3 133/5/3
f 139/1/3 138/1/3 137/1/3
f 140/1/3 138/1/3 139/1/3
f 141/1/3 136/1/3 135/1/3
f 142/1/3 136/1/3 141/1/3
f 147/2/3 146/2/3 145/2/3
f 148/2/3 146/2/3 147/2/3
f 149/1/3 144/1/3 143/1/3
f 150/1/3 144/1/3 149/1/3
f 155/2/3 154/2/3 153/2/3
f 156/2/3 154/2/3 155/2/3
f 157/1/3 152/1/3 151/1/3
f 158/1/3 152/1/3 157/1/3
f 161/5/3 160/5/3 159/5/3
f 162/5/3 160/5/3 161/5/3
f 165/5/3 164/5/3 163/5/3
f 166/5/3 164/5/3 165/5/3
f 169/5/3 168/5/3 167/5/3
f 170/5/3 168/5/3 169/5/3
f 173/5/3 172/5/3 171/5/3
f 174/5/3 172/5/3 173/5/3
f 177/5/3 176/5/3 175/5/3
f 178/5/3 176/5/3 177/5/3
f 181/5/3 180/5/3 179/5/3
f 182/5/3 180/5/3 181/5/3
f 185/2/3 184/2/3 183/2/3
f 186/2/3 184/2/3 185/2/3
f 189/2/3 188/2/3 187/2/3
f 190/2/3 188/2/3 189/2/3
f 191/2/4 192/2/4 193/2/4
f 193/2/4 192/2/4 194/2/4
f 195/2/4 196/2/4 197/2/4
f 197/2/4 196/2/4 198/2/4
f 199/5/4 200/5/4 201/5/4
f 201/5/4 200/5/4 202/5/4
f 203/2/4 204/2/4 205/2/4
f 205/2/4 204/2/4 206/2/4
f 207/2/4 208/2/4 209/2/4
f 209/2/4 208/2/4 210/2/4
f 211/1/4 212/1/4 213/1/4
f 211/1/4 213/1/4 215/1/4
f 213/1/4 214/1/4 215/1/4
f 215/1/4 214/1/4 216/1/4
f 211/1/4 215/1/4 217/1/4
f 217/1/4 215/1/4 218/1/4
f 223/2/5 220/2/5 219/2/5
f 224/2/5 220/2/5 223/2/5
f 225/2/5 222/2/5 221/2/5
f 226/2/5 222/2/5 225/2/5
f 231/2/5 228/2/5 227/2/5
f 232/2/5 228/2/5 231/2/5
f 233/2/5 230/2/5 229/2/5
f 234/2/5 230/2/5 233/2/5
f 240/1/5 236/1/5 235/1/5
f 241/4/5 237/4/5 236/4/5
f 241/1/5 236/1/5 240/1/5
f 242/4/5 237/4/5 241/4/5
f 243/4/5 237/4/5 242/4/5
f 244/1/5 238/1/5 237/1/5
f 244/4/5 237/4/5 243/4/5
f 245/1/5 238/1/5 244/1/5
f 247/1/5 240/1/5 239/1/5
f 247/1/5 241/1/5 240/1/5
f 248/1/5 241/1/5 247/1/5
f 249/3/5 242/3/5 241/3/5
f 249/1/5 241/1/5 248/1/5
f 250/1/5 243/1/5 242/1/5
f 250/3/5 242/3/5 249/3/5
f 251/3/5 244/3/5 243/3/5
f 251/1/5 243/1/5 250/1/5
f 252/1/5 246/1/5 245/1/5
f 252/3/5 244/3/5 251/3/5
f 252/1/5 245/1/5 244/1/5
f 253/1/5 246/1/5 252/1/5
f 254/1/5 246/1/5 253/1/5
f 255/1/5 247/1/5 239/1/5
f 256/1/5 249/1/5 248/1/5
f 256/1/5 251/1/5 250/1/5
f 256/1/5 252/1/5 251/1/5
f 256/1/5 250/1/5 249/1/5
f 256/1/5 253/1/5 252/1/5
f 257/1/5 253/1/5 256/1/5
f 258/1/5 246/1/5 254/1/5
f 259/1/5 255/1/5 239/1/5
f 259/1/5 258/1/5 257/1/5
f 259/1/5 257/1/5 256/1/5
f 259/1/5 256/1/5 255/1/5
f 260/1/5 258/1/5 259/1/5
f 261/1/5 258/1/5 260/1/5
f 262/1/5 246/1/5 258/1/5
f 262/1/5 258/1/5 261/1/5
f 263/1/5 259/1/5 239/1/5
f 264/1/5 261/1/5 260/1/5
f 265/1/5 261/1/5 264/1/5
f 266/1/5 246/1/5 262/1/5
f 267/1/5 263/1/5 239/1/5
f 267/1/5 266/1/5 265/1/5
f 267/1/5 265/1/5 264/1/5
f 267/1/5 264/1/5 263/1/5
f 268/1/5 246/1/5 266/1/5
f 268/1/5 266/1/5 267/1/5
f 273/1/5 270/1/5 269/1/5
f 274/1/5 270/1/5 273/1/5
f 275/1/5 272/1/5 271/1/5
f 276/1/5 272/1/5 275/1/5
f 277/4/6 278/4/6 279/4/6
f 279/4/6 278/4/6 280/4/6
f 281/5/6 282/5/6 283/5/6
f 283/5/6 282/5/6 284/5/6
f 285/5/6 286/5/6 287/5/6
f 287/5/6 286/5/6 288/5/6
f 289/5/6 290/5/6 291/5/6
f 291/5/6 290/5/6 292/5/6
f 293/1/6 294/1/6 297/1/6
f 297/1/6 294/1/6 298/1/6
f 295/1/6 296/1/6 299/1/6
f 299/1/6 296/1/6 300/1/6
f 301/5/6 302/5/6 303/5/6
f 303/5/6 302/5/6 304/5/6
f 305/1/6 306/1/6 309/1/6
f 309/1/6 306/1/6 310/1/6
f 307/1/6 308/1/6 311/1/6
f 311/1/6 308/1/6 312/1/6
f 305/1/6 309/1/6 313/1/6
f 313/1/6 309/1/6 314/1/6
f 312/1/6 308/1/6 315/1/6
f 315/1/6 308/1/6 316/1/6
f 317/1/6 318/1/6 321/1/6
f 319/1/6 320/1/6 322/1/6
f 317/1/6 321/1/6 323/1/6
f 321/5/6 322/5/6 323/5/6
f 322/1/6 320/1/6 324/1/6
f 323/5/6 322/5/6 324/5/6
f 317/1/6 323/1/6 325/1/6
f 324/1/6 320/1/6 326/1/6
f 317/1/6 325/1/6 327/1/6
f 325/1/6 326/1/6 327/1/6
f 326/1/6 320/1/6 328/1/6
f 327/1/6 326/1/6 328/1/6
f 329/5/6 330/5/6 331/5/6
f 331/5/6 330/5/6 332/5/6
f 333/5/6 334/5/6 335/5/6
f 335/5/6 334/5/6 336/5/6
