# MagicaVoxel @ Ephtracy

# group
o 

# material
mtllib blue-dispenser.mtl
usemtl palette

# normals
vn -1 0 0
vn 1 0 0
vn 0 0 1
vn 0 0 -1
vn 0 -1 0
vn 0 1 0

# texcoords
vt 0.00195312 0.5
vt 0.107422 0.5
vt 0.111328 0.5
vt 0.115234 0.5
vt 0.119141 0.5
vt 0.123047 0.5
vt 0.216797 0.5

# verts
v -0.5 0 1
v -0.5 0 -1
v -0.5 0.1 1
v -0.5 0.1 -1
v -0.5 1.4 1
v -0.5 1.4 0.9
v -0.5 1.4 -0.9
v -0.5 1.4 -1
v -0.5 1.5 1
v -0.5 1.5 0.9
v -0.5 1.5 -0.9
v -0.5 1.5 -1
v -0.5 2 1
v -0.5 2 0.8
v -0.5 2.1 1
v -0.5 2.1 0.8
v -0.5 2.1 0.6
v -0.5 2.2 0.8
v -0.5 2.2 0.6
v -0.5 2.2 0.4
v -0.5 2.3 0.6
v -0.5 2.3 0.4
v -0.5 2.3 0.2
v -0.5 2.4 0.4
v -0.5 2.4 0.2
v -0.5 2.4 0
v -0.5 2.5 0.2
v -0.5 2.5 0
v -0.5 2.5 -0.2
v -0.5 2.6 0
v -0.5 2.6 -0.2
v -0.5 2.6 -0.4
v -0.5 2.7 -0.2
v -0.5 2.7 -0.4
v -0.5 2.7 -0.6
v -0.5 2.8 -0.4
v -0.5 2.8 -0.6
v -0.5 2.8 -0.8
v -0.5 2.9 -0.6
v -0.5 2.9 -0.8
v -0.5 2.9 -1
v -0.5 3 -0.8
v -0.5 3 -1
v 0.5 0 1
v 0.5 0 -1
v 0.5 0.1 1
v 0.5 0.1 -1
v 0.5 1.1 1
v 0.5 1.1 0.9
v 0.5 1.2 1
v 0.5 1.2 0.9
v 0.5 1.3 1
v 0.5 1.3 0.9
v 0.5 1.3 -0.9
v 0.5 1.3 -1
v 0.5 1.4 1
v 0.5 1.4 0.9
v 0.5 1.4 -0.9
v 0.5 1.4 -1
v 0.5 2 1
v 0.5 2 0.8
v 0.5 2.1 1
v 0.5 2.1 0.8
v 0.5 2.1 0.6
v 0.5 2.2 0.8
v 0.5 2.2 0.6
v 0.5 2.2 0.4
v 0.5 2.3 0.6
v 0.5 2.3 0.4
v 0.5 2.3 0.2
v 0.5 2.4 0.4
v 0.5 2.4 0.2
v 0.5 2.4 0
v 0.5 2.5 0.2
v 0.5 2.5 0
v 0.5 2.5 -0.2
v 0.5 2.6 0
v 0.5 2.6 -0.2
v 0.5 2.6 -0.4
v 0.5 2.7 -0.2
v 0.5 2.7 -0.4
v 0.5 2.7 -0.6
v 0.5 2.8 -0.4
v 0.5 2.8 -0.6
v 0.5 2.8 -0.8
v 0.5 2.9 -0.6
v 0.5 2.9 -0.8
v 0.5 2.9 -1
v 0.5 3 -0.8
v 0.5 3 -1
v -0.5 0 1
v -0.5 0.1 1
v -0.5 1.4 1
v -0.5 1.5 1
v -0.5 2 1
v -0.5 2.1 1
v -0.4 1.2 1
v -0.4 1.3 1
v -0.4 1.4 1
v -0.4 1.5 1
v -0.3 0.6 1
v -0.3 0.7 1
v -0.3 1 1
v -0.3 1.1 1
v -0.3 1.2 1
v -0.3 1.3 1
v -0.2 0.6 1
v -0.2 0.7 1
v -0.2 1 1
v -0.2 1.1 1
v -0.2 1.2 1
v -0.2 1.3 1
v -0.1 1 1
v -0.1 1.1 1
v -0.1 1.2 1
v -0.1 1.3 1
v 0.1 0.6 1
v 0.1 0.7 1
v 0.3 0.6 1
v 0.3 0.7 1
v 0.4 1.1 1
v 0.4 1.2 1
v 0.4 1.3 1
v 0.4 1.4 1
v 0.5 0 1
v 0.5 0.1 1
v 0.5 1.1 1
v 0.5 1.2 1
v 0.5 1.3 1
v 0.5 1.4 1
v 0.5 2 1
v 0.5 2.1 1
v -0.5 2.1 0.8
v -0.5 2.2 0.8
v -0.4 2.1 0.8
v -0.4 2.2 0.8
v 0.4 2.1 0.8
v 0.4 2.2 0.8
v 0.5 2.1 0.8
v 0.5 2.2 0.8
v -0.5 2.2 0.6
v -0.5 2.3 0.6
v -0.4 2.2 0.6
v -0.4 2.3 0.6
v 0.4 2.2 0.6
v 0.4 2.3 0.6
v 0.5 2.2 0.6
v 0.5 2.3 0.6
v -0.5 2.3 0.4
v -0.5 2.4 0.4
v -0.4 2.3 0.4
v -0.4 2.4 0.4
v 0.4 2.3 0.4
v 0.4 2.4 0.4
v 0.5 2.3 0.4
v 0.5 2.4 0.4
v -0.5 2.4 0.2
v -0.5 2.5 0.2
v -0.4 2.4 0.2
v -0.4 2.5 0.2
v 0.4 2.4 0.2
v 0.4 2.5 0.2
v 0.5 2.4 0.2
v 0.5 2.5 0.2
v -0.5 2.5 0
v -0.5 2.6 0
v -0.4 2.5 0
v -0.4 2.6 0
v 0.4 2.5 0
v 0.4 2.6 0
v 0.5 2.5 0
v 0.5 2.6 0
v -0.5 2.6 -0.2
v -0.5 2.7 -0.2
v -0.4 2.6 -0.2
v -0.4 2.7 -0.2
v 0.4 2.6 -0.2
v 0.4 2.7 -0.2
v 0.5 2.6 -0.2
v 0.5 2.7 -0.2
v -0.5 2.7 -0.4
v -0.5 2.8 -0.4
v -0.4 2.7 -0.4
v -0.4 2.8 -0.4
v 0.4 2.7 -0.4
v 0.4 2.8 -0.4
v 0.5 2.7 -0.4
v 0.5 2.8 -0.4
v -0.5 2.8 -0.6
v -0.5 2.9 -0.6
v -0.4 2.8 -0.6
v -0.4 2.9 -0.6
v 0.4 2.8 -0.6
v 0.4 2.9 -0.6
v 0.5 2.8 -0.6
v 0.5 2.9 -0.6
v -0.5 2.9 -0.8
v -0.5 3 -0.8
v -0.4 2.9 -0.8
v -0.4 3 -0.8
v 0.4 2.9 -0.8
v 0.4 3 -0.8
v 0.5 2.9 -0.8
v 0.5 3 -0.8
v -0.5 0 -1
v -0.5 0.1 -1
v -0.5 1.4 -1
v -0.5 1.5 -1
v -0.5 2.9 -1
v -0.5 3 -1
v -0.4 1.2 -1
v -0.4 1.3 -1
v -0.4 1.4 -1
v -0.4 1.5 -1
v -0.3 0.6 -1
v -0.3 0.7 -1
v -0.3 1 -1
v -0.3 1.1 -1
v -0.3 1.2 -1
v -0.3 1.3 -1
v -0.2 0.6 -1
v -0.2 0.7 -1
v -0.2 1.2 -1
v -0.2 1.3 -1
v -0.1 1 -1
v -0.1 1.1 -1
v -0.1 1.2 -1
v -0.1 1.3 -1
v 0.1 0.6 -1
v 0.1 0.7 -1
v 0.3 0.6 -1
v 0.3 0.7 -1
v 0.3 0.9 -1
v 0.3 1 -1
v 0.4 0.9 -1
v 0.4 1 -1
v 0.4 1.3 -1
v 0.4 1.4 -1
v 0.5 0 -1
v 0.5 0.1 -1
v 0.5 1.3 -1
v 0.5 1.4 -1
v 0.5 2.9 -1
v 0.5 3 -1
v -0.5 0 1
v 0.5 0 1
v -0.4 0 0.9
v 0.4 0 0.9
v -0.4 0 -0.9
v 0.4 0 -0.9
v -0.5 0 -1
v 0.5 0 -1
v -0.5 2.1 1
v 0.5 2.1 1
v -0.4 2.1 0.9
v 0.4 2.1 0.9
v -0.5 2.1 0.8
v -0.4 2.1 0.8
v 0.4 2.1 0.8
v 0.5 2.1 0.8
v -0.5 2.2 0.8
v -0.4 2.2 0.8
v 0.4 2.2 0.8
v 0.5 2.2 0.8
v -0.5 2.2 0.6
v -0.4 2.2 0.6
v 0.4 2.2 0.6
v 0.5 2.2 0.6
v -0.5 2.3 0.6
v -0.4 2.3 0.6
v 0.4 2.3 0.6
v 0.5 2.3 0.6
v -0.5 2.3 0.4
v -0.4 2.3 0.4
v 0.4 2.3 0.4
v 0.5 2.3 0.4
v -0.5 2.4 0.4
v -0.4 2.4 0.4
v 0.4 2.4 0.4
v 0.5 2.4 0.4
v -0.5 2.4 0.2
v -0.4 2.4 0.2
v 0.4 2.4 0.2
v 0.5 2.4 0.2
v -0.5 2.5 0.2
v -0.4 2.5 0.2
v 0.4 2.5 0.2
v 0.5 2.5 0.2
v -0.5 2.5 0
v -0.4 2.5 0
v 0.4 2.5 0
v 0.5 2.5 0
v -0.5 2.6 0
v -0.4 2.6 0
v 0.4 2.6 0
v 0.5 2.6 0
v -0.5 2.6 -0.2
v -0.4 2.6 -0.2
v 0.4 2.6 -0.2
v 0.5 2.6 -0.2
v -0.5 2.7 -0.2
v -0.4 2.7 -0.2
v 0.4 2.7 -0.2
v 0.5 2.7 -0.2
v -0.5 2.7 -0.4
v -0.4 2.7 -0.4
v 0.4 2.7 -0.4
v 0.5 2.7 -0.4
v -0.5 2.8 -0.4
v -0.4 2.8 -0.4
v 0.4 2.8 -0.4
v 0.5 2.8 -0.4
v -0.5 2.8 -0.6
v -0.4 2.8 -0.6
v 0.4 2.8 -0.6
v 0.5 2.8 -0.6
v -0.5 2.9 -0.6
v -0.4 2.9 -0.6
v 0.4 2.9 -0.6
v 0.5 2.9 -0.6
v -0.5 2.9 -0.8
v -0.4 2.9 -0.8
v 0.4 2.9 -0.8
v 0.5 2.9 -0.8
v -0.5 3 -0.8
v -0.4 3 -0.8
v 0.4 3 -0.8
v 0.5 3 -0.8
v -0.4 3 -0.9
v 0.4 3 -0.9
v -0.5 3 -1
v 0.5 3 -1

# faces
f 3/5/1 2/5/1 1/5/1
f 4/5/1 2/5/1 3/5/1
f 5/1/1 4/1/1 3/1/1
f 6/1/1 4/1/1 5/1/1
f 7/1/1 4/1/1 6/1/1
f 8/1/1 4/1/1 7/1/1
f 9/6/1 6/6/1 5/6/1
f 10/1/1 7/1/1 6/1/1
f 10/6/1 6/6/1 9/6/1
f 11/6/1 8/6/1 7/6/1
f 11/1/1 7/1/1 10/1/1
f 12/6/1 8/6/1 11/6/1
f 13/1/1 10/1/1 9/1/1
f 13/1/1 11/1/1 10/1/1
f 13/1/1 12/1/1 11/1/1
f 14/1/1 12/1/1 13/1/1
f 15/2/1 14/2/1 13/2/1
f 16/1/1 12/1/1 14/1/1
f 16/2/1 14/2/1 15/2/1
f 17/1/1 12/1/1 16/1/1
f 18/2/1 17/2/1 16/2/1
f 19/1/1 12/1/1 17/1/1
f 19/2/1 17/2/1 18/2/1
f 20/1/1 12/1/1 19/1/1
f 21/2/1 20/2/1 19/2/1
f 22/1/1 12/1/1 20/1/1
f 22/2/1 20/2/1 21/2/1
f 23/1/1 12/1/1 22/1/1
f 24/2/1 23/2/1 22/2/1
f 25/1/1 12/1/1 23/1/1
f 25/2/1 23/2/1 24/2/1
f 26/1/1 12/1/1 25/1/1
f 27/2/1 26/2/1 25/2/1
f 28/1/1 12/1/1 26/1/1
f 28/2/1 26/2/1 27/2/1
f 29/1/1 12/1/1 28/1/1
f 30/2/1 29/2/1 28/2/1
f 31/1/1 12/1/1 29/1/1
f 31/2/1 29/2/1 30/2/1
f 32/1/1 12/1/1 31/1/1
f 33/2/1 32/2/1 31/2/1
f 34/1/1 12/1/1 32/1/1
f 34/2/1 32/2/1 33/2/1
f 35/1/1 12/1/1 34/1/1
f 36/2/1 35/2/1 34/2/1
f 37/1/1 12/1/1 35/1/1
f 37/2/1 35/2/1 36/2/1
f 38/1/1 12/1/1 37/1/1
f 39/2/1 38/2/1 37/2/1
f 40/1/1 12/1/1 38/1/1
f 40/2/1 38/2/1 39/2/1
f 41/1/1 12/1/1 40/1/1
f 42/2/1 41/2/1 40/2/1
f 43/2/1 41/2/1 42/2/1
f 44/5/2 45/5/2 46/5/2
f 46/5/2 45/5/2 47/5/2
f 46/1/2 47/1/2 48/1/2
f 48/1/2 47/1/2 49/1/2
f 48/7/2 49/7/2 50/7/2
f 49/1/2 47/1/2 51/1/2
f 50/7/2 49/7/2 51/7/2
f 50/1/2 51/1/2 52/1/2
f 51/1/2 47/1/2 53/1/2
f 52/1/2 51/1/2 53/1/2
f 53/1/2 47/1/2 54/1/2
f 54/1/2 47/1/2 55/1/2
f 52/7/2 53/7/2 56/7/2
f 53/1/2 54/1/2 57/1/2
f 56/7/2 53/7/2 57/7/2
f 54/7/2 55/7/2 58/7/2
f 57/1/2 54/1/2 58/1/2
f 58/7/2 55/7/2 59/7/2
f 56/1/2 57/1/2 60/1/2
f 57/1/2 58/1/2 60/1/2
f 58/1/2 59/1/2 60/1/2
f 60/1/2 59/1/2 61/1/2
f 60/2/2 61/2/2 62/2/2
f 61/1/2 59/1/2 63/1/2
f 62/2/2 61/2/2 63/2/2
f 63/1/2 59/1/2 64/1/2
f 63/2/2 64/2/2 65/2/2
f 64/1/2 59/1/2 66/1/2
f 65/2/2 64/2/2 66/2/2
f 66/1/2 59/1/2 67/1/2
f 66/2/2 67/2/2 68/2/2
f 67/1/2 59/1/2 69/1/2
f 68/2/2 67/2/2 69/2/2
f 69/1/2 59/1/2 70/1/2
f 69/2/2 70/2/2 71/2/2
f 70/1/2 59/1/2 72/1/2
f 71/2/2 70/2/2 72/2/2
f 72/1/2 59/1/2 73/1/2
f 72/2/2 73/2/2 74/2/2
f 73/1/2 59/1/2 75/1/2
f 74/2/2 73/2/2 75/2/2
f 75/1/2 59/1/2 76/1/2
f 75/2/2 76/2/2 77/2/2
f 76/1/2 59/1/2 78/1/2
f 77/2/2 76/2/2 78/2/2
f 78/1/2 59/1/2 79/1/2
f 78/2/2 79/2/2 80/2/2
f 79/1/2 59/1/2 81/1/2
f 80/2/2 79/2/2 81/2/2
f 81/1/2 59/1/2 82/1/2
f 81/2/2 82/2/2 83/2/2
f 82/1/2 59/1/2 84/1/2
f 83/2/2 82/2/2 84/2/2
f 84/1/2 59/1/2 85/1/2
f 84/2/2 85/2/2 86/2/2
f 85/1/2 59/1/2 87/1/2
f 86/2/2 85/2/2 87/2/2
f 87/1/2 59/1/2 88/1/2
f 87/2/2 88/2/2 89/2/2
f 89/2/2 88/2/2 90/2/2
f 97/1/3 93/1/3 92/1/3
f 98/1/3 93/1/3 97/1/3
f 99/6/3 94/6/3 93/6/3
f 99/1/3 93/1/3 98/1/3
f 100/1/3 95/1/3 94/1/3
f 100/6/3 94/6/3 99/6/3
f 101/1/3 97/1/3 92/1/3
f 102/1/3 97/1/3 101/1/3
f 103/1/3 97/1/3 102/1/3
f 104/1/3 97/1/3 103/1/3
f 105/6/3 98/6/3 97/6/3
f 105/1/3 97/1/3 104/1/3
f 106/1/3 99/1/3 98/1/3
f 106/6/3 98/6/3 105/6/3
f 106/1/3 100/1/3 99/1/3
f 107/1/3 101/1/3 92/1/3
f 107/6/3 102/6/3 101/6/3
f 108/1/3 103/1/3 102/1/3
f 108/6/3 102/6/3 107/6/3
f 109/7/3 104/7/3 103/7/3
f 109/1/3 103/1/3 108/1/3
f 110/1/3 105/1/3 104/1/3
f 110/7/3 104/7/3 109/7/3
f 110/1/3 106/1/3 105/1/3
f 111/1/3 106/1/3 110/1/3
f 112/1/3 100/1/3 106/1/3
f 112/1/3 106/1/3 111/1/3
f 113/1/3 108/1/3 107/1/3
f 113/1/3 109/1/3 108/1/3
f 113/6/3 110/6/3 109/6/3
f 114/1/3 111/1/3 110/1/3
f 114/6/3 110/6/3 113/6/3
f 115/6/3 112/6/3 111/6/3
f 115/1/3 111/1/3 114/1/3
f 116/1/3 100/1/3 112/1/3
f 116/6/3 112/6/3 115/6/3
f 117/1/3 115/1/3 114/1/3
f 117/1/3 114/1/3 113/1/3
f 117/1/3 116/1/3 115/1/3
f 117/1/3 113/1/3 107/1/3
f 117/1/3 107/1/3 92/1/3
f 118/1/3 116/1/3 117/1/3
f 119/1/3 117/1/3 92/1/3
f 119/6/3 118/6/3 117/6/3
f 120/1/3 116/1/3 118/1/3
f 120/6/3 118/6/3 119/6/3
f 121/1/3 120/1/3 119/1/3
f 121/1/3 116/1/3 120/1/3
f 122/1/3 116/1/3 121/1/3
f 123/1/3 100/1/3 116/1/3
f 123/1/3 116/1/3 122/1/3
f 124/1/3 100/1/3 123/1/3
f 125/5/3 92/5/3 91/5/3
f 126/1/3 119/1/3 92/1/3
f 126/5/3 92/5/3 125/5/3
f 126/1/3 121/1/3 119/1/3
f 127/7/3 122/7/3 121/7/3
f 127/1/3 121/1/3 126/1/3
f 128/1/3 123/1/3 122/1/3
f 128/7/3 122/7/3 127/7/3
f 129/7/3 124/7/3 123/7/3
f 129/1/3 123/1/3 128/1/3
f 130/1/3 100/1/3 124/1/3
f 130/7/3 124/7/3 129/7/3
f 131/2/3 96/2/3 95/2/3
f 131/1/3 100/1/3 130/1/3
f 131/1/3 95/1/3 100/1/3
f 132/2/3 96/2/3 131/2/3
f 135/2/3 134/2/3 133/2/3
f 136/2/3 134/2/3 135/2/3
f 137/4/3 136/4/3 135/4/3
f 138/4/3 136/4/3 137/4/3
f 139/2/3 138/2/3 137/2/3
f 140/2/3 138/2/3 139/2/3
f 143/2/3 142/2/3 141/2/3
f 144/2/3 142/2/3 143/2/3
f 145/4/3 144/4/3 143/4/3
f 146/4/3 144/4/3 145/4/3
f 147/2/3 146/2/3 145/2/3
f 148/2/3 146/2/3 147/2/3
f 151/2/3 150/2/3 149/2/3
f 152/2/3 150/2/3 151/2/3
f 153/4/3 152/4/3 151/4/3
f 154/4/3 152/4/3 153/4/3
f 155/2/3 154/2/3 153/2/3
f 156/2/3 154/2/3 155/2/3
f 159/2/3 158/2/3 157/2/3
f 160/2/3 158/2/3 159/2/3
f 161/4/3 160/4/3 159/4/3
f 162/4/3 160/4/3 161/4/3
f 163/2/3 162/2/3 161/2/3
f 164/2/3 162/2/3 163/2/3
f 167/2/3 166/2/3 165/2/3
f 168/2/3 166/2/3 167/2/3
f 169/4/3 168/4/3 167/4/3
f 170/4/3 168/4/3 169/4/3
f 171/2/3 170/2/3 169/2/3
f 172/2/3 170/2/3 171/2/3
f 175/2/3 174/2/3 173/2/3
f 176/2/3 174/2/3 175/2/3
f 177/4/3 176/4/3 175/4/3
f 178/4/3 176/4/3 177/4/3
f 179/2/3 178/2/3 177/2/3
f 180/2/3 178/2/3 179/2/3
f 183/2/3 182/2/3 181/2/3
f 184/2/3 182/2/3 183/2/3
f 185/4/3 184/4/3 183/4/3
f 186/4/3 184/4/3 185/4/3
f 187/2/3 186/2/3 185/2/3
f 188/2/3 186/2/3 187/2/3
f 191/2/3 190/2/3 189/2/3
f 192/2/3 190/2/3 191/2/3
f 193/4/3 192/4/3 191/4/3
f 194/4/3 192/4/3 193/4/3
f 195/2/3 194/2/3 193/2/3
f 196/2/3 194/2/3 195/2/3
f 199/2/3 198/2/3 197/2/3
f 200/2/3 198/2/3 199/2/3
f 201/4/3 200/4/3 199/4/3
f 202/4/3 200/4/3 201/4/3
f 203/2/3 202/2/3 201/2/3
f 204/2/3 202/2/3 203/2/3
f 206/1/4 207/1/4 211/1/4
f 211/1/4 207/1/4 212/1/4
f 207/6/4 208/6/4 213/6/4
f 212/1/4 207/1/4 213/1/4
f 208/1/4 209/1/4 214/1/4
f 213/6/4 208/6/4 214/6/4
f 206/1/4 211/1/4 215/1/4
f 215/1/4 211/1/4 216/1/4
f 216/1/4 211/1/4 217/1/4
f 217/1/4 211/1/4 218/1/4
f 211/6/4 212/6/4 219/6/4
f 218/1/4 211/1/4 219/1/4
f 212/1/4 213/1/4 220/1/4
f 219/6/4 212/6/4 220/6/4
f 213/1/4 214/1/4 220/1/4
f 206/1/4 215/1/4 221/1/4
f 215/6/4 216/6/4 221/6/4
f 216/1/4 217/1/4 222/1/4
f 221/6/4 216/6/4 222/6/4
f 218/1/4 219/1/4 223/1/4
f 219/1/4 220/1/4 223/1/4
f 220/1/4 214/1/4 224/1/4
f 223/1/4 220/1/4 224/1/4
f 217/6/4 218/6/4 225/6/4
f 222/1/4 217/1/4 225/1/4
f 221/1/4 222/1/4 225/1/4
f 218/1/4 223/1/4 226/1/4
f 225/6/4 218/6/4 226/6/4
f 223/6/4 224/6/4 227/6/4
f 226/1/4 223/1/4 227/1/4
f 224/1/4 214/1/4 228/1/4
f 227/6/4 224/6/4 228/6/4
f 226/1/4 227/1/4 229/1/4
f 225/1/4 226/1/4 229/1/4
f 227/1/4 228/1/4 229/1/4
f 221/1/4 225/1/4 229/1/4
f 206/1/4 221/1/4 229/1/4
f 229/1/4 228/1/4 230/1/4
f 206/1/4 229/1/4 231/1/4
f 229/6/4 230/6/4 231/6/4
f 230/1/4 228/1/4 232/1/4
f 231/6/4 230/6/4 232/6/4
f 232/1/4 228/1/4 233/1/4
f 233/1/4 228/1/4 234/1/4
f 231/1/4 232/1/4 235/1/4
f 232/1/4 233/1/4 235/1/4
f 233/7/4 234/7/4 235/7/4
f 234/1/4 228/1/4 236/1/4
f 235/7/4 234/7/4 236/7/4
f 228/1/4 214/1/4 237/1/4
f 236/1/4 228/1/4 237/1/4
f 237/1/4 214/1/4 238/1/4
f 205/5/4 206/5/4 239/5/4
f 235/1/4 236/1/4 240/1/4
f 239/5/4 206/5/4 240/5/4
f 206/1/4 231/1/4 240/1/4
f 231/1/4 235/1/4 240/1/4
f 236/1/4 237/1/4 240/1/4
f 237/7/4 238/7/4 241/7/4
f 240/1/4 237/1/4 241/1/4
f 238/1/4 214/1/4 242/1/4
f 241/7/4 238/7/4 242/7/4
f 209/2/4 210/2/4 243/2/4
f 242/1/4 214/1/4 243/1/4
f 214/1/4 209/1/4 243/1/4
f 243/2/4 210/2/4 244/2/4
f 247/5/5 246/5/5 245/5/5
f 248/5/5 246/5/5 247/5/5
f 249/5/5 247/5/5 245/5/5
f 249/3/5 248/3/5 247/3/5
f 250/5/5 246/5/5 248/5/5
f 250/3/5 248/3/5 249/3/5
f 251/5/5 249/5/5 245/5/5
f 251/5/5 250/5/5 249/5/5
f 252/5/5 246/5/5 250/5/5
f 252/5/5 250/5/5 251/5/5
f 253/2/6 254/2/6 255/2/6
f 255/2/6 254/2/6 256/2/6
f 253/2/6 255/2/6 257/2/6
f 255/4/6 256/4/6 258/4/6
f 257/2/6 255/2/6 258/2/6
f 256/2/6 254/2/6 259/2/6
f 258/4/6 256/4/6 259/4/6
f 259/2/6 254/2/6 260/2/6
f 261/2/6 262/2/6 265/2/6
f 262/4/6 263/4/6 266/4/6
f 265/2/6 262/2/6 266/2/6
f 263/2/6 264/2/6 267/2/6
f 266/4/6 263/4/6 267/4/6
f 267/2/6 264/2/6 268/2/6
f 269/2/6 270/2/6 273/2/6
f 270/4/6 271/4/6 274/4/6
f 273/2/6 270/2/6 274/2/6
f 271/2/6 272/2/6 275/2/6
f 274/4/6 271/4/6 275/4/6
f 275/2/6 272/2/6 276/2/6
f 277/2/6 278/2/6 281/2/6
f 278/4/6 279/4/6 282/4/6
f 281/2/6 278/2/6 282/2/6
f 279/2/6 280/2/6 283/2/6
f 282/4/6 279/4/6 283/4/6
f 283/2/6 280/2/6 284/2/6
f 285/2/6 286/2/6 289/2/6
f 286/4/6 287/4/6 290/4/6
f 289/2/6 286/2/6 290/2/6
f 287/2/6 288/2/6 291/2/6
f 290/4/6 287/4/6 291/4/6
f 291/2/6 288/2/6 292/2/6
f 293/2/6 294/2/6 297/2/6
f 294/4/6 295/4/6 298/4/6
f 297/2/6 294/2/6 298/2/6
f 295/2/6 296/2/6 299/2/6
f 298/4/6 295/4/6 299/4/6
f 299/2/6 296/2/6 300/2/6
f 301/2/6 302/2/6 305/2/6
f 302/4/6 303/4/6 306/4/6
f 305/2/6 302/2/6 306/2/6
f 303/2/6 304/2/6 307/2/6
f 306/4/6 303/4/6 307/4/6
f 307/2/6 304/2/6 308/2/6
f 309/2/6 310/2/6 313/2/6
f 310/4/6 311/4/6 314/4/6
f 313/2/6 310/2/6 314/2/6
f 311/2/6 312/2/6 315/2/6
f 314/4/6 311/4/6 315/4/6
f 315/2/6 312/2/6 316/2/6
f 317/2/6 318/2/6 321/2/6
f 318/4/6 319/4/6 322/4/6
f 321/2/6 318/2/6 322/2/6
f 319/2/6 320/2/6 323/2/6
f 322/4/6 319/4/6 323/4/6
f 323/2/6 320/2/6 324/2/6
f 325/2/6 326/2/6 329/2/6
f 326/4/6 327/4/6 329/4/6
f 327/2/6 328/2/6 330/2/6
f 329/4/6 327/4/6 330/4/6
f 325/2/6 329/2/6 331/2/6
f 329/2/6 330/2/6 331/2/6
f 330/2/6 328/2/6 332/2/6
f 331/2/6 330/2/6 332/2/6
