# MagicaVoxel @ Ephtracy

# group
o 

# material
mtllib conduit.mtl
usemtl palette

# normals
vn -1 0 0
vn 1 0 0
vn 0 0 1
vn 0 0 -1
vn 0 -1 0
vn 0 1 0

# texcoords
vt 0.00585938 0.5
vt 0.119141 0.5
vt 0.123047 0.5

# verts
v -0.2 0 2
v -0.2 0 -2
v -0.2 0.1 2
v -0.2 0.1 -2
v -0.2 0.2 2
v -0.2 0.2 -2
v -0.2 0.3 2
v -0.2 0.3 -2
v 0.3 0 2
v 0.3 0 -2
v 0.3 0.1 2
v 0.3 0.1 -2
v 0.3 0.2 2
v 0.3 0.2 -2
v 0.3 0.3 2
v 0.3 0.3 -2
v -0.2 0 2
v -0.2 0.1 2
v -0.2 0.2 2
v -0.2 0.3 2
v -0.1 0 2
v -0.1 0.1 2
v -0.1 0.2 2
v -0.1 0.3 2
v 0.2 0 2
v 0.2 0.1 2
v 0.2 0.2 2
v 0.2 0.3 2
v 0.3 0 2
v 0.3 0.1 2
v 0.3 0.2 2
v 0.3 0.3 2
v -0.2 0 -2
v -0.2 0.1 -2
v -0.2 0.2 -2
v -0.2 0.3 -2
v -0.1 0 -2
v -0.1 0.1 -2
v -0.1 0.2 -2
v -0.1 0.3 -2
v 0.2 0 -2
v 0.2 0.1 -2
v 0.2 0.2 -2
v 0.2 0.3 -2
v 0.3 0 -2
v 0.3 0.1 -2
v 0.3 0.2 -2
v 0.3 0.3 -2
v -0.2 0 2
v -0.1 0 2
v 0.2 0 2
v 0.3 0 2
v -0.2 0 -2
v -0.1 0 -2
v 0.2 0 -2
v 0.3 0 -2
v -0.2 0.3 2
v -0.1 0.3 2
v 0.2 0.3 2
v 0.3 0.3 2
v -0.2 0.3 -2
v -0.1 0.3 -2
v 0.2 0.3 -2
v 0.3 0.3 -2

# faces
f 3/2/1 2/2/1 1/2/1
f 4/2/1 2/2/1 3/2/1
f 5/3/1 4/3/1 3/3/1
f 6/3/1 4/3/1 5/3/1
f 7/2/1 6/2/1 5/2/1
f 8/2/1 6/2/1 7/2/1
f 9/2/2 10/2/2 11/2/2
f 11/2/2 10/2/2 12/2/2
f 11/3/2 12/3/2 13/3/2
f 13/3/2 12/3/2 14/3/2
f 13/2/2 14/2/2 15/2/2
f 15/2/2 14/2/2 16/2/2
f 21/2/3 18/2/3 17/2/3
f 22/3/3 19/3/3 18/3/3
f 22/2/3 18/2/3 21/2/3
f 23/2/3 20/2/3 19/2/3
f 23/3/3 19/3/3 22/3/3
f 24/2/3 20/2/3 23/2/3
f 25/1/3 22/1/3 21/1/3
f 25/1/3 23/1/3 22/1/3
f 25/1/3 24/1/3 23/1/3
f 26/1/3 24/1/3 25/1/3
f 27/1/3 24/1/3 26/1/3
f 28/1/3 24/1/3 27/1/3
f 29/2/3 26/2/3 25/2/3
f 30/3/3 27/3/3 26/3/3
f 30/2/3 26/2/3 29/2/3
f 31/2/3 28/2/3 27/2/3
f 31/3/3 27/3/3 30/3/3
f 32/2/3 28/2/3 31/2/3
f 33/2/4 34/2/4 37/2/4
f 34/3/4 35/3/4 38/3/4
f 37/2/4 34/2/4 38/2/4
f 35/2/4 36/2/4 39/2/4
f 38/3/4 35/3/4 39/3/4
f 39/2/4 36/2/4 40/2/4
f 37/1/4 38/1/4 41/1/4
f 38/1/4 39/1/4 41/1/4
f 39/1/4 40/1/4 41/1/4
f 41/1/4 40/1/4 42/1/4
f 42/1/4 40/1/4 43/1/4
f 43/1/4 40/1/4 44/1/4
f 41/2/4 42/2/4 45/2/4
f 42/3/4 43/3/4 46/3/4
f 45/2/4 42/2/4 46/2/4
f 43/2/4 44/2/4 47/2/4
f 46/3/4 43/3/4 47/3/4
f 47/2/4 44/2/4 48/2/4
f 53/2/5 50/2/5 49/2/5
f 54/1/5 51/1/5 50/1/5
f 54/2/5 50/2/5 53/2/5
f 55/2/5 52/2/5 51/2/5
f 55/1/5 51/1/5 54/1/5
f 56/2/5 52/2/5 55/2/5
f 57/2/6 58/2/6 61/2/6
f 58/1/6 59/1/6 62/1/6
f 61/2/6 58/2/6 62/2/6
f 59/2/6 60/2/6 63/2/6
f 62/1/6 59/1/6 63/1/6
f 63/2/6 60/2/6 64/2/6
