# MagicaVoxel @ Ephtracy

# group
o 

# material
mtllib photo.mtl
usemtl palette

# normals
vn -1 0 0
vn 1 0 0
vn 0 0 1
vn 0 0 -1
vn 0 -1 0
vn 0 1 0

# texcoords
vt 0.0136719 0.5
vt 0.0214844 0.5
vt 0.0839844 0.5
vt 0.0878906 0.5
vt 0.0917969 0.5
vt 0.177734 0.5

# verts
v -0.4 0 0
v -0.4 0 -0.1
v -0.4 0.6 0
v -0.4 0.6 -0.1
v -0.2 0 0.1
v -0.2 0 0
v -0.2 0.1 0.1
v -0.2 0.1 0
v -0.1 0.1 0.1
v -0.1 0.1 0
v -0.1 0.2 0
v -0.1 0.3 0.1
v -0.1 0.3 0
v 0.1 0.1 0.1
v 0.1 0.1 0
v 0.1 0.2 0
v 0.1 0.3 0.1
v 0.1 0.3 0
v 0.2 0 0.1
v 0.2 0 0
v 0.2 0.1 0.1
v 0.2 0.1 0
v 0.4 0 0
v 0.4 0 -0.1
v 0.4 0.6 0
v 0.4 0.6 -0.1
v -0.2 0 0.1
v -0.2 0.1 0.1
v -0.1 0.1 0.1
v -0.1 0.3 0.1
v 0.1 0.1 0.1
v 0.1 0.3 0.1
v 0.2 0 0.1
v 0.2 0.1 0.1
v -0.4 0 0
v -0.4 0.6 0
v -0.3 0.1 0
v -0.3 0.3 0
v -0.3 0.4 0
v -0.3 0.5 0
v -0.2 0 0
v -0.2 0.1 0
v -0.2 0.2 0
v -0.2 0.3 0
v -0.2 0.4 0
v -0.1 0.1 0
v -0.1 0.2 0
v -0.1 0.3 0
v -0.1 0.4 0
v 0 0.3 0
v 0 0.4 0
v 0.1 0.1 0
v 0.1 0.2 0
v 0.1 0.3 0
v 0.1 0.4 0
v 0.2 0 0
v 0.2 0.1 0
v 0.2 0.2 0
v 0.2 0.3 0
v 0.2 0.4 0
v 0.3 0.1 0
v 0.3 0.5 0
v 0.4 0 0
v 0.4 0.6 0
v -0.4 0 -0.1
v -0.4 0.6 -0.1
v -0.3 0.1 -0.1
v -0.3 0.3 -0.1
v -0.3 0.4 -0.1
v -0.3 0.5 -0.1
v -0.2 0.2 -0.1
v -0.2 0.3 -0.1
v -0.2 0.4 -0.1
v -0.1 0.1 -0.1
v -0.1 0.2 -0.1
v -0.1 0.3 -0.1
v -0.1 0.4 -0.1
v 0 0.1 -0.1
v 0 0.2 -0.1
v 0 0.3 -0.1
v 0 0.4 -0.1
v 0.1 0.1 -0.1
v 0.1 0.2 -0.1
v 0.1 0.3 -0.1
v 0.1 0.4 -0.1
v 0.2 0.1 -0.1
v 0.2 0.2 -0.1
v 0.2 0.3 -0.1
v 0.2 0.4 -0.1
v 0.3 0.1 -0.1
v 0.3 0.5 -0.1
v 0.4 0 -0.1
v 0.4 0.6 -0.1
v -0.2 0 0.1
v 0.2 0 0.1
v -0.4 0 0
v -0.2 0 0
v 0.2 0 0
v 0.4 0 0
v -0.4 0 -0.1
v 0.4 0 -0.1
v -0.2 0.1 0.1
v -0.1 0.1 0.1
v 0.1 0.1 0.1
v 0.2 0.1 0.1
v -0.2 0.1 0
v -0.1 0.1 0
v 0.1 0.1 0
v 0.2 0.1 0
v -0.1 0.3 0.1
v 0.1 0.3 0.1
v -0.1 0.3 0
v 0 0.3 0
v 0.1 0.3 0
v -0.4 0.6 0
v 0.4 0.6 0
v -0.4 0.6 -0.1
v 0.4 0.6 -0.1

# faces
f 3/2/1 2/2/1 1/2/1
f 4/2/1 2/2/1 3/2/1
f 7/1/1 6/1/1 5/1/1
f 8/1/1 6/1/1 7/1/1
f 11/1/1 10/1/1 9/1/1
f 12/1/1 11/1/1 9/1/1
f 13/1/1 11/1/1 12/1/1
f 14/1/2 15/1/2 16/1/2
f 14/1/2 16/1/2 17/1/2
f 17/1/2 16/1/2 18/1/2
f 19/1/2 20/1/2 21/1/2
f 21/1/2 20/1/2 22/1/2
f 23/2/2 24/2/2 25/2/2
f 25/2/2 24/2/2 26/2/2
f 29/1/3 28/1/3 27/1/3
f 31/1/3 29/1/3 27/1/3
f 31/1/3 30/1/3 29/1/3
f 32/1/3 30/1/3 31/1/3
f 33/1/3 31/1/3 27/1/3
f 34/1/3 31/1/3 33/1/3
f 37/2/3 36/2/3 35/2/3
f 38/2/3 36/2/3 37/2/3
f 39/2/3 36/2/3 38/2/3
f 40/2/3 36/2/3 39/2/3
f 41/2/3 37/2/3 35/2/3
f 42/6/3 38/6/3 37/6/3
f 42/2/3 37/2/3 41/2/3
f 43/6/3 38/6/3 42/6/3
f 44/5/3 39/5/3 38/5/3
f 44/6/3 38/6/3 43/6/3
f 45/6/3 40/6/3 39/6/3
f 45/5/3 39/5/3 44/5/3
f 46/6/3 43/6/3 42/6/3
f 47/4/3 44/4/3 43/4/3
f 47/6/3 43/6/3 46/6/3
f 48/3/3 45/3/3 44/3/3
f 48/4/3 44/4/3 47/4/3
f 49/6/3 40/6/3 45/6/3
f 49/3/3 45/3/3 48/3/3
f 50/4/3 49/4/3 48/4/3
f 51/6/3 40/6/3 49/6/3
f 51/4/3 49/4/3 50/4/3
f 54/6/3 51/6/3 50/6/3
f 55/6/3 40/6/3 51/6/3
f 55/6/3 51/6/3 54/6/3
f 57/5/3 53/5/3 52/5/3
f 58/4/3 54/4/3 53/4/3
f 58/5/3 53/5/3 57/5/3
f 59/3/3 55/3/3 54/3/3
f 59/4/3 54/4/3 58/4/3
f 60/6/3 40/6/3 55/6/3
f 60/3/3 55/3/3 59/3/3
f 61/6/3 59/6/3 58/6/3
f 61/2/3 57/2/3 56/2/3
f 61/6/3 60/6/3 59/6/3
f 61/6/3 58/6/3 57/6/3
f 62/2/3 36/2/3 40/2/3
f 62/6/3 60/6/3 61/6/3
f 62/6/3 40/6/3 60/6/3
f 63/2/3 61/2/3 56/2/3
f 63/2/3 62/2/3 61/2/3
f 64/2/3 36/2/3 62/2/3
f 64/2/3 62/2/3 63/2/3
f 65/2/4 66/2/4 67/2/4
f 67/2/4 66/2/4 68/2/4
f 68/2/4 66/2/4 69/2/4
f 69/2/4 66/2/4 70/2/4
f 67/6/4 68/6/4 71/6/4
f 68/5/4 69/5/4 72/5/4
f 71/6/4 68/6/4 72/6/4
f 69/6/4 70/6/4 73/6/4
f 72/5/4 69/5/4 73/5/4
f 65/2/4 67/2/4 74/2/4
f 67/6/4 71/6/4 74/6/4
f 71/4/4 72/4/4 75/4/4
f 74/6/4 71/6/4 75/6/4
f 72/3/4 73/3/4 76/3/4
f 75/4/4 72/4/4 76/4/4
f 73/6/4 70/6/4 77/6/4
f 76/3/4 73/3/4 77/3/4
f 74/5/4 75/5/4 78/5/4
f 65/2/4 74/2/4 78/2/4
f 75/4/4 76/4/4 79/4/4
f 78/5/4 75/5/4 79/5/4
f 76/4/4 77/4/4 79/4/4
f 79/4/4 77/4/4 80/4/4
f 77/6/4 70/6/4 81/6/4
f 80/4/4 77/4/4 81/4/4
f 65/2/4 78/2/4 82/2/4
f 78/6/4 79/6/4 82/6/4
f 79/3/4 80/3/4 83/3/4
f 82/6/4 79/6/4 83/6/4
f 80/6/4 81/6/4 84/6/4
f 83/3/4 80/3/4 84/3/4
f 81/6/4 70/6/4 85/6/4
f 84/6/4 81/6/4 85/6/4
f 65/2/4 82/2/4 86/2/4
f 82/5/4 83/5/4 86/5/4
f 83/4/4 84/4/4 87/4/4
f 86/5/4 83/5/4 87/5/4
f 84/3/4 85/3/4 88/3/4
f 87/4/4 84/4/4 88/4/4
f 85/6/4 70/6/4 89/6/4
f 88/3/4 85/3/4 89/3/4
f 65/2/4 86/2/4 90/2/4
f 87/6/4 88/6/4 90/6/4
f 88/6/4 89/6/4 90/6/4
f 86/6/4 87/6/4 90/6/4
f 89/6/4 70/6/4 91/6/4
f 90/6/4 89/6/4 91/6/4
f 70/2/4 66/2/4 91/2/4
f 65/2/4 90/2/4 92/2/4
f 90/2/4 91/2/4 92/2/4
f 91/2/4 66/2/4 93/2/4
f 92/2/4 91/2/4 93/2/4
f 97/1/5 95/1/5 94/1/5
f 98/1/5 95/1/5 97/1/5
f 100/2/5 97/2/5 96/2/5
f 100/2/5 99/2/5 98/2/5
f 100/2/5 98/2/5 97/2/5
f 101/2/5 99/2/5 100/2/5
f 102/1/6 103/1/6 106/1/6
f 106/1/6 103/1/6 107/1/6
f 104/1/6 105/1/6 108/1/6
f 108/1/6 105/1/6 109/1/6
f 110/1/6 111/1/6 112/1/6
f 112/1/6 111/1/6 113/1/6
f 113/1/6 111/1/6 114/1/6
f 115/2/6 116/2/6 117/2/6
f 117/2/6 116/2/6 118/2/6
