# MagicaVoxel @ Ephtracy

# group
o 

# material
mtllib briefcase.mtl
usemtl palette

# normals
vn -1 0 0
vn 1 0 0
vn 0 0 1
vn 0 0 -1
vn 0 -1 0
vn 0 1 0

# texcoords
vt 0.00585938 0.5
vt 0.00976562 0.5
vt 0.0136719 0.5
vt 0.0253906 0.5

# verts
v -0.5 0 0.1
v -0.5 0 0
v -0.5 0 -0.1
v -0.5 0 -0.2
v -0.5 0.1 0.1
v -0.5 0.1 0
v -0.5 0.1 -0.1
v -0.5 0.1 -0.2
v -0.5 0.6 0.1
v -0.5 0.6 0
v -0.5 0.6 -0.1
v -0.5 0.6 -0.2
v -0.2 0.6 0
v -0.2 0.6 -0.1
v -0.2 0.8 0
v -0.2 0.8 -0.1
v 0.1 0.6 0
v 0.1 0.6 -0.1
v 0.1 0.7 0
v 0.1 0.7 -0.1
v -0.1 0.6 0
v -0.1 0.6 -0.1
v -0.1 0.7 0
v -0.1 0.7 -0.1
v 0.2 0.6 0
v 0.2 0.6 -0.1
v 0.2 0.8 0
v 0.2 0.8 -0.1
v 0.5 0 0.1
v 0.5 0 0
v 0.5 0 -0.1
v 0.5 0 -0.2
v 0.5 0.1 0.1
v 0.5 0.1 0
v 0.5 0.1 -0.1
v 0.5 0.1 -0.2
v 0.5 0.6 0.1
v 0.5 0.6 0
v 0.5 0.6 -0.1
v 0.5 0.6 -0.2
v -0.5 0 0.1
v -0.5 0.1 0.1
v -0.5 0.6 0.1
v -0.4 0 0.1
v -0.4 0.1 0.1
v -0.2 0 0.1
v -0.2 0.1 0.1
v 0.2 0 0.1
v 0.2 0.1 0.1
v 0.4 0 0.1
v 0.4 0.1 0.1
v 0.5 0 0.1
v 0.5 0.1 0.1
v 0.5 0.6 0.1
v -0.2 0.6 0
v -0.2 0.8 0
v -0.1 0.6 0
v -0.1 0.7 0
v 0.1 0.6 0
v 0.1 0.7 0
v 0.2 0.6 0
v 0.2 0.8 0
v -0.2 0.6 -0.1
v -0.2 0.8 -0.1
v -0.1 0.6 -0.1
v -0.1 0.7 -0.1
v 0.1 0.6 -0.1
v 0.1 0.7 -0.1
v 0.2 0.6 -0.1
v 0.2 0.8 -0.1
v -0.5 0 -0.2
v -0.5 0.1 -0.2
v -0.5 0.6 -0.2
v -0.4 0 -0.2
v -0.4 0.1 -0.2
v -0.2 0 -0.2
v -0.2 0.1 -0.2
v 0.2 0 -0.2
v 0.2 0.1 -0.2
v 0.4 0 -0.2
v 0.4 0.1 -0.2
v 0.5 0 -0.2
v 0.5 0.1 -0.2
v 0.5 0.6 -0.2
v -0.5 0 0.1
v -0.4 0 0.1
v -0.2 0 0.1
v 0.2 0 0.1
v 0.4 0 0.1
v 0.5 0 0.1
v -0.5 0 0
v -0.4 0 0
v -0.2 0 0
v 0.2 0 0
v 0.4 0 0
v 0.5 0 0
v -0.5 0 -0.1
v -0.4 0 -0.1
v -0.2 0 -0.1
v 0.2 0 -0.1
v 0.4 0 -0.1
v 0.5 0 -0.1
v -0.5 0 -0.2
v -0.4 0 -0.2
v -0.2 0 -0.2
v 0.2 0 -0.2
v 0.4 0 -0.2
v 0.5 0 -0.2
v -0.1 0.7 0
v 0.1 0.7 0
v -0.1 0.7 -0.1
v 0.1 0.7 -0.1
v -0.5 0.6 0.1
v 0.5 0.6 0.1
v -0.5 0.6 0
v -0.4 0.6 0
v -0.3 0.6 0
v -0.2 0.6 0
v -0.1 0.6 0
v 0.1 0.6 0
v 0.2 0.6 0
v 0.3 0.6 0
v 0.4 0.6 0
v 0.5 0.6 0
v -0.5 0.6 -0.1
v -0.4 0.6 -0.1
v -0.3 0.6 -0.1
v -0.2 0.6 -0.1
v -0.1 0.6 -0.1
v 0.1 0.6 -0.1
v 0.2 0.6 -0.1
v 0.3 0.6 -0.1
v 0.4 0.6 -0.1
v 0.5 0.6 -0.1
v -0.5 0.6 -0.2
v 0.5 0.6 -0.2
v -0.2 0.8 0
v 0.2 0.8 0
v -0.2 0.8 -0.1
v 0.2 0.8 -0.1

# faces
f 5/2/1 2/2/1 1/2/1
f 6/4/1 3/4/1 2/4/1
f 6/2/1 2/2/1 5/2/1
f 7/2/1 4/2/1 3/2/1
f 7/4/1 3/4/1 6/4/1
f 8/2/1 4/2/1 7/2/1
f 9/3/1 6/3/1 5/3/1
f 10/4/1 7/4/1 6/4/1
f 10/3/1 6/3/1 9/3/1
f 11/3/1 8/3/1 7/3/1
f 11/4/1 7/4/1 10/4/1
f 12/3/1 8/3/1 11/3/1
f 15/2/1 14/2/1 13/2/1
f 16/2/1 14/2/1 15/2/1
f 19/2/1 18/2/1 17/2/1
f 20/2/1 18/2/1 19/2/1
f 21/2/2 22/2/2 23/2/2
f 23/2/2 22/2/2 24/2/2
f 25/2/2 26/2/2 27/2/2
f 27/2/2 26/2/2 28/2/2
f 29/2/2 30/2/2 33/2/2
f 30/4/2 31/4/2 34/4/2
f 33/2/2 30/2/2 34/2/2
f 31/2/2 32/2/2 35/2/2
f 34/4/2 31/4/2 35/4/2
f 35/2/2 32/2/2 36/2/2
f 33/3/2 34/3/2 37/3/2
f 34/4/2 35/4/2 38/4/2
f 37/3/2 34/3/2 38/3/2
f 35/3/2 36/3/2 39/3/2
f 38/4/2 35/4/2 39/4/2
f 39/3/2 36/3/2 40/3/2
f 44/2/3 42/2/3 41/2/3
f 45/3/3 43/3/3 42/3/3
f 45/2/3 42/2/3 44/2/3
f 46/3/3 45/3/3 44/3/3
f 47/3/3 43/3/3 45/3/3
f 47/3/3 45/3/3 46/3/3
f 48/2/3 47/2/3 46/2/3
f 49/3/3 43/3/3 47/3/3
f 49/2/3 47/2/3 48/2/3
f 50/3/3 49/3/3 48/3/3
f 51/3/3 43/3/3 49/3/3
f 51/3/3 49/3/3 50/3/3
f 52/2/3 51/2/3 50/2/3
f 53/3/3 43/3/3 51/3/3
f 53/2/3 51/2/3 52/2/3
f 54/3/3 43/3/3 53/3/3
f 57/2/3 56/2/3 55/2/3
f 58/2/3 56/2/3 57/2/3
f 60/2/3 56/2/3 58/2/3
f 61/2/3 60/2/3 59/2/3
f 62/2/3 56/2/3 60/2/3
f 62/2/3 60/2/3 61/2/3
f 63/2/4 64/2/4 65/2/4
f 65/2/4 64/2/4 66/2/4
f 66/2/4 64/2/4 68/2/4
f 67/2/4 68/2/4 69/2/4
f 68/2/4 64/2/4 70/2/4
f 69/2/4 68/2/4 70/2/4
f 71/2/4 72/2/4 74/2/4
f 72/3/4 73/3/4 75/3/4
f 74/2/4 72/2/4 75/2/4
f 74/3/4 75/3/4 76/3/4
f 75/3/4 73/3/4 77/3/4
f 76/3/4 75/3/4 77/3/4
f 76/2/4 77/2/4 78/2/4
f 77/3/4 73/3/4 79/3/4
f 78/2/4 77/2/4 79/2/4
f 78/3/4 79/3/4 80/3/4
f 79/3/4 73/3/4 81/3/4
f 80/3/4 79/3/4 81/3/4
f 80/2/4 81/2/4 82/2/4
f 81/3/4 73/3/4 83/3/4
f 82/2/4 81/2/4 83/2/4
f 83/3/4 73/3/4 84/3/4
f 91/2/5 86/2/5 85/2/5
f 92/3/5 87/3/5 86/3/5
f 92/2/5 86/2/5 91/2/5
f 93/2/5 88/2/5 87/2/5
f 93/3/5 87/3/5 92/3/5
f 94/3/5 89/3/5 88/3/5
f 94/2/5 88/2/5 93/2/5
f 95/2/5 90/2/5 89/2/5
f 95/3/5 89/3/5 94/3/5
f 96/2/5 90/2/5 95/2/5
f 97/4/5 92/4/5 91/4/5
f 98/3/5 94/3/5 93/3/5
f 98/4/5 92/4/5 97/4/5
f 98/3/5 93/3/5 92/3/5
f 98/3/5 95/3/5 94/3/5
f 99/3/5 95/3/5 98/3/5
f 100/3/5 95/3/5 99/3/5
f 101/4/5 96/4/5 95/4/5
f 101/3/5 95/3/5 100/3/5
f 102/4/5 96/4/5 101/4/5
f 103/2/5 98/2/5 97/2/5
f 104/3/5 99/3/5 98/3/5
f 104/2/5 98/2/5 103/2/5
f 105/2/5 100/2/5 99/2/5
f 105/3/5 99/3/5 104/3/5
f 106/3/5 101/3/5 100/3/5
f 106/2/5 100/2/5 105/2/5
f 107/2/5 102/2/5 101/2/5
f 107/3/5 101/3/5 106/3/5
f 108/2/5 102/2/5 107/2/5
f 111/2/5 110/2/5 109/2/5
f 112/2/5 110/2/5 111/2/5
f 113/3/6 114/3/6 115/3/6
f 115/3/6 114/3/6 116/3/6
f 116/3/6 114/3/6 117/3/6
f 117/3/6 114/3/6 118/3/6
f 118/3/6 114/3/6 119/3/6
f 119/3/6 114/3/6 120/3/6
f 120/3/6 114/3/6 121/3/6
f 121/3/6 114/3/6 122/3/6
f 122/3/6 114/3/6 123/3/6
f 123/3/6 114/3/6 124/3/6
f 115/4/6 116/4/6 125/4/6
f 116/1/6 117/1/6 126/1/6
f 125/4/6 116/4/6 126/4/6
f 117/4/6 118/4/6 127/4/6
f 126/1/6 117/1/6 127/1/6
f 127/4/6 118/4/6 128/4/6
f 119/4/6 120/4/6 129/4/6
f 129/4/6 120/4/6 130/4/6
f 121/4/6 122/4/6 131/4/6
f 122/1/6 123/1/6 132/1/6
f 131/4/6 122/4/6 132/4/6
f 123/4/6 124/4/6 133/4/6
f 132/1/6 123/1/6 133/1/6
f 133/4/6 124/4/6 134/4/6
f 125/3/6 126/3/6 135/3/6
f 131/3/6 132/3/6 135/3/6
f 133/3/6 134/3/6 135/3/6
f 132/3/6 133/3/6 135/3/6
f 127/3/6 128/3/6 135/3/6
f 128/3/6 129/3/6 135/3/6
f 130/3/6 131/3/6 135/3/6
f 126/3/6 127/3/6 135/3/6
f 129/3/6 130/3/6 135/3/6
f 135/3/6 134/3/6 136/3/6
f 137/2/6 138/2/6 139/2/6
f 139/2/6 138/2/6 140/2/6
