# MagicaVoxel @ Ephtracy

# group
o 

# material
mtllib bookshelf.mtl
usemtl palette

# normals
vn -1 0 0
vn 1 0 0
vn 0 0 1
vn 0 0 -1
vn 0 -1 0
vn 0 1 0

# texcoords
vt 0.658203 0.5
vt 0.662109 0.5

# verts
v -0.8 0 3
v -0.8 0 -3
v -0.8 0.1 3
v -0.8 0.1 -3
v -0.8 5 3
v -0.8 5 -3
v -0.6 0.1 2.8
v -0.6 0.1 -2.8
v -0.6 1.2 2.8
v -0.6 1.2 -2.8
v -0.6 1.3 2.8
v -0.6 1.3 -2.8
v -0.6 2.4 2.8
v -0.6 2.4 -2.8
v -0.6 2.5 2.8
v -0.6 2.5 -2.8
v -0.6 3.7 2.8
v -0.6 3.7 -2.8
v -0.6 3.8 2.8
v -0.6 3.8 -2.8
v -0.6 4.9 2.8
v -0.6 4.9 -2.8
v 0.8 0 3
v 0.8 0 -3
v 0.8 0.1 3
v 0.8 0.1 2.8
v 0.8 0.1 -2.8
v 0.8 0.1 -3
v 0.8 1.2 2.8
v 0.8 1.2 -2.8
v 0.8 1.3 2.8
v 0.8 1.3 -2.8
v 0.8 2.4 2.8
v 0.8 2.4 -2.8
v 0.8 2.5 2.8
v 0.8 2.5 -2.8
v 0.8 3.7 2.8
v 0.8 3.7 -2.8
v 0.8 3.8 2.8
v 0.8 3.8 -2.8
v 0.8 4.9 2.8
v 0.8 4.9 -2.8
v 0.8 5 3
v 0.8 5 2.8
v 0.8 5 -2.8
v 0.8 5 -3
v -0.8 0 3
v -0.8 0.1 3
v -0.8 5 3
v 0.8 0 3
v 0.8 0.1 3
v 0.8 5 3
v -0.6 0.1 -2.8
v -0.6 1.2 -2.8
v -0.6 1.3 -2.8
v -0.6 2.4 -2.8
v -0.6 2.5 -2.8
v -0.6 3.7 -2.8
v -0.6 3.8 -2.8
v -0.6 4.9 -2.8
v 0.8 0.1 -2.8
v 0.8 1.2 -2.8
v 0.8 1.3 -2.8
v 0.8 2.4 -2.8
v 0.8 2.5 -2.8
v 0.8 3.7 -2.8
v 0.8 3.8 -2.8
v 0.8 4.9 -2.8
v -0.6 0.1 2.8
v -0.6 1.2 2.8
v -0.6 1.3 2.8
v -0.6 2.4 2.8
v -0.6 2.5 2.8
v -0.6 3.7 2.8
v -0.6 3.8 2.8
v -0.6 4.9 2.8
v 0.8 0.1 2.8
v 0.8 1.2 2.8
v 0.8 1.3 2.8
v 0.8 2.4 2.8
v 0.8 2.5 2.8
v 0.8 3.7 2.8
v 0.8 3.8 2.8
v 0.8 4.9 2.8
v -0.8 0 -3
v -0.8 0.1 -3
v -0.8 5 -3
v 0.8 0 -3
v 0.8 0.1 -3
v 0.8 5 -3
v -0.8 0 3
v 0.8 0 3
v -0.8 0 -3
v 0.8 0 -3
v -0.6 1.2 2.8
v 0.8 1.2 2.8
v -0.6 1.2 -2.8
v 0.8 1.2 -2.8
v -0.6 2.4 2.8
v 0.8 2.4 2.8
v -0.6 2.4 -2.8
v 0.8 2.4 -2.8
v -0.6 3.7 2.8
v 0.8 3.7 2.8
v -0.6 3.7 -2.8
v 0.8 3.7 -2.8
v -0.6 4.9 2.8
v 0.8 4.9 2.8
v -0.6 4.9 -2.8
v 0.8 4.9 -2.8
v -0.6 0.1 2.8
v 0.8 0.1 2.8
v -0.6 0.1 -2.8
v 0.8 0.1 -2.8
v -0.6 1.3 2.8
v 0.8 1.3 2.8
v -0.6 1.3 -2.8
v 0.8 1.3 -2.8
v -0.6 2.5 2.8
v 0.8 2.5 2.8
v -0.6 2.5 -2.8
v 0.8 2.5 -2.8
v -0.6 3.8 2.8
v 0.8 3.8 2.8
v -0.6 3.8 -2.8
v 0.8 3.8 -2.8
v -0.8 5 3
v 0.8 5 3
v -0.6 5 2.8
v 0.8 5 2.8
v -0.6 5 -2.8
v 0.8 5 -2.8
v -0.8 5 -3
v 0.8 5 -3

# faces
f 3/2/1 2/2/1 1/2/1
f 4/2/1 2/2/1 3/2/1
f 5/1/1 4/1/1 3/1/1
f 6/1/1 4/1/1 5/1/1
f 7/1/2 8/1/2 9/1/2
f 9/1/2 8/1/2 10/1/2
f 11/1/2 12/1/2 13/1/2
f 13/1/2 12/1/2 14/1/2
f 15/1/2 16/1/2 17/1/2
f 17/1/2 16/1/2 18/1/2
f 19/1/2 20/1/2 21/1/2
f 21/1/2 20/1/2 22/1/2
f 23/2/2 24/2/2 25/2/2
f 25/2/2 24/2/2 26/2/2
f 26/2/2 24/2/2 27/2/2
f 27/2/2 24/2/2 28/2/2
f 25/1/2 26/1/2 29/1/2
f 27/1/2 28/1/2 30/1/2
f 25/1/2 29/1/2 31/1/2
f 29/2/2 30/2/2 31/2/2
f 30/1/2 28/1/2 32/1/2
f 31/2/2 30/2/2 32/2/2
f 25/1/2 31/1/2 33/1/2
f 32/1/2 28/1/2 34/1/2
f 25/1/2 33/1/2 35/1/2
f 33/2/2 34/2/2 35/2/2
f 34/1/2 28/1/2 36/1/2
f 35/2/2 34/2/2 36/2/2
f 25/1/2 35/1/2 37/1/2
f 36/1/2 28/1/2 38/1/2
f 25/1/2 37/1/2 39/1/2
f 37/2/2 38/2/2 39/2/2
f 38/1/2 28/1/2 40/1/2
f 39/2/2 38/2/2 40/2/2
f 25/1/2 39/1/2 41/1/2
f 40/1/2 28/1/2 42/1/2
f 25/1/2 41/1/2 43/1/2
f 41/2/2 42/2/2 44/2/2
f 43/1/2 41/1/2 44/1/2
f 42/1/2 28/1/2 45/1/2
f 44/2/2 42/2/2 45/2/2
f 45/1/2 28/1/2 46/1/2
f 50/2/3 48/2/3 47/2/3
f 51/1/3 49/1/3 48/1/3
f 51/2/3 48/2/3 50/2/3
f 52/1/3 49/1/3 51/1/3
f 61/1/3 54/1/3 53/1/3
f 62/1/3 54/1/3 61/1/3
f 63/1/3 56/1/3 55/1/3
f 64/1/3 56/1/3 63/1/3
f 65/1/3 58/1/3 57/1/3
f 66/1/3 58/1/3 65/1/3
f 67/1/3 60/1/3 59/1/3
f 68/1/3 60/1/3 67/1/3
f 69/1/4 70/1/4 77/1/4
f 77/1/4 70/1/4 78/1/4
f 71/1/4 72/1/4 79/1/4
f 79/1/4 72/1/4 80/1/4
f 73/1/4 74/1/4 81/1/4
f 81/1/4 74/1/4 82/1/4
f 75/1/4 76/1/4 83/1/4
f 83/1/4 76/1/4 84/1/4
f 85/2/4 86/2/4 88/2/4
f 86/1/4 87/1/4 89/1/4
f 88/2/4 86/2/4 89/2/4
f 89/1/4 87/1/4 90/1/4
f 93/2/5 92/2/5 91/2/5
f 94/2/5 92/2/5 93/2/5
f 97/2/5 96/2/5 95/2/5
f 98/2/5 96/2/5 97/2/5
f 101/2/5 100/2/5 99/2/5
f 102/2/5 100/2/5 101/2/5
f 105/2/5 104/2/5 103/2/5
f 106/2/5 104/2/5 105/2/5
f 109/2/5 108/2/5 107/2/5
f 110/2/5 108/2/5 109/2/5
f 111/2/6 112/2/6 113/2/6
f 113/2/6 112/2/6 114/2/6
f 115/2/6 116/2/6 117/2/6
f 117/2/6 116/2/6 118/2/6
f 119/2/6 120/2/6 121/2/6
f 121/2/6 120/2/6 122/2/6
f 123/2/6 124/2/6 125/2/6
f 125/2/6 124/2/6 126/2/6
f 127/1/6 128/1/6 129/1/6
f 129/1/6 128/1/6 130/1/6
f 127/1/6 129/1/6 131/1/6
f 129/2/6 130/2/6 131/2/6
f 131/2/6 130/2/6 132/2/6
f 127/1/6 131/1/6 133/1/6
f 131/1/6 132/1/6 133/1/6
f 133/1/6 132/1/6 134/1/6
