# MagicaVoxel @ Ephtracy

# group
o 

# material
mtllib book-blue.mtl
usemtl palette

# normals
vn -1 0 0
vn 1 0 0
vn 0 0 1
vn 0 0 -1
vn 0 -1 0
vn 0 1 0

# texcoords
vt 0.0292969 0.5
vt 0.0722656 0.5
vt 0.822266 0.5
vt 0.830078 0.5
vt 0.837891 0.5

# verts
v -0.3 0 0.1
v -0.3 0 0
v -0.3 0 -0.1
v -0.3 0 -0.2
v -0.3 0.8 0.1
v -0.3 0.8 0
v -0.3 0.8 -0.1
v -0.3 0.8 -0.2
v -0.2 0 0
v -0.2 0 -0.1
v -0.2 0.8 0
v -0.2 0.8 -0.1
v 0.4 0 0.1
v 0.4 0 -0.2
v 0.4 0.8 0.1
v 0.4 0.8 -0.2
v -0.3 0 0.1
v -0.3 0.8 0.1
v 0.3 0 0.1
v 0.3 0.8 0.1
v 0.4 0 0.1
v 0.4 0.8 0.1
v -0.3 0 -0.1
v -0.3 0.8 -0.1
v -0.2 0 -0.1
v -0.2 0.8 -0.1
v -0.3 0 0
v -0.3 0.8 0
v -0.2 0 0
v -0.2 0.8 0
v -0.3 0 -0.2
v -0.3 0.8 -0.2
v -0.2 0.5 -0.2
v -0.2 0.7 -0.2
v 0.2 0.5 -0.2
v 0.2 0.7 -0.2
v 0.3 0 -0.2
v 0.3 0.8 -0.2
v 0.4 0 -0.2
v 0.4 0.8 -0.2
v -0.3 0 0.1
v 0.3 0 0.1
v 0.4 0 0.1
v -0.3 0 0
v -0.2 0 0
v 0.3 0 0
v -0.3 0 -0.1
v -0.2 0 -0.1
v 0.3 0 -0.1
v -0.3 0 -0.2
v 0.3 0 -0.2
v 0.4 0 -0.2
v -0.3 0.8 0.1
v 0.3 0.8 0.1
v 0.4 0.8 0.1
v -0.3 0.8 0
v -0.2 0.8 0
v 0.3 0.8 0
v -0.3 0.8 -0.1
v -0.2 0.8 -0.1
v 0.3 0.8 -0.1
v -0.3 0.8 -0.2
v 0.3 0.8 -0.2
v 0.4 0.8 -0.2

# faces
f 5/3/1 2/3/1 1/3/1
f 6/3/1 2/3/1 5/3/1
f 7/3/1 4/3/1 3/3/1
f 8/3/1 4/3/1 7/3/1
f 11/1/1 10/1/1 9/1/1
f 12/1/1 10/1/1 11/1/1
f 13/5/2 14/5/2 15/5/2
f 15/5/2 14/5/2 16/5/2
f 19/3/3 18/3/3 17/3/3
f 20/3/3 18/3/3 19/3/3
f 21/5/3 20/5/3 19/5/3
f 22/5/3 20/5/3 21/5/3
f 25/3/3 24/3/3 23/3/3
f 26/3/3 24/3/3 25/3/3
f 27/3/4 28/3/4 29/3/4
f 29/3/4 28/3/4 30/3/4
f 31/3/4 32/3/4 33/3/4
f 33/3/4 32/3/4 34/3/4
f 31/3/4 33/3/4 35/3/4
f 33/4/4 34/4/4 35/4/4
f 34/3/4 32/3/4 36/3/4
f 35/4/4 34/4/4 36/4/4
f 31/3/4 35/3/4 37/3/4
f 35/3/4 36/3/4 37/3/4
f 36/3/4 32/3/4 38/3/4
f 37/3/4 36/3/4 38/3/4
f 37/5/4 38/5/4 39/5/4
f 39/5/4 38/5/4 40/5/4
f 44/3/5 42/3/5 41/3/5
f 45/3/5 42/3/5 44/3/5
f 46/5/5 43/5/5 42/5/5
f 46/3/5 42/3/5 45/3/5
f 48/1/5 46/1/5 45/1/5
f 49/5/5 43/5/5 46/5/5
f 49/1/5 46/1/5 48/1/5
f 50/3/5 48/3/5 47/3/5
f 50/3/5 49/3/5 48/3/5
f 51/5/5 43/5/5 49/5/5
f 51/3/5 49/3/5 50/3/5
f 52/5/5 43/5/5 51/5/5
f 53/3/6 54/3/6 56/3/6
f 56/3/6 54/3/6 57/3/6
f 54/5/6 55/5/6 58/5/6
f 57/3/6 54/3/6 58/3/6
f 57/1/6 58/1/6 60/1/6
f 58/5/6 55/5/6 61/5/6
f 60/1/6 58/1/6 61/1/6
f 59/3/6 60/3/6 62/3/6
f 60/3/6 61/3/6 62/3/6
f 61/5/6 55/5/6 63/5/6
f 62/3/6 61/3/6 63/3/6
f 63/5/6 55/5/6 64/5/6
