# MagicaVoxel @ Ephtracy

# group
o 

# material
mtllib book-black.mtl
usemtl palette

# normals
vn -1 0 0
vn 1 0 0
vn 0 0 1
vn 0 0 -1
vn 0 -1 0
vn 0 1 0

# texcoords
vt 0.00976562 0.5
vt 0.0175781 0.5
vt 0.0253906 0.5
vt 0.0292969 0.5
vt 0.0722656 0.5

# verts
v -0.3 0 0.1
v -0.3 0 0
v -0.3 0 -0.1
v -0.3 0 -0.2
v -0.3 0.8 0.1
v -0.3 0.8 0
v -0.3 0.8 -0.1
v -0.3 0.8 -0.2
v -0.2 0 0
v -0.2 0 -0.1
v -0.2 0.8 0
v -0.2 0.8 -0.1
v 0.4 0 0.1
v 0.4 0 -0.2
v 0.4 0.8 0.1
v 0.4 0.8 -0.2
v -0.3 0 0.1
v -0.3 0.8 0.1
v 0.3 0 0.1
v 0.3 0.8 0.1
v 0.4 0 0.1
v 0.4 0.8 0.1
v -0.3 0 -0.1
v -0.3 0.8 -0.1
v -0.2 0 -0.1
v -0.2 0.8 -0.1
v -0.3 0 0
v -0.3 0.8 0
v -0.2 0 0
v -0.2 0.8 0
v -0.3 0 -0.2
v -0.3 0.8 -0.2
v -0.2 0.5 -0.2
v -0.2 0.7 -0.2
v 0.2 0.5 -0.2
v 0.2 0.7 -0.2
v 0.3 0 -0.2
v 0.3 0.8 -0.2
v 0.4 0 -0.2
v 0.4 0.8 -0.2
v -0.3 0 0.1
v 0.3 0 0.1
v 0.4 0 0.1
v -0.3 0 0
v -0.2 0 0
v 0.3 0 0
v -0.3 0 -0.1
v -0.2 0 -0.1
v 0.3 0 -0.1
v -0.3 0 -0.2
v 0.3 0 -0.2
v 0.4 0 -0.2
v -0.3 0.8 0.1
v 0.3 0.8 0.1
v 0.4 0.8 0.1
v -0.3 0.8 0
v -0.2 0.8 0
v 0.3 0.8 0
v -0.3 0.8 -0.1
v -0.2 0.8 -0.1
v 0.3 0.8 -0.1
v -0.3 0.8 -0.2
v 0.3 0.8 -0.2
v 0.4 0.8 -0.2

# faces
f 5/1/1 2/1/1 1/1/1
f 6/1/1 2/1/1 5/1/1
f 7/1/1 4/1/1 3/1/1
f 8/1/1 4/1/1 7/1/1
f 11/4/1 10/4/1 9/4/1
f 12/4/1 10/4/1 11/4/1
f 13/2/2 14/2/2 15/2/2
f 15/2/2 14/2/2 16/2/2
f 19/1/3 18/1/3 17/1/3
f 20/1/3 18/1/3 19/1/3
f 21/2/3 20/2/3 19/2/3
f 22/2/3 20/2/3 21/2/3
f 25/1/3 24/1/3 23/1/3
f 26/1/3 24/1/3 25/1/3
f 27/1/4 28/1/4 29/1/4
f 29/1/4 28/1/4 30/1/4
f 31/1/4 32/1/4 33/1/4
f 33/1/4 32/1/4 34/1/4
f 31/1/4 33/1/4 35/1/4
f 33/3/4 34/3/4 35/3/4
f 34/1/4 32/1/4 36/1/4
f 35/3/4 34/3/4 36/3/4
f 31/1/4 35/1/4 37/1/4
f 35/1/4 36/1/4 37/1/4
f 36/1/4 32/1/4 38/1/4
f 37/1/4 36/1/4 38/1/4
f 37/2/4 38/2/4 39/2/4
f 39/2/4 38/2/4 40/2/4
f 44/1/5 42/1/5 41/1/5
f 45/1/5 42/1/5 44/1/5
f 46/2/5 43/2/5 42/2/5
f 46/1/5 42/1/5 45/1/5
f 48/4/5 46/4/5 45/4/5
f 49/2/5 43/2/5 46/2/5
f 49/4/5 46/4/5 48/4/5
f 50/1/5 48/1/5 47/1/5
f 50/1/5 49/1/5 48/1/5
f 51/2/5 43/2/5 49/2/5
f 51/1/5 49/1/5 50/1/5
f 52/2/5 43/2/5 51/2/5
f 53/1/6 54/1/6 56/1/6
f 56/1/6 54/1/6 57/1/6
f 54/2/6 55/2/6 58/2/6
f 57/1/6 54/1/6 58/1/6
f 57/4/6 58/4/6 60/4/6
f 58/2/6 55/2/6 61/2/6
f 60/4/6 58/4/6 61/4/6
f 59/1/6 60/1/6 62/1/6
f 60/1/6 61/1/6 62/1/6
f 61/2/6 55/2/6 63/2/6
f 62/1/6 61/1/6 63/1/6
f 63/2/6 55/2/6 64/2/6
