# MagicaVoxel @ Ephtracy

# group
o 

# material
mtllib crumbled-paper.mtl
usemtl palette

# normals
vn -1 0 0
vn 1 0 0
vn 0 0 1
vn 0 0 -1
vn 0 -1 0
vn 0 1 0

# texcoords
vt 0.0175781 0.5
vt 0.0214844 0.5
vt 0.0253906 0.5
vt 0.0292969 0.5

# verts
v -0.2 0 0.1
v -0.2 0 0
v -0.2 0 -0.1
v -0.2 0 -0.2
v -0.2 0.1 0.1
v -0.2 0.1 0
v -0.2 0.1 -0.1
v -0.2 0.2 0.2
v -0.2 0.2 0.1
v -0.2 0.2 0
v -0.2 0.2 -0.1
v -0.2 0.2 -0.2
v -0.2 0.2 -0.3
v -0.2 0.3 0
v -0.2 0.3 -0.1
v -0.2 0.3 -0.2
v -0.2 0.4 0.2
v -0.2 0.4 0.1
v -0.2 0.4 0
v -0.2 0.4 -0.1
v -0.2 0.4 -0.2
v -0.2 0.4 -0.3
v -0.2 0.5 0.2
v -0.2 0.5 0.1
v -0.2 0.5 0
v -0.2 0.5 -0.1
v -0.2 0.5 -0.2
v -0.1 0 -0.2
v -0.1 0 -0.3
v -0.1 0.1 -0.2
v -0.1 0.1 -0.3
v -0.1 0.2 -0.2
v -0.1 0.2 -0.3
v -0.1 0.4 0.1
v -0.1 0.4 0
v -0.1 0.5 0.1
v -0.1 0.5 0
v 0 0 0.2
v 0 0 0.1
v 0 0.1 0.2
v 0 0.1 0.1
v 0 0.2 0.2
v 0 0.2 0.1
v 0 0.4 -0.2
v 0 0.4 -0.3
v 0 0.5 -0.2
v 0 0.5 -0.3
v 0.1 0 -0.2
v 0.1 0 -0.3
v 0.1 0.1 -0.2
v 0.1 0.1 -0.3
v 0.2 0 0.2
v 0.2 0 0.1
v 0.2 0.1 0.2
v 0.2 0.1 0.1
v 0 0 -0.2
v 0 0 -0.3
v 0 0.1 -0.2
v 0 0.1 -0.3
v 0.1 0 0.2
v 0.1 0 0.1
v 0.1 0.1 0.2
v 0.1 0.1 0.1
v 0.1 0.3 0.2
v 0.1 0.3 0.1
v 0.1 0.4 0.2
v 0.1 0.4 0.1
v 0.1 0.5 0.2
v 0.1 0.5 0.1
v 0.2 0.1 0.2
v 0.2 0.1 0.1
v 0.2 0.1 -0.2
v 0.2 0.1 -0.3
v 0.2 0.2 0.2
v 0.2 0.2 0.1
v 0.2 0.2 -0.2
v 0.2 0.2 -0.3
v 0.2 0.3 -0.2
v 0.2 0.3 -0.3
v 0.2 0.4 0.1
v 0.2 0.4 0
v 0.2 0.4 -0.2
v 0.2 0.4 -0.3
v 0.2 0.5 0.1
v 0.2 0.5 0
v 0.2 0.5 -0.2
v 0.2 0.5 -0.3
v 0.3 0 0.2
v 0.3 0 0.1
v 0.3 0 0
v 0.3 0 -0.1
v 0.3 0 -0.2
v 0.3 0 -0.3
v 0.3 0.1 0.2
v 0.3 0.1 0.1
v 0.3 0.1 0
v 0.3 0.1 -0.1
v 0.3 0.1 -0.2
v 0.3 0.1 -0.3
v 0.3 0.2 0.2
v 0.3 0.2 0.1
v 0.3 0.2 -0.1
v 0.3 0.2 -0.2
v 0.3 0.3 0.2
v 0.3 0.3 0.1
v 0.3 0.3 0
v 0.3 0.3 -0.1
v 0.3 0.3 -0.2
v 0.3 0.3 -0.3
v 0.3 0.4 0.1
v 0.3 0.4 0
v 0.3 0.4 -0.1
v 0.3 0.4 -0.2
v 0.3 0.4 -0.3
v 0.3 0.5 0
v 0.3 0.5 -0.2
v -0.2 0.2 0.2
v -0.2 0.4 0.2
v -0.2 0.5 0.2
v -0.1 0.2 0.2
v -0.1 0.4 0.2
v -0.1 0.5 0.2
v 0 0 0.2
v 0 0.1 0.2
v 0 0.2 0.2
v 0 0.3 0.2
v 0.1 0 0.2
v 0.1 0.1 0.2
v 0.1 0.2 0.2
v 0.1 0.3 0.2
v 0.1 0.4 0.2
v 0.1 0.5 0.2
v 0.2 0 0.2
v 0.2 0.1 0.2
v 0.2 0.2 0.2
v 0.2 0.3 0.2
v 0.3 0 0.2
v 0.3 0.1 0.2
v 0.3 0.2 0.2
v 0.3 0.3 0.2
v -0.2 0 0.1
v -0.2 0.1 0.1
v -0.2 0.2 0.1
v -0.1 0 0.1
v -0.1 0.1 0.1
v -0.1 0.2 0.1
v 0 0 0.1
v 0 0.1 0.1
v 0 0.2 0.1
v 0.1 0 0.1
v 0.1 0.1 0.1
v 0.1 0.3 0.1
v 0.1 0.4 0.1
v 0.1 0.5 0.1
v 0.2 0 0.1
v 0.2 0.1 0.1
v 0.2 0.2 0.1
v 0.2 0.3 0.1
v 0.2 0.4 0.1
v 0.2 0.5 0.1
v 0.3 0.1 0.1
v 0.3 0.2 0.1
v 0.3 0.3 0.1
v 0.3 0.4 0.1
v -0.2 0.4 0
v -0.2 0.5 0
v -0.1 0.4 0
v -0.1 0.5 0
v 0.2 0.4 0
v 0.2 0.5 0
v 0.3 0.4 0
v 0.3 0.5 0
v -0.2 0.4 0.1
v -0.2 0.5 0.1
v -0.1 0.4 0.1
v -0.1 0.5 0.1
v -0.2 0 -0.2
v -0.2 0.2 -0.2
v -0.2 0.4 -0.2
v -0.2 0.5 -0.2
v -0.1 0 -0.2
v -0.1 0.1 -0.2
v -0.1 0.2 -0.2
v -0.1 0.4 -0.2
v -0.1 0.5 -0.2
v 0 0 -0.2
v 0 0.1 -0.2
v 0 0.4 -0.2
v 0 0.5 -0.2
v 0.1 0 -0.2
v 0.1 0.1 -0.2
v 0.2 0.1 -0.2
v 0.2 0.2 -0.2
v 0.2 0.3 -0.2
v 0.2 0.4 -0.2
v 0.2 0.5 -0.2
v 0.3 0.1 -0.2
v 0.3 0.2 -0.2
v 0.3 0.3 -0.2
v 0.3 0.4 -0.2
v 0.3 0.5 -0.2
v -0.2 0.2 -0.3
v -0.2 0.4 -0.3
v -0.1 0 -0.3
v -0.1 0.1 -0.3
v -0.1 0.2 -0.3
v -0.1 0.3 -0.3
v -0.1 0.4 -0.3
v 0 0 -0.3
v 0 0.1 -0.3
v 0 0.3 -0.3
v 0 0.4 -0.3
v 0 0.5 -0.3
v 0.1 0 -0.3
v 0.1 0.1 -0.3
v 0.1 0.2 -0.3
v 0.1 0.3 -0.3
v 0.1 0.4 -0.3
v 0.1 0.5 -0.3
v 0.2 0 -0.3
v 0.2 0.1 -0.3
v 0.2 0.2 -0.3
v 0.2 0.3 -0.3
v 0.2 0.4 -0.3
v 0.2 0.5 -0.3
v 0.3 0 -0.3
v 0.3 0.1 -0.3
v 0.3 0.3 -0.3
v 0.3 0.4 -0.3
v 0 0 0.2
v 0.1 0 0.2
v 0.2 0 0.2
v 0.3 0 0.2
v -0.2 0 0.1
v -0.1 0 0.1
v 0 0 0.1
v 0.1 0 0.1
v 0.2 0 0.1
v 0.3 0 0.1
v -0.2 0 0
v -0.1 0 0
v 0 0 0
v 0.1 0 0
v 0.2 0 0
v 0.3 0 0
v -0.2 0 -0.1
v -0.1 0 -0.1
v 0.1 0 -0.1
v 0.2 0 -0.1
v 0.3 0 -0.1
v -0.2 0 -0.2
v -0.1 0 -0.2
v 0 0 -0.2
v 0.1 0 -0.2
v 0.2 0 -0.2
v 0.3 0 -0.2
v -0.1 0 -0.3
v 0 0 -0.3
v 0.1 0 -0.3
v 0.2 0 -0.3
v 0.3 0 -0.3
v 0.1 0.1 0.2
v 0.2 0.1 0.2
v 0.1 0.1 0.1
v 0.2 0.1 0.1
v 0 0.1 -0.2
v 0.1 0.1 -0.2
v 0 0.1 -0.3
v 0.1 0.1 -0.3
v -0.2 0.2 0.2
v -0.1 0.2 0.2
v 0 0.2 0.2
v 0.2 0.2 0.2
v 0.3 0.2 0.2
v -0.2 0.2 0.1
v -0.1 0.2 0.1
v 0 0.2 0.1
v 0.2 0.2 0.1
v 0.3 0.2 0.1
v -0.2 0.2 -0.2
v -0.1 0.2 -0.2
v -0.2 0.2 -0.3
v -0.1 0.2 -0.3
v 0.2 0.3 -0.2
v 0.3 0.3 -0.2
v 0.2 0.3 -0.3
v 0.3 0.3 -0.3
v 0.2 0.1 0.2
v 0.3 0.1 0.2
v 0.2 0.1 0.1
v 0.3 0.1 0.1
v 0.2 0.1 -0.2
v 0.3 0.1 -0.2
v 0.2 0.1 -0.3
v 0.3 0.1 -0.3
v 0.1 0.3 0.2
v 0.2 0.3 0.2
v 0.3 0.3 0.2
v 0.1 0.3 0.1
v 0.2 0.3 0.1
v 0.3 0.3 0.1
v -0.2 0.4 0.1
v -0.1 0.4 0.1
v 0.2 0.4 0.1
v 0.3 0.4 0.1
v -0.2 0.4 0
v -0.1 0.4 0
v 0.2 0.4 0
v 0.3 0.4 0
v -0.2 0.4 -0.2
v -0.1 0.4 -0.2
v 0 0.4 -0.2
v 0.2 0.4 -0.2
v 0.3 0.4 -0.2
v -0.2 0.4 -0.3
v -0.1 0.4 -0.3
v 0 0.4 -0.3
v 0.2 0.4 -0.3
v 0.3 0.4 -0.3
v -0.2 0.5 0.2
v -0.1 0.5 0.2
v 0.1 0.5 0.2
v -0.2 0.5 0.1
v -0.1 0.5 0.1
v 0 0.5 0.1
v 0.1 0.5 0.1
v 0.2 0.5 0.1
v -0.2 0.5 0
v -0.1 0.5 0
v 0 0.5 0
v 0.1 0.5 0
v 0.2 0.5 0
v 0.3 0.5 0
v -0.2 0.5 -0.1
v -0.1 0.5 -0.1
v 0 0.5 -0.1
v 0.1 0.5 -0.1
v -0.2 0.5 -0.2
v -0.1 0.5 -0.2
v 0 0.5 -0.2
v 0.1 0.5 -0.2
v 0.2 0.5 -0.2
v 0.3 0.5 -0.2
v 0 0.5 -0.3
v 0.1 0.5 -0.3
v 0.2 0.5 -0.3

# faces
f 5/1/1 2/1/1 1/1/1
f 6/4/1 3/4/1 2/4/1
f 6/1/1 2/1/1 5/1/1
f 7/1/1 4/1/1 3/1/1
f 7/4/1 3/4/1 6/4/1
f 9/4/1 6/4/1 5/4/1
f 10/3/1 7/3/1 6/3/1
f 10/4/1 6/4/1 9/4/1
f 11/1/1 4/1/1 7/1/1
f 11/3/1 7/3/1 10/3/1
f 12/1/1 4/1/1 11/1/1
f 14/3/1 10/3/1 9/3/1
f 14/3/1 9/3/1 8/3/1
f 14/3/1 11/3/1 10/3/1
f 15/2/1 12/2/1 11/2/1
f 15/3/1 11/3/1 14/3/1
f 16/4/1 13/4/1 12/4/1
f 16/2/1 12/2/1 15/2/1
f 17/3/1 14/3/1 8/3/1
f 18/3/1 14/3/1 17/3/1
f 19/1/1 15/1/1 14/1/1
f 19/3/1 14/3/1 18/3/1
f 19/1/1 16/1/1 15/1/1
f 20/1/1 16/1/1 19/1/1
f 21/4/1 13/4/1 16/4/1
f 21/1/1 16/1/1 20/1/1
f 22/4/1 13/4/1 21/4/1
f 23/1/1 18/1/1 17/1/1
f 24/1/1 18/1/1 23/1/1
f 25/1/1 20/1/1 19/1/1
f 26/3/1 21/3/1 20/3/1
f 26/1/1 20/1/1 25/1/1
f 27/3/1 21/3/1 26/3/1
f 30/2/1 29/2/1 28/2/1
f 31/2/1 29/2/1 30/2/1
f 32/1/1 31/1/1 30/1/1
f 33/1/1 31/1/1 32/1/1
f 36/4/1 35/4/1 34/4/1
f 37/4/1 35/4/1 36/4/1
f 40/4/1 39/4/1 38/4/1
f 41/4/1 39/4/1 40/4/1
f 42/1/1 41/1/1 40/1/1
f 43/1/1 41/1/1 42/1/1
f 46/3/1 45/3/1 44/3/1
f 47/3/1 45/3/1 46/3/1
f 50/3/1 49/3/1 48/3/1
f 51/3/1 49/3/1 50/3/1
f 54/3/1 53/3/1 52/3/1
f 55/3/1 53/3/1 54/3/1
f 56/2/2 57/2/2 58/2/2
f 58/2/2 57/2/2 59/2/2
f 60/4/2 61/4/2 62/4/2
f 62/4/2 61/4/2 63/4/2
f 64/2/2 65/2/2 66/2/2
f 66/2/2 65/2/2 67/2/2
f 66/3/2 67/3/2 68/3/2
f 68/3/2 67/3/2 69/3/2
f 70/1/2 71/1/2 74/1/2
f 74/1/2 71/1/2 75/1/2
f 72/2/2 73/2/2 76/2/2
f 76/2/2 73/2/2 77/2/2
f 76/3/2 77/3/2 78/3/2
f 78/3/2 77/3/2 79/3/2
f 80/4/2 81/4/2 84/4/2
f 84/4/2 81/4/2 85/4/2
f 82/1/2 83/1/2 86/1/2
f 86/1/2 83/1/2 87/1/2
f 88/3/2 89/3/2 94/3/2
f 89/4/2 90/4/2 95/4/2
f 94/3/2 89/3/2 95/3/2
f 90/3/2 91/3/2 96/3/2
f 95/4/2 90/4/2 96/4/2
f 91/2/2 92/2/2 97/2/2
f 96/3/2 91/3/2 97/3/2
f 92/1/2 93/1/2 98/1/2
f 97/2/2 92/2/2 98/2/2
f 98/1/2 93/1/2 99/1/2
f 95/3/2 96/3/2 101/3/2
f 96/1/2 97/1/2 102/1/2
f 97/2/2 98/2/2 102/2/2
f 102/2/2 98/2/2 103/2/2
f 100/2/2 101/2/2 104/2/2
f 101/3/2 96/3/2 105/3/2
f 104/2/2 101/2/2 105/2/2
f 96/1/2 102/1/2 106/1/2
f 105/3/2 96/3/2 106/3/2
f 102/3/2 103/3/2 107/3/2
f 106/1/2 102/1/2 107/1/2
f 107/3/2 103/3/2 108/3/2
f 105/4/2 106/4/2 110/4/2
f 106/4/2 107/4/2 110/4/2
f 110/4/2 107/4/2 111/4/2
f 107/2/2 108/2/2 112/2/2
f 111/4/2 107/4/2 112/4/2
f 108/4/2 109/4/2 113/4/2
f 112/2/2 108/2/2 113/2/2
f 113/4/2 109/4/2 114/4/2
f 111/4/2 112/4/2 115/4/2
f 112/4/2 113/4/2 115/4/2
f 115/4/2 113/4/2 116/4/2
f 120/3/3 118/3/3 117/3/3
f 121/1/3 119/1/3 118/1/3
f 121/3/3 118/3/3 120/3/3
f 122/1/3 119/1/3 121/1/3
f 125/2/3 121/2/3 120/2/3
f 126/2/3 121/2/3 125/2/3
f 127/4/3 124/4/3 123/4/3
f 128/1/3 125/1/3 124/1/3
f 128/4/3 124/4/3 127/4/3
f 128/1/3 126/1/3 125/1/3
f 129/1/3 126/1/3 128/1/3
f 130/2/3 121/2/3 126/2/3
f 130/1/3 126/1/3 129/1/3
f 131/3/3 122/3/3 121/3/3
f 131/2/3 121/2/3 130/2/3
f 132/3/3 122/3/3 131/3/3
f 134/1/3 129/1/3 128/1/3
f 135/3/3 130/3/3 129/3/3
f 135/1/3 129/1/3 134/1/3
f 136/3/3 130/3/3 135/3/3
f 137/3/3 134/3/3 133/3/3
f 138/3/3 134/3/3 137/3/3
f 139/2/3 136/2/3 135/2/3
f 140/2/3 136/2/3 139/2/3
f 144/1/3 142/1/3 141/1/3
f 145/4/3 143/4/3 142/4/3
f 145/1/3 142/1/3 144/1/3
f 146/4/3 143/4/3 145/4/3
f 147/3/3 145/3/3 144/3/3
f 148/2/3 146/2/3 145/2/3
f 148/3/3 145/3/3 147/3/3
f 149/2/3 146/2/3 148/2/3
f 155/2/3 151/2/3 150/2/3
f 156/2/3 151/2/3 155/2/3
f 158/3/3 153/3/3 152/3/3
f 159/4/3 154/4/3 153/4/3
f 159/3/3 153/3/3 158/3/3
f 160/4/3 154/4/3 159/4/3
f 161/3/3 157/3/3 156/3/3
f 162/3/3 157/3/3 161/3/3
f 163/4/3 159/4/3 158/4/3
f 164/4/3 159/4/3 163/4/3
f 167/1/3 166/1/3 165/1/3
f 168/1/3 166/1/3 167/1/3
f 171/4/3 170/4/3 169/4/3
f 172/4/3 170/4/3 171/4/3
f 173/1/4 174/1/4 175/1/4
f 175/1/4 174/1/4 176/1/4
f 177/1/4 178/1/4 181/1/4
f 181/1/4 178/1/4 182/1/4
f 182/1/4 178/1/4 183/1/4
f 179/3/4 180/3/4 184/3/4
f 184/3/4 180/3/4 185/3/4
f 184/1/4 185/1/4 188/1/4
f 188/1/4 185/1/4 189/1/4
f 186/3/4 187/3/4 190/3/4
f 190/3/4 187/3/4 191/3/4
f 192/2/4 193/2/4 197/2/4
f 193/3/4 194/3/4 198/3/4
f 197/2/4 193/2/4 198/2/4
f 198/3/4 194/3/4 199/3/4
f 195/4/4 196/4/4 200/4/4
f 200/4/4 196/4/4 201/4/4
f 202/4/4 203/4/4 206/4/4
f 206/4/4 203/4/4 207/4/4
f 207/4/4 203/4/4 208/4/4
f 204/2/4 205/2/4 209/2/4
f 205/1/4 206/1/4 210/1/4
f 209/2/4 205/2/4 210/2/4
f 206/1/4 207/1/4 210/1/4
f 207/2/4 208/2/4 211/2/4
f 210/1/4 207/1/4 211/1/4
f 211/2/4 208/2/4 212/2/4
f 210/4/4 211/4/4 215/4/4
f 215/4/4 211/4/4 216/4/4
f 211/1/4 212/1/4 217/1/4
f 216/4/4 211/4/4 217/4/4
f 212/3/4 213/3/4 218/3/4
f 217/1/4 212/1/4 218/1/4
f 218/3/4 213/3/4 219/3/4
f 214/3/4 215/3/4 220/3/4
f 215/2/4 216/2/4 221/2/4
f 220/3/4 215/3/4 221/3/4
f 216/3/4 217/3/4 222/3/4
f 221/2/4 216/2/4 222/2/4
f 217/2/4 218/2/4 223/2/4
f 222/3/4 217/3/4 223/3/4
f 218/1/4 219/1/4 224/1/4
f 223/2/4 218/2/4 224/2/4
f 224/1/4 219/1/4 225/1/4
f 220/1/4 221/1/4 226/1/4
f 226/1/4 221/1/4 227/1/4
f 223/4/4 224/4/4 228/4/4
f 228/4/4 224/4/4 229/4/4
f 236/4/5 231/4/5 230/4/5
f 237/4/5 231/4/5 236/4/5
f 238/3/5 233/3/5 232/3/5
f 239/3/5 233/3/5 238/3/5
f 240/1/5 235/1/5 234/1/5
f 241/3/5 236/3/5 235/3/5
f 241/1/5 235/1/5 240/1/5
f 242/2/5 237/2/5 236/2/5
f 242/3/5 236/3/5 241/3/5
f 242/2/5 238/2/5 237/2/5
f 243/2/5 238/2/5 242/2/5
f 244/4/5 239/4/5 238/4/5
f 244/2/5 238/2/5 243/2/5
f 245/4/5 239/4/5 244/4/5
f 246/4/5 241/4/5 240/4/5
f 247/3/5 243/3/5 242/3/5
f 247/4/5 241/4/5 246/4/5
f 247/3/5 242/3/5 241/3/5
f 248/1/5 244/1/5 243/1/5
f 248/3/5 243/3/5 247/3/5
f 249/3/5 245/3/5 244/3/5
f 249/1/5 244/1/5 248/1/5
f 250/3/5 245/3/5 249/3/5
f 251/1/5 247/1/5 246/1/5
f 252/3/5 248/3/5 247/3/5
f 252/1/5 247/1/5 251/1/5
f 252/3/5 249/3/5 248/3/5
f 253/3/5 249/3/5 252/3/5
f 254/3/5 249/3/5 253/3/5
f 255/2/5 250/2/5 249/2/5
f 255/3/5 249/3/5 254/3/5
f 256/2/5 250/2/5 255/2/5
f 257/2/5 253/2/5 252/2/5
f 258/2/5 253/2/5 257/2/5
f 259/3/5 255/3/5 254/3/5
f 260/1/5 256/1/5 255/1/5
f 260/3/5 255/3/5 259/3/5
f 261/1/5 256/1/5 260/1/5
f 264/1/5 263/1/5 262/1/5
f 265/1/5 263/1/5 264/1/5
f 268/4/5 267/4/5 266/4/5
f 269/4/5 267/4/5 268/4/5
f 275/3/5 271/3/5 270/3/5
f 276/2/5 272/2/5 271/2/5
f 276/3/5 271/3/5 275/3/5
f 277/2/5 272/2/5 276/2/5
f 278/2/5 274/2/5 273/2/5
f 279/2/5 274/2/5 278/2/5
f 282/4/5 281/4/5 280/4/5
f 283/4/5 281/4/5 282/4/5
f 286/4/5 285/4/5 284/4/5
f 287/4/5 285/4/5 286/4/5
f 288/3/6 289/3/6 290/3/6
f 290/3/6 289/3/6 291/3/6
f 292/1/6 293/1/6 294/1/6
f 294/1/6 293/1/6 295/1/6
f 296/3/6 297/3/6 299/3/6
f 297/2/6 298/2/6 300/2/6
f 299/3/6 297/3/6 300/3/6
f 300/2/6 298/2/6 301/2/6
f 302/3/6 303/3/6 306/3/6
f 306/3/6 303/3/6 307/3/6
f 304/4/6 305/4/6 308/4/6
f 308/4/6 305/4/6 309/4/6
f 310/4/6 311/4/6 315/4/6
f 311/2/6 312/2/6 316/2/6
f 315/4/6 311/4/6 316/4/6
f 316/2/6 312/2/6 317/2/6
f 313/4/6 314/4/6 318/4/6
f 318/4/6 314/4/6 319/4/6
f 320/1/6 321/1/6 323/1/6
f 321/3/6 322/3/6 324/3/6
f 323/1/6 321/1/6 324/1/6
f 324/3/6 322/3/6 325/3/6
f 325/3/6 322/3/6 326/3/6
f 324/4/6 325/4/6 329/4/6
f 325/3/6 326/3/6 330/3/6
f 329/4/6 325/4/6 330/4/6
f 326/4/6 327/4/6 331/4/6
f 330/3/6 326/3/6 331/3/6
f 331/4/6 327/4/6 332/4/6
f 328/1/6 329/1/6 334/1/6
f 329/2/6 330/2/6 335/2/6
f 334/1/6 329/1/6 335/1/6
f 330/1/6 331/1/6 336/1/6
f 335/2/6 330/2/6 336/2/6
f 331/1/6 332/1/6 336/1/6
f 336/1/6 332/1/6 337/1/6
f 334/3/6 335/3/6 338/3/6
f 335/1/6 336/1/6 339/1/6
f 338/3/6 335/3/6 339/3/6
f 336/2/6 337/2/6 340/2/6
f 339/1/6 336/1/6 340/1/6
f 337/1/6 332/1/6 341/1/6
f 340/2/6 337/2/6 341/2/6
f 332/4/6 333/4/6 342/4/6
f 341/1/6 332/1/6 342/1/6
f 342/4/6 333/4/6 343/4/6
f 340/3/6 341/3/6 344/3/6
f 341/1/6 342/1/6 345/1/6
f 344/3/6 341/3/6 345/3/6
f 345/1/6 342/1/6 346/1/6
