# MagicaVoxel @ Ephtracy

# group
o 

# material
mtllib diary.mtl
usemtl palette

# normals
vn -1 0 0
vn 1 0 0
vn 0 0 1
vn 0 0 -1
vn 0 -1 0
vn 0 1 0

# texcoords
vt 0.0292969 0.5
vt 0.0722656 0.5
vt 0.0800781 0.5
vt 0.134766 0.5

# verts
v -0.3 0 0.1
v -0.3 0 0
v -0.3 0 -0.1
v -0.3 0 -0.2
v -0.3 0.8 0.1
v -0.3 0.8 0
v -0.3 0.8 -0.1
v -0.3 0.8 -0.2
v -0.2 0 0
v -0.2 0 -0.1
v -0.2 0.8 0
v -0.2 0.8 -0.1
v 0.4 0 0.1
v 0.4 0 -0.2
v 0.4 0.8 0.1
v 0.4 0.8 -0.2
v -0.3 0 0.1
v -0.3 0.8 0.1
v 0.3 0 0.1
v 0.3 0.8 0.1
v 0.4 0 0.1
v 0.4 0.8 0.1
v -0.3 0 -0.1
v -0.3 0.8 -0.1
v -0.2 0 -0.1
v -0.2 0.8 -0.1
v -0.3 0 0
v -0.3 0.8 0
v -0.2 0 0
v -0.2 0.8 0
v -0.3 0 -0.2
v -0.3 0.8 -0.2
v -0.2 0.5 -0.2
v -0.2 0.7 -0.2
v 0.2 0.5 -0.2
v 0.2 0.7 -0.2
v 0.3 0 -0.2
v 0.3 0.8 -0.2
v 0.4 0 -0.2
v 0.4 0.8 -0.2
v -0.3 0 0.1
v 0.3 0 0.1
v 0.4 0 0.1
v -0.3 0 0
v -0.2 0 0
v 0.3 0 0
v -0.3 0 -0.1
v -0.2 0 -0.1
v 0.3 0 -0.1
v -0.3 0 -0.2
v 0.3 0 -0.2
v 0.4 0 -0.2
v -0.3 0.8 0.1
v 0.3 0.8 0.1
v 0.4 0.8 0.1
v -0.3 0.8 0
v -0.2 0.8 0
v 0.3 0.8 0
v -0.3 0.8 -0.1
v -0.2 0.8 -0.1
v 0.3 0.8 -0.1
v -0.3 0.8 -0.2
v 0.3 0.8 -0.2
v 0.4 0.8 -0.2

# faces
f 5/2/1 2/2/1 1/2/1
f 6/2/1 2/2/1 5/2/1
f 7/2/1 4/2/1 3/2/1
f 8/2/1 4/2/1 7/2/1
f 11/1/1 10/1/1 9/1/1
f 12/1/1 10/1/1 11/1/1
f 13/4/2 14/4/2 15/4/2
f 15/4/2 14/4/2 16/4/2
f 19/2/3 18/2/3 17/2/3
f 20/2/3 18/2/3 19/2/3
f 21/4/3 20/4/3 19/4/3
f 22/4/3 20/4/3 21/4/3
f 25/2/3 24/2/3 23/2/3
f 26/2/3 24/2/3 25/2/3
f 27/2/4 28/2/4 29/2/4
f 29/2/4 28/2/4 30/2/4
f 31/2/4 32/2/4 33/2/4
f 33/2/4 32/2/4 34/2/4
f 31/2/4 33/2/4 35/2/4
f 33/3/4 34/3/4 35/3/4
f 34/2/4 32/2/4 36/2/4
f 35/3/4 34/3/4 36/3/4
f 31/2/4 35/2/4 37/2/4
f 35/2/4 36/2/4 37/2/4
f 36/2/4 32/2/4 38/2/4
f 37/2/4 36/2/4 38/2/4
f 37/4/4 38/4/4 39/4/4
f 39/4/4 38/4/4 40/4/4
f 44/2/5 42/2/5 41/2/5
f 45/2/5 42/2/5 44/2/5
f 46/4/5 43/4/5 42/4/5
f 46/2/5 42/2/5 45/2/5
f 48/1/5 46/1/5 45/1/5
f 49/4/5 43/4/5 46/4/5
f 49/1/5 46/1/5 48/1/5
f 50/2/5 48/2/5 47/2/5
f 50/2/5 49/2/5 48/2/5
f 51/4/5 43/4/5 49/4/5
f 51/2/5 49/2/5 50/2/5
f 52/4/5 43/4/5 51/4/5
f 53/2/6 54/2/6 56/2/6
f 56/2/6 54/2/6 57/2/6
f 54/4/6 55/4/6 58/4/6
f 57/2/6 54/2/6 58/2/6
f 57/1/6 58/1/6 60/1/6
f 58/4/6 55/4/6 61/4/6
f 60/1/6 58/1/6 61/1/6
f 59/2/6 60/2/6 62/2/6
f 60/2/6 61/2/6 62/2/6
f 61/4/6 55/4/6 63/4/6
f 62/2/6 61/2/6 63/2/6
f 63/4/6 55/4/6 64/4/6
