# MagicaVoxel @ Ephtracy

# group
o 

# material
mtllib whiteboard-1.mtl
usemtl palette

# normals
vn -1 0 0
vn 1 0 0
vn 0 0 1
vn 0 0 -1
vn 0 -1 0
vn 0 1 0

# texcoords
vt 0.00585938 0.5
vt 0.0253906 0.5
vt 0.291016 0.5
vt 0.544922 0.5

# verts
v -1.5 0 0
v -1.5 0 -0.1
v -1.5 2 0
v -1.5 2 -0.1
v 1.5 0 0
v 1.5 0 -0.1
v 1.5 2 0
v 1.5 2 -0.1
v -1.5 0 0
v -1.5 2 0
v -1.4 0.1 0
v -1.4 1.9 0
v -1.3 0.3 0
v -1.3 0.4 0
v -1.3 1.3 0
v -1.3 1.8 0
v -1.2 0.2 0
v -1.2 0.3 0
v -1.2 0.4 0
v -1.2 1.1 0
v -1.2 1.4 0
v -1.2 1.7 0
v -1.1 0.2 0
v -1.1 0.3 0
v -1.1 0.4 0
v -1.1 1.1 0
v -1.1 1.4 0
v -1.1 1.7 0
v -1 0.4 0
v -1 0.9 0
v -1 1.3 0
v -1 1.8 0
v -0.9 0.5 0
v -0.9 0.8 0
v -0.9 0.9 0
v -0.9 1 0
v -0.9 1.3 0
v -0.9 1.6 0
v -0.9 1.7 0
v -0.9 1.8 0
v -0.8 0.4 0
v -0.8 0.5 0
v -0.8 0.8 0
v -0.8 0.9 0
v -0.8 1 0
v -0.8 1.1 0
v -0.8 1.4 0
v -0.8 1.5 0
v -0.7 0.9 0
v -0.7 1 0
v -0.7 1.6 0
v -0.7 1.7 0
v -0.6 1.3 0
v -0.6 1.4 0
v -0.6 1.5 0
v -0.6 1.8 0
v -0.5 1.3 0
v -0.5 1.6 0
v -0.4 1.3 0
v -0.4 1.6 0
v -0.4 1.8 0
v -0.3 0.4 0
v -0.3 0.5 0
v -0.3 0.9 0
v -0.3 1 0
v -0.3 1.1 0
v -0.3 1.6 0
v -0.3 1.8 0
v -0.2 0.5 0
v -0.2 0.6 0
v -0.2 0.8 0
v -0.2 0.9 0
v -0.2 1.3 0
v -0.2 1.8 0
v -0.1 0.4 0
v -0.1 0.5 0
v -0.1 0.6 0
v -0.1 0.8 0
v -0.1 0.9 0
v -0.1 1 0
v -0.1 1.3 0
v -0.1 1.8 0
v 0 0.5 0
v 0 0.9 0
v 0 1.3 0
v 0 1.6 0
v 0 1.7 0
v 0 1.8 0
v 0.1 1.4 0
v 0.1 1.5 0
v 0.2 1.6 0
v 0.2 1.7 0
v 0.3 1.3 0
v 0.3 1.4 0
v 0.3 1.5 0
v 0.3 1.8 0
v 0.4 0.7 0
v 0.4 0.8 0
v 0.5 0.8 0
v 0.5 0.9 0
v 0.6 0.8 0
v 0.6 0.9 0
v 0.6 1 0
v 0.7 0.8 0
v 0.7 0.9 0
v 0.7 1 0
v 0.7 1.1 0
v 0.8 0.8 0
v 0.8 0.9 0
v 0.8 1 0
v 0.8 1.1 0
v 0.8 1.2 0
v 0.9 0.3 0
v 0.9 0.4 0
v 0.9 1.1 0
v 0.9 1.2 0
v 0.9 1.3 0
v 1 1.2 0
v 1 1.3 0
v 1.1 1.1 0
v 1.1 1.2 0
v 1.2 1 0
v 1.2 1.1 0
v 1.2 1.2 0
v 1.3 0.7 0
v 1.3 0.8 0
v 1.3 1 0
v 1.3 1.1 0
v 1.4 0.1 0
v 1.4 1.9 0
v 1.5 0 0
v 1.5 2 0
v -1.5 0 -0.1
v -1.5 2 -0.1
v -1.4 0.1 -0.1
v -1.4 1.9 -0.1
v -1.3 0.3 -0.1
v -1.3 0.4 -0.1
v -1.3 1.3 -0.1
v -1.3 1.8 -0.1
v -1.2 0.2 -0.1
v -1.2 0.3 -0.1
v -1.2 0.4 -0.1
v -1.2 1.1 -0.1
v -1.2 1.4 -0.1
v -1.2 1.7 -0.1
v -1.1 0.2 -0.1
v -1.1 0.3 -0.1
v -1.1 0.4 -0.1
v -1.1 1.1 -0.1
v -1.1 1.4 -0.1
v -1.1 1.7 -0.1
v -1 0.4 -0.1
v -1 0.9 -0.1
v -1 1.3 -0.1
v -1 1.8 -0.1
v -0.9 0.5 -0.1
v -0.9 0.8 -0.1
v -0.9 0.9 -0.1
v -0.9 1 -0.1
v -0.9 1.3 -0.1
v -0.9 1.6 -0.1
v -0.9 1.7 -0.1
v -0.9 1.8 -0.1
v -0.8 0.4 -0.1
v -0.8 0.5 -0.1
v -0.8 0.8 -0.1
v -0.8 0.9 -0.1
v -0.8 1 -0.1
v -0.8 1.1 -0.1
v -0.8 1.4 -0.1
v -0.8 1.5 -0.1
v -0.7 0.9 -0.1
v -0.7 1 -0.1
v -0.7 1.6 -0.1
v -0.7 1.7 -0.1
v -0.6 1.3 -0.1
v -0.6 1.4 -0.1
v -0.6 1.5 -0.1
v -0.6 1.8 -0.1
v -0.5 1.3 -0.1
v -0.5 1.6 -0.1
v -0.4 1.3 -0.1
v -0.4 1.6 -0.1
v -0.4 1.8 -0.1
v -0.3 0.4 -0.1
v -0.3 0.5 -0.1
v -0.3 0.9 -0.1
v -0.3 1 -0.1
v -0.3 1.1 -0.1
v -0.3 1.6 -0.1
v -0.3 1.8 -0.1
v -0.2 0.5 -0.1
v -0.2 0.6 -0.1
v -0.2 0.8 -0.1
v -0.2 0.9 -0.1
v -0.2 1.3 -0.1
v -0.2 1.8 -0.1
v -0.1 0.4 -0.1
v -0.1 0.5 -0.1
v -0.1 0.6 -0.1
v -0.1 0.8 -0.1
v -0.1 0.9 -0.1
v -0.1 1 -0.1
v -0.1 1.3 -0.1
v -0.1 1.8 -0.1
v 0 0.5 -0.1
v 0 0.9 -0.1
v 0 1.3 -0.1
v 0 1.6 -0.1
v 0 1.7 -0.1
v 0 1.8 -0.1
v 0.1 1.4 -0.1
v 0.1 1.5 -0.1
v 0.2 1.6 -0.1
v 0.2 1.7 -0.1
v 0.3 1.3 -0.1
v 0.3 1.4 -0.1
v 0.3 1.5 -0.1
v 0.3 1.8 -0.1
v 0.4 0.7 -0.1
v 0.4 0.8 -0.1
v 0.5 0.8 -0.1
v 0.5 0.9 -0.1
v 0.6 0.8 -0.1
v 0.6 0.9 -0.1
v 0.6 1 -0.1
v 0.7 0.8 -0.1
v 0.7 0.9 -0.1
v 0.7 1 -0.1
v 0.7 1.1 -0.1
v 0.8 0.8 -0.1
v 0.8 0.9 -0.1
v 0.8 1 -0.1
v 0.8 1.1 -0.1
v 0.8 1.2 -0.1
v 0.9 0.3 -0.1
v 0.9 0.4 -0.1
v 0.9 1.1 -0.1
v 0.9 1.2 -0.1
v 0.9 1.3 -0.1
v 1 1.2 -0.1
v 1 1.3 -0.1
v 1.1 1.1 -0.1
v 1.1 1.2 -0.1
v 1.2 1 -0.1
v 1.2 1.1 -0.1
v 1.2 1.2 -0.1
v 1.3 0.7 -0.1
v 1.3 0.8 -0.1
v 1.3 1 -0.1
v 1.3 1.1 -0.1
v 1.4 0.1 -0.1
v 1.4 1.9 -0.1
v 1.5 0 -0.1
v 1.5 2 -0.1
v -1.5 0 0
v 1.5 0 0
v -1.5 0 -0.1
v 1.5 0 -0.1
v -1.5 2 0
v 1.5 2 0
v -1.5 2 -0.1
v 1.5 2 -0.1

# faces
f 3/1/1 2/1/1 1/1/1
f 4/1/1 2/1/1 3/1/1
f 5/1/2 6/1/2 7/1/2
f 7/1/2 6/1/2 8/1/2
f 11/1/3 10/1/3 9/1/3
f 12/1/3 10/1/3 11/1/3
f 13/2/3 12/2/3 11/2/3
f 14/2/3 12/2/3 13/2/3
f 15/2/3 12/2/3 14/2/3
f 16/2/3 12/2/3 15/2/3
f 17/2/3 13/2/3 11/2/3
f 18/4/3 14/4/3 13/4/3
f 18/2/3 13/2/3 17/2/3
f 19/2/3 15/2/3 14/2/3
f 19/4/3 14/4/3 18/4/3
f 20/2/3 15/2/3 19/2/3
f 21/3/3 16/3/3 15/3/3
f 22/3/3 16/3/3 21/3/3
f 23/2/3 17/2/3 11/2/3
f 23/4/3 18/4/3 17/4/3
f 23/4/3 19/4/3 18/4/3
f 23/4/3 20/4/3 19/4/3
f 24/4/3 20/4/3 23/4/3
f 25/4/3 20/4/3 24/4/3
f 26/2/3 15/2/3 20/2/3
f 26/4/3 20/4/3 25/4/3
f 27/2/3 22/2/3 21/2/3
f 27/3/3 21/3/3 15/3/3
f 28/3/3 16/3/3 22/3/3
f 28/2/3 22/2/3 27/2/3
f 29/4/3 25/4/3 24/4/3
f 29/2/3 26/2/3 25/2/3
f 30/2/3 26/2/3 29/2/3
f 31/3/3 27/3/3 15/3/3
f 31/2/3 26/2/3 30/2/3
f 31/2/3 15/2/3 26/2/3
f 31/3/3 28/3/3 27/3/3
f 32/2/3 12/2/3 16/2/3
f 32/3/3 28/3/3 31/3/3
f 32/3/3 16/3/3 28/3/3
f 33/4/3 30/4/3 29/4/3
f 34/4/3 30/4/3 33/4/3
f 35/2/3 31/2/3 30/2/3
f 35/4/3 30/4/3 34/4/3
f 35/2/3 32/2/3 31/2/3
f 36/2/3 32/2/3 35/2/3
f 37/2/3 32/2/3 36/2/3
f 38/2/3 32/2/3 37/2/3
f 39/2/3 32/2/3 38/2/3
f 40/2/3 12/2/3 32/2/3
f 40/2/3 32/2/3 39/2/3
f 41/4/3 29/4/3 24/4/3
f 41/4/3 33/4/3 29/4/3
f 42/2/3 34/2/3 33/2/3
f 42/4/3 33/4/3 41/4/3
f 43/4/3 35/4/3 34/4/3
f 43/2/3 34/2/3 42/2/3
f 43/4/3 36/4/3 35/4/3
f 44/4/3 36/4/3 43/4/3
f 45/2/3 37/2/3 36/2/3
f 45/4/3 36/4/3 44/4/3
f 46/2/3 37/2/3 45/2/3
f 47/3/3 38/3/3 37/3/3
f 48/3/3 38/3/3 47/3/3
f 49/2/3 42/2/3 41/2/3
f 49/2/3 44/2/3 43/2/3
f 49/2/3 43/2/3 42/2/3
f 49/4/3 45/4/3 44/4/3
f 49/4/3 46/4/3 45/4/3
f 50/4/3 46/4/3 49/4/3
f 51/2/3 39/2/3 38/2/3
f 51/3/3 38/3/3 48/3/3
f 52/3/3 40/3/3 39/3/3
f 52/2/3 39/2/3 51/2/3
f 53/2/3 37/2/3 46/2/3
f 53/3/3 47/3/3 37/3/3
f 54/2/3 48/2/3 47/2/3
f 54/3/3 47/3/3 53/3/3
f 55/3/3 51/3/3 48/3/3
f 55/2/3 48/2/3 54/2/3
f 55/3/3 52/3/3 51/3/3
f 56/2/3 12/2/3 40/2/3
f 56/3/3 52/3/3 55/3/3
f 56/3/3 40/3/3 52/3/3
f 57/2/3 55/2/3 54/2/3
f 57/2/3 54/2/3 53/2/3
f 57/2/3 56/2/3 55/2/3
f 57/2/3 53/2/3 46/2/3
f 58/2/3 56/2/3 57/2/3
f 59/2/3 57/2/3 46/2/3
f 59/3/3 58/3/3 57/3/3
f 60/2/3 56/2/3 58/2/3
f 60/3/3 58/3/3 59/3/3
f 61/2/3 12/2/3 56/2/3
f 61/2/3 56/2/3 60/2/3
f 62/4/3 41/4/3 24/4/3
f 62/2/3 49/2/3 41/2/3
f 62/2/3 50/2/3 49/2/3
f 63/2/3 50/2/3 62/2/3
f 64/2/3 50/2/3 63/2/3
f 65/4/3 46/4/3 50/4/3
f 65/2/3 50/2/3 64/2/3
f 66/2/3 60/2/3 59/2/3
f 66/4/3 46/4/3 65/4/3
f 66/2/3 59/2/3 46/2/3
f 67/3/3 61/3/3 60/3/3
f 67/2/3 60/2/3 66/2/3
f 68/2/3 12/2/3 61/2/3
f 68/3/3 61/3/3 67/3/3
f 69/2/3 64/2/3 63/2/3
f 69/4/3 63/4/3 62/4/3
f 70/2/3 64/2/3 69/2/3
f 71/2/3 64/2/3 70/2/3
f 72/4/3 65/4/3 64/4/3
f 72/2/3 64/2/3 71/2/3
f 73/2/3 67/2/3 66/2/3
f 73/2/3 66/2/3 65/2/3
f 73/2/3 68/2/3 67/2/3
f 74/2/3 12/2/3 68/2/3
f 74/2/3 68/2/3 73/2/3
f 75/4/3 70/4/3 69/4/3
f 75/4/3 62/4/3 24/4/3
f 75/4/3 69/4/3 62/4/3
f 76/4/3 70/4/3 75/4/3
f 77/2/3 71/2/3 70/2/3
f 77/4/3 70/4/3 76/4/3
f 78/4/3 72/4/3 71/4/3
f 78/2/3 71/2/3 77/2/3
f 79/4/3 65/4/3 72/4/3
f 79/4/3 72/4/3 78/4/3
f 80/2/3 73/2/3 65/2/3
f 80/4/3 65/4/3 79/4/3
f 81/3/3 74/3/3 73/3/3
f 81/2/3 73/2/3 80/2/3
f 82/2/3 12/2/3 74/2/3
f 82/3/3 74/3/3 81/3/3
f 83/4/3 78/4/3 77/4/3
f 83/4/3 79/4/3 78/4/3
f 83/2/3 76/2/3 75/2/3
f 83/4/3 77/4/3 76/4/3
f 84/2/3 82/2/3 81/2/3
f 84/4/3 79/4/3 83/4/3
f 84/2/3 80/2/3 79/2/3
f 84/2/3 81/2/3 80/2/3
f 85/2/3 82/2/3 84/2/3
f 86/2/3 82/2/3 85/2/3
f 87/2/3 82/2/3 86/2/3
f 88/2/3 12/2/3 82/2/3
f 88/2/3 82/2/3 87/2/3
f 89/3/3 86/3/3 85/3/3
f 90/3/3 86/3/3 89/3/3
f 91/2/3 87/2/3 86/2/3
f 91/3/3 86/3/3 90/3/3
f 92/3/3 88/3/3 87/3/3
f 92/2/3 87/2/3 91/2/3
f 93/2/3 84/2/3 83/2/3
f 93/2/3 85/2/3 84/2/3
f 93/3/3 89/3/3 85/3/3
f 94/2/3 90/2/3 89/2/3
f 94/3/3 89/3/3 93/3/3
f 95/3/3 92/3/3 91/3/3
f 95/2/3 90/2/3 94/2/3
f 95/3/3 91/3/3 90/3/3
f 96/3/3 88/3/3 92/3/3
f 96/3/3 92/3/3 95/3/3
f 96/2/3 12/2/3 88/2/3
f 97/2/3 93/2/3 83/2/3
f 97/2/3 95/2/3 94/2/3
f 97/2/3 96/2/3 95/2/3
f 97/2/3 94/2/3 93/2/3
f 98/2/3 96/2/3 97/2/3
f 99/4/3 98/4/3 97/4/3
f 99/2/3 96/2/3 98/2/3
f 100/2/3 96/2/3 99/2/3
f 101/4/3 99/4/3 97/4/3
f 101/4/3 100/4/3 99/4/3
f 102/2/3 96/2/3 100/2/3
f 102/4/3 100/4/3 101/4/3
f 103/2/3 96/2/3 102/2/3
f 104/4/3 101/4/3 97/4/3
f 104/2/3 102/2/3 101/2/3
f 105/4/3 103/4/3 102/4/3
f 105/2/3 102/2/3 104/2/3
f 106/2/3 96/2/3 103/2/3
f 106/4/3 103/4/3 105/4/3
f 107/2/3 96/2/3 106/2/3
f 108/4/3 105/4/3 104/4/3
f 108/4/3 104/4/3 97/4/3
f 109/2/3 106/2/3 105/2/3
f 109/4/3 105/4/3 108/4/3
f 110/4/3 107/4/3 106/4/3
f 110/2/3 106/2/3 109/2/3
f 111/2/3 96/2/3 107/2/3
f 111/4/3 107/4/3 110/4/3
f 112/2/3 96/2/3 111/2/3
f 113/4/3 75/4/3 24/4/3
f 113/2/3 24/2/3 23/2/3
f 114/2/3 83/2/3 75/2/3
f 114/4/3 75/4/3 113/4/3
f 114/2/3 97/2/3 83/2/3
f 115/4/3 112/4/3 111/4/3
f 115/2/3 111/2/3 110/2/3
f 115/2/3 110/2/3 109/2/3
f 115/2/3 109/2/3 108/2/3
f 116/2/3 96/2/3 112/2/3
f 116/4/3 112/4/3 115/4/3
f 117/2/3 96/2/3 116/2/3
f 118/2/3 116/2/3 115/2/3
f 118/4/3 117/4/3 116/4/3
f 119/2/3 96/2/3 117/2/3
f 119/4/3 117/4/3 118/4/3
f 120/2/3 115/2/3 108/2/3
f 120/2/3 118/2/3 115/2/3
f 120/2/3 119/2/3 118/2/3
f 121/2/3 119/2/3 120/2/3
f 122/2/3 120/2/3 108/2/3
f 123/4/3 121/4/3 120/4/3
f 123/2/3 120/2/3 122/2/3
f 124/2/3 119/2/3 121/2/3
f 124/4/3 121/4/3 123/4/3
f 125/2/3 97/2/3 114/2/3
f 125/2/3 114/2/3 113/2/3
f 125/4/3 108/4/3 97/4/3
f 126/2/3 122/2/3 108/2/3
f 126/4/3 108/4/3 125/4/3
f 127/4/3 123/4/3 122/4/3
f 127/2/3 122/2/3 126/2/3
f 128/2/3 124/2/3 123/2/3
f 128/4/3 123/4/3 127/4/3
f 129/1/3 11/1/3 9/1/3
f 129/2/3 113/2/3 23/2/3
f 129/2/3 128/2/3 127/2/3
f 129/2/3 126/2/3 125/2/3
f 129/2/3 125/2/3 113/2/3
f 129/2/3 127/2/3 126/2/3
f 129/2/3 23/2/3 11/2/3
f 130/2/3 124/2/3 128/2/3
f 130/2/3 128/2/3 129/2/3
f 130/1/3 10/1/3 12/1/3
f 130/2/3 96/2/3 119/2/3
f 130/2/3 119/2/3 124/2/3
f 130/2/3 12/2/3 96/2/3
f 131/1/3 129/1/3 9/1/3
f 131/1/3 130/1/3 129/1/3
f 132/1/3 10/1/3 130/1/3
f 132/1/3 130/1/3 131/1/3
f 133/1/4 134/1/4 135/1/4
f 135/1/4 134/1/4 136/1/4
f 135/2/4 136/2/4 137/2/4
f 137/2/4 136/2/4 138/2/4
f 138/2/4 136/2/4 139/2/4
f 139/2/4 136/2/4 140/2/4
f 135/2/4 137/2/4 141/2/4
f 137/4/4 138/4/4 142/4/4
f 141/2/4 137/2/4 142/2/4
f 138/2/4 139/2/4 143/2/4
f 142/4/4 138/4/4 143/4/4
f 143/2/4 139/2/4 144/2/4
f 139/3/4 140/3/4 145/3/4
f 145/3/4 140/3/4 146/3/4
f 135/2/4 141/2/4 147/2/4
f 141/4/4 142/4/4 147/4/4
f 142/4/4 143/4/4 147/4/4
f 143/4/4 144/4/4 147/4/4
f 147/4/4 144/4/4 148/4/4
f 148/4/4 144/4/4 149/4/4
f 144/2/4 139/2/4 150/2/4
f 149/4/4 144/4/4 150/4/4
f 145/2/4 146/2/4 151/2/4
f 139/3/4 145/3/4 151/3/4
f 146/3/4 140/3/4 152/3/4
f 151/2/4 146/2/4 152/2/4
f 148/4/4 149/4/4 153/4/4
f 149/2/4 150/2/4 153/2/4
f 153/2/4 150/2/4 154/2/4
f 139/3/4 151/3/4 155/3/4
f 154/2/4 150/2/4 155/2/4
f 150/2/4 139/2/4 155/2/4
f 151/3/4 152/3/4 155/3/4
f 140/2/4 136/2/4 156/2/4
f 155/3/4 152/3/4 156/3/4
f 152/3/4 140/3/4 156/3/4
f 153/4/4 154/4/4 157/4/4
f 157/4/4 154/4/4 158/4/4
f 154/2/4 155/2/4 159/2/4
f 158/4/4 154/4/4 159/4/4
f 155/2/4 156/2/4 159/2/4
f 159/2/4 156/2/4 160/2/4
f 160/2/4 156/2/4 161/2/4
f 161/2/4 156/2/4 162/2/4
f 162/2/4 156/2/4 163/2/4
f 156/2/4 136/2/4 164/2/4
f 163/2/4 156/2/4 164/2/4
f 148/4/4 153/4/4 165/4/4
f 153/4/4 157/4/4 165/4/4
f 157/2/4 158/2/4 166/2/4
f 165/4/4 157/4/4 166/4/4
f 158/4/4 159/4/4 167/4/4
f 166/2/4 158/2/4 167/2/4
f 159/4/4 160/4/4 167/4/4
f 167/4/4 160/4/4 168/4/4
f 160/2/4 161/2/4 169/2/4
f 168/4/4 160/4/4 169/4/4
f 169/2/4 161/2/4 170/2/4
f 161/3/4 162/3/4 171/3/4
f 171/3/4 162/3/4 172/3/4
f 165/2/4 166/2/4 173/2/4
f 167/2/4 168/2/4 173/2/4
f 166/2/4 167/2/4 173/2/4
f 168/4/4 169/4/4 173/4/4
f 169/4/4 170/4/4 173/4/4
f 173/4/4 170/4/4 174/4/4
f 162/2/4 163/2/4 175/2/4
f 172/3/4 162/3/4 175/3/4
f 163/3/4 164/3/4 176/3/4
f 175/2/4 163/2/4 176/2/4
f 170/2/4 161/2/4 177/2/4
f 161/3/4 171/3/4 177/3/4
f 171/2/4 172/2/4 178/2/4
f 177/3/4 171/3/4 178/3/4
f 172/3/4 175/3/4 179/3/4
f 178/2/4 172/2/4 179/2/4
f 175/3/4 176/3/4 179/3/4
f 164/2/4 136/2/4 180/2/4
f 179/3/4 176/3/4 180/3/4
f 176/3/4 164/3/4 180/3/4
f 178/2/4 179/2/4 181/2/4
f 177/2/4 178/2/4 181/2/4
f 179/2/4 180/2/4 181/2/4
f 170/2/4 177/2/4 181/2/4
f 181/2/4 180/2/4 182/2/4
f 170/2/4 181/2/4 183/2/4
f 181/3/4 182/3/4 183/3/4
f 182/2/4 180/2/4 184/2/4
f 183/3/4 182/3/4 184/3/4
f 180/2/4 136/2/4 185/2/4
f 184/2/4 180/2/4 185/2/4
f 148/4/4 165/4/4 186/4/4
f 165/2/4 173/2/4 186/2/4
f 173/2/4 174/2/4 186/2/4
f 186/2/4 174/2/4 187/2/4
f 187/2/4 174/2/4 188/2/4
f 174/4/4 170/4/4 189/4/4
f 188/2/4 174/2/4 189/2/4
f 183/2/4 184/2/4 190/2/4
f 189/4/4 170/4/4 190/4/4
f 170/2/4 183/2/4 190/2/4
f 184/3/4 185/3/4 191/3/4
f 190/2/4 184/2/4 191/2/4
f 185/2/4 136/2/4 192/2/4
f 191/3/4 185/3/4 192/3/4
f 187/2/4 188/2/4 193/2/4
f 186/4/4 187/4/4 193/4/4
f 193/2/4 188/2/4 194/2/4
f 194/2/4 188/2/4 195/2/4
f 188/4/4 189/4/4 196/4/4
f 195/2/4 188/2/4 196/2/4
f 190/2/4 191/2/4 197/2/4
f 189/2/4 190/2/4 197/2/4
f 191/2/4 192/2/4 197/2/4
f 192/2/4 136/2/4 198/2/4
f 197/2/4 192/2/4 198/2/4
f 193/4/4 194/4/4 199/4/4
f 148/4/4 186/4/4 199/4/4
f 186/4/4 193/4/4 199/4/4
f 199/4/4 194/4/4 200/4/4
f 194/2/4 195/2/4 201/2/4
f 200/4/4 194/4/4 201/4/4
f 195/4/4 196/4/4 202/4/4
f 201/2/4 195/2/4 202/2/4
f 196/4/4 189/4/4 203/4/4
f 202/4/4 196/4/4 203/4/4
f 189/2/4 197/2/4 204/2/4
f 203/4/4 189/4/4 204/4/4
f 197/3/4 198/3/4 205/3/4
f 204/2/4 197/2/4 205/2/4
f 198/2/4 136/2/4 206/2/4
f 205/3/4 198/3/4 206/3/4
f 201/4/4 202/4/4 207/4/4
f 202/4/4 203/4/4 207/4/4
f 199/2/4 200/2/4 207/2/4
f 200/4/4 201/4/4 207/4/4
f 205/2/4 206/2/4 208/2/4
f 207/4/4 203/4/4 208/4/4
f 203/2/4 204/2/4 208/2/4
f 204/2/4 205/2/4 208/2/4
f 208/2/4 206/2/4 209/2/4
f 209/2/4 206/2/4 210/2/4
f 210/2/4 206/2/4 211/2/4
f 206/2/4 136/2/4 212/2/4
f 211/2/4 206/2/4 212/2/4
f 209/3/4 210/3/4 213/3/4
f 213/3/4 210/3/4 214/3/4
f 210/2/4 211/2/4 215/2/4
f 214/3/4 210/3/4 215/3/4
f 211/3/4 212/3/4 216/3/4
f 215/2/4 211/2/4 216/2/4
f 207/2/4 208/2/4 217/2/4
f 208/2/4 209/2/4 217/2/4
f 209/3/4 213/3/4 217/3/4
f 213/2/4 214/2/4 218/2/4
f 217/3/4 213/3/4 218/3/4
f 215/3/4 216/3/4 219/3/4
f 218/2/4 214/2/4 219/2/4
f 214/3/4 215/3/4 219/3/4
f 216/3/4 212/3/4 220/3/4
f 219/3/4 216/3/4 220/3/4
f 212/2/4 136/2/4 220/2/4
f 207/2/4 217/2/4 221/2/4
f 218/2/4 219/2/4 221/2/4
f 219/2/4 220/2/4 221/2/4
f 217/2/4 218/2/4 221/2/4
f 221/2/4 220/2/4 222/2/4
f 221/4/4 222/4/4 223/4/4
f 222/2/4 220/2/4 223/2/4
f 223/2/4 220/2/4 224/2/4
f 221/4/4 223/4/4 225/4/4
f 223/4/4 224/4/4 225/4/4
f 224/2/4 220/2/4 226/2/4
f 225/4/4 224/4/4 226/4/4
f 226/2/4 220/2/4 227/2/4
f 221/4/4 225/4/4 228/4/4
f 225/2/4 226/2/4 228/2/4
f 226/4/4 227/4/4 229/4/4
f 228/2/4 226/2/4 229/2/4
f 227/2/4 220/2/4 230/2/4
f 229/4/4 227/4/4 230/4/4
f 230/2/4 220/2/4 231/2/4
f 228/4/4 229/4/4 232/4/4
f 221/4/4 228/4/4 232/4/4
f 229/2/4 230/2/4 233/2/4
f 232/4/4 229/4/4 233/4/4
f 230/4/4 231/4/4 234/4/4
f 233/2/4 230/2/4 234/2/4
f 231/2/4 220/2/4 235/2/4
f 234/4/4 231/4/4 235/4/4
f 235/2/4 220/2/4 236/2/4
f 148/4/4 199/4/4 237/4/4
f 147/2/4 148/2/4 237/2/4
f 199/2/4 207/2/4 238/2/4
f 237/4/4 199/4/4 238/4/4
f 207/2/4 221/2/4 238/2/4
f 235/4/4 236/4/4 239/4/4
f 234/2/4 235/2/4 239/2/4
f 233/2/4 234/2/4 239/2/4
f 232/2/4 233/2/4 239/2/4
f 236/2/4 220/2/4 240/2/4
f 239/4/4 236/4/4 240/4/4
f 240/2/4 220/2/4 241/2/4
f 239/2/4 240/2/4 242/2/4
f 240/4/4 241/4/4 242/4/4
f 241/2/4 220/2/4 243/2/4
f 242/4/4 241/4/4 243/4/4
f 232/2/4 239/2/4 244/2/4
f 239/2/4 242/2/4 244/2/4
f 242/2/4 243/2/4 244/2/4
f 244/2/4 243/2/4 245/2/4
f 232/2/4 244/2/4 246/2/4
f 244/4/4 245/4/4 247/4/4
f 246/2/4 244/2/4 247/2/4
f 245/2/4 243/2/4 248/2/4
f 247/4/4 245/4/4 248/4/4
f 238/2/4 221/2/4 249/2/4
f 237/2/4 238/2/4 249/2/4
f 221/4/4 232/4/4 249/4/4
f 232/2/4 246/2/4 250/2/4
f 249/4/4 232/4/4 250/4/4
f 246/4/4 247/4/4 251/4/4
f 250/2/4 246/2/4 251/2/4
f 247/2/4 248/2/4 252/2/4
f 251/4/4 247/4/4 252/4/4
f 133/1/4 135/1/4 253/1/4
f 147/2/4 237/2/4 253/2/4
f 251/2/4 252/2/4 253/2/4
f 249/2/4 250/2/4 253/2/4
f 237/2/4 249/2/4 253/2/4
f 250/2/4 251/2/4 253/2/4
f 135/2/4 147/2/4 253/2/4
f 252/2/4 248/2/4 254/2/4
f 253/2/4 252/2/4 254/2/4
f 136/1/4 134/1/4 254/1/4
f 243/2/4 220/2/4 254/2/4
f 248/2/4 243/2/4 254/2/4
f 220/2/4 136/2/4 254/2/4
f 133/1/4 253/1/4 255/1/4
f 253/1/4 254/1/4 255/1/4
f 254/1/4 134/1/4 256/1/4
f 255/1/4 254/1/4 256/1/4
f 259/1/5 258/1/5 257/1/5
f 260/1/5 258/1/5 259/1/5
f 261/1/6 262/1/6 263/1/6
f 263/1/6 262/1/6 264/1/6
